<?xml version="1.0" encoding="utf-8"?>
<!-- Generator: Adobe Illustrator 18.0.0, SVG Export Plug-In . SVG Version: 6.00 Build 0)  -->
<!DOCTYPE svg PUBLIC "-//W3C//DTD SVG 1.1//EN" "http://www.w3.org/Graphics/SVG/1.1/DTD/svg11.dtd">
<svg version="1.1" id="Layer_1" xmlns="http://www.w3.org/2000/svg"  x="0px" y="0px"
	 viewBox="0 0 1400 1400" enable-background="new 0 0 1400 1400" xml:space="preserve">
<g>
	<rect fill="#86D2F4" width="1400" height="1400"/>
	<g>
		<rect x="96.9" y="87.9" fill="#B7E4F5" width="115.9" height="1242.6"/>
		<rect x="315" y="87.9" fill="#B7E4F5" width="115.9" height="1242.6"/>
		<rect x="533" y="87.9" fill="#B7E4F5" width="115.9" height="1242.6"/>
		<rect x="751" y="87.9" fill="#B7E4F5" width="115.9" height="1242.6"/>
		<rect x="969.1" y="87.9" fill="#B7E4F5" width="115.9" height="1242.6"/>
		<rect x="1187.1" y="87.9" fill="#B7E4F5" width="115.9" height="1242.6"/>
	</g>
	<g>
		<g>
			<path fill="#F29D6C" d="M700,623.5L700,623.5L700,623.5L700,623.5c-25.6,0-49.7-5.9-71.3-16.4v36.7l71.3,38.9l61-33.3v-37.8
				C742.2,619.3,721.6,623.5,700,623.5z"/>
			<path fill="#DD6162" d="M761,649.4l10.3-5.6v-36.7c-3.4,1.6-6.8,3.1-10.3,4.6V649.4z"/>
			<path fill="#F68C67" d="M700,623.5L700,623.5L700,623.5c21.6,0,42.2-4.2,61-11.8v-99H628.7v94.4
				C650.3,617.6,674.4,623.5,700,623.5L700,623.5z"/>
			<path fill="#DD6162" d="M761,512.7v99c3.5-1.4,6.9-2.9,10.3-4.6v-94.4H761z"/>
		</g>
		<g>
			<g>
				<path fill="#FCC3A1" d="M487,375.6L487,375.6c0-25.2,20.4-45.6,45.6-45.6h-11c-25.2,0-45.6,20.4-45.6,45.6v0
					c0,25.2,20.4,45.6,45.6,45.6h11C507.4,421.2,487,400.8,487,375.6z"/>
				<rect x="546" y="330" fill="#F29D6C" width="11" height="91.2"/>
				<path fill="#F29D6C" d="M532.6,330c-25.2,0-45.6,20.4-45.6,45.6v0c0,25.2,20.4,45.6,45.6,45.6H546V330H532.6z"/>
			</g>
			<path fill="#DD6162" d="M521.6,397.2c-11.9,0-21.6-9.7-21.6-21.6c0-11.9,9.7-21.6,21.6-21.6h0.4v43.2H521.6z"/>
		</g>
		<g>
			<g>
				<path fill="#F29D6C" d="M913,375.6L913,375.6c0-25.2-20.4-45.6-45.6-45.6h11c25.2,0,45.6,20.4,45.6,45.6v0
					c0,25.2-20.4,45.6-45.6,45.6h-11C892.6,421.2,913,400.8,913,375.6z"/>
				<rect x="843" y="330" fill="#F29D6C" width="11" height="91.2"/>
				<path fill="#F68C67" d="M867.4,330c25.2,0,45.6,20.4,45.6,45.6v0c0,25.2-20.4,45.6-45.6,45.6H854V330H867.4z"/>
			</g>
			<path fill="#DD6162" d="M878.4,397.2c11.9,0,21.6-9.7,21.6-21.6c0-11.9-9.7-21.6-21.6-21.6H878v43.2H878.4z"/>
		</g>
		<g>
			<g>
				<path fill="#DE665B" d="M556.6,274.1c14.5-8.3,23.5-23.7,23.5-40.5v-60.8l-16.5-11c-16.7,25.5-26.4,56.1-26.4,88.8v85.1
					l7.8-55.1L556.6,274.1z"/>
				<path fill="#F29D6C" d="M567.2,156.4c-1.2,1.8-2.5,3.5-3.6,5.4l16.5,11L567.2,156.4z"/>
				<path fill="#DE665B" d="M700,87.9L700,87.9c-54.8,0-103.3,27.1-132.8,68.6l12.9,16.4L853,290.7l9.8,45.1v-85.1
					C862.8,160.7,789.9,87.9,700,87.9z"/>
			</g>
			<g>
				<path fill="#FCC3A1" d="M567.2,420.9v-85.1v-70.1c-3.1,3.2-6.7,6.1-10.7,8.4l-11.6,6.6l-7.8,55.1v85.1
					c0,89.9,72.9,162.8,162.8,162.8h0C626.7,583.7,567.2,510.8,567.2,420.9z"/>
				<path fill="#DD6162" d="M853,290.7l-20.2-8.7v53.8v85.1c0,89.9-59.4,162.8-132.8,162.8h0c89.9,0,162.8-72.9,162.8-162.8v-85.1
					L853,290.7z"/>
			</g>
			<g>
				<path fill="#F29D6C" d="M793.3,421.1v-89.5v-66.8l-213.2-92.1v60.8c0,12.1-4.7,23.5-12.9,32.1v70.1v85.1
					c0,89.9,59.4,162.8,132.8,162.8h0c12.6,0,24.9-2.2,36.5-6.2C770,550.8,793.3,490.8,793.3,421.1z"/>
				<path fill="#F68C67" d="M793.3,264.9v66.8v89.5c0,69.8-23.4,129.8-56.8,156.4c55.6-19.4,96.3-82.2,96.3-156.5v-85.1v-53.8
					L793.3,264.9z"/>
			</g>
		</g>
		<polygon fill="none" points="832.8,321.7 853,330.5 832.3,321.5 		"/>
		<g>
			<polygon fill="none" points="700,56.9 700,56.9 700,56.9 			"/>
			<path fill="#B37029" d="M697.4,56.9c0.9,0,1.8,0,2.6,0h0c-1.1,0-2.2,0-3.3,0C569.5,59,483.1,187,526.6,306.5l10.6,29.2v-65.5
				L554,262C545.2,157.3,608.9,58.8,697.4,56.9z"/>
			<path fill="#461A10" d="M703.3,56.9c-1.1,0-2.2,0-3.3,0c0.9,0,1.8,0,2.6,0c90.3,1.9,154.8,104.5,142.7,211.6l17.4,6.3v61h0
				l10.6-29.2C916.9,187,830.5,59,703.3,56.9z"/>
		</g>
		<g>
			<path fill="#461A10" d="M580.1,172.8l265.2,95.7c1.2-10.9,1.7-21.8,1.3-32.6L580.1,172.8z"/>
			<path fill="#633413" d="M702.6,56.9c-0.9,0-1.8,0-2.6,0h0c-0.9,0-1.8,0-2.6,0c-55.5,1.2-101.2,40.4-125.4,95.3
				C557.5,184.8,550.7,223,554,262l6.9-3.4c11.7-5.7,19.1-17.7,19.1-30.7v-55.2l266.6,63.1C844,141.5,783.7,58.6,702.6,56.9z"/>
		</g>
		<path fill="#633413" d="M654.8,310h-63.7c-6.1,0-11-4.9-11-11v0c0-6.1,4.9-11,11-11h63.7c6.1,0,11,4.9,11,11v0
			C665.8,305.1,660.9,310,654.8,310z"/>
		<path fill="#594A42" d="M622.9,319.3c-11.8,0-21.5,9.6-21.5,21.5h42.9C644.4,328.9,634.8,319.3,622.9,319.3z"/>
		<path fill="#633413" d="M745.2,310h63.7c6.1,0,11-4.9,11-11v0c0-6.1-4.9-11-11-11h-63.7c-6.1,0-11,4.9-11,11v0
			C734.2,305.1,739.1,310,745.2,310z"/>
		<path fill="#594A42" d="M777.1,319.3c11.8,0,21.5,9.6,21.5,21.5h-42.9C755.6,328.9,765.2,319.3,777.1,319.3z"/>
		<path fill="#DD6162" d="M700,437.7c11.8,0,21.5-9.6,21.5-21.5h-42.9C678.5,428.1,688.2,437.7,700,437.7z"/>
		<path fill="#FFFFFF" d="M700,534.4c36.1,0,65.5-29.3,65.5-65.5H634.5C634.5,505.1,663.9,534.4,700,534.4z"/>
		<polygon fill="#F4EAD7" points="693.3,738.4 686.6,725 673,767.8 601,682.7 667.1,886.6 		"/>
		<polygon fill="#FFFAEF" points="686.6,725 686.6,725 700,682.7 628.7,643.8 601,682.7 673,767.8 		"/>
		<polygon fill="#455A66" points="594.3,783.8 537.7,843.1 700,988 667.1,886.6 667.1,886.6 601,682.7 537.7,760.4 		"/>
		<polygon fill="#F27049" points="686.6,725 693.3,738.4 667.1,886.6 667.1,886.6 700,988 700,738.4 700,682.7 686.6,725 		"/>
		<g>
			<polygon fill="#364750" points="700,802.8 700,988 700,988 			"/>
			<g>
				<polygon fill="#364750" points="537.7,843.1 594.3,783.8 537.7,760.4 601,682.7 433,752.4 359,1148.4 700,1148.4 700,988 				
					"/>
				<polygon fill="#364750" points="967,752.4 799,682.7 862.3,760.4 805.7,783.8 862.3,843.1 700,988 700,1148.4 1041,1148.4 				
					"/>
			</g>
			<polygon fill="#364750" points="700,682.7 700,802.8 700,738.4 			"/>
		</g>
		<polygon fill="#F4EAD7" points="713.4,725 706.7,738.4 732.9,886.6 799,682.7 727,767.8 		"/>
		<polygon fill="#FFFAEF" points="713.4,725 727,767.8 799,682.7 771.3,643.8 700,682.7 713.4,725 		"/>
		<polygon fill="#455A66" points="732.9,886.6 700,988 862.3,843.1 805.7,783.8 862.3,760.4 799,682.7 732.9,886.6 		"/>
		<polygon fill="#F27049" points="700,988 732.9,886.6 732.9,886.6 706.7,738.4 713.4,725 713.4,725 700,682.7 700,738.4 		"/>
		<polygon fill="#29353B" points="474.3,1148.4 474.3,853 510.4,1148.4 		"/>
		<polygon fill="#29353B" points="925.7,1148.4 925.7,853 889.6,1148.4 		"/>
		<polygon fill="#29353B" points="799,682.7 949.7,761.1 931,830.4 959,771.8 1003.5,1132.4 956,1148.4 1041,1148.4 967,752.4 		"/>
		<polygon fill="#55707A" points="601,682.7 433,752.4 359,1148.4 395,1148.4 449,767.8 		"/>
		<polygon fill="#77919D" points="601,682.7 537.7,760.4 594.3,783.8 537.7,843.1 700,988 556.3,841.8 606.3,781.1 559.7,757.8 		
			"/>
		<polygon fill="#253338" points="799,682.7 862.3,760.4 805.7,783.8 862.3,843.1 700,988 843.7,841.8 793.7,781.1 840.3,757.8 		
			"/>
		<polygon fill="#253338" points="700,988 688.5,1148.4 700,1148.4 		"/>
		<polygon fill="#253338" points="781.2,957.9 898,957.9 878.5,946.9 		"/>
	</g>
	<rect x="96.9" y="1148.4" fill="#CD6E28" width="1206.1" height="73.4"/>
	<rect x="178.3" y="1221.9" fill="#954020" width="1043.4" height="178.1"/>
	<rect x="96.9" y="1199.9" fill="#B05B27" width="1206.1" height="22"/>
	<rect x="178.3" y="1221.9" fill="#803219" width="1043.4" height="79.1"/>
	<g>
		<polygon fill="#FFFDF2" points="1265.1,1015.1 902,1015.1 920,1148.4 1289,1148.4 		"/>
		<g>
			<g>
				<path fill="#6E5E5F" d="M971.3,1046.4l-0.1-0.6c-0.2-1.2-0.5-2.4-0.9-3.4c-0.4-1-1-1.9-1.6-2.7c-0.7-0.8-1.5-1.4-2.5-1.8
					c-1-0.4-2.1-0.6-3.3-0.6c-2.8,0-4.6,1.2-5.5,3.7c-0.9,2.5-1,6.2-0.3,11.2c0.6,4,1.8,7.1,3.6,9.3c1.9,2.2,4.1,3.3,6.8,3.3
					c1.4,0,2.9-0.3,4.5-1c1.6-0.7,3.2-1.7,4.9-3.1c0.9,0.5,1.7,1.3,2.6,2.2c0.9,0.9,1.4,1.9,1.8,2.7c-0.7,0.8-1.6,1.6-2.6,2.3
					c-1,0.7-2.2,1.3-3.4,1.8c-1.2,0.5-2.5,0.9-3.9,1.2c-1.4,0.3-2.8,0.5-4.2,0.5c-2.8,0-5.3-0.5-7.4-1.6c-2.1-1.1-3.9-2.5-5.4-4.4
					c-1.5-1.8-2.7-4-3.6-6.4c-0.9-2.4-1.5-5-1.9-7.6c-0.5-3.4-0.5-6.4,0-8.9c0.5-2.5,1.3-4.6,2.5-6.3c1.2-1.7,2.7-2.9,4.5-3.8
					c1.8-0.8,3.8-1.3,6-1.3c2.2,0,4.3,0.3,6.2,0.9c1.9,0.6,3.5,1.4,4.9,2.4c1.4,1,2.5,2.2,3.4,3.6c0.9,1.4,1.4,2.8,1.7,4.4
					c0.4,2.8-0.8,4.2-3.7,4.2c-0.4,0-0.9,0-1.4-0.1C972.5,1046.7,972,1046.6,971.3,1046.4z"/>
				<path fill="#6E5E5F" d="M1012.5,1032l3.6,24.7c0.7,4.7-0.1,8.4-2.3,10.9c-2.2,2.6-5.7,3.8-10.5,3.8c-4.7,0-8.6-1.3-11.6-3.8
					c-3-2.6-4.8-6.2-5.5-10.9l-3.6-24.6l0.3-0.4h2.9c1.5,0,2.7,0.4,3.6,1.2c0.8,0.8,1.4,2,1.6,3.7l2.9,20.2c0.8,5.7,3.7,8.6,8.5,8.6
					c4.9,0,6.9-2.9,6-8.6l-3.6-24.7c1-0.2,2.3-0.3,3.8-0.3C1010.1,1031.8,1011.4,1031.9,1012.5,1032z"/>
				<path fill="#6E5E5F" d="M1023.2,1067.2c0-1.1,0.2-2.1,0.6-3.2c0.4-1.1,1-1.9,1.6-2.6c4.3,2.5,8.3,3.7,12.1,3.7
					c1.8,0,3.2-0.4,4.2-1.3c0.9-0.9,1.3-1.9,1.1-3.2c-0.4-2.2-2.1-3.9-5.2-5.2l-7.2-2.8c-2.8-1.1-5-2.5-6.6-4.2
					c-1.6-1.7-2.5-3.7-2.9-5.9c-0.3-1.7-0.1-3.2,0.3-4.6c0.5-1.4,1.2-2.6,2.3-3.6c1.1-1,2.4-1.8,4-2.3c1.6-0.6,3.4-0.8,5.5-0.8
					c4.2,0,8.4,1,12.8,3.1c0.2,2.3-0.4,4.2-1.8,5.7c-4.1-1.8-7.6-2.6-10.4-2.6c-1.8,0-3.2,0.4-4,1.2c-0.8,0.8-1.2,1.8-1,3
					c0.3,1.7,1.8,3.1,4.7,4.3l7.2,2.8c2.9,1.1,5.3,2.6,7,4.5c1.8,1.8,2.8,4,3.2,6.4c0.3,1.7,0.2,3.3-0.2,4.7
					c-0.4,1.5-1.1,2.7-2.2,3.7c-1.1,1-2.5,1.9-4.3,2.4c-1.8,0.6-3.9,0.9-6.4,0.9C1032.7,1071.4,1027.9,1070,1023.2,1067.2z"/>
				<path fill="#6E5E5F" d="M1068.2,1042.5l4.4,28.2c-1.1,0.2-2.4,0.3-3.8,0.3c-1.5,0-2.8-0.1-3.9-0.3l-4.3-28.2l-0.6-4.2l-3.5,0.1
					h-6.3c-0.3-0.9-0.6-2-0.8-3.2c-0.2-1.2-0.2-2.2-0.2-3.2h27.3c0.4,0.9,0.7,2,0.9,3.1c0.2,1.1,0,1.9-0.6,2.5
					c-0.6,0.5-1.6,0.8-3,0.8h-2.7l-3.5-0.1L1068.2,1042.5z"/>
				<path fill="#6E5E5F" d="M1089.8,1068c-4.6-3.5-7.5-9-8.7-16.6c-0.5-3.2-0.6-6-0.2-8.5c0.4-2.5,1.1-4.6,2.3-6.3
					c1.2-1.7,2.7-3,4.6-3.9c1.9-0.9,4.2-1.3,6.8-1.3c2.6,0,5,0.4,7.1,1.3c2.2,0.9,4.1,2.2,5.8,3.9c1.7,1.7,3.1,3.8,4.2,6.3
					c1.1,2.5,2,5.3,2.5,8.5c0.5,3.2,0.6,6,0.2,8.5c-0.3,2.5-1.1,4.6-2.2,6.3c-1.1,1.7-2.7,3-4.6,3.9c-1.9,0.9-4.2,1.4-6.7,1.4
					C1096.7,1071.4,1093,1070.3,1089.8,1068z M1106.1,1051.3c-1.5-9.4-5.1-14.2-10.7-14.2s-7.7,4.7-6.2,14.2
					c1.5,9.4,5,14.2,10.7,14.2C1105.5,1065.5,1107.6,1060.8,1106.1,1051.3z"/>
				<path fill="#6E5E5F" d="M1123.3,1070.5l-3.2-38.4c1.5-0.3,3.2-0.4,5-0.4s3.5,0.1,5,0.4l6.9,15.6c1.9,4.7,3.2,7.9,3.8,9.7h0.4
					c0-1.8,0.2-5,0.6-9.7l1.8-15.6c1.6-0.3,3.2-0.4,5-0.4c1.7,0,3.4,0.1,5.1,0.4l9.4,38.4c-1,0.3-2.2,0.4-3.6,0.4
					c-1.4,0-2.6-0.1-3.6-0.2l-4.1-18.2c-1.1-4.7-1.9-8.8-2.5-12.2h-0.4l-2.7,24.6c-1.2,0.2-2.5,0.3-3.9,0.3c-1.4,0-2.7-0.1-4-0.3
					l-10.7-24.6h-0.4c0.7,4.6,1.2,8.7,1.5,12.2l1.9,18.2c-0.9,0.2-2.1,0.2-3.5,0.2C1125.6,1070.9,1124.4,1070.8,1123.3,1070.5z"/>
				<path fill="#6E5E5F" d="M1177.4,1061l0.5,3.5l4-0.1h14c0.2,1.2,0.3,2.1,0.3,2.8c0,2.4-1.4,3.6-4.3,3.6h-16.1
					c-1.4,0-2.5-0.4-3.4-1.2c-0.9-0.8-1.5-1.9-1.7-3.3l-5.6-33.8l0.3-0.4h23.8c0.3,0.9,0.6,1.9,0.8,3c0.2,1.1,0.2,2.2-0.1,3.4h-16.3
					l0.7,3.9l1,5.8l3.7-0.1h9.7c0.5,0.9,0.8,1.9,1,3.1c0.2,1.2,0.2,2.2,0.1,3.1h-13.4L1177.4,1061z"/>
				<path fill="#6E5E5F" d="M1226.4,1043.7c0.2,1.2,0.2,2.4,0.1,3.5c-0.2,1.1-0.5,2.1-1,3c-0.5,0.9-1.1,1.7-1.9,2.3
					c-0.7,0.7-1.6,1.2-2.6,1.5c1.1,0.3,2,0.9,2.8,1.8c0.8,0.8,1.6,1.9,2.3,3.2l3.1,5.7c0.5,0.9,1,1.8,1.6,2.4
					c0.5,0.7,1.2,1.2,1.8,1.7c-0.4,0.7-1,1.2-1.9,1.6c-0.9,0.4-1.9,0.6-3.1,0.6c-1.1,0-2.1-0.3-2.9-1c-0.8-0.7-1.6-1.8-2.5-3.5
					l-3.6-6.7c-0.7-1.3-1.5-2.3-2.4-3c-0.9-0.7-2.1-1-3.6-1h-3.5l2.5,14.8c-0.5,0.1-1.1,0.1-1.7,0.2s-1.3,0.1-2.1,0.1
					c-1.4,0-2.7-0.1-3.8-0.3l-6.5-38.3l0.3-0.3c3.1-0.1,5.7-0.1,7.8-0.2c2.1,0,3.9-0.1,5.2-0.1c4.1,0,7.5,1,10.3,3
					C1224,1036.8,1225.7,1039.8,1226.4,1043.7z M1206.1,1037.5l2.1,12.4c2-0.1,3.7-0.2,5.2-0.2c4.1,0,5.8-2,5.1-6.1
					c-0.7-4.1-3.1-6.1-7.2-6.1c-1.2,0-2.2,0-3.1,0C1207.4,1037.6,1206.7,1037.5,1206.1,1037.5z"/>
			</g>
			<g>
				<path fill="#6E5E5F" d="M996.1,1127.6c0-1.1,0.2-2.2,0.6-3.3c0.4-1.1,1-2,1.7-2.6c4.3,2.5,8.4,3.8,12.2,3.8
					c1.8,0,3.2-0.4,4.2-1.3c1-0.9,1.3-1.9,1.1-3.2c-0.4-2.2-2.1-4-5.2-5.2l-7.2-2.9c-2.8-1.1-5.1-2.5-6.7-4.3
					c-1.6-1.7-2.6-3.7-2.9-6c-0.2-1.7-0.1-3.3,0.3-4.7c0.5-1.4,1.2-2.6,2.3-3.6c1.1-1,2.5-1.8,4.1-2.4c1.6-0.6,3.5-0.9,5.5-0.9
					c4.2,0,8.5,1,12.9,3.1c0.2,2.3-0.4,4.3-1.8,5.8c-4.1-1.8-7.6-2.7-10.5-2.7c-1.8,0-3.2,0.4-4,1.2c-0.9,0.8-1.2,1.9-1,3.1
					c0.3,1.7,1.8,3.2,4.7,4.3l7.2,2.9c2.9,1.1,5.3,2.7,7.1,4.5c1.8,1.9,2.8,4,3.2,6.5c0.3,1.7,0.2,3.3-0.2,4.8
					c-0.4,1.5-1.1,2.7-2.2,3.8c-1.1,1.1-2.5,1.9-4.3,2.5c-1.8,0.6-3.9,0.9-6.5,0.9C1005.7,1131.8,1000.9,1130.4,996.1,1127.6z"/>
				<path fill="#6E5E5F" d="M1038.4,1121.2l0.5,3.6l4-0.1h14.1c0.2,1.2,0.3,2.2,0.3,2.8c-0.1,2.5-1.5,3.7-4.4,3.7h-16.2
					c-1.4,0-2.5-0.4-3.4-1.2c-0.9-0.8-1.5-1.9-1.7-3.4l-5.1-34.3l0.3-0.4h24c0.3,1,0.6,2,0.8,3.1c0.2,1.1,0.1,2.2-0.1,3.4h-16.4
					l0.6,3.9l0.9,5.9l3.7-0.1h9.7c0.4,0.9,0.8,1.9,0.9,3.2c0.2,1.2,0.2,2.3,0,3.2h-13.5L1038.4,1121.2z"/>
				<path fill="#6E5E5F" d="M1088,1103.6c0.2,1.3,0.2,2.5,0,3.6c-0.2,1.1-0.5,2.1-1.1,3c-0.5,0.9-1.1,1.7-1.9,2.4
					c-0.8,0.7-1.6,1.2-2.6,1.5c1.1,0.3,2,0.9,2.8,1.8c0.8,0.8,1.6,1.9,2.3,3.3l3,5.8c0.5,1,1,1.8,1.5,2.5c0.5,0.7,1.1,1.3,1.8,1.7
					c-0.4,0.7-1,1.2-1.9,1.7c-0.9,0.4-1.9,0.6-3.1,0.6c-1.1,0-2.1-0.3-2.9-1c-0.8-0.7-1.6-1.9-2.4-3.5l-3.5-6.8
					c-0.7-1.3-1.5-2.4-2.4-3.1c-0.9-0.7-2.1-1.1-3.6-1.1h-3.5l2.3,15.1c-0.5,0.1-1.1,0.1-1.8,0.2s-1.4,0.1-2.1,0.1
					c-1.4,0-2.7-0.1-3.8-0.3l-5.9-38.9l0.4-0.3c3.1-0.1,5.7-0.1,7.9-0.2c2.2,0,3.9-0.1,5.2-0.1c4.1,0,7.6,1,10.3,3.1
					C1085.7,1096.7,1087.4,1099.7,1088,1103.6z M1067.6,1097.4l1.9,12.6c2-0.1,3.7-0.2,5.3-0.2c4.1,0,5.8-2.1,5.2-6.2
					c-0.6-4.1-3-6.2-7.1-6.2c-1.2,0-2.2,0-3.1,0C1069,1097.5,1068.3,1097.4,1067.6,1097.4z"/>
				<path fill="#6E5E5F" d="M1111.1,1124.4l3.2-32.5c0.7-0.2,1.8-0.3,3.2-0.3c1.4,0,2.7,0.2,3.8,0.5l0.4,0.5l-5,38.5
					c-1.5,0.2-3.3,0.3-5.2,0.3s-3.4-0.2-4.4-0.7c-0.9-0.5-1.7-1.4-2.3-2.8l-15.6-35.2c1.6-0.8,3-1.1,4.3-1.1c1.3,0,2.3,0.3,3,0.9
					c0.7,0.6,1.4,1.6,1.9,2.9l8.1,18.4c1.3,2.9,2.6,6.3,4,10.2C1110.7,1124.2,1110.9,1124.4,1111.1,1124.4z"/>
				<path fill="#6E5E5F" d="M1133.5,1131l-6.3-39.2c0.9-0.2,2.2-0.3,3.7-0.3s2.9,0.1,4,0.3l6.3,39.2c-1.1,0.2-2.4,0.3-3.9,0.3
					C1135.8,1131.3,1134.5,1131.2,1133.5,1131z"/>
				<path fill="#6E5E5F" d="M1167.9,1106.4l-0.1-0.6c-0.2-1.3-0.5-2.4-1-3.5c-0.4-1-1-2-1.7-2.7c-0.7-0.8-1.5-1.4-2.5-1.8
					c-1-0.4-2.1-0.7-3.4-0.7c-2.8,0-4.6,1.2-5.5,3.7c-0.9,2.5-0.9,6.3,0,11.4c0.7,4.1,2,7.2,3.9,9.4c1.9,2.2,4.2,3.4,6.9,3.4
					c1.4,0,2.9-0.3,4.5-1c1.6-0.7,3.2-1.7,4.9-3.2c0.9,0.5,1.8,1.3,2.7,2.2c0.9,1,1.5,1.9,1.8,2.8c-0.7,0.8-1.6,1.6-2.6,2.3
					c-1,0.7-2.1,1.3-3.4,1.9c-1.2,0.5-2.5,1-3.9,1.3c-1.4,0.3-2.8,0.5-4.2,0.5c-2.8,0-5.3-0.5-7.5-1.6c-2.1-1.1-4-2.6-5.5-4.4
					c-1.6-1.9-2.8-4-3.8-6.5c-1-2.4-1.7-5-2.1-7.7c-0.6-3.4-0.6-6.4-0.2-9c0.4-2.6,1.2-4.7,2.4-6.4c1.2-1.7,2.6-3,4.4-3.8
					c1.8-0.9,3.8-1.3,6-1.3c2.3,0,4.3,0.3,6.3,0.9c1.9,0.6,3.6,1.4,5,2.5c1.4,1,2.6,2.3,3.5,3.7c0.9,1.4,1.5,2.9,1.8,4.5
					c0.5,2.9-0.7,4.3-3.7,4.3c-0.4,0-0.9,0-1.4-0.1C1169.1,1106.7,1168.5,1106.6,1167.9,1106.4z"/>
				<path fill="#6E5E5F" d="M1192,1121.2l0.5,3.6l4-0.1h14.1c0.2,1.2,0.3,2.2,0.3,2.8c0,2.5-1.5,3.7-4.3,3.7h-16.2
					c-1.4,0-2.5-0.4-3.5-1.2c-0.9-0.8-1.5-1.9-1.7-3.4l-5.7-34.3l0.3-0.4h24c0.4,1,0.6,2,0.8,3.1c0.2,1.1,0.2,2.2-0.1,3.4H1188
					l0.7,3.9l1,5.9l3.7-0.1h9.7c0.5,0.9,0.8,1.9,1,3.2c0.2,1.2,0.2,2.3,0.1,3.2h-13.5L1192,1121.2z"/>
			</g>
		</g>
	</g>
	<polygon fill="#FFE9B5" points="902,1015.1 870.5,1148.4 920,1148.4 	"/>
	<polygon fill="#F1CD8C" points="889.6,1148.4 909,1063.5 920,1148.4 	"/>
	<g>
		<g>
			<path fill="#61240D" d="M376.5,1288.1H261c-4.1,0-7.5-3.4-7.5-7.5s3.4-7.5,7.5-7.5h115.5c4.1,0,7.5,3.4,7.5,7.5
				S380.7,1288.1,376.5,1288.1z"/>
		</g>
		<g>
			<path fill="#61240D" d="M451.4,1288.1h-31c-4.1,0-7.5-3.4-7.5-7.5s3.4-7.5,7.5-7.5h31c4.1,0,7.5,3.4,7.5,7.5
				S455.6,1288.1,451.4,1288.1z"/>
		</g>
		<g>
			<path fill="#61240D" d="M850.4,1288.1h-222c-4.1,0-7.5-3.4-7.5-7.5s3.4-7.5,7.5-7.5h222c4.1,0,7.5,3.4,7.5,7.5
				S854.6,1288.1,850.4,1288.1z"/>
		</g>
		<g>
			<path fill="#61240D" d="M927.4,1288.1h-32c-4.1,0-7.5-3.4-7.5-7.5s3.4-7.5,7.5-7.5h32c4.1,0,7.5,3.4,7.5,7.5
				S931.6,1288.1,927.4,1288.1z"/>
		</g>
		<g>
			<path fill="#61240D" d="M598.4,1288.1h-11c-4.1,0-7.5-3.4-7.5-7.5s3.4-7.5,7.5-7.5h11c4.1,0,7.5,3.4,7.5,7.5
				S602.6,1288.1,598.4,1288.1z"/>
		</g>
		<g>
			<path fill="#61240D" d="M1138.7,1288.1h-45.8c-4.1,0-7.5-3.4-7.5-7.5s3.4-7.5,7.5-7.5h45.8c4.1,0,7.5,3.4,7.5,7.5
				S1142.8,1288.1,1138.7,1288.1z"/>
		</g>
		<g>
			<path fill="#61240D" d="M664.5,1330.5H420.4c-4.1,0-7.5-3.4-7.5-7.5s3.4-7.5,7.5-7.5h244.1c4.1,0,7.5,3.4,7.5,7.5
				S668.7,1330.5,664.5,1330.5z"/>
		</g>
		<g>
			<path fill="#61240D" d="M739.4,1330.5h-35.3c-4.1,0-7.5-3.4-7.5-7.5s3.4-7.5,7.5-7.5h35.3c4.1,0,7.5,3.4,7.5,7.5
				S743.6,1330.5,739.4,1330.5z"/>
		</g>
		<g>
			<path fill="#61240D" d="M1006.3,1330.5H880.4c-4.1,0-7.5-3.4-7.5-7.5s3.4-7.5,7.5-7.5h125.9c4.1,0,7.5,3.4,7.5,7.5
				S1010.5,1330.5,1006.3,1330.5z"/>
		</g>
		<g>
			<path fill="#61240D" d="M1139,1330.5h-78.3c-4.1,0-7.5-3.4-7.5-7.5s3.4-7.5,7.5-7.5h78.3c4.1,0,7.5,3.4,7.5,7.5
				S1143.1,1330.5,1139,1330.5z"/>
		</g>
		<g>
			<path fill="#61240D" d="M462,1372.1H342c-4.1,0-7.5-3.4-7.5-7.5s3.4-7.5,7.5-7.5h120c4.1,0,7.5,3.4,7.5,7.5
				S466.2,1372.1,462,1372.1z"/>
		</g>
		<g>
			<path fill="#61240D" d="M553.5,1372.1h-51c-4.1,0-7.5-3.4-7.5-7.5s3.4-7.5,7.5-7.5h51c4.1,0,7.5,3.4,7.5,7.5
				S557.7,1372.1,553.5,1372.1z"/>
		</g>
		<g>
			<path fill="#61240D" d="M1013.8,1372.1H704.1c-4.1,0-7.5-3.4-7.5-7.5s3.4-7.5,7.5-7.5h309.6c4.1,0,7.5,3.4,7.5,7.5
				S1017.9,1372.1,1013.8,1372.1z"/>
		</g>
	</g>
	<rect x="52.1" y="70.1" fill="#37A3DB" width="366" height="520.5"/>
	<rect x="94.1" y="112.1" fill="#B8E5F7" width="282" height="436.5"/>
	<g>
		<rect x="245.3" y="319.9" fill="#86D2F4" width="98.8" height="52.4"/>
		<rect x="122.7" y="394" fill="#86D2F4" width="98.8" height="89.5"/>
		<path fill="#86D2F4" d="M130.5,224.5h83.1c4.3,0,7.8-3.5,7.8-7.8c0-4.3-3.5-7.8-7.8-7.8h-83.1c-4.3,0-7.8,3.5-7.8,7.8
			C122.7,221,126.2,224.5,130.5,224.5z"/>
		<path fill="#86D2F4" d="M191.9,178.4H275c4.3,0,7.8-3.5,7.8-7.8s-3.5-7.8-7.8-7.8h-83.1c-4.3,0-7.8,3.5-7.8,7.8
			S187.5,178.4,191.9,178.4z"/>
		<path fill="#86D2F4" d="M130.5,261.5h205.9c4.3,0,7.8-3.5,7.8-7.8c0-4.3-3.5-7.8-7.8-7.8H130.5c-4.3,0-7.8,3.5-7.8,7.8
			C122.7,258,126.2,261.5,130.5,261.5z"/>
		<path fill="#86D2F4" d="M130.5,298.6h206c4.3,0,7.8-3.5,7.8-7.8s-3.5-7.8-7.8-7.8h-206c-4.3,0-7.8,3.5-7.8,7.8
			S126.2,298.6,130.5,298.6z"/>
		<path fill="#86D2F4" d="M213.6,319.9h-83.1c-4.3,0-7.8,3.5-7.8,7.8v0c0,4.3,3.5,7.8,7.8,7.8h83.1c4.3,0,7.8-3.5,7.8-7.8v0
			C221.4,323.4,217.9,319.9,213.6,319.9z"/>
		<path fill="#86D2F4" d="M213.6,357h-83.1c-4.3,0-7.8,3.5-7.8,7.8c0,4.3,3.5,7.8,7.8,7.8h83.1c4.3,0,7.8-3.5,7.8-7.8
			C221.4,360.5,217.9,357,213.6,357z"/>
		<path fill="#86D2F4" d="M336.2,394h-83.1c-4.3,0-7.8,3.5-7.8,7.8c0,4.3,3.5,7.8,7.8,7.8h83.1c4.3,0,7.8-3.5,7.8-7.8
			C344.1,397.5,340.6,394,336.2,394z"/>
		<path fill="#86D2F4" d="M336.2,431.3h-83.1c-4.3,0-7.8,3.5-7.8,7.8v0c0,4.3,3.5,7.8,7.8,7.8h83.1c4.3,0,7.8-3.5,7.8-7.8v0
			C344.1,434.8,340.6,431.3,336.2,431.3z"/>
		<path fill="#86D2F4" d="M296.4,468.6h-43.2c-4.3,0-7.8,3.5-7.8,7.8c0,4.3,3.5,7.8,7.8,7.8h43.2c4.3,0,7.8-3.5,7.8-7.8
			C304.2,472.1,300.7,468.6,296.4,468.6z"/>
	</g>
</g>
</svg>
