<?xml version="1.0" encoding="utf-8"?>
<!-- Generator: Adobe Illustrator 16.0.0, SVG Export Plug-In . SVG Version: 6.00 Build 0)  -->
<!DOCTYPE svg PUBLIC "-//W3C//DTD SVG 1.1//EN" "http://www.w3.org/Graphics/SVG/1.1/DTD/svg11.dtd">
<svg version="1.1" xmlns="http://www.w3.org/2000/svg" xmlns:xlink="http://www.w3.org/1999/xlink" x="0px" y="0px"
	 width="140.167px" height="97.333px" viewBox="0 0 140.167 97.333" enable-background="new 0 0 140.167 97.333"
	 xml:space="preserve">
<g id="Layer_1">
	<path fill="#F4F4F4" stroke="#A7A9AC" stroke-miterlimit="10" d="M122.167,75.077c0,2.762-2.238,5-5,5H6.833c-2.761,0-5-2.238-5-5
		V7.244c0-2.762,2.239-5,5-5h110.333c2.762,0,5,2.238,5,5V75.077z"/>
	<path fill="none" stroke="#E4334D" stroke-linecap="round" stroke-miterlimit="10" d="M15.881,62.931
		c0,0,11.254-26.124,21.703-22.707c10.449,3.416,14.87,15.674,20.697,7.435c5.828-8.239,8.44-22.104,19.492-15.272
		c11.053,6.832,10.852,18.488,18.287,9.445s12.057-26.325,12.057-26.325"/>
	<circle fill="#F4F4F4" stroke="#A7A9AC" stroke-miterlimit="10" cx="122.167" cy="80.077" r="16.5"/>
	
		<line fill="none" stroke="#E4334D" stroke-linecap="round" stroke-miterlimit="10" x1="118.292" y1="88.75" x2="118.292" y2="73.719"/>
	
		<line fill="none" stroke="#E4334D" stroke-linecap="round" stroke-miterlimit="10" x1="122.792" y1="88.75" x2="122.792" y2="69.358"/>
	
		<line fill="none" stroke="#E4334D" stroke-linecap="round" stroke-miterlimit="10" x1="127.292" y1="88.75" x2="127.292" y2="80.028"/>
</g>
<g id="Layer_2">
</g>
</svg>
