<?xml version="1.0" encoding="utf-8"?>
<!-- Generator: Adobe Illustrator 16.0.0, SVG Export Plug-In . SVG Version: 6.00 Build 0)  -->
<!DOCTYPE svg PUBLIC "-//W3C//DTD SVG 1.1//EN" "http://www.w3.org/Graphics/SVG/1.1/DTD/svg11.dtd">
<svg version="1.1" id="Layer_1" xmlns="http://www.w3.org/2000/svg" xmlns:xlink="http://www.w3.org/1999/xlink" x="0px" y="0px"
	 width="77.167px" height="80.833px" viewBox="0 0 77.167 80.833" enable-background="new 0 0 77.167 80.833" xml:space="preserve">
<path fill="#F4F4F4" stroke="#E6E7E8" stroke-miterlimit="10" d="M75.333,74.489c0,2.762-2.238,5-5,5H6.667c-2.762,0-5-2.238-5-5
	V63.823c0-2.762,2.238-5,5-5h63.666c2.762,0,5,2.238,5,5V74.489z"/>
<path fill="#E4334D" d="M70.834,69.156c0,2.485-2.015,4.5-4.5,4.5l0,0c-2.485,0-4.5-2.015-4.5-4.5l0,0c0-2.485,2.015-4.5,4.5-4.5
	l0,0C68.819,64.656,70.834,66.671,70.834,69.156L70.834,69.156z"/>
<path fill="#F4F4F4" stroke="#E6E7E8" stroke-miterlimit="10" d="M75.333,45.489c0,2.762-2.238,5-5,5H6.667c-2.762,0-5-2.238-5-5
	V34.823c0-2.762,2.238-5,5-5h63.666c2.762,0,5,2.238,5,5V45.489z"/>
<path fill="#E4334D" d="M70.834,40.156c0,2.485-2.015,4.5-4.5,4.5l0,0c-2.485,0-4.5-2.015-4.5-4.5l0,0c0-2.485,2.015-4.5,4.5-4.5
	l0,0C68.819,35.656,70.834,37.671,70.834,40.156L70.834,40.156z"/>
<path fill="#F4F4F4" stroke="#E6E7E8" stroke-miterlimit="10" d="M75.333,17.322c0,2.762-2.238,5-5,5H6.667c-2.762,0-5-2.238-5-5
	V6.656c0-2.762,2.238-5,5-5h63.666c2.762,0,5,2.238,5,5V17.322z"/>
<path fill="#E4334D" d="M70.834,11.989c0,2.485-2.015,4.5-4.5,4.5l0,0c-2.485,0-4.5-2.015-4.5-4.5l0,0c0-2.485,2.015-4.5,4.5-4.5
	l0,0C68.819,7.489,70.834,9.504,70.834,11.989L70.834,11.989z"/>
</svg>
