<?xml version="1.0" encoding="utf-8"?>
<!-- Generator: Adobe Illustrator 16.0.0, SVG Export Plug-In . SVG Version: 6.00 Build 0)  -->
<!DOCTYPE svg PUBLIC "-//W3C//DTD SVG 1.1//EN" "http://www.w3.org/Graphics/SVG/1.1/DTD/svg11.dtd">
<svg version="1.1" id="Layer_1" xmlns="http://www.w3.org/2000/svg" xmlns:xlink="http://www.w3.org/1999/xlink" x="0px" y="0px"
	 width="101px" height="62.5px" viewBox="0 0 101 62.5" enable-background="new 0 0 101 62.5" xml:space="preserve">
<path fill="#F4F4F4" stroke="#A7A9AC" stroke-miterlimit="10" d="M71.614,44.098c0,1.594-1.291,2.885-2.886,2.885H5.068
	c-1.592,0-2.885-1.291-2.885-2.885V4.958c0-1.594,1.293-2.885,2.885-2.885h63.66c1.595,0,2.886,1.291,2.886,2.885V44.098z"/>
<path fill="none" stroke="#A7A9AC" stroke-miterlimit="10" d="M36.898,46.982c0,0-7.814,13.351-12.564,13.184"/>
<path fill="none" stroke="#A7A9AC" stroke-miterlimit="10" d="M36.898,46.982c0,0,7.814,13.351,12.564,13.184"/>
<path fill="#F4F4F4" stroke="#A7A9AC" stroke-miterlimit="10" d="M98.822,54.5c0,1.104-0.896,2-2,2h-13.5c-1.105,0-2-0.896-2-2
	V28.375c0-1.104,0.895-2,2-2h13.5c1.104,0,2,0.896,2,2V54.5z"/>
<path fill="#E4334D" d="M92.51,32.934c0,1.105-0.896,2-2,2h-0.875c-1.105,0-2-0.895-2-2v-0.875c0-1.104,0.895-2,2-2h0.875
	c1.104,0,2,0.896,2,2V32.934z"/>
<path fill="#F4F4F4" stroke="#A7A9AC" stroke-miterlimit="10" d="M96.863,39.333c0,0.529-0.429,0.958-0.958,0.958H84.238
	c-0.529,0-0.958-0.429-0.958-0.958l0,0c0-0.528,0.429-0.958,0.958-0.958h11.667C96.435,38.375,96.863,38.805,96.863,39.333
	L96.863,39.333z"/>
</svg>
