<?xml version="1.0" encoding="utf-8"?>
<!-- Generator: Adobe Illustrator 16.0.0, SVG Export Plug-In . SVG Version: 6.00 Build 0)  -->
<!DOCTYPE svg PUBLIC "-//W3C//DTD SVG 1.1//EN" "http://www.w3.org/Graphics/SVG/1.1/DTD/svg11.dtd">
<svg version="1.1" xmlns="http://www.w3.org/2000/svg" xmlns:xlink="http://www.w3.org/1999/xlink" x="0px" y="0px"
	 width="147.417px" height="90.5px" viewBox="0 0 147.417 90.5" enable-background="new 0 0 147.417 90.5" xml:space="preserve">
<g id="Layer_1">
	<path fill="#F4F4F4" stroke="#BCBEC0" stroke-miterlimit="10" d="M118.641,29.824c0,1.78-1.445,3.222-3.225,3.222h-10.475
		c-1.781,0-3.223-1.442-3.223-3.222V5.489c0-1.78,1.441-3.223,3.223-3.223h10.475c1.779,0,3.225,1.443,3.225,3.223V29.824z"/>
	<path fill="#F4F4F4" stroke="#BCBEC0" stroke-miterlimit="10" d="M85.152,58.863c0,1.78-1.442,3.223-3.224,3.223H10.806
		c-1.778,0-3.223-1.442-3.223-3.223V15.138c0-1.781,1.444-3.223,3.223-3.223h71.122c1.781,0,3.224,1.442,3.224,3.223V58.863z"/>
	<path fill="none" stroke="#A7A9AC" stroke-miterlimit="10" d="M3.06,62.086h87.128c0,0,0.538,1.289-1.504,2.256
		c-2.041,0.967-83.799,0-83.799,0S3.167,64.342,3.06,62.086z"/>
	<g id="lines_code_3_" display="none">
		
			<line display="inline" fill="none" stroke="#E4334D" stroke-linecap="round" stroke-miterlimit="10" x1="15.077" y1="15.854" x2="77.688" y2="15.854"/>
		
			<line display="inline" fill="none" stroke="#E4334D" stroke-linecap="round" stroke-miterlimit="10" x1="15.077" y1="19.617" x2="35.343" y2="19.617"/>
		
			<line display="inline" fill="none" stroke="#E4334D" stroke-linecap="round" stroke-miterlimit="10" x1="53.981" y1="19.383" x2="77.688" y2="19.383"/>
		
			<line display="inline" fill="none" stroke="#F5EF7A" stroke-linecap="round" stroke-miterlimit="10" x1="15.077" y1="23.364" x2="34.38" y2="23.364"/>
		
			<line display="inline" fill="none" stroke="#F5EF7A" stroke-linecap="round" stroke-miterlimit="10" x1="36.73" y1="23.364" x2="56.035" y2="23.364"/>
		
			<line display="inline" fill="none" stroke="#F5EF7A" stroke-linecap="round" stroke-miterlimit="10" x1="58.385" y1="23.364" x2="77.688" y2="23.364"/>
		
			<line display="inline" fill="none" stroke="#6AC5AD" stroke-linecap="round" stroke-miterlimit="10" x1="15.077" y1="27.139" x2="77.688" y2="27.139"/>
		
			<line display="inline" fill="none" stroke="#6AC5AD" stroke-linecap="round" stroke-miterlimit="10" x1="15.077" y1="30.9" x2="56.455" y2="30.9"/>
		
			<line display="inline" fill="none" stroke="#F5EF7A" stroke-linecap="round" stroke-miterlimit="10" x1="15.077" y1="34.662" x2="35.343" y2="34.662"/>
		
			<line display="inline" fill="none" stroke="#6AC5AD" stroke-linecap="round" stroke-miterlimit="10" x1="53.981" y1="34.662" x2="77.688" y2="34.662"/>
		
			<line display="inline" fill="none" stroke="#E4334D" stroke-linecap="round" stroke-miterlimit="10" x1="15.077" y1="38.424" x2="34.38" y2="38.424"/>
		<path display="inline" fill="none" stroke="#F58422" stroke-linecap="round" stroke-miterlimit="10" d="M35.706,42.184"/>
		<path display="inline" fill="none" stroke="#F58422" stroke-linecap="round" stroke-miterlimit="10" d="M15.077,42.184"/>
		<path display="inline" fill="none" stroke="#E4334D" stroke-linecap="round" stroke-miterlimit="10" d="M35.343,46.608"/>
		<path display="inline" fill="none" stroke="#E4334D" stroke-linecap="round" stroke-miterlimit="10" d="M15.077,46.608"/>
		
			<line display="inline" fill="none" stroke="#F5EF7A" stroke-linecap="round" stroke-miterlimit="10" x1="15.077" y1="50.357" x2="34.38" y2="50.357"/>
		
			<line display="inline" fill="none" stroke="#F5EF7A" stroke-linecap="round" stroke-miterlimit="10" x1="37.107" y1="50.357" x2="56.411" y2="50.357"/>
		
			<line display="inline" fill="none" stroke="#F5EF7A" stroke-linecap="round" stroke-miterlimit="10" x1="59.334" y1="50.357" x2="77.688" y2="50.357"/>
		
			<line display="inline" fill="none" stroke="#6AC5AD" stroke-linecap="round" stroke-miterlimit="10" x1="15.077" y1="54.234" x2="77.688" y2="54.234"/>
		
			<line display="inline" fill="none" stroke="#F58422" stroke-linecap="round" stroke-miterlimit="10" x1="36.979" y1="38.424" x2="56.283" y2="38.424"/>
		
			<line display="inline" fill="none" stroke="#F5EF7A" stroke-linecap="round" stroke-miterlimit="10" x1="58.385" y1="38.424" x2="77.688" y2="38.424"/>
		
			<line display="inline" fill="none" stroke="#6AC5AD" stroke-linecap="round" stroke-miterlimit="10" x1="15.077" y1="42.184" x2="34.38" y2="42.184"/>
		
			<line display="inline" fill="none" stroke="#E4334D" stroke-linecap="round" stroke-miterlimit="10" x1="36.979" y1="42.184" x2="56.283" y2="42.184"/>
		
			<line display="inline" fill="none" stroke="#F5EF7A" stroke-linecap="round" stroke-miterlimit="10" x1="58.385" y1="42.184" x2="77.688" y2="42.184"/>
		
			<line display="inline" fill="none" stroke="#6AC5AD" stroke-linecap="round" stroke-miterlimit="10" x1="15.017" y1="46.608" x2="56.395" y2="46.608"/>
		
			<line display="inline" fill="none" stroke="#F5EF7A" stroke-linecap="round" stroke-miterlimit="10" x1="58.265" y1="58.147" x2="77.779" y2="58.147"/>
		
			<line display="inline" fill="none" stroke="#F5EF7A" stroke-linecap="round" stroke-miterlimit="10" x1="14.956" y1="58.147" x2="34.258" y2="58.147"/>
		
			<line display="inline" fill="none" stroke="#F5EF7A" stroke-linecap="round" stroke-miterlimit="10" x1="36.611" y1="58.147" x2="55.914" y2="58.147"/>
	</g>
	<path fill="#F4F4F4" stroke="#BCBEC0" stroke-miterlimit="10" d="M144.471,84.441c0,1.779-1.442,3.223-3.223,3.223h-33.682
		c-1.779,0-3.223-1.443-3.223-3.223V42.059c0-1.78,1.443-3.223,3.223-3.223h33.682c1.78,0,3.223,1.442,3.223,3.223V84.441z"/>
	<g id="lines_code_1_" display="none">
		
			<line display="inline" fill="none" stroke="#E4334D" stroke-linecap="round" stroke-miterlimit="10" x1="106.627" y1="44.598" x2="139.902" y2="44.598"/>
		
			<line display="inline" fill="none" stroke="#E4334D" stroke-linecap="round" stroke-miterlimit="10" x1="106.627" y1="47.948" x2="117.399" y2="47.948"/>
		
			<line display="inline" fill="none" stroke="#E4334D" stroke-linecap="round" stroke-miterlimit="10" x1="127.302" y1="47.741" x2="139.902" y2="47.741"/>
		
			<line display="inline" fill="none" stroke="#F5EF7A" stroke-linecap="round" stroke-miterlimit="10" x1="106.627" y1="51.285" x2="116.887" y2="51.285"/>
		
			<line display="inline" fill="none" stroke="#F5EF7A" stroke-linecap="round" stroke-miterlimit="10" x1="118.136" y1="51.285" x2="128.396" y2="51.285"/>
		
			<line display="inline" fill="none" stroke="#F5EF7A" stroke-linecap="round" stroke-miterlimit="10" x1="129.644" y1="51.285" x2="139.902" y2="51.285"/>
		
			<line display="inline" fill="none" stroke="#F58422" stroke-linecap="round" stroke-miterlimit="10" x1="106.627" y1="54.647" x2="139.902" y2="54.647"/>
		
			<line display="inline" fill="none" stroke="#6AC5AD" stroke-linecap="round" stroke-miterlimit="10" x1="106.627" y1="57.995" x2="128.618" y2="57.995"/>
		
			<line display="inline" fill="none" stroke="#F5EF7A" stroke-linecap="round" stroke-miterlimit="10" x1="106.627" y1="61.346" x2="117.399" y2="61.346"/>
		
			<line display="inline" fill="none" stroke="#6AC5AD" stroke-linecap="round" stroke-miterlimit="10" x1="127.302" y1="61.346" x2="139.902" y2="61.346"/>
		
			<line display="inline" fill="none" stroke="#E4334D" stroke-linecap="round" stroke-miterlimit="10" x1="106.627" y1="64.696" x2="116.887" y2="64.696"/>
		<path display="inline" fill="none" stroke="#F58422" stroke-linecap="round" stroke-miterlimit="10" d="M117.591,68.045"/>
		<path display="inline" fill="none" stroke="#F58422" stroke-linecap="round" stroke-miterlimit="10" d="M106.627,68.045"/>
		<path display="inline" fill="none" stroke="#E4334D" stroke-linecap="round" stroke-miterlimit="10" d="M117.399,71.985"/>
		<path display="inline" fill="none" stroke="#E4334D" stroke-linecap="round" stroke-miterlimit="10" d="M106.627,71.985"/>
		
			<line display="inline" fill="none" stroke="#F5EF7A" stroke-linecap="round" stroke-miterlimit="10" x1="106.627" y1="75.324" x2="116.887" y2="75.324"/>
		
			<line display="inline" fill="none" stroke="#F5EF7A" stroke-linecap="round" stroke-miterlimit="10" x1="118.335" y1="75.324" x2="128.594" y2="75.324"/>
		
			<line display="inline" fill="none" stroke="#F5EF7A" stroke-linecap="round" stroke-miterlimit="10" x1="130.148" y1="75.324" x2="139.902" y2="75.324"/>
		
			<line display="inline" fill="none" stroke="#6AC5AD" stroke-linecap="round" stroke-miterlimit="10" x1="106.627" y1="78.776" x2="139.902" y2="78.776"/>
		
			<line display="inline" fill="none" stroke="#F58422" stroke-linecap="round" stroke-miterlimit="10" x1="118.268" y1="64.696" x2="128.527" y2="64.696"/>
		
			<line display="inline" fill="none" stroke="#F5EF7A" stroke-linecap="round" stroke-miterlimit="10" x1="129.644" y1="64.696" x2="139.902" y2="64.696"/>
		
			<line display="inline" fill="none" stroke="#6AC5AD" stroke-linecap="round" stroke-miterlimit="10" x1="106.627" y1="68.045" x2="116.887" y2="68.045"/>
		
			<line display="inline" fill="none" stroke="#E4334D" stroke-linecap="round" stroke-miterlimit="10" x1="118.268" y1="68.045" x2="128.527" y2="68.045"/>
		
			<line display="inline" fill="none" stroke="#F5EF7A" stroke-linecap="round" stroke-miterlimit="10" x1="129.644" y1="68.045" x2="139.902" y2="68.045"/>
		
			<line display="inline" fill="none" stroke="#6AC5AD" stroke-linecap="round" stroke-miterlimit="10" x1="106.597" y1="71.985" x2="128.585" y2="71.985"/>
		
			<line display="inline" fill="none" stroke="#F5EF7A" stroke-linecap="round" stroke-miterlimit="10" x1="129.581" y1="82.261" x2="139.95" y2="82.261"/>
		
			<line display="inline" fill="none" stroke="#F5EF7A" stroke-linecap="round" stroke-miterlimit="10" x1="106.564" y1="82.261" x2="116.822" y2="82.261"/>
		
			<line display="inline" fill="none" stroke="#F5EF7A" stroke-linecap="round" stroke-miterlimit="10" x1="118.073" y1="82.261" x2="128.332" y2="82.261"/>
	</g>
</g>
<g id="convo">
	<path fill="#F4F4F4" stroke="#BCBEC0" stroke-miterlimit="10" d="M17.188,29.574v-6.959c0,0,0.24-2.67,3.18-2.851
		c2.94-0.18,15.149,0,15.149,0s3.15,0.37,2.97,4.865c-0.18,4.494-3.3,5.005-3.39,4.944C35.007,29.514,17.188,29.574,17.188,29.574z"
		/>
	
		<line fill="none" stroke="#E4334D" stroke-linecap="round" stroke-miterlimit="10" x1="19.988" y1="23.469" x2="34.807" y2="23.469"/>
	
		<line fill="none" stroke="#E4334D" stroke-linecap="round" stroke-miterlimit="10" x1="19.988" y1="26.11" x2="28.268" y2="26.11"/>
	<path fill="#F4F4F4" stroke="#BCBEC0" stroke-miterlimit="10" d="M75.792,40.299v-6.959c0,0-0.24-2.67-3.18-2.851
		c-2.939-0.18-15.149,0-15.149,0s-3.15,0.37-2.97,4.865c0.18,4.494,3.3,5.005,3.39,4.945S75.792,40.299,75.792,40.299z"/>
	
		<line fill="none" stroke="#E4334D" stroke-linecap="round" stroke-miterlimit="10" x1="72.547" y1="34.194" x2="57.729" y2="34.194"/>
	
		<line fill="none" stroke="#E4334D" stroke-linecap="round" stroke-miterlimit="10" x1="72.547" y1="36.834" x2="64.268" y2="36.834"/>
	<path fill="#F4F4F4" stroke="#BCBEC0" stroke-miterlimit="10" d="M17.188,57.412v-6.959c0,0,0.24-2.67,3.18-2.852
		c2.94-0.18,15.149,0,15.149,0s3.15,0.371,2.97,4.865s-3.3,5.006-3.39,4.945S17.188,57.412,17.188,57.412z"/>
	
		<line fill="none" stroke="#E4334D" stroke-linecap="round" stroke-miterlimit="10" x1="19.988" y1="51.307" x2="34.807" y2="51.307"/>
	
		<line fill="none" stroke="#E4334D" stroke-linecap="round" stroke-miterlimit="10" x1="19.988" y1="53.947" x2="28.268" y2="53.947"/>
	<path fill="#F4F4F4" stroke="#BCBEC0" stroke-miterlimit="10" d="M107.628,50.958V46.12c0,0,0.166-1.856,2.21-1.981
		s10.531,0,10.531,0s2.191,0.257,2.066,3.382c-0.125,3.124-2.296,3.48-2.357,3.438C120.016,50.917,107.628,50.958,107.628,50.958z"
		/>
	
		<line fill="none" stroke="#E4334D" stroke-linecap="round" stroke-miterlimit="10" x1="109.575" y1="46.715" x2="119.877" y2="46.715"/>
	
		<line fill="none" stroke="#E4334D" stroke-linecap="round" stroke-miterlimit="10" x1="109.575" y1="48.549" x2="115.332" y2="48.549"/>
	<path fill="#F4F4F4" stroke="#BCBEC0" stroke-miterlimit="10" d="M141.273,65.522v-4.837c0,0-0.167-1.857-2.211-1.983
		c-2.044-0.125-10.532,0-10.532,0s-2.188,0.258-2.064,3.383c0.125,3.124,2.294,3.479,2.356,3.438S141.273,65.522,141.273,65.522z"/>
	
		<line fill="none" stroke="#E4334D" stroke-linecap="round" stroke-miterlimit="10" x1="139.017" y1="61.278" x2="128.715" y2="61.278"/>
	
		<line fill="none" stroke="#E4334D" stroke-linecap="round" stroke-miterlimit="10" x1="139.017" y1="63.113" x2="133.262" y2="63.113"/>
	<path fill="#F4F4F4" stroke="#BCBEC0" stroke-miterlimit="10" d="M107.937,80.923v-4.838c0,0,0.166-1.855,2.21-1.981
		c2.044-0.125,10.531,0,10.531,0s2.191,0.258,2.066,3.382c-0.125,3.125-2.296,3.48-2.357,3.438
		C120.325,80.881,107.937,80.923,107.937,80.923z"/>
	
		<line fill="none" stroke="#E4334D" stroke-linecap="round" stroke-miterlimit="10" x1="109.883" y1="76.679" x2="120.186" y2="76.679"/>
	
		<line fill="none" stroke="#E4334D" stroke-linecap="round" stroke-miterlimit="10" x1="109.883" y1="78.515" x2="115.64" y2="78.515"/>
	<path fill="#F4F4F4" stroke="#BCBEC0" stroke-width="0.5" stroke-miterlimit="10" d="M104.427,9.084V6.342
		c0,0,0.094-1.052,1.252-1.123c1.159-0.071,5.969,0,5.969,0s1.242,0.146,1.171,1.917c-0.07,1.77-1.301,1.972-1.335,1.948
		C111.448,9.061,104.427,9.084,104.427,9.084z"/>
	
		<line fill="none" stroke="#E4334D" stroke-width="0.25" stroke-linecap="round" stroke-miterlimit="10" x1="105.425" y1="6.792" x2="110.425" y2="6.792"/>
	
		<line fill="none" stroke="#E4334D" stroke-width="0.25" stroke-linecap="round" stroke-miterlimit="10" x1="105.425" y1="7.792" x2="107.769" y2="7.792"/>
	<path fill="#F4F4F4" stroke="#BCBEC0" stroke-width="0.5" stroke-miterlimit="10" d="M116.601,16.644v-2.742
		c0,0-0.094-1.052-1.252-1.123c-1.159-0.071-5.969,0-5.969,0s-1.242,0.146-1.171,1.917c0.07,1.77,1.301,1.972,1.335,1.948
		C109.581,16.621,116.601,16.644,116.601,16.644z"/>
	
		<line fill="none" stroke="#E4334D" stroke-width="0.25" stroke-linecap="round" stroke-miterlimit="10" x1="115.603" y1="14.351" x2="110.603" y2="14.351"/>
	
		<line fill="none" stroke="#E4334D" stroke-width="0.25" stroke-linecap="round" stroke-miterlimit="10" x1="115.603" y1="15.351" x2="113.259" y2="15.351"/>
	<path fill="#F4F4F4" stroke="#BCBEC0" stroke-width="0.5" stroke-miterlimit="10" d="M104.427,24.934v-2.742
		c0,0,0.094-1.052,1.252-1.123c1.159-0.071,5.969,0,5.969,0s1.242,0.146,1.171,1.917c-0.07,1.77-1.301,1.972-1.335,1.948
		C111.448,24.911,104.427,24.934,104.427,24.934z"/>
	
		<line fill="none" stroke="#E4334D" stroke-width="0.25" stroke-linecap="round" stroke-miterlimit="10" x1="105.425" y1="22.641" x2="110.425" y2="22.641"/>
	
		<line fill="none" stroke="#E4334D" stroke-width="0.25" stroke-linecap="round" stroke-miterlimit="10" x1="105.425" y1="23.641" x2="107.769" y2="23.641"/>
</g>
<g id="lines_mobile" display="none">
	<g display="inline">
		
			<line fill="none" stroke="#E4334D" stroke-linecap="round" stroke-miterlimit="10" x1="112.352" y1="5.509" x2="109.375" y2="5.509"/>
		
			<line fill="none" stroke="#E4334D" stroke-linecap="round" stroke-miterlimit="10" x1="107.321" y1="5.509" x2="104.344" y2="5.509"/>
		
			<line fill="none" stroke="#E4334D" stroke-linecap="round" stroke-miterlimit="10" x1="117.383" y1="5.509" x2="114.407" y2="5.509"/>
		
			<line fill="none" stroke="#E4334D" stroke-linecap="round" stroke-miterlimit="10" x1="117.385" y1="7.978" x2="109.377" y2="7.978"/>
		
			<line fill="none" stroke="#E4334D" stroke-linecap="round" stroke-miterlimit="10" x1="107.321" y1="7.978" x2="104.344" y2="7.978"/>
		
			<line fill="none" stroke="#E4334D" stroke-linecap="round" stroke-miterlimit="10" x1="117.387" y1="10.821" x2="104.344" y2="10.821"/>
		
			<line fill="none" stroke="#E4334D" stroke-linecap="round" stroke-miterlimit="10" x1="112.35" y1="13.696" x2="109.374" y2="13.696"/>
		
			<line fill="none" stroke="#E4334D" stroke-linecap="round" stroke-miterlimit="10" x1="107.319" y1="13.696" x2="104.342" y2="13.696"/>
		
			<line fill="none" stroke="#E4334D" stroke-linecap="round" stroke-miterlimit="10" x1="117.381" y1="13.696" x2="114.405" y2="13.696"/>
		
			<line fill="none" stroke="#E4334D" stroke-linecap="round" stroke-miterlimit="10" x1="117.383" y1="16.165" x2="109.375" y2="16.165"/>
		
			<line fill="none" stroke="#E4334D" stroke-linecap="round" stroke-miterlimit="10" x1="107.319" y1="16.165" x2="104.342" y2="16.165"/>
		
			<line fill="none" stroke="#E4334D" stroke-linecap="round" stroke-miterlimit="10" x1="110.18" y1="19.009" x2="104.342" y2="19.009"/>
		
			<line fill="none" stroke="#E4334D" stroke-linecap="round" stroke-miterlimit="10" x1="117.385" y1="21.478" x2="104.342" y2="21.478"/>
		
			<line fill="none" stroke="#E4334D" stroke-linecap="round" stroke-miterlimit="10" x1="112.348" y1="24.353" x2="109.372" y2="24.353"/>
		
			<line fill="none" stroke="#E4334D" stroke-linecap="round" stroke-miterlimit="10" x1="107.317" y1="24.353" x2="104.34" y2="24.353"/>
		
			<line fill="none" stroke="#E4334D" stroke-linecap="round" stroke-miterlimit="10" x1="117.379" y1="24.353" x2="114.403" y2="24.353"/>
		
			<line fill="none" stroke="#E4334D" stroke-linecap="round" stroke-miterlimit="10" x1="117.381" y1="26.821" x2="109.374" y2="26.821"/>
		
			<line fill="none" stroke="#E4334D" stroke-linecap="round" stroke-miterlimit="10" x1="107.317" y1="26.821" x2="104.34" y2="26.821"/>
		
			<line fill="none" stroke="#E4334D" stroke-linecap="round" stroke-miterlimit="10" x1="117.385" y1="29.415" x2="109.375" y2="29.415"/>
		
			<line fill="none" stroke="#E4334D" stroke-linecap="round" stroke-miterlimit="10" x1="107.321" y1="29.415" x2="104.342" y2="29.415"/>
		
			<line fill="none" stroke="#E4334D" stroke-linecap="round" stroke-miterlimit="10" x1="117.387" y1="19.009" x2="111.549" y2="19.009"/>
	</g>
</g>
</svg>
