<?xml version="1.0" encoding="iso-8859-1"?>
<!-- Generator: Adobe Illustrator 21.0.0, SVG Export Plug-In . SVG Version: 6.00 Build 0)  -->
<svg version="1.1" id="Capa_1" xmlns="http://www.w3.org/2000/svg"  x="0px" y="0px"
	 viewBox="0 0 587.697 587.697" style="enable-background:new 0 0 587.697 587.697;" xml:space="preserve">
<g>
	<g>
		<g id="flat_24_">
			<path style="fill:#4398D1;" d="M30.398,35.464C13.608,35.464,0,49.073,0,65.863v314.114h547.166V65.863
				c0-16.79-13.608-30.398-30.398-30.398H30.398z"/>
			<path style="fill:#3E8CC7;" d="M516.768,35.464h-47.289L124.967,379.976h422.199V65.863
				C547.166,49.073,533.558,35.464,516.768,35.464z"/>
			<polygon style="fill:#DADDDF;" points="361.737,531.967 334.379,440.772 233.052,440.772 205.694,531.967 172.256,531.967 
				172.256,552.232 395.175,552.232 395.175,531.967 			"/>
			<path style="fill:#DADDDF;" d="M0,379.976v30.398c0,16.79,13.608,30.398,30.398,30.398h486.37
				c16.79,0,30.398-13.608,30.398-30.398v-30.398H0z"/>
			<polygon style="fill:#C1C7C9;" points="343.499,471.171 334.379,440.772 233.052,440.772 223.933,471.171 			"/>
			<rect x="40.531" y="75.995" style="fill:#87CED9;" width="466.104" height="303.981"/>
			<rect x="81.062" y="197.588" style="fill:#E34B87;" width="101.327" height="81.062"/>
			<rect x="222.919" y="197.588" style="fill:#E34B87;" width="101.327" height="81.062"/>
			<rect x="364.777" y="197.588" style="fill:#E34B87;" width="101.327" height="81.062"/>
			<rect x="81.062" y="319.18" style="fill:#E34B87;" width="101.327" height="60.796"/>
			<rect x="222.919" y="319.18" style="fill:#E34B87;" width="101.327" height="60.796"/>
			<rect x="364.777" y="319.18" style="fill:#E34B87;" width="101.327" height="60.796"/>
			<rect x="40.531" y="146.924" style="fill:#5EB3D1;" width="466.104" height="20.265"/>
			<rect x="81.062" y="106.393" style="fill:#5EB3D1;" width="60.796" height="20.265"/>
			<rect x="162.123" y="106.393" style="fill:#5EB3D1;" width="60.796" height="20.265"/>
			<rect x="243.185" y="106.393" style="fill:#5EB3D1;" width="60.796" height="20.265"/>
			<rect x="324.246" y="106.393" style="fill:#5EB3D1;" width="60.796" height="20.265"/>
			<path style="fill:#5EB3D1;" d="M397.04,278.649c-1.206,3.242-1.834,6.677-1.864,10.133v30.398h70.929v-40.531H397.04z"/>
			<rect x="395.175" y="319.18" style="fill:#BF3D75;" width="20.265" height="60.796"/>
			<rect x="395.175" y="379.976" style="fill:#C1C7C9;" width="20.265" height="60.796"/>
			<path style="fill:#BF3D75;" d="M466.104,258.384h-40.531c-12.848,0.02-24.278,8.147-28.534,20.265h69.064V258.384z"/>
			<path style="fill:#87CED9;" d="M557.298,238.118h-111.46c-16.79,0-30.398,13.608-30.398,30.398v222.919h172.256V268.517
				C587.697,251.727,574.088,238.118,557.298,238.118z"/>
			<rect x="455.971" y="319.18" style="fill:#E34B87;" width="91.194" height="81.062"/>
			<rect x="455.971" y="440.772" style="fill:#E34B87;" width="91.194" height="50.663"/>
			<path style="fill:#DADDDF;" d="M415.441,511.701c0,16.79,13.608,30.398,30.398,30.398l0,0h111.46
				c16.79,0,30.398-13.608,30.398-30.398l0,0v-20.265H415.441V511.701z"/>
			<rect x="455.971" y="268.517" style="fill:#5EB3D1;" width="91.194" height="20.265"/>
		</g>
	</g>
</g>
<g>
</g>
<g>
</g>
<g>
</g>
<g>
</g>
<g>
</g>
<g>
</g>
<g>
</g>
<g>
</g>
<g>
</g>
<g>
</g>
<g>
</g>
<g>
</g>
<g>
</g>
<g>
</g>
<g>
</g>
</svg>
