<?xml version="1.0" encoding="iso-8859-1"?>
<!-- Generator: Adobe Illustrator 21.0.0, SVG Export Plug-In . SVG Version: 6.00 Build 0)  -->
<svg version="1.1" id="Capa_1" xmlns="http://www.w3.org/2000/svg"  x="0px" y="0px"
	 viewBox="0 0 587.697 587.697" style="enable-background:new 0 0 587.697 587.697;" xml:space="preserve">
<g>
	<g>
		<g id="flat_25_">
			<path style="fill:#87CED9;" d="M40.531,60.796h435.706c22.383,0,40.531,18.148,40.531,40.531v445.839
				c0,22.383-18.148,40.531-40.531,40.531H40.531C18.148,587.697,0,569.549,0,547.166V101.327C0,78.944,18.148,60.796,40.531,60.796
				z"/>
			<path style="fill:#71C4D1;" d="M344.512,587.697h131.725c22.383,0,40.531-18.148,40.531-40.531V273.583L344.512,587.697z"/>
			<polygon style="fill:#71C4D1;" points="385.043,283.716 425.573,283.716 445.839,314.114 485.336,235.129 457.724,215.208 
				422.169,209.453 			"/>
			<rect x="30.398" y="91.194" style="fill:#5EB3D1;" width="20.265" height="20.265"/>
			<rect x="70.929" y="91.194" style="fill:#5EB3D1;" width="20.265" height="20.265"/>
			<rect x="111.46" y="91.194" style="fill:#5EB3D1;" width="20.265" height="20.265"/>
			<rect x="30.398" y="131.725" style="fill:#5EB3D1;" width="283.716" height="20.265"/>
			<polygon style="fill:#FF8A3D;" points="466.104,0 504.882,27.976 552.08,35.616 559.72,82.815 587.697,121.592 559.72,160.37 
				552.08,207.568 504.882,215.208 466.104,243.185 427.326,215.208 380.128,207.568 372.488,160.37 344.512,121.592 
				372.488,82.815 380.128,35.616 427.326,27.976 			"/>
			<circle style="fill:#FDA72F;" cx="466.104" cy="121.592" r="60.796"/>
			<polygon style="fill:#E34B87;" points="504.882,215.208 477.27,235.129 516.768,314.114 537.033,283.716 577.564,283.716 
				540.438,209.453 			"/>
			<polygon style="fill:#E34B87;" points="391.771,209.453 354.644,283.716 395.175,283.716 415.441,314.114 454.938,235.129 
				427.326,215.208 			"/>
			<path style="fill:#FF8A3D;" d="M476.237,151.99h-20.265v-34.269l-5.603,2.807l-9.059-18.138l20.265-10.133
				c5.006-2.503,11.095-0.476,13.598,4.539c0.699,1.398,1.064,2.959,1.064,4.529V151.99z"/>
			<rect x="40.531" y="192.521" style="fill:#E34B87;" width="81.062" height="81.062"/>
			<rect x="151.99" y="182.389" style="fill:#5EB3D1;" width="70.929" height="20.265"/>
			<rect x="151.99" y="222.919" style="fill:#5EB3D1;" width="172.256" height="20.265"/>
			<rect x="151.99" y="263.45" style="fill:#5EB3D1;" width="91.194" height="20.265"/>
			<rect x="263.45" y="263.45" style="fill:#5EB3D1;" width="60.796" height="20.265"/>
			<rect x="40.531" y="324.246" style="fill:#4398D1;" width="81.062" height="81.062"/>
			<rect x="151.99" y="314.114" style="fill:#5EB3D1;" width="70.929" height="20.265"/>
			<rect x="151.99" y="354.644" style="fill:#5EB3D1;" width="233.052" height="20.265"/>
			<rect x="151.99" y="395.175" style="fill:#5EB3D1;" width="91.194" height="20.265"/>
			<rect x="263.45" y="395.175" style="fill:#5EB3D1;" width="121.592" height="20.265"/>
			<rect x="40.531" y="455.971" style="fill:#FDA72F;" width="81.062" height="81.062"/>
			<rect x="151.99" y="445.839" style="fill:#5EB3D1;" width="70.929" height="20.265"/>
			<rect x="151.99" y="486.37" style="fill:#5EB3D1;" width="233.052" height="20.265"/>
			<rect x="151.99" y="526.9" style="fill:#5EB3D1;" width="91.194" height="20.265"/>
			<rect x="263.45" y="526.9" style="fill:#5EB3D1;" width="121.592" height="20.265"/>
			<polygon style="fill:#D94881;" points="427.326,215.208 391.771,209.453 379.409,234.177 415.441,243.185 439.08,266.824 
				454.938,235.129 			"/>
			<polygon style="fill:#D94881;" points="554.178,236.953 540.438,209.453 504.882,215.208 477.27,235.129 490.98,262.528 
				516.768,243.185 			"/>
		</g>
	</g>
</g>
<g>
</g>
<g>
</g>
<g>
</g>
<g>
</g>
<g>
</g>
<g>
</g>
<g>
</g>
<g>
</g>
<g>
</g>
<g>
</g>
<g>
</g>
<g>
</g>
<g>
</g>
<g>
</g>
<g>
</g>
</svg>
