<?xml version="1.0" encoding="iso-8859-1"?>
<!-- Generator: Adobe Illustrator 21.0.0, SVG Export Plug-In . SVG Version: 6.00 Build 0)  -->
<svg version="1.1" id="Capa_1" xmlns="http://www.w3.org/2000/svg"  x="0px" y="0px"
	 viewBox="0 0 597.829 597.829" style="enable-background:new 0 0 597.829 597.829;" xml:space="preserve">
<g>
	<g>
		<g id="flat_8_">
			<polygon style="fill:#DADDDF;" points="376.936,577.564 349.578,486.37 248.251,486.37 220.893,577.564 187.455,577.564 
				187.455,597.829 410.374,597.829 410.374,577.564 			"/>
			<path style="fill:#4398D1;" d="M35.464,81.062c-16.79,0-30.398,13.608-30.398,30.398v314.114h587.697V111.46
				c0-16.79-13.608-30.398-30.398-30.398H35.464z"/>
			<path style="fill:#DADDDF;" d="M5.066,425.573v30.398c0,16.79,13.608,30.398,30.398,30.398h526.9
				c16.79,0,30.398-13.608,30.398-30.398v-30.398H5.066z"/>
			<path style="fill:#87CED9;" d="M501.569,0H96.261c-16.79,0-30.398,13.608-30.398,30.398v364.777h466.104V30.398
				C531.967,13.608,518.359,0,501.569,0z"/>
			<path style="fill:#71C4D1;" d="M501.569,0h-10.133L96.261,395.175h435.706V30.398C531.967,13.608,518.359,0,501.569,0z"/>
			<rect x="96.261" y="30.398" style="fill:#5EB3D1;" width="20.265" height="20.265"/>
			<rect x="136.791" y="30.398" style="fill:#5EB3D1;" width="20.265" height="20.265"/>
			<rect x="177.322" y="30.398" style="fill:#5EB3D1;" width="20.265" height="20.265"/>
			<rect x="96.261" y="70.929" style="fill:#5EB3D1;" width="405.308" height="20.265"/>
			<path style="fill:#E34B87;" d="M116.526,121.592h81.062c5.593,0,10.133,4.539,10.133,10.133v60.796
				c0,5.593-4.539,10.133-10.133,10.133h-81.062c-5.593,0-10.133-4.539-10.133-10.133v-60.796
				C106.393,126.132,110.933,121.592,116.526,121.592z"/>
			<path style="fill:#E34B87;" d="M258.384,121.592h81.062c5.593,0,10.133,4.539,10.133,10.133v60.796
				c0,5.593-4.539,10.133-10.133,10.133h-81.062c-5.593,0-10.133-4.539-10.133-10.133v-60.796
				C248.251,126.132,252.791,121.592,258.384,121.592z"/>
			<path style="fill:#E34B87;" d="M400.242,121.592h81.062c5.593,0,10.133,4.539,10.133,10.133v60.796
				c0,5.593-4.539,10.133-10.133,10.133h-81.062c-5.593,0-10.133-4.539-10.133-10.133v-60.796
				C390.109,126.132,394.648,121.592,400.242,121.592z"/>
			<path style="fill:#E34B87;" d="M116.526,243.185h81.062c5.593,0,10.133,4.539,10.133,10.133v60.796
				c0,5.593-4.539,10.133-10.133,10.133h-81.062c-5.593,0-10.133-4.539-10.133-10.133v-60.796
				C106.393,247.724,110.933,243.185,116.526,243.185z"/>
			<path style="fill:#BF3D75;" d="M258.384,243.185h81.062c5.593,0,10.133,4.539,10.133,10.133v60.796
				c0,5.593-4.539,10.133-10.133,10.133h-81.062c-5.593,0-10.133-4.539-10.133-10.133v-60.796
				C248.251,247.724,252.791,243.185,258.384,243.185z"/>
			<path style="fill:#E34B87;" d="M400.242,243.185h81.062c5.593,0,10.133,4.539,10.133,10.133v60.796
				c0,5.593-4.539,10.133-10.133,10.133h-81.062c-5.593,0-10.133-4.539-10.133-10.133v-60.796
				C390.109,247.724,394.648,243.185,400.242,243.185z"/>
			<path style="fill:#BF3D75;" d="M197.588,364.777h-81.062c-5.593,0-10.133,4.539-10.133,10.133v20.265H207.72V374.91
				C207.72,369.317,203.181,364.777,197.588,364.777z"/>
			<path style="fill:#E34B87;" d="M339.445,364.777h-81.062c-5.593,0-10.133,4.539-10.133,10.133v20.265h101.327V374.91
				C349.578,369.317,345.039,364.777,339.445,364.777z"/>
			<path style="fill:#E34B87;" d="M481.303,364.777h-81.062c-5.593,0-10.133,4.539-10.133,10.133v20.265h101.327V374.91
				C491.436,369.317,486.896,364.777,481.303,364.777z"/>
			<polygon style="fill:#C1C7C9;" points="358.698,516.768 349.578,486.37 248.251,486.37 239.132,516.768 			"/>
			<rect x="531.967" y="81.062" style="fill:#3E8CC7;" width="30.398" height="344.512"/>
			<rect x="65.863" y="395.175" style="fill:#71C4D1;" width="466.104" height="30.398"/>
		</g>
	</g>
</g>
<g>
</g>
<g>
</g>
<g>
</g>
<g>
</g>
<g>
</g>
<g>
</g>
<g>
</g>
<g>
</g>
<g>
</g>
<g>
</g>
<g>
</g>
<g>
</g>
<g>
</g>
<g>
</g>
<g>
</g>
</svg>
