<?xml version="1.0" encoding="utf-8"?>
<!-- Generator: Adobe Illustrator 21.0.0, SVG Export Plug-In . SVG Version: 6.00 Build 0)  -->
<svg version="1.1" id="Laag_1" xmlns="http://www.w3.org/2000/svg"  x="0px" y="0px"
	 viewBox="0 0 157 45" style="enable-background:new 0 0 157 45;" xml:space="preserve">
<style type="text/css">
	.st0{fill:#000000;}
</style>
<g>
	<path class="st0" d="M99.9,31.8c-0.3-0.5-0.2-1.2,0.3-1.4c5.1-2.8,7.5-8.1,7.5-13.7c0-8.5-5.1-15.7-16-15.7H53.9c0,0,0,0.1,0,0.1
		c11,1.2,19.5,10.3,19.5,21.4c0,11-8.6,20.2-19.5,21.4c0,0,0,0.1,0,0.1h26.4c0.7,0,1.3-0.6,1.3-1.3v-9.1c0-0.6,0.5-1.1,1.1-1.1h3.4
		c0.7,0,1.4,0.3,1.8,0.9l6.7,9.5c0.5,0.7,1.3,1.1,2.1,1.1h10.5c0.5,0,0.9-0.6,0.5-1.1L99.9,31.8z M91,22.4h-8.3
		c-0.6,0-1.1-0.5-1.1-1.1v-9.2c0-0.6,0.5-1.1,1.1-1.1H91c4.4,0,6,2.5,6,5.8C97.1,19.7,95.4,22.4,91,22.4z"/>
	<path class="st0" d="M154.9,1h-8.4c-0.8,0-1.5,0.5-1.9,1.2l-11.3,22.4c-0.2,0.4-0.8,0.4-1,0L121,2.2c-0.4-0.7-1.2-1.2-1.9-1.2h-8.4
		c-0.7,0-1.3,0.6-1.3,1.3v40.2c0,0.7,0.6,1.3,1.3,1.3h8.3c0.7,0,1.3-0.6,1.3-1.3V23c0-0.3,0.4-0.4,0.5-0.1l7.8,15.7
		c0.4,0.7,1.2,1.2,1.9,1.2h4.6c0.8,0,1.5-0.5,1.9-1.2l7.8-15.7c0.1-0.3,0.5-0.2,0.5,0.1v19.6c0,0.7,0.6,1.3,1.3,1.3h8.3
		c0.7,0,1.3-0.6,1.3-1.3V2.3C156.2,1.6,155.6,1,154.9,1z"/>
	<path class="st0" d="M62.7,22.4c0-6.3-4.9-11.3-11.3-11.3c-6.2,0-11.3,5-11.3,11.3c0,6.3,5,11.3,11.3,11.3
		C57.8,33.7,62.7,28.7,62.7,22.4z"/>
	<path class="st0" d="M2.3,1C1.6,1,1,1.6,1,2.3v40.2c0,0.7,0.6,1.3,1.3,1.3h8.3c0.7,0,1.3-0.6,1.3-1.3V30.3c0-0.6,0.5-1.1,1.1-1.1
		h15.1c0.7,0,1.3-0.6,1.3-1.3v-7.3c0-0.7-0.6-1.3-1.3-1.3H13c-0.6,0-1.1-0.5-1.1-1.1v-5.4c0-0.6,0.5-1.1,1.1-1.1h19
		c0.3,0,0.6-0.2,0.7-0.4c3.5-5.5,9.5-9.4,16.3-10.2c0,0,0-0.1,0-0.1H2.3z"/>
</g>
</svg>
