<?xml version="1.0" encoding="utf-8"?>
<!-- Generator: Adobe Illustrator 16.0.0, SVG Export Plug-In . SVG Version: 6.00 Build 0)  -->
<!DOCTYPE svg PUBLIC "-//W3C//DTD SVG 1.1//EN" "http://www.w3.org/Graphics/SVG/1.1/DTD/svg11.dtd">
<svg version="1.1" xmlns="http://www.w3.org/2000/svg" xmlns:xlink="http://www.w3.org/1999/xlink" x="0px" y="0px" width="800px"
	 height="800px" viewBox="0 0 800 800" enable-background="new 0 0 800 800" xml:space="preserve">
<g id="background">
	<linearGradient id="SVGID_1_" gradientUnits="userSpaceOnUse" x1="403.8828" y1="-7.6201" x2="395.8822" y2="832.3815">
		<stop  offset="0.0215" style="stop-color:#1C1B59"/>
		<stop  offset="0.7043" style="stop-color:#1A1B36"/>
	</linearGradient>
	<rect y="0" fill="url(#SVGID_1_)" width="800" height="800"/>
	<g opacity="0.15">
		<polygon fill="#FFFFFF" points="203.436,137.112 204.957,141.793 209.879,141.793 205.896,144.686 207.418,149.367 
			203.436,146.474 199.455,149.367 200.975,144.686 196.993,141.793 201.915,141.793 		"/>
		<polygon fill="#FFFFFF" points="386.048,120.877 389.814,126.307 396.142,124.403 392.142,129.663 395.909,135.092 
			389.671,132.914 385.671,138.172 385.815,131.567 379.576,129.387 385.903,127.484 		"/>
		<polygon fill="#FFFFFF" points="702.997,145.489 706.765,150.919 713.091,149.014 709.092,154.275 712.858,159.704 
			706.62,157.526 702.619,162.786 702.765,156.178 696.526,154 702.853,152.096 		"/>
		<polygon fill="#FFFFFF" points="757.909,238.473 755.884,244.764 761.238,248.633 754.631,248.651 752.605,254.941 
			750.548,248.662 743.938,248.677 749.275,244.781 747.219,238.501 752.572,242.372 		"/>
		<polygon fill="#FFFFFF" points="706.787,324.205 709.196,327.678 713.243,326.459 710.686,329.825 713.095,333.297 
			709.105,331.905 706.546,335.268 706.639,331.042 702.647,329.649 706.694,328.43 		"/>
		<polygon fill="#FFFFFF" points="283.703,492.303 287.435,497.68 293.699,495.793 289.739,501.002 293.471,506.379 
			287.291,504.221 283.33,509.43 283.473,502.889 277.295,500.73 283.561,498.844 		"/>
		<polygon fill="#FFFFFF" points="424.926,36.045 428.521,41.226 434.556,39.409 430.74,44.428 434.335,49.608 428.383,47.53 
			424.565,52.547 424.703,46.245 418.751,44.167 424.788,42.349 		"/>
		<polygon fill="#FFFFFF" points="613.438,36.409 616.859,41.339 622.603,39.61 618.972,44.386 622.393,49.316 616.728,47.337 
			613.096,52.114 613.227,46.115 607.563,44.137 613.307,42.408 		"/>
		<polygon fill="#FFFFFF" points="273.314,87.144 274.808,97.589 285.253,99.083 274.808,100.577 273.314,111.022 271.822,100.577 
			261.376,99.083 271.822,97.589 		"/>
		<polygon fill="#FFFFFF" points="82.051,49.667 82.918,55.732 88.982,56.599 82.918,57.466 82.051,63.532 81.184,57.466 
			75.119,56.599 81.184,55.732 		"/>
		<polygon fill="#FFFFFF" points="313.207,249.655 314.7,260.1 325.146,261.593 314.7,263.086 313.207,273.532 311.714,263.086 
			301.269,261.593 311.714,260.1 		"/>
		<polygon fill="#FFFFFF" points="616.42,120.403 617.913,130.848 628.358,132.342 617.913,133.835 616.42,144.282 614.928,133.835 
			604.481,132.342 614.928,130.848 		"/>
		<polygon fill="#FFFFFF" points="187.543,49.667 188.459,56.077 194.869,56.993 188.459,57.909 187.543,64.319 186.628,57.909 
			180.218,56.993 186.628,56.077 		"/>
		<polygon fill="#FFFFFF" points="124.508,163.781 125.225,168.803 130.247,169.521 125.225,170.239 124.508,175.262 
			123.79,170.239 118.768,169.521 123.79,168.803 		"/>
		<polygon fill="#FFFFFF" points="35.684,294.984 37.178,305.43 47.623,306.922 37.178,308.417 35.684,318.862 34.191,308.417 
			23.746,306.922 34.191,305.43 		"/>
		<polygon fill="#FFFFFF" points="656.593,520.633 658.086,531.078 668.531,532.57 658.086,534.064 656.593,544.51 655.101,534.064 
			644.654,532.57 655.101,531.078 		"/>
		<polygon fill="#FFFFFF" points="502.355,106.2 507.178,109.815 512,106.2 508.384,111.022 512,115.844 507.178,112.228 
			502.355,115.844 505.971,111.022 		"/>
		<polygon fill="#FFFFFF" points="90.47,237.149 96.645,241.78 102.818,237.15 98.188,243.325 102.818,249.499 96.645,244.868 
			90.47,249.499 95.1,243.324 		"/>
		<polygon fill="#FFFFFF" points="77.633,482.189 82.051,485.504 86.47,482.189 83.156,486.609 86.47,491.025 82.051,487.713 
			77.633,491.025 80.945,486.607 		"/>
		<polygon fill="#FFFFFF" points="697.058,441.766 704.809,447.576 712.559,441.766 706.747,449.516 712.559,457.266 
			704.809,451.453 697.058,457.266 702.869,449.516 		"/>
		<polygon fill="#FFFFFF" points="509.001,221.139 515.62,226.102 522.238,221.139 517.275,227.758 522.238,234.376 515.62,229.413 
			509.001,234.375 513.964,227.757 		"/>
		<circle fill="#FFFFFF" cx="333.604" cy="62.487" r="3.785"/>
		<circle fill="#FFFFFF" cx="313.208" cy="173.516" r="3.996"/>
		<circle fill="#FFFFFF" cx="159.614" cy="555.131" r="2.465"/>
		<circle fill="#FFFFFF" cx="55.236" cy="426.539" r="2.465"/>
		<circle fill="#FFFFFF" cx="744.25" cy="500.867" r="2.465"/>
		<circle fill="#FFFFFF" cx="498.736" cy="464.109" r="3.996"/>
		<circle fill="#FFFFFF" cx="740.254" cy="381.762" r="3.995"/>
		<circle fill="#FFFFFF" cx="652.558" cy="200.029" r="3.995"/>
		<circle fill="#FFFFFF" cx="23.745" cy="187.764" r="3.995"/>
		<circle fill="#FFFFFF" cx="761.238" cy="52.114" r="3.995"/>
		<circle fill="#FFFFFF" cx="769.227" cy="181.506" r="3.995"/>
		<circle fill="#FFFFFF" cx="438.201" cy="177.512" r="3.995"/>
		<circle fill="#FFFFFF" cx="530.213" cy="56.6" r="3.995"/>
		<path fill="#FFFFFF" d="M402.572,532.57c0,2.381-1.928,4.313-4.31,4.313s-4.311-1.932-4.311-4.313
			c0-2.379,1.929-4.311,4.311-4.311S402.572,530.191,402.572,532.57z"/>
		<polygon fill="#FFFFFF" points="333.325,598.332 337.027,603.668 343.244,601.797 339.313,606.965 343.017,612.301 
			336.886,610.16 332.954,615.328 333.097,608.836 326.966,606.695 333.183,604.824 		"/>
		<polygon fill="#FFFFFF" points="125.425,576.309 131.654,580.98 137.885,576.309 133.213,582.539 137.885,588.768 
			131.654,584.098 125.425,588.768 130.096,582.537 		"/>
		<circle fill="#FFFFFF" cx="450" cy="619.387" r="4.059"/>
		<circle fill="#FFFFFF" cx="115.233" cy="111.022" r="3.995"/>
	</g>
	<g>
		<defs>
			<rect id="SVGID_2_" y="0" width="800" height="800"/>
		</defs>
		<clipPath id="SVGID_3_">
			<use xlink:href="#SVGID_2_"  overflow="visible"/>
		</clipPath>
		<path opacity="0.7" clip-path="url(#SVGID_3_)" fill="#E4324C" d="M853.539,662.461c0-61.74-50.049-111.789-111.791-111.789
			c-42.093,0-78.744,23.268-97.813,57.641c-10.983-5.787-23.486-9.08-36.764-9.08c-3.298,0-6.541,0.227-9.731,0.619
			c-8.425-36.598-41.181-63.898-80.338-63.898c-30.786,0-57.613,16.883-71.778,41.885c-5.934-1.6-12.169-2.467-18.609-2.467
			c-20.25,0-38.516,8.451-51.501,22.002c-19.803-30.359-54.063-50.432-93.015-50.432c-45.259,0-84.185,27.096-101.455,65.947
			c-10.016-4.424-21.086-6.898-32.74-6.898c-7.813,0-15.359,1.127-22.511,3.188c-20.966-27.848-54.3-45.857-91.844-45.857
			c-63.454,0-114.894,51.439-114.894,114.895c0,50.105,32.081,92.715,76.82,108.424v87.609h808.83V755.049
			C834.056,734.947,853.539,700.98,853.539,662.461z"/>
		<path clip-path="url(#SVGID_3_)" fill="#E4324C" d="M827.82,744.105c0-56.309-45.646-101.955-101.958-101.955
			c-38.391,0-71.817,21.221-89.209,52.57c-10.018-5.279-21.421-8.281-33.53-8.281c-3.008,0-5.966,0.207-8.876,0.564
			c-7.683-33.379-37.557-58.277-73.271-58.277c-28.079,0-52.547,15.396-65.466,38.199c-5.411-1.459-11.098-2.25-16.972-2.25
			c-18.469,0-35.128,7.707-46.972,20.066c-18.061-27.689-49.307-45.994-84.833-45.994c-41.277,0-76.779,24.711-92.531,60.145
			c-9.135-4.033-19.23-6.291-29.86-6.291c-7.126,0-14.009,1.027-20.53,2.908c-19.122-25.398-49.524-41.824-83.766-41.824
			c-57.873,0-104.787,46.914-104.787,104.789c0,45.699,29.258,84.559,70.063,98.887v79.904H783.01V828.551
			C810.051,810.217,827.82,779.236,827.82,744.105z"/>
	</g>
</g>
<g id="objects" display="none">
	<g>
		<path display="inline" fill="#F98B12" d="M180.095,405.029c-2.101,4.148-4.698,19.705-3.22,30.074
			c0.298-1.098,1.491-3.625,1.789-4.711c-0.543,2.873,5.825,59.785,6.648,68.93c0.904-8.918,4.201-55.299,4.084-60.688
			c0.506,1.545,1.154,4.971,2.188,6.109c0.096-26.619-0.979-34.266-2.246-39.715H180.095z"/>
		<g display="inline">
			<linearGradient id="SVGID_4_" gradientUnits="userSpaceOnUse" x1="184.4731" y1="384.4644" x2="183.8802" y2="401.6507">
				<stop  offset="0.2393" style="stop-color:#E10F82"/>
				<stop  offset="0.9035" style="stop-color:#F25F96"/>
				<stop  offset="1" style="stop-color:#F46B99"/>
			</linearGradient>
			<path fill="url(#SVGID_4_)" d="M194.191,396.209c0,2.598-2.708,4.7-6.049,4.7h-7.998c-3.34,0-6.048-2.103-6.048-4.7v-4.474
				c0-2.595,2.708-4.698,6.048-4.698h7.998c3.341,0,6.049,2.104,6.049,4.698V396.209z"/>
			<linearGradient id="SVGID_5_" gradientUnits="userSpaceOnUse" x1="204.5425" y1="385.1567" x2="203.9496" y2="402.3426">
				<stop  offset="0.2393" style="stop-color:#E10F82"/>
				<stop  offset="0.9035" style="stop-color:#F25F96"/>
				<stop  offset="1" style="stop-color:#F46B99"/>
			</linearGradient>
			<path fill="url(#SVGID_5_)" d="M214.285,396.209c0,2.598-2.707,4.7-6.049,4.7h-7.998c-3.34,0-6.047-2.103-6.047-4.7v-4.474
				c0-2.595,2.707-4.698,6.047-4.698h7.998c3.342,0,6.049,2.104,6.049,4.698V396.209z"/>
		</g>
		<g display="inline">
			<linearGradient id="SVGID_6_" gradientUnits="userSpaceOnUse" x1="124.5078" y1="343.1143" x2="154.5459" y2="343.1143">
				<stop  offset="0.2393" style="stop-color:#E10F82"/>
				<stop  offset="0.9035" style="stop-color:#F25F96"/>
				<stop  offset="1" style="stop-color:#F46B99"/>
			</linearGradient>
			<path fill="url(#SVGID_6_)" d="M152.543,297.454c0,0-28.035,19.227-28.035,32.045c0,12.814,0,59.276,0,59.276l30.038-30.04
				L152.543,297.454z"/>
			<linearGradient id="SVGID_7_" gradientUnits="userSpaceOnUse" x1="230.9189" y1="343.1143" x2="260.957" y2="343.1143">
				<stop  offset="0.2393" style="stop-color:#E10F82"/>
				<stop  offset="0.9035" style="stop-color:#F25F96"/>
				<stop  offset="1" style="stop-color:#F46B99"/>
			</linearGradient>
			<path fill="url(#SVGID_7_)" d="M232.92,297.454c0,0,28.037,19.227,28.037,32.045c0,12.814,0,59.276,0,59.276l-30.038-30.04
				L232.92,297.454z"/>
		</g>
		<path display="inline" opacity="0.5" fill="#F8F145" d="M177.686,430.947l2.07-4.65c0,0,3.895,39.965,5.409,55.594
			c0,0,3.995-36.072,2.599-51.023l3.135,10.771c0,0-0.719-23.24-1.817-33.305l-7.867-1.066
			C181.214,407.268,178.018,412.443,177.686,430.947z"/>
		<path display="inline" fill="#F6EEAA" d="M184.982,460.648c0,0,1.719-38.129,2.561-50.582l-5.098,0.438
			C182.445,410.504,182.465,444.449,184.982,460.648z"/>
		<path display="inline" fill="#F98B12" d="M206.072,405.029c2.1,4.148,4.698,19.705,3.219,30.074
			c-0.297-1.098-1.492-3.625-1.789-4.711c0.543,2.873-5.824,59.785-6.648,68.93c-0.904-8.918-4.201-55.299-4.083-60.688
			c-0.508,1.545-1.155,4.971-2.19,6.109c-0.093-26.619,0.98-34.266,2.247-39.715H206.072z"/>
		<path display="inline" opacity="0.5" fill="#F8F145" d="M208.482,430.947l-2.073-4.65c0,0-3.893,39.965-5.409,55.594
			c0,0-3.996-36.072-2.599-51.023l-3.136,10.771c0,0,0.722-23.24,1.82-33.305l7.867-1.066
			C204.953,407.268,208.148,412.443,208.482,430.947z"/>
		<path display="inline" fill="#F6EEAA" d="M201.185,460.648c0,0-1.721-38.129-2.563-50.582l5.1,0.438
			C203.721,410.504,203.701,444.449,201.185,460.648z"/>
		
			<linearGradient id="SVGID_8_" gradientUnits="userSpaceOnUse" x1="731.2383" y1="-480.2842" x2="649.9565" y2="-545.4561" gradientTransform="matrix(0.7458 -0.6661 0.6661 0.7458 24.5527 1124.6055)">
			<stop  offset="0.2393" style="stop-color:#1C93C1"/>
			<stop  offset="0.9957" style="stop-color:#14678B"/>
		</linearGradient>
		<path display="inline" fill="url(#SVGID_8_)" d="M145.08,300.61c0.312,36.355,8.283,69.57,21.252,95.262
			c8.561-2.797,17.692-4.361,27.178-4.442c9.487-0.081,18.641,1.327,27.252,3.979c12.521-25.908,19.931-59.252,19.621-95.607
			c-0.492-57.754-20.293-107.594-48.771-131.883C163.541,192.688,144.59,242.856,145.08,300.61z"/>
		<defs>
			<filter id="Adobe_OpacityMaskFilter" filterUnits="userSpaceOnUse" x="212.841" y="217.36" width="27.551" height="178.049">
				<feFlood  style="flood-color:white;flood-opacity:1" result="back"/>
				<feBlend  in="SourceGraphic" in2="back" mode="normal"/>
			</filter>
		</defs>
		<mask maskUnits="userSpaceOnUse" x="212.841" y="217.36" width="27.551" height="178.049" id="SVGID_9_" display="inline">
			<g filter="url(#Adobe_OpacityMaskFilter)">
				<defs>
					
						<filter id="Adobe_OpacityMaskFilter_1_" filterUnits="userSpaceOnUse" x="212.841" y="217.36" width="27.551" height="178.049">
						<feFlood  style="flood-color:white;flood-opacity:1" result="back"/>
						<feBlend  in="SourceGraphic" in2="back" mode="normal"/>
					</filter>
				</defs>
				<mask maskUnits="userSpaceOnUse" x="212.841" y="217.36" width="27.551" height="178.049" id="SVGID_9_">
					<g filter="url(#Adobe_OpacityMaskFilter_1_)">
					</g>
				</mask>
				
					<linearGradient id="SVGID_10_" gradientUnits="userSpaceOnUse" x1="759.6904" y1="-536.7056" x2="630.8026" y2="-411.4791" gradientTransform="matrix(0.7458 -0.6661 0.6661 0.7458 24.5527 1124.6055)">
					<stop  offset="0" style="stop-color:#808080"/>
					<stop  offset="0.1455" style="stop-color:#7A7A7A"/>
					<stop  offset="0.3377" style="stop-color:#696969"/>
					<stop  offset="0.5562" style="stop-color:#4E4E4E"/>
					<stop  offset="0.7921" style="stop-color:#282828"/>
					<stop  offset="1" style="stop-color:#000000"/>
				</linearGradient>
				<path mask="url(#SVGID_9_)" fill="url(#SVGID_10_)" d="M212.841,393.374c2.684,0.566,5.331,1.236,7.921,2.035
					c12.521-25.908,19.931-59.252,19.621-95.607c-0.255-29.971-5.719-57.797-14.889-81.041l-5.133-1.4
					C249.402,328.749,218.715,384.147,212.841,393.374z"/>
			</g>
		</mask>
		
			<linearGradient id="SVGID_11_" gradientUnits="userSpaceOnUse" x1="759.6904" y1="-536.7056" x2="630.8026" y2="-411.4791" gradientTransform="matrix(0.7458 -0.6661 0.6661 0.7458 24.5527 1124.6055)">
			<stop  offset="0" style="stop-color:#EAEFEE"/>
			<stop  offset="0.4498" style="stop-color:#F0F3F3"/>
			<stop  offset="1" style="stop-color:#FFFFFF"/>
		</linearGradient>
		<path display="inline" opacity="0.2" fill="url(#SVGID_11_)" d="M212.841,393.374c2.684,0.566,5.331,1.236,7.921,2.035
			c12.521-25.908,19.931-59.252,19.621-95.607c-0.255-29.971-5.719-57.797-14.889-81.041l-5.133-1.4
			C249.402,328.749,218.715,384.147,212.841,393.374z"/>
		<defs>
			<filter id="Adobe_OpacityMaskFilter_2_" filterUnits="userSpaceOnUse" x="159.614" y="222.809" width="28.082" height="170.953">
				<feFlood  style="flood-color:white;flood-opacity:1" result="back"/>
				<feBlend  in="SourceGraphic" in2="back" mode="normal"/>
			</filter>
		</defs>
		<mask maskUnits="userSpaceOnUse" x="159.614" y="222.809" width="28.082" height="170.953" id="SVGID_12_" display="inline">
			<g filter="url(#Adobe_OpacityMaskFilter_2_)">
				<defs>
					
						<filter id="Adobe_OpacityMaskFilter_3_" filterUnits="userSpaceOnUse" x="159.614" y="222.809" width="28.082" height="170.953">
						<feFlood  style="flood-color:white;flood-opacity:1" result="back"/>
						<feBlend  in="SourceGraphic" in2="back" mode="normal"/>
					</filter>
				</defs>
				<mask maskUnits="userSpaceOnUse" x="159.614" y="222.809" width="28.082" height="170.953" id="SVGID_12_">
					<g filter="url(#Adobe_OpacityMaskFilter_3_)">
					</g>
				</mask>
				
					<linearGradient id="SVGID_13_" gradientUnits="userSpaceOnUse" x1="699.3486" y1="-558.7827" x2="596.0916" y2="-443.8087" gradientTransform="matrix(0.7458 -0.6661 0.6661 0.7458 24.5527 1124.6055)">
					<stop  offset="0" style="stop-color:#808080"/>
					<stop  offset="0.1455" style="stop-color:#7A7A7A"/>
					<stop  offset="0.3377" style="stop-color:#696969"/>
					<stop  offset="0.5562" style="stop-color:#4E4E4E"/>
					<stop  offset="0.7921" style="stop-color:#282828"/>
					<stop  offset="1" style="stop-color:#000000"/>
				</linearGradient>
				<path mask="url(#SVGID_12_)" fill="url(#SVGID_13_)" d="M175.66,393.762l12.036-1.914
					c-18.257-108.389-8.612-169.039-8.612-169.039l-11.429,0.393C145.701,299.752,175.66,393.762,175.66,393.762z"/>
			</g>
		</mask>
		
			<linearGradient id="SVGID_14_" gradientUnits="userSpaceOnUse" x1="699.3486" y1="-558.7827" x2="596.0916" y2="-443.8087" gradientTransform="matrix(0.7458 -0.6661 0.6661 0.7458 24.5527 1124.6055)">
			<stop  offset="0" style="stop-color:#EAEFEE"/>
			<stop  offset="0.4498" style="stop-color:#F0F3F3"/>
			<stop  offset="1" style="stop-color:#FFFFFF"/>
		</linearGradient>
		<path display="inline" opacity="0.8" fill="url(#SVGID_14_)" d="M175.66,393.762l12.036-1.914
			c-18.257-108.389-8.612-169.039-8.612-169.039l-11.429,0.393C145.701,299.752,175.66,393.762,175.66,393.762z"/>
		<path display="inline" opacity="0.7" fill="#22A7B9" d="M156.914,224.077l-2.133,6.695c0,0,40.73-4.961,75.707,0.125l-3.236-7.418
			C227.252,223.479,180.27,218.059,156.914,224.077z"/>
		<linearGradient id="SVGID_15_" gradientUnits="userSpaceOnUse" x1="156.9141" y1="195.9976" x2="227.252" y2="195.9976">
			<stop  offset="0.2393" style="stop-color:#E10F82"/>
			<stop  offset="0.9035" style="stop-color:#F25F96"/>
			<stop  offset="1" style="stop-color:#F46B99"/>
		</linearGradient>
		<path display="inline" fill="url(#SVGID_15_)" d="M156.914,224.077c11.445-0.859,23.18-1.381,35.16-1.482
			s23.721,0.217,35.178,0.885c-8.609-23.686-20.96-43.039-35.641-55.561C177.14,180.688,165.121,200.249,156.914,224.077z"/>
		<defs>
			<filter id="Adobe_OpacityMaskFilter_4_" filterUnits="userSpaceOnUse" x="167.655" y="167.918" width="23.956" height="55.283">
				<feFlood  style="flood-color:white;flood-opacity:1" result="back"/>
				<feBlend  in="SourceGraphic" in2="back" mode="normal"/>
			</filter>
		</defs>
		<mask maskUnits="userSpaceOnUse" x="167.655" y="167.918" width="23.956" height="55.283" id="SVGID_16_" display="inline">
			<g filter="url(#Adobe_OpacityMaskFilter_4_)">
				<defs>
					
						<filter id="Adobe_OpacityMaskFilter_5_" filterUnits="userSpaceOnUse" x="167.655" y="167.918" width="23.956" height="55.283">
						<feFlood  style="flood-color:white;flood-opacity:1" result="back"/>
						<feBlend  in="SourceGraphic" in2="back" mode="normal"/>
					</filter>
				</defs>
				<mask maskUnits="userSpaceOnUse" x="167.655" y="167.918" width="23.956" height="55.283" id="SVGID_16_">
					<g filter="url(#Adobe_OpacityMaskFilter_5_)">
					</g>
				</mask>
				
					<linearGradient id="SVGID_17_" gradientUnits="userSpaceOnUse" x1="719.0732" y1="-575.6582" x2="749.0968" y2="-602.7526" gradientTransform="matrix(0.7458 -0.6661 0.6661 0.7458 24.5527 1124.6055)">
					<stop  offset="0" style="stop-color:#808080"/>
					<stop  offset="0.1455" style="stop-color:#7A7A7A"/>
					<stop  offset="0.3377" style="stop-color:#696969"/>
					<stop  offset="0.5562" style="stop-color:#4E4E4E"/>
					<stop  offset="0.7921" style="stop-color:#282828"/>
					<stop  offset="1" style="stop-color:#000000"/>
				</linearGradient>
				<path mask="url(#SVGID_16_)" fill="url(#SVGID_17_)" d="M179.084,222.809c2.064-27.369,12.527-54.891,12.527-54.891
					c-18.908,24.234-23.956,55.283-23.956,55.283L179.084,222.809z"/>
			</g>
		</mask>
		
			<linearGradient id="SVGID_18_" gradientUnits="userSpaceOnUse" x1="719.0732" y1="-575.6582" x2="749.0968" y2="-602.7526" gradientTransform="matrix(0.7458 -0.6661 0.6661 0.7458 24.5527 1124.6055)">
			<stop  offset="0" style="stop-color:#EAEFEE"/>
			<stop  offset="0.4498" style="stop-color:#F0F3F3"/>
			<stop  offset="1" style="stop-color:#FFFFFF"/>
		</linearGradient>
		<path display="inline" fill="url(#SVGID_18_)" d="M179.084,222.809c2.064-27.369,12.527-54.891,12.527-54.891
			c-18.908,24.234-23.956,55.283-23.956,55.283L179.084,222.809z"/>
		<g display="inline">
			<path opacity="0.5" fill="#444C4C" d="M195.769,242.237c-14.765,0.123-26.678,12.238-26.552,27
				c0.127,14.771,12.242,26.68,27.009,26.555c14.763-0.125,26.673-12.238,26.546-27.008
				C222.646,254.018,210.531,242.11,195.769,242.237z"/>
			<path fill="#112E5F" d="M191.318,238.354c-14.764,0.125-26.676,12.238-26.551,27.002c0.129,14.771,12.242,26.68,27.008,26.553
				c14.764-0.123,26.676-12.236,26.549-27.006C218.199,250.135,206.083,238.229,191.318,238.354z"/>
			<path fill="#18A7CA" d="M191.391,246.528c-10.262,0.084-18.538,8.502-18.453,18.762c0.09,10.266,8.506,18.535,18.77,18.447
				c10.258-0.088,18.538-8.5,18.448-18.766C210.068,254.715,201.648,246.44,191.391,246.528z"/>
			<path fill="#83D0E3" d="M184.033,282.149c2.346,1.037,4.943,1.613,7.674,1.588c10.258-0.088,18.538-8.5,18.448-18.766
				c-0.032-3.648-1.12-7.043-2.968-9.902c-0.336,0.27-0.678,0.535-1.014,0.807C198.085,262.45,187.914,271.536,184.033,282.149z"/>
		</g>
		<g display="inline">
			<path opacity="0.5" fill="#444C4C" d="M197.801,302.942c-11.074,0.094-20.008,9.18-19.915,20.252
				c0.097,11.078,9.183,20.01,20.257,19.916c11.072-0.092,20.007-9.178,19.91-20.256
				C217.961,311.78,208.874,302.848,197.801,302.942z"/>
			<path fill="#112E5F" d="M194.464,300.03c-11.074,0.094-20.007,9.18-19.915,20.254c0.098,11.078,9.182,20.01,20.258,19.914
				c11.072-0.092,20.005-9.178,19.91-20.256C214.625,308.868,205.537,299.936,194.464,300.03z"/>
			<path fill="#18A7CA" d="M194.518,306.161c-7.697,0.064-13.904,6.377-13.84,14.07c0.066,7.701,6.379,13.904,14.076,13.838
				c7.695-0.066,13.904-6.375,13.836-14.074C208.525,312.301,202.211,306.094,194.518,306.161z"/>
			<path fill="#83D0E3" d="M189,332.875c1.759,0.781,3.706,1.211,5.754,1.193c7.695-0.066,13.904-6.375,13.836-14.074
				c-0.023-2.736-0.839-5.283-2.224-7.428c-0.253,0.203-0.511,0.4-0.761,0.605C199.537,318.102,191.909,324.918,189,332.875z"/>
		</g>
		<g display="inline">
			<path opacity="0.5" fill="#444C4C" d="M199.293,350.061c-7.813,0.066-14.115,6.479-14.049,14.291
				c0.066,7.816,6.479,14.117,14.291,14.051c7.813-0.064,14.115-6.475,14.046-14.291
				C213.517,356.299,207.104,349.995,199.293,350.061z"/>
			<path fill="#112E5F" d="M196.938,348.006c-7.812,0.064-14.116,6.479-14.05,14.293c0.067,7.814,6.48,14.117,14.293,14.051
				c7.811-0.066,14.113-6.477,14.047-14.291C211.163,354.245,204.75,347.94,196.938,348.006z"/>
			<path fill="#18A7CA" d="M196.977,352.333c-5.43,0.045-9.809,4.502-9.764,9.93c0.047,5.434,4.5,9.811,9.932,9.764
				c5.429-0.047,9.809-4.498,9.762-9.932C206.86,356.667,202.404,352.286,196.977,352.333z"/>
			<path fill="#83D0E3" d="M193.084,371.184c1.24,0.549,2.615,0.854,4.061,0.842c5.429-0.047,9.809-4.498,9.762-9.932
				c-0.018-1.93-0.594-3.727-1.569-5.238c-0.181,0.143-0.36,0.283-0.536,0.426C200.52,360.76,195.139,365.569,193.084,371.184z"/>
		</g>
	</g>
	<g display="inline">
		<g>
			<polygon fill="#137096" points="357.64,304.696 317.911,334.893 317.911,373.637 357.64,355.254 			"/>
		</g>
		<g>
			<polygon fill="#137096" points="442.896,304.696 482.625,334.893 482.625,373.637 442.896,355.254 			"/>
		</g>
		<g>
			<polygon fill="#189694" points="350.594,328.514 310.865,358.723 310.865,397.462 350.594,379.077 			"/>
		</g>
		<g>
			<polygon fill="#189694" points="449.942,328.514 489.671,358.723 489.671,397.462 449.942,379.077 			"/>
		</g>
		<path fill="#F3110B" d="M399.39,179.422c-0.566,0.584-1.496,1.447-2.506,2.574c-1.052,1.129-2.34,2.52-3.71,4.156
			c-0.7,0.816-1.45,1.693-2.249,2.633c-0.746,0.938-1.537,1.934-2.374,2.986c-3.393,4.209-7.06,9.322-10.86,15.188
			c-3.787,5.865-7.638,12.48-11.287,19.699c-3.663,7.217-7.082,15.037-10.193,23.307c-3.076,8.271-5.75,16.992-7.926,26.016
			c-4.386,18.045-6.639,37.291-6.672,56.539c-0.012,9.625,0.506,19.254,1.608,28.73c1.073,9.473,2.76,18.795,4.911,27.82
			c1.391,5.822,3.023,11.503,4.816,17.035c14.417-6.191,30.441-9.648,47.325-9.648V178.54
			C400.273,178.54,399.973,178.84,399.39,179.422z"/>
		<path fill="#860F08" d="M452.259,275.981c-2.175-9.023-4.849-17.744-7.926-26.016c-3.11-8.27-6.529-16.09-10.192-23.307
			c-3.648-7.219-7.497-13.834-11.283-19.699c-3.802-5.865-7.469-10.979-10.861-15.188c-0.837-1.053-1.627-2.049-2.372-2.986
			c-0.801-0.939-1.552-1.816-2.25-2.633c-1.371-1.637-2.659-3.027-3.711-4.156c-1.01-1.127-1.94-1.99-2.505-2.574
			c-0.584-0.582-0.885-0.883-0.885-0.883v217.918c16.884,0,32.907,3.457,47.322,9.648c1.792-5.532,3.426-11.212,4.815-17.035
			c2.152-9.025,3.838-18.348,4.911-27.82c1.103-9.477,1.622-19.105,1.61-28.73C458.898,313.272,456.646,294.026,452.259,275.981z"/>
		<path fill="#189694" d="M401.726,324.926c0,0,0.327,0.426,0.846,1.223c0.536,0.799,1.229,1.969,2.043,3.457
			c1.6,2.98,3.473,7.234,4.929,12.344c0.738,2.555,1.396,5.32,1.88,8.248c0.504,2.926,0.83,6.012,0.776,9.205
			c-0.049,3.189-0.562,6.488-1.153,9.84c-0.598,3.35-1.186,6.758-1.537,10.158c-0.698,6.81-1.463,13.621-2.326,20.008
			c-0.452,3.191-0.89,6.277-1.307,9.201c-0.438,2.926-0.854,5.693-1.237,8.246c-0.375,2.553-0.798,4.893-1.13,6.969
			c-0.333,2.074-0.644,3.883-0.92,5.371c-0.549,2.979-0.863,4.682-0.863,4.682h-2.223c0,0-0.314-1.703-0.865-4.682
			c-0.275-1.488-0.584-3.297-0.921-5.371c-0.331-2.076-0.751-4.416-1.128-6.969c-0.383-2.553-0.8-5.32-1.239-8.246
			c-0.415-2.924-0.853-6.01-1.306-9.201c-0.861-6.387-1.627-13.198-2.324-20.006c-0.354-3.404-0.94-6.807-1.538-10.16
			c-0.593-3.352-1.103-6.648-1.151-9.84c-0.057-3.191,0.27-6.279,0.773-9.203c0.488-2.928,1.143-5.695,1.883-8.252
			c1.453-5.107,3.327-9.361,4.924-12.342c0.817-1.488,1.51-2.658,2.045-3.457c0.52-0.795,0.846-1.223,0.846-1.223H401.726z"/>
		<path opacity="0.5" fill="#444C4C" d="M402.807,243.747c-18.714,0.156-33.812,15.51-33.652,34.221
			c0.161,18.721,15.516,33.813,34.232,33.654c18.71-0.156,33.802-15.51,33.641-34.229
			C436.869,258.678,421.516,243.586,402.807,243.747z"/>
		<g>
			<path fill="#164257" d="M399.984,238.827c-18.712,0.158-33.81,15.51-33.649,34.223c0.161,18.719,15.516,33.813,34.229,33.652
				c18.712-0.156,33.806-15.508,33.645-34.227C434.052,253.758,418.698,238.668,399.984,238.827z"/>
			<path fill="#18A7CA" d="M400.075,249.186c-13.006,0.105-23.494,10.775-23.387,23.777c0.112,13.012,10.78,23.492,23.788,23.381
				c13.002-0.111,23.497-10.771,23.383-23.783C423.75,259.561,413.076,249.073,400.075,249.186z"/>
			<path fill="#83D0E3" d="M390.75,294.331c2.975,1.316,6.266,2.045,9.727,2.014c13.002-0.111,23.497-10.771,23.383-23.783
				c-0.041-4.625-1.421-8.926-3.761-12.551c-0.428,0.342-0.86,0.68-1.287,1.023C408.562,269.366,395.669,280.881,390.75,294.331z"/>
		</g>
		<circle fill="#164257" cx="400.273" cy="215.895" r="12.497"/>
		<circle fill="#18A7CA" cx="400.274" cy="215.895" r="7.435"/>
		<defs>
			<filter id="Adobe_OpacityMaskFilter_6_" filterUnits="userSpaceOnUse" x="351.601" y="278.178" width="17.271" height="116.693">
				<feFlood  style="flood-color:white;flood-opacity:1" result="back"/>
				<feBlend  in="SourceGraphic" in2="back" mode="normal"/>
			</filter>
		</defs>
		<mask maskUnits="userSpaceOnUse" x="351.601" y="278.178" width="17.271" height="116.693" id="SVGID_19_">
			<g filter="url(#Adobe_OpacityMaskFilter_6_)">
				<defs>
					
						<filter id="Adobe_OpacityMaskFilter_7_" filterUnits="userSpaceOnUse" x="351.601" y="278.178" width="17.271" height="116.693">
						<feFlood  style="flood-color:white;flood-opacity:1" result="back"/>
						<feBlend  in="SourceGraphic" in2="back" mode="normal"/>
					</filter>
				</defs>
				<mask maskUnits="userSpaceOnUse" x="351.601" y="278.178" width="17.271" height="116.693" id="SVGID_19_">
					<g filter="url(#Adobe_OpacityMaskFilter_7_)">
					</g>
				</mask>
				<linearGradient id="SVGID_20_" gradientUnits="userSpaceOnUse" x1="361.915" y1="284.7344" x2="359.1943" y2="409.8961">
					<stop  offset="0.129" style="stop-color:#808080"/>
					<stop  offset="0.2557" style="stop-color:#7A7A7A"/>
					<stop  offset="0.4232" style="stop-color:#696969"/>
					<stop  offset="0.6134" style="stop-color:#4E4E4E"/>
					<stop  offset="0.819" style="stop-color:#282828"/>
					<stop  offset="1" style="stop-color:#000000"/>
				</linearGradient>
				<path mask="url(#SVGID_19_)" fill="url(#SVGID_20_)" d="M357.64,278.178c0,0-0.273,1.799-0.602,4.959
					c-0.152,1.58-0.346,3.5-0.5,5.705c-0.164,2.203-0.328,4.691-0.434,7.408c-0.158,2.711-0.17,5.658-0.254,8.764
					c0.009,3.113-0.033,6.389,0.072,9.775c0.107,3.387,0.184,6.881,0.447,10.426c0.115,1.771,0.205,3.557,0.342,5.346
					c0.169,1.787,0.338,3.58,0.508,5.373c0.281,3.588,0.813,7.152,1.253,10.66c0.113,0.877,0.226,1.75,0.339,2.621
					c0.143,0.863,0.285,1.723,0.426,2.576c0.287,1.707,0.57,3.395,0.85,5.051c0.266,1.658,0.546,3.285,0.903,4.861
					c0.332,1.582,0.656,3.127,0.973,4.633c0.326,1.5,0.598,2.969,0.942,4.371c0.358,1.398,0.705,2.748,1.037,4.047
					c0.684,2.586,1.229,4.973,1.85,7.053c0.637,2.072,1.191,3.88,1.648,5.369c0.912,2.971,1.432,4.669,1.432,4.669l-10.808,3.026
					c0,0-0.372-1.824-1.024-5.016c-0.324-1.592-0.719-3.526-1.17-5.744c-0.436-2.219-0.766-4.752-1.211-7.492
					c-0.213-1.371-0.435-2.801-0.664-4.279c-0.215-1.48-0.351-3.023-0.537-4.6c-0.175-1.578-0.354-3.197-0.538-4.855
					c-0.208-1.65-0.334-3.348-0.444-5.074c-0.12-1.723-0.243-3.477-0.367-5.252c-0.061-0.885-0.12-1.775-0.18-2.672
					c-0.029-0.898-0.059-1.801-0.089-2.707c-0.104-3.623-0.29-7.293-0.226-10.971c0.006-1.834,0.01-3.668,0.016-5.496
					c0.035-1.826,0.119-3.645,0.176-5.447c0.081-3.605,0.345-7.145,0.566-10.566c0.226-3.42,0.586-6.719,0.88-9.84
					c0.387-3.119,0.685-6.066,1.106-8.771C355.869,285.245,357.64,278.178,357.64,278.178z"/>
			</g>
		</mask>
		<linearGradient id="SVGID_21_" gradientUnits="userSpaceOnUse" x1="361.915" y1="284.7344" x2="359.1943" y2="409.8961">
			<stop  offset="0.129" style="stop-color:#EAEFEE"/>
			<stop  offset="0.5208" style="stop-color:#F0F3F3"/>
			<stop  offset="1" style="stop-color:#FFFFFF"/>
		</linearGradient>
		<path fill="url(#SVGID_21_)" d="M357.64,278.178c0,0-0.273,1.799-0.602,4.959c-0.152,1.58-0.346,3.5-0.5,5.705
			c-0.164,2.203-0.328,4.691-0.434,7.408c-0.158,2.711-0.17,5.658-0.254,8.764c0.009,3.113-0.033,6.389,0.072,9.775
			c0.107,3.387,0.184,6.881,0.447,10.426c0.115,1.771,0.205,3.557,0.342,5.346c0.169,1.787,0.338,3.58,0.508,5.373
			c0.281,3.588,0.813,7.152,1.253,10.66c0.113,0.877,0.226,1.75,0.339,2.621c0.143,0.863,0.285,1.723,0.426,2.576
			c0.287,1.707,0.57,3.395,0.85,5.051c0.266,1.658,0.546,3.285,0.903,4.861c0.332,1.582,0.656,3.127,0.973,4.633
			c0.326,1.5,0.598,2.969,0.942,4.371c0.358,1.398,0.705,2.748,1.037,4.047c0.684,2.586,1.229,4.973,1.85,7.053
			c0.637,2.072,1.191,3.88,1.648,5.369c0.912,2.971,1.432,4.669,1.432,4.669l-10.808,3.026c0,0-0.372-1.824-1.024-5.016
			c-0.324-1.592-0.719-3.526-1.17-5.744c-0.436-2.219-0.766-4.752-1.211-7.492c-0.213-1.371-0.435-2.801-0.664-4.279
			c-0.215-1.48-0.351-3.023-0.537-4.6c-0.175-1.578-0.354-3.197-0.538-4.855c-0.208-1.65-0.334-3.348-0.444-5.074
			c-0.12-1.723-0.243-3.477-0.367-5.252c-0.061-0.885-0.12-1.775-0.18-2.672c-0.029-0.898-0.059-1.801-0.089-2.707
			c-0.104-3.623-0.29-7.293-0.226-10.971c0.006-1.834,0.01-3.668,0.016-5.496c0.035-1.826,0.119-3.645,0.176-5.447
			c0.081-3.605,0.345-7.145,0.566-10.566c0.226-3.42,0.586-6.719,0.88-9.84c0.387-3.119,0.685-6.066,1.106-8.771
			C355.869,285.245,357.64,278.178,357.64,278.178z"/>
		<defs>
			<filter id="Adobe_OpacityMaskFilter_8_" filterUnits="userSpaceOnUse" x="431.675" y="278.178" width="17.271" height="116.693">
				<feFlood  style="flood-color:white;flood-opacity:1" result="back"/>
				<feBlend  in="SourceGraphic" in2="back" mode="normal"/>
			</filter>
		</defs>
		<mask maskUnits="userSpaceOnUse" x="431.675" y="278.178" width="17.271" height="116.693" id="SVGID_22_">
			<g filter="url(#Adobe_OpacityMaskFilter_8_)">
				<defs>
					
						<filter id="Adobe_OpacityMaskFilter_9_" filterUnits="userSpaceOnUse" x="431.675" y="278.178" width="17.271" height="116.693">
						<feFlood  style="flood-color:white;flood-opacity:1" result="back"/>
						<feBlend  in="SourceGraphic" in2="back" mode="normal"/>
					</filter>
				</defs>
				<mask maskUnits="userSpaceOnUse" x="431.675" y="278.178" width="17.271" height="116.693" id="SVGID_22_">
					<g filter="url(#Adobe_OpacityMaskFilter_9_)">
					</g>
				</mask>
				
					<linearGradient id="SVGID_23_" gradientUnits="userSpaceOnUse" x1="361.9141" y1="284.7349" x2="359.1933" y2="409.8961" gradientTransform="matrix(-1 0 0 1 800.5469 0)">
					<stop  offset="0.129" style="stop-color:#808080"/>
					<stop  offset="0.2557" style="stop-color:#7A7A7A"/>
					<stop  offset="0.4232" style="stop-color:#696969"/>
					<stop  offset="0.6134" style="stop-color:#4E4E4E"/>
					<stop  offset="0.819" style="stop-color:#282828"/>
					<stop  offset="1" style="stop-color:#000000"/>
				</linearGradient>
				<path mask="url(#SVGID_22_)" fill="url(#SVGID_23_)" d="M442.907,278.178c0,0,0.272,1.799,0.601,4.959
					c0.152,1.58,0.346,3.5,0.501,5.705c0.163,2.203,0.327,4.691,0.433,7.408c0.159,2.711,0.171,5.658,0.255,8.764
					c-0.009,3.113,0.033,6.389-0.072,9.775c-0.107,3.387-0.185,6.881-0.447,10.426c-0.115,1.771-0.205,3.557-0.343,5.346
					c-0.168,1.787-0.338,3.58-0.507,5.373c-0.281,3.588-0.813,7.152-1.253,10.66c-0.113,0.877-0.227,1.75-0.339,2.621
					c-0.143,0.863-0.285,1.723-0.427,2.576c-0.286,1.707-0.57,3.395-0.849,5.051c-0.267,1.658-0.546,3.285-0.903,4.861
					c-0.332,1.582-0.656,3.127-0.973,4.633c-0.326,1.5-0.598,2.969-0.942,4.371c-0.358,1.398-0.705,2.748-1.037,4.047
					c-0.684,2.586-1.229,4.973-1.851,7.053c-0.637,2.072-1.191,3.88-1.648,5.369c-0.911,2.971-1.431,4.669-1.431,4.669l10.808,3.026
					c0,0,0.372-1.824,1.024-5.016c0.324-1.592,0.719-3.526,1.17-5.744c0.435-2.219,0.766-4.752,1.211-7.492
					c0.213-1.371,0.435-2.801,0.664-4.279c0.215-1.48,0.351-3.023,0.537-4.6c0.175-1.578,0.354-3.197,0.538-4.855
					c0.208-1.65,0.334-3.348,0.444-5.074c0.12-1.723,0.243-3.477,0.367-5.252c0.06-0.885,0.12-1.775,0.18-2.672
					c0.029-0.898,0.059-1.801,0.089-2.707c0.104-3.623,0.29-7.293,0.226-10.971c-0.006-1.834-0.011-3.668-0.016-5.496
					c-0.035-1.826-0.119-3.645-0.176-5.447c-0.081-3.605-0.345-7.145-0.567-10.566c-0.225-3.42-0.586-6.719-0.879-9.84
					c-0.387-3.119-0.685-6.066-1.107-8.771C444.678,285.245,442.906,278.178,442.907,278.178z"/>
			</g>
		</mask>
		
			<linearGradient id="SVGID_24_" gradientUnits="userSpaceOnUse" x1="361.9141" y1="284.7349" x2="359.1933" y2="409.8961" gradientTransform="matrix(-1 0 0 1 800.5469 0)">
			<stop  offset="0.129" style="stop-color:#EAEFEE"/>
			<stop  offset="0.5208" style="stop-color:#F0F3F3"/>
			<stop  offset="1" style="stop-color:#FFFFFF"/>
		</linearGradient>
		<path fill="url(#SVGID_24_)" d="M442.907,278.178c0,0,0.272,1.799,0.601,4.959c0.152,1.58,0.346,3.5,0.501,5.705
			c0.163,2.203,0.327,4.691,0.433,7.408c0.159,2.711,0.171,5.658,0.255,8.764c-0.009,3.113,0.033,6.389-0.072,9.775
			c-0.107,3.387-0.185,6.881-0.447,10.426c-0.115,1.771-0.205,3.557-0.343,5.346c-0.168,1.787-0.338,3.58-0.507,5.373
			c-0.281,3.588-0.813,7.152-1.253,10.66c-0.113,0.877-0.227,1.75-0.339,2.621c-0.143,0.863-0.285,1.723-0.427,2.576
			c-0.286,1.707-0.57,3.395-0.849,5.051c-0.267,1.658-0.546,3.285-0.903,4.861c-0.332,1.582-0.656,3.127-0.973,4.633
			c-0.326,1.5-0.598,2.969-0.942,4.371c-0.358,1.398-0.705,2.748-1.037,4.047c-0.684,2.586-1.229,4.973-1.851,7.053
			c-0.637,2.072-1.191,3.88-1.648,5.369c-0.911,2.971-1.431,4.669-1.431,4.669l10.808,3.026c0,0,0.372-1.824,1.024-5.016
			c0.324-1.592,0.719-3.526,1.17-5.744c0.435-2.219,0.766-4.752,1.211-7.492c0.213-1.371,0.435-2.801,0.664-4.279
			c0.215-1.48,0.351-3.023,0.537-4.6c0.175-1.578,0.354-3.197,0.538-4.855c0.208-1.65,0.334-3.348,0.444-5.074
			c0.12-1.723,0.243-3.477,0.367-5.252c0.06-0.885,0.12-1.775,0.18-2.672c0.029-0.898,0.059-1.801,0.089-2.707
			c0.104-3.623,0.29-7.293,0.226-10.971c-0.006-1.834-0.011-3.668-0.016-5.496c-0.035-1.826-0.119-3.645-0.176-5.447
			c-0.081-3.605-0.345-7.145-0.567-10.566c-0.225-3.42-0.586-6.719-0.879-9.84c-0.387-3.119-0.685-6.066-1.107-8.771
			C444.678,285.245,442.906,278.178,442.907,278.178z"/>
		<g>
			<path fill="#F35F10" d="M374.839,406.727c-9.623,12.131-8.773,30.494-8.773,30.494l3.961-9.836l4.813,61.318l4.811-61.318
				l3.963,9.836C383.612,437.221,384.461,418.857,374.839,406.727z"/>
			<path fill="#F35F10" d="M426.391,406.727c-9.623,12.131-8.773,30.494-8.773,30.494l3.962-9.836l4.812,61.318l4.81-61.318
				l3.961,9.836C435.161,437.221,436.01,418.857,426.391,406.727z"/>
		</g>
	</g>
	<g opacity="0.3">
		<g display="inline">
			<path fill="#FFFFFF" d="M296.405,774.121v-0.217c-0.287,0.336-0.574,0.604-0.853,0.811c-0.282,0.211-0.585,0.365-0.915,0.475
				c-0.33,0.104-0.688,0.162-1.076,0.162c-0.515,0-0.994-0.109-1.43-0.33c-0.44-0.213-0.82-0.527-1.137-0.934
				c-0.324-0.395-0.566-0.873-0.73-1.422c-0.167-0.547-0.249-1.139-0.249-1.773c0-1.346,0.33-2.393,0.983-3.146
				c0.658-0.748,1.521-1.123,2.592-1.123c0.623,0,1.145,0.109,1.568,0.318c0.429,0.215,0.842,0.543,1.246,0.975v-3.168
				c0-0.439,0.089-0.771,0.267-1.002c0.175-0.229,0.427-0.338,0.747-0.338c0.328,0,0.578,0.105,0.757,0.314
				c0.177,0.205,0.265,0.512,0.265,0.914v9.484c0,0.41-0.098,0.719-0.283,0.926c-0.193,0.199-0.434,0.305-0.738,0.305
				c-0.293,0-0.534-0.105-0.725-0.318C296.503,774.824,296.405,774.514,296.405,774.121z M292.177,770.963
				c0,0.58,0.089,1.08,0.27,1.488c0.184,0.412,0.434,0.715,0.744,0.928c0.313,0.205,0.659,0.314,1.031,0.314
				c0.378,0,0.725-0.109,1.039-0.303c0.309-0.195,0.561-0.492,0.749-0.9c0.183-0.412,0.278-0.918,0.278-1.527
				c0-0.574-0.096-1.063-0.278-1.475c-0.188-0.414-0.44-0.734-0.757-0.949c-0.32-0.223-0.668-0.328-1.045-0.328
				c-0.395,0-0.748,0.113-1.056,0.332c-0.309,0.227-0.55,0.553-0.722,0.971C292.263,769.928,292.177,770.412,292.177,770.963z"/>
			<path fill="#FFFFFF" d="M306.603,771.506h-4.207c0.007,0.49,0.104,0.92,0.295,1.291c0.193,0.377,0.445,0.656,0.768,0.842
				c0.315,0.195,0.665,0.283,1.049,0.283c0.26,0,0.492-0.025,0.706-0.086c0.21-0.059,0.413-0.16,0.618-0.285
				c0.199-0.125,0.385-0.266,0.553-0.416c0.168-0.145,0.383-0.346,0.65-0.596c0.111-0.092,0.27-0.145,0.475-0.145
				c0.225,0,0.395,0.057,0.537,0.178c0.133,0.121,0.203,0.301,0.203,0.514c0,0.199-0.077,0.426-0.229,0.686
				c-0.152,0.262-0.382,0.512-0.693,0.748c-0.301,0.236-0.688,0.434-1.154,0.598c-0.462,0.154-0.998,0.234-1.604,0.234
				c-1.385,0-2.455-0.398-3.225-1.182c-0.766-0.785-1.15-1.852-1.15-3.207c0-0.637,0.096-1.227,0.285-1.768
				c0.191-0.543,0.465-1.014,0.827-1.398c0.364-0.391,0.808-0.686,1.341-0.9c0.531-0.203,1.118-0.301,1.769-0.301
				c0.839,0,1.558,0.17,2.155,0.531c0.604,0.35,1.059,0.809,1.357,1.371c0.298,0.557,0.445,1.135,0.445,1.717
				c0,0.543-0.153,0.896-0.463,1.053C307.601,771.426,307.161,771.506,306.603,771.506z M302.396,770.287h3.898
				c-0.047-0.74-0.247-1.281-0.598-1.648c-0.34-0.367-0.797-0.551-1.354-0.551c-0.535,0-0.979,0.184-1.32,0.553
				C302.677,769.014,302.464,769.561,302.396,770.287z"/>
			<path fill="#FFFFFF" d="M317.112,772.539c0,0.592-0.145,1.1-0.431,1.52c-0.29,0.43-0.717,0.75-1.282,0.963
				c-0.564,0.221-1.249,0.33-2.059,0.33c-0.771,0-1.436-0.117-1.989-0.355c-0.552-0.236-0.958-0.533-1.22-0.883
				c-0.262-0.355-0.393-0.717-0.393-1.07c0-0.236,0.082-0.438,0.252-0.605c0.168-0.17,0.378-0.252,0.641-0.252
				c0.225,0,0.395,0.053,0.516,0.166c0.123,0.1,0.24,0.264,0.35,0.463c0.22,0.381,0.484,0.664,0.791,0.855
				c0.306,0.188,0.73,0.285,1.258,0.285c0.432,0,0.781-0.098,1.06-0.285c0.276-0.195,0.413-0.414,0.413-0.652
				c0-0.385-0.144-0.664-0.428-0.832c-0.29-0.176-0.759-0.346-1.418-0.5c-0.738-0.184-1.342-0.371-1.805-0.574
				c-0.465-0.207-0.836-0.471-1.117-0.801c-0.275-0.334-0.418-0.742-0.418-1.223c0-0.426,0.126-0.838,0.387-1.225
				c0.256-0.379,0.637-0.682,1.137-0.912c0.507-0.232,1.108-0.344,1.816-0.344c0.554,0,1.057,0.057,1.504,0.174
				c0.445,0.111,0.813,0.27,1.11,0.467c0.298,0.191,0.522,0.41,0.677,0.645s0.232,0.465,0.232,0.691
				c0,0.244-0.082,0.453-0.246,0.602c-0.168,0.16-0.403,0.238-0.705,0.238c-0.223,0-0.41-0.057-0.566-0.186
				c-0.154-0.123-0.331-0.314-0.529-0.57c-0.165-0.207-0.359-0.379-0.577-0.504c-0.22-0.125-0.52-0.189-0.899-0.189
				c-0.391,0-0.709,0.09-0.967,0.254c-0.26,0.164-0.385,0.369-0.385,0.615c0,0.227,0.094,0.408,0.28,0.551
				c0.19,0.146,0.442,0.273,0.765,0.363c0.318,0.092,0.764,0.205,1.328,0.348c0.662,0.164,1.211,0.357,1.632,0.58
				c0.424,0.229,0.741,0.494,0.96,0.799C317.007,771.797,317.112,772.15,317.112,772.539z"/>
			<path fill="#FFFFFF" d="M320.024,765.609c-0.305,0-0.56-0.1-0.768-0.275c-0.215-0.188-0.321-0.445-0.321-0.783
				c0-0.305,0.108-0.559,0.329-0.754c0.218-0.193,0.469-0.295,0.76-0.295c0.275,0,0.521,0.09,0.738,0.268
				c0.216,0.182,0.321,0.443,0.321,0.781c0,0.332-0.103,0.59-0.313,0.779C320.56,765.51,320.315,765.609,320.024,765.609z
				 M321.084,767.826v6.219c0,0.426-0.103,0.756-0.306,0.973c-0.203,0.225-0.463,0.334-0.781,0.334c-0.316,0-0.568-0.109-0.768-0.34
				c-0.195-0.225-0.294-0.549-0.294-0.967v-6.152c0-0.428,0.099-0.748,0.294-0.957c0.199-0.221,0.451-0.328,0.768-0.328
				c0.318,0,0.578,0.107,0.781,0.328C320.981,767.145,321.084,767.439,321.084,767.826z"/>
			<path fill="#FFFFFF" d="M331.218,768.182v6.25c0,0.709-0.072,1.326-0.229,1.838c-0.147,0.521-0.395,0.938-0.732,1.279
				c-0.335,0.33-0.771,0.586-1.317,0.752c-0.547,0.156-1.223,0.24-2.028,0.24c-0.742,0-1.406-0.104-1.988-0.309
				c-0.58-0.211-1.027-0.482-1.35-0.809c-0.31-0.326-0.469-0.66-0.469-1.012c0-0.266,0.09-0.477,0.268-0.639
				c0.176-0.17,0.391-0.254,0.645-0.254c0.316,0,0.593,0.141,0.827,0.422c0.114,0.141,0.235,0.283,0.359,0.43
				c0.128,0.141,0.258,0.266,0.411,0.367c0.149,0.105,0.332,0.18,0.535,0.23c0.211,0.047,0.455,0.076,0.727,0.076
				c0.558,0,0.99-0.076,1.299-0.23c0.307-0.156,0.523-0.375,0.649-0.648c0.122-0.281,0.188-0.582,0.21-0.895
				c0.021-0.32,0.039-0.83,0.051-1.537c-0.331,0.459-0.715,0.818-1.15,1.055c-0.432,0.244-0.943,0.369-1.547,0.369
				c-0.717,0-1.346-0.189-1.885-0.557c-0.54-0.363-0.955-0.881-1.239-1.547c-0.294-0.66-0.437-1.424-0.437-2.295
				c0-0.637,0.088-1.221,0.264-1.744c0.178-0.518,0.426-0.959,0.754-1.314c0.326-0.359,0.701-0.625,1.129-0.813
				c0.424-0.174,0.891-0.266,1.398-0.266c0.609,0,1.139,0.113,1.588,0.352c0.443,0.23,0.859,0.598,1.242,1.092v-0.285
				c0-0.375,0.093-0.662,0.277-0.867c0.186-0.207,0.418-0.307,0.709-0.307c0.416,0,0.689,0.137,0.828,0.404
				C331.151,767.283,331.218,767.668,331.218,768.182z M324.987,770.914c0,0.867,0.19,1.527,0.57,1.969
				c0.381,0.443,0.871,0.674,1.479,0.674c0.357,0,0.696-0.098,1.01-0.295c0.317-0.191,0.58-0.477,0.778-0.861
				c0.203-0.387,0.302-0.857,0.302-1.402c0-0.881-0.197-1.563-0.579-2.049c-0.389-0.492-0.897-0.738-1.527-0.738
				c-0.616,0-1.11,0.234-1.476,0.711C325.171,769.385,324.987,770.045,324.987,770.914z"/>
			<path fill="#FFFFFF" d="M335.35,767.797v0.26c0.38-0.5,0.792-0.865,1.239-1.098c0.453-0.234,0.966-0.352,1.549-0.352
				c0.57,0,1.077,0.125,1.523,0.367c0.442,0.25,0.777,0.598,1,1.053c0.143,0.26,0.234,0.547,0.273,0.846
				c0.043,0.311,0.065,0.695,0.065,1.168v4.004c0,0.426-0.101,0.756-0.296,0.973c-0.196,0.225-0.455,0.334-0.77,0.334
				c-0.322,0-0.58-0.109-0.78-0.34c-0.2-0.225-0.3-0.549-0.3-0.967v-3.582c0-0.709-0.098-1.256-0.297-1.635
				c-0.194-0.371-0.59-0.557-1.178-0.557c-0.383,0-0.734,0.109-1.047,0.342c-0.318,0.221-0.547,0.533-0.693,0.934
				c-0.104,0.33-0.157,0.928-0.157,1.797v2.701c0,0.432-0.101,0.764-0.303,0.977c-0.204,0.221-0.464,0.33-0.784,0.33
				c-0.311,0-0.565-0.109-0.764-0.34c-0.203-0.225-0.299-0.549-0.299-0.967v-6.219c0-0.41,0.088-0.715,0.269-0.916
				c0.179-0.203,0.423-0.303,0.729-0.303c0.189,0,0.361,0.045,0.514,0.129c0.148,0.098,0.275,0.23,0.365,0.408
				C335.304,767.322,335.35,767.543,335.35,767.797z"/>
			<path fill="#FFFFFF" d="M349.144,771.506h-4.203c0.002,0.49,0.096,0.92,0.293,1.291c0.191,0.377,0.447,0.656,0.763,0.842
				c0.319,0.195,0.671,0.283,1.054,0.283c0.256,0,0.492-0.025,0.704-0.086c0.216-0.059,0.417-0.16,0.624-0.285
				c0.195-0.125,0.383-0.266,0.545-0.416c0.174-0.145,0.387-0.346,0.656-0.596c0.109-0.092,0.27-0.145,0.475-0.145
				c0.222,0,0.396,0.057,0.532,0.178c0.14,0.121,0.208,0.301,0.208,0.514c0,0.199-0.077,0.426-0.229,0.686
				c-0.152,0.262-0.385,0.512-0.693,0.748c-0.304,0.236-0.688,0.434-1.156,0.598c-0.463,0.154-1,0.234-1.604,0.234
				c-1.383,0-2.454-0.398-3.225-1.182c-0.762-0.785-1.148-1.852-1.148-3.207c0-0.637,0.096-1.227,0.285-1.768
				c0.186-0.543,0.467-1.014,0.828-1.398c0.363-0.391,0.806-0.686,1.337-0.9c0.53-0.203,1.12-0.301,1.768-0.301
				c0.835,0,1.562,0.17,2.16,0.531c0.601,0.35,1.055,0.809,1.356,1.371c0.295,0.557,0.443,1.135,0.443,1.717
				c0,0.543-0.156,0.896-0.465,1.053C350.146,771.426,349.712,771.506,349.144,771.506z M344.94,770.287h3.896
				c-0.051-0.74-0.249-1.281-0.595-1.648c-0.341-0.367-0.797-0.551-1.359-0.551c-0.534,0-0.974,0.184-1.321,0.553
				C345.224,769.014,345.013,769.561,344.94,770.287z"/>
			<path fill="#FFFFFF" d="M358.628,774.121v-0.217c-0.293,0.336-0.576,0.604-0.857,0.811c-0.283,0.211-0.59,0.365-0.912,0.475
				c-0.33,0.104-0.688,0.162-1.076,0.162c-0.516,0-0.992-0.109-1.434-0.33c-0.438-0.213-0.814-0.527-1.139-0.934
				c-0.32-0.395-0.559-0.873-0.725-1.422c-0.169-0.547-0.25-1.139-0.25-1.773c0-1.346,0.328-2.393,0.982-3.146
				c0.662-0.748,1.529-1.123,2.596-1.123c0.621,0,1.143,0.109,1.564,0.318c0.428,0.215,0.844,0.543,1.25,0.975v-3.168
				c0-0.439,0.086-0.771,0.263-1.002c0.175-0.229,0.428-0.338,0.754-0.338c0.325,0,0.572,0.105,0.752,0.314
				c0.173,0.205,0.263,0.512,0.263,0.914v9.484c0,0.41-0.096,0.719-0.285,0.926c-0.187,0.199-0.437,0.305-0.729,0.305
				c-0.298,0-0.538-0.105-0.732-0.318C358.722,774.824,358.628,774.514,358.628,774.121z M354.397,770.963
				c0,0.58,0.09,1.08,0.27,1.488c0.182,0.412,0.432,0.715,0.744,0.928c0.316,0.205,0.659,0.314,1.033,0.314
				c0.378,0,0.725-0.109,1.037-0.303c0.307-0.195,0.558-0.492,0.744-0.9c0.189-0.412,0.285-0.918,0.285-1.527
				c0-0.574-0.096-1.063-0.285-1.475c-0.187-0.414-0.438-0.734-0.756-0.949c-0.315-0.223-0.665-0.328-1.043-0.328
				c-0.396,0-0.744,0.113-1.059,0.332c-0.309,0.227-0.547,0.553-0.714,0.971C354.481,769.928,354.397,770.412,354.397,770.963z"/>
			<path fill="#FFFFFF" d="M368.84,764.637v3.279c0.404-0.41,0.815-0.734,1.233-0.957c0.427-0.227,0.943-0.336,1.563-0.336
				c0.713,0,1.342,0.17,1.879,0.506c0.535,0.336,0.958,0.83,1.248,1.48c0.305,0.639,0.45,1.4,0.45,2.283
				c0,0.65-0.085,1.248-0.245,1.789c-0.168,0.543-0.408,1.02-0.725,1.414c-0.314,0.398-0.698,0.713-1.148,0.926
				c-0.447,0.221-0.94,0.33-1.48,0.33c-0.338,0-0.643-0.043-0.938-0.117c-0.288-0.076-0.537-0.186-0.746-0.316
				c-0.203-0.129-0.375-0.258-0.523-0.393c-0.139-0.139-0.334-0.346-0.567-0.621v0.217c0,0.404-0.101,0.713-0.294,0.926
				c-0.189,0.199-0.437,0.305-0.744,0.305c-0.297,0-0.545-0.105-0.727-0.305c-0.182-0.213-0.27-0.521-0.27-0.926v-9.393
				c0-0.432,0.086-0.762,0.262-0.984c0.178-0.227,0.423-0.336,0.734-0.336c0.335,0,0.591,0.105,0.771,0.322
				C368.747,763.939,368.84,764.246,368.84,764.637z M368.942,771.025c0,0.857,0.195,1.514,0.589,1.975
				c0.388,0.459,0.897,0.693,1.536,0.693c0.539,0,1.006-0.24,1.397-0.707c0.396-0.477,0.59-1.146,0.59-2.023
				c0-0.572-0.084-1.055-0.245-1.467c-0.162-0.408-0.398-0.727-0.695-0.953c-0.298-0.219-0.648-0.332-1.047-0.332
				c-0.408,0-0.771,0.113-1.094,0.332c-0.318,0.227-0.574,0.553-0.762,0.977C369.034,769.945,368.942,770.445,368.942,771.025z"/>
			<path fill="#FFFFFF" d="M378.712,775.617l0.194-0.482l-2.646-6.66c-0.164-0.387-0.244-0.656-0.244-0.836s0.05-0.355,0.145-0.512
				c0.092-0.16,0.219-0.281,0.387-0.377c0.168-0.094,0.336-0.143,0.518-0.143c0.312,0,0.541,0.1,0.699,0.289
				c0.159,0.203,0.297,0.486,0.419,0.85l1.822,5.297l1.722-4.928c0.141-0.398,0.266-0.709,0.37-0.934
				c0.108-0.223,0.231-0.377,0.355-0.457c0.12-0.076,0.294-0.117,0.525-0.117c0.158,0,0.315,0.045,0.464,0.129
				c0.151,0.09,0.268,0.205,0.346,0.354c0.088,0.146,0.125,0.299,0.125,0.461c-0.021,0.098-0.059,0.234-0.1,0.424
				c-0.049,0.186-0.108,0.377-0.178,0.564l-2.805,7.338c-0.246,0.648-0.477,1.154-0.713,1.518c-0.224,0.375-0.531,0.648-0.913,0.85
				c-0.384,0.193-0.897,0.297-1.541,0.297c-0.63,0-1.103-0.07-1.417-0.201c-0.316-0.143-0.474-0.387-0.474-0.752
				c0-0.248,0.073-0.436,0.224-0.572s0.372-0.201,0.666-0.201c0.113,0,0.228,0.016,0.338,0.047c0.137,0.033,0.253,0.043,0.357,0.043
				c0.244,0,0.441-0.033,0.582-0.105c0.143-0.072,0.268-0.201,0.379-0.383C378.433,776.234,378.566,775.969,378.712,775.617z"/>
		</g>
		<g display="inline">
			<path fill="#FFFFFF" d="M418.516,766.793h0.51v-0.643c0-0.674,0.084-1.211,0.264-1.6c0.164-0.402,0.455-0.686,0.863-0.869
				c0.406-0.186,0.961-0.273,1.678-0.273c1.25,0,1.881,0.307,1.881,0.922c0,0.201-0.068,0.369-0.203,0.516
				c-0.129,0.143-0.281,0.213-0.461,0.213c-0.088,0-0.232-0.016-0.436-0.055c-0.201-0.027-0.377-0.043-0.518-0.043
				c-0.391,0-0.641,0.115-0.75,0.342c-0.111,0.232-0.164,0.559-0.164,0.977v0.514h0.529c0.818,0,1.229,0.25,1.229,0.75
				c0,0.346-0.105,0.566-0.326,0.664c-0.221,0.092-0.518,0.145-0.902,0.145h-0.529v5.693c0,0.42-0.104,0.744-0.301,0.969
				c-0.207,0.229-0.465,0.338-0.787,0.338c-0.305,0-0.561-0.109-0.764-0.338c-0.199-0.225-0.303-0.549-0.303-0.969v-5.693h-0.592
				c-0.32,0-0.559-0.072-0.736-0.225c-0.176-0.139-0.262-0.326-0.262-0.563C417.436,767.051,417.797,766.793,418.516,766.793z"/>
			<path fill="#FFFFFF" d="M426.201,772.24v1.805c0,0.432-0.104,0.764-0.305,0.977c-0.209,0.221-0.471,0.33-0.787,0.33
				c-0.305,0-0.563-0.109-0.758-0.334c-0.205-0.217-0.303-0.547-0.303-0.973v-5.988c0-0.967,0.344-1.449,1.045-1.449
				c0.355,0,0.615,0.111,0.771,0.338c0.16,0.223,0.246,0.563,0.262,0.998c0.26-0.436,0.523-0.775,0.795-0.998
				c0.268-0.227,0.627-0.338,1.082-0.338c0.449,0,0.889,0.111,1.314,0.338c0.428,0.223,0.637,0.525,0.637,0.893
				c0,0.271-0.086,0.479-0.268,0.66c-0.182,0.164-0.375,0.248-0.59,0.248c-0.078,0-0.268-0.045-0.57-0.137
				c-0.301-0.105-0.564-0.152-0.805-0.152c-0.309,0-0.568,0.082-0.77,0.252c-0.199,0.164-0.348,0.408-0.465,0.732
				c-0.109,0.324-0.188,0.717-0.232,1.166C426.217,771.053,426.201,771.6,426.201,772.24z"/>
			<path fill="#FFFFFF" d="M436.732,771.506h-4.209c0.014,0.49,0.105,0.92,0.299,1.291c0.189,0.377,0.443,0.656,0.766,0.842
				c0.316,0.195,0.666,0.283,1.047,0.283c0.258,0,0.498-0.025,0.709-0.086c0.215-0.059,0.418-0.16,0.619-0.285
				c0.203-0.125,0.383-0.266,0.549-0.416c0.172-0.145,0.391-0.346,0.66-0.596c0.107-0.092,0.268-0.145,0.473-0.145
				c0.221,0,0.396,0.057,0.529,0.178s0.207,0.301,0.207,0.514c0,0.199-0.074,0.426-0.229,0.686
				c-0.156,0.262-0.385,0.512-0.684,0.748c-0.309,0.236-0.699,0.434-1.164,0.598c-0.467,0.154-1.002,0.234-1.602,0.234
				c-1.387,0-2.461-0.398-3.225-1.182c-0.768-0.785-1.15-1.852-1.15-3.207c0-0.637,0.094-1.227,0.287-1.768
				c0.184-0.543,0.459-1.014,0.824-1.398c0.361-0.391,0.809-0.686,1.342-0.9c0.525-0.203,1.115-0.301,1.768-0.301
				c0.838,0,1.551,0.17,2.154,0.531c0.605,0.35,1.059,0.809,1.355,1.371c0.299,0.557,0.453,1.135,0.453,1.717
				c0,0.543-0.154,0.896-0.471,1.053C437.727,771.426,437.303,771.506,436.732,771.506z M432.523,770.287h3.902
				c-0.057-0.74-0.244-1.281-0.588-1.648c-0.352-0.367-0.805-0.551-1.365-0.551c-0.537,0-0.973,0.184-1.322,0.553
				C432.809,769.014,432.604,769.561,432.523,770.287z"/>
			<path fill="#FFFFFF" d="M446.324,771.506h-4.211c0.01,0.49,0.107,0.92,0.297,1.291c0.191,0.377,0.449,0.656,0.764,0.842
				c0.32,0.195,0.674,0.283,1.055,0.283c0.256,0,0.484-0.025,0.701-0.086c0.213-0.059,0.426-0.16,0.617-0.285
				c0.201-0.125,0.385-0.266,0.555-0.416c0.168-0.145,0.393-0.346,0.656-0.596c0.111-0.092,0.266-0.145,0.473-0.145
				c0.221,0,0.4,0.057,0.535,0.178s0.201,0.301,0.201,0.514c0,0.199-0.074,0.426-0.223,0.686c-0.152,0.262-0.385,0.512-0.693,0.748
				c-0.305,0.236-0.693,0.434-1.156,0.598c-0.467,0.154-1,0.234-1.602,0.234c-1.381,0-2.457-0.398-3.225-1.182
				c-0.768-0.785-1.15-1.852-1.15-3.207c0-0.637,0.098-1.227,0.281-1.768c0.191-0.543,0.465-1.014,0.828-1.398
				c0.363-0.391,0.809-0.686,1.342-0.9c0.533-0.203,1.119-0.301,1.764-0.301c0.838,0,1.561,0.17,2.164,0.531
				c0.6,0.35,1.051,0.809,1.352,1.371c0.301,0.557,0.445,1.135,0.445,1.717c0,0.543-0.15,0.896-0.463,1.053
				C447.322,771.426,446.891,771.506,446.324,771.506z M442.113,770.287h3.898c-0.051-0.74-0.248-1.281-0.592-1.648
				s-0.791-0.551-1.355-0.551c-0.539,0-0.975,0.184-1.322,0.553C442.404,769.014,442.186,769.561,442.113,770.287z"/>
			<path fill="#FFFFFF" d="M451.682,767.818v0.248c0.41-0.494,0.828-0.861,1.262-1.092c0.436-0.238,0.93-0.352,1.482-0.352
				c0.66,0,1.268,0.17,1.828,0.51c0.555,0.344,0.994,0.842,1.32,1.496c0.32,0.652,0.482,1.43,0.482,2.334
				c0,0.66-0.096,1.264-0.283,1.822c-0.184,0.555-0.439,1.018-0.768,1.395c-0.324,0.375-0.705,0.666-1.15,0.869
				c-0.439,0.201-0.92,0.303-1.43,0.303c-0.617,0-1.133-0.125-1.549-0.371c-0.422-0.248-0.818-0.609-1.195-1.084v3.227
				c0,0.941-0.35,1.418-1.027,1.418c-0.412,0-0.678-0.125-0.811-0.363c-0.131-0.248-0.193-0.607-0.193-1.072v-9.279
				c0-0.41,0.09-0.715,0.266-0.916c0.178-0.203,0.424-0.303,0.738-0.303c0.303,0,0.547,0.1,0.738,0.313
				C451.588,767.127,451.682,767.424,451.682,767.818z M455.898,770.941c0-0.57-0.086-1.059-0.262-1.461
				c-0.176-0.41-0.412-0.727-0.719-0.941c-0.305-0.223-0.645-0.328-1.023-0.328c-0.586,0-1.09,0.234-1.5,0.711
				c-0.404,0.463-0.613,1.152-0.613,2.057c0,0.854,0.205,1.52,0.613,1.996c0.398,0.479,0.9,0.719,1.5,0.719
				c0.365,0,0.688-0.109,0.99-0.314c0.311-0.213,0.553-0.516,0.734-0.932C455.803,772.025,455.898,771.527,455.898,770.941z"/>
			<path fill="#FFFFFF" d="M460.875,765.609c-0.305,0-0.564-0.1-0.773-0.275c-0.207-0.188-0.32-0.445-0.32-0.783
				c0-0.305,0.113-0.559,0.334-0.754c0.209-0.193,0.465-0.295,0.76-0.295c0.273,0,0.521,0.09,0.738,0.268
				c0.211,0.182,0.322,0.443,0.322,0.781c0,0.332-0.105,0.59-0.318,0.779C461.408,765.51,461.156,765.609,460.875,765.609z
				 M461.936,767.826v6.219c0,0.426-0.105,0.756-0.313,0.973c-0.201,0.225-0.455,0.334-0.779,0.334c-0.314,0-0.568-0.109-0.764-0.34
				c-0.195-0.225-0.299-0.549-0.299-0.967v-6.152c0-0.428,0.104-0.748,0.299-0.957c0.195-0.221,0.449-0.328,0.764-0.328
				c0.324,0,0.578,0.107,0.779,0.328C461.83,767.145,461.936,767.439,461.936,767.826z"/>
			<path fill="#FFFFFF" d="M469.514,774.365l-1.902-3.121l-1.166,1.107v1.707c0,0.412-0.104,0.73-0.318,0.955
				c-0.227,0.229-0.479,0.338-0.756,0.338c-0.334,0-0.588-0.109-0.777-0.334c-0.197-0.217-0.285-0.547-0.285-0.973v-9.17
				c0-0.479,0.086-0.844,0.268-1.09c0.189-0.252,0.453-0.377,0.795-0.377c0.332,0,0.594,0.109,0.787,0.338
				c0.193,0.23,0.287,0.563,0.287,1.002v5.215l2.424-2.539c0.301-0.313,0.525-0.531,0.68-0.643c0.158-0.117,0.352-0.174,0.578-0.174
				c0.27,0,0.488,0.08,0.674,0.26c0.174,0.17,0.266,0.381,0.266,0.641c0,0.314-0.293,0.73-0.875,1.258l-1.145,1.047l2.207,3.467
				c0.168,0.26,0.283,0.453,0.354,0.586c0.064,0.131,0.104,0.264,0.104,0.381c0,0.344-0.092,0.609-0.275,0.813
				c-0.189,0.191-0.441,0.293-0.742,0.293c-0.262,0-0.461-0.074-0.607-0.217C469.947,774.996,469.756,774.738,469.514,774.365z"/>
			<path fill="#FFFFFF" d="M474.83,775.352c-0.322,0-0.605-0.105-0.84-0.318c-0.236-0.207-0.363-0.502-0.363-0.881
				c0-0.318,0.119-0.596,0.346-0.826s0.512-0.348,0.838-0.348s0.611,0.117,0.846,0.344c0.232,0.229,0.352,0.502,0.352,0.83
				c0,0.373-0.119,0.672-0.352,0.881C475.422,775.246,475.148,775.352,474.83,775.352z"/>
			<path fill="#FFFFFF" d="M486.174,772.688c0,0.268-0.08,0.553-0.244,0.855c-0.158,0.313-0.402,0.598-0.729,0.875
				c-0.328,0.275-0.748,0.498-1.242,0.662c-0.5,0.17-1.066,0.254-1.688,0.254c-1.328,0-2.367-0.387-3.111-1.162
				s-1.119-1.811-1.119-3.113c0-0.885,0.17-1.668,0.51-2.34c0.34-0.68,0.838-1.203,1.484-1.57c0.646-0.369,1.416-0.553,2.316-0.553
				c0.553,0,1.063,0.078,1.531,0.244c0.467,0.158,0.859,0.365,1.184,0.625c0.324,0.254,0.57,0.531,0.738,0.822
				c0.174,0.297,0.258,0.564,0.258,0.818c0,0.262-0.096,0.477-0.291,0.652c-0.191,0.178-0.422,0.268-0.695,0.268
				c-0.18,0-0.332-0.049-0.445-0.137c-0.123-0.092-0.25-0.24-0.398-0.447c-0.258-0.398-0.533-0.699-0.824-0.898
				c-0.285-0.197-0.65-0.297-1.09-0.297c-0.631,0-1.145,0.252-1.537,0.744c-0.385,0.498-0.582,1.172-0.582,2.035
				c0,0.406,0.049,0.777,0.152,1.115c0.096,0.336,0.244,0.625,0.43,0.871c0.188,0.232,0.42,0.42,0.684,0.539
				c0.27,0.125,0.566,0.184,0.887,0.184c0.426,0,0.799-0.104,1.107-0.293c0.305-0.211,0.576-0.508,0.814-0.92
				c0.133-0.24,0.273-0.43,0.424-0.561c0.152-0.143,0.338-0.207,0.559-0.207c0.27,0,0.479,0.094,0.656,0.295
				C486.082,772.254,486.174,772.463,486.174,772.688z"/>
			<path fill="#FFFFFF" d="M496.098,770.979c0,0.637-0.09,1.229-0.295,1.768c-0.201,0.545-0.492,1.012-0.869,1.395
				c-0.377,0.391-0.826,0.693-1.355,0.906c-0.525,0.199-1.115,0.305-1.775,0.305c-0.641,0-1.232-0.105-1.754-0.318
				c-0.516-0.207-0.973-0.508-1.355-0.895c-0.371-0.398-0.668-0.859-0.861-1.393c-0.193-0.529-0.297-1.123-0.297-1.768
				c0-0.652,0.104-1.242,0.307-1.793c0.193-0.533,0.48-1,0.848-1.383c0.377-0.385,0.832-0.676,1.359-0.883
				c0.531-0.213,1.115-0.313,1.754-0.313c0.66,0,1.242,0.107,1.775,0.316c0.533,0.205,0.984,0.506,1.365,0.898
				c0.381,0.385,0.662,0.846,0.859,1.385C496.008,769.744,496.098,770.336,496.098,770.979z M493.941,770.979
				c0-0.877-0.195-1.559-0.582-2.049c-0.381-0.486-0.896-0.73-1.557-0.73c-0.416,0-0.785,0.104-1.111,0.322
				c-0.316,0.221-0.564,0.543-0.74,0.967c-0.172,0.426-0.258,0.924-0.258,1.49c0,0.563,0.086,1.055,0.258,1.473
				c0.17,0.422,0.416,0.736,0.732,0.963c0.316,0.225,0.693,0.328,1.119,0.328c0.66,0,1.176-0.236,1.557-0.725
				C493.746,772.521,493.941,771.84,493.941,770.979z"/>
			<path fill="#FFFFFF" d="M504.951,771.135v2.861c0,0.451-0.104,0.791-0.305,1.016c-0.209,0.23-0.48,0.34-0.816,0.34
				c-0.324,0-0.588-0.109-0.793-0.34c-0.201-0.225-0.307-0.564-0.307-1.016v-3.424c0-0.547-0.016-0.959-0.049-1.266
				c-0.037-0.297-0.137-0.547-0.303-0.732c-0.16-0.197-0.418-0.287-0.771-0.287c-0.701,0-1.168,0.238-1.387,0.723
				c-0.225,0.484-0.338,1.178-0.338,2.076v2.91c0,0.445-0.1,0.781-0.303,1.01c-0.205,0.229-0.471,0.346-0.801,0.346
				c-0.322,0-0.588-0.117-0.803-0.346c-0.207-0.229-0.309-0.564-0.309-1.01v-6.158c0-0.398,0.09-0.709,0.277-0.914
				c0.191-0.209,0.438-0.316,0.734-0.316c0.301,0,0.547,0.1,0.738,0.289c0.203,0.203,0.299,0.479,0.299,0.82v0.199
				c0.373-0.439,0.771-0.768,1.201-0.977c0.422-0.207,0.898-0.316,1.412-0.316c0.547,0,1.01,0.109,1.396,0.322
				c0.391,0.215,0.711,0.541,0.963,0.971c0.359-0.432,0.752-0.76,1.17-0.975c0.408-0.209,0.871-0.318,1.375-0.318
				c0.588,0,1.096,0.113,1.521,0.344c0.428,0.238,0.74,0.566,0.953,0.992c0.188,0.393,0.275,1.002,0.275,1.838v4.199
				c0,0.451-0.105,0.791-0.311,1.016c-0.199,0.23-0.469,0.34-0.807,0.34c-0.322,0-0.596-0.117-0.797-0.346
				c-0.213-0.229-0.314-0.564-0.314-1.01v-3.619c0-0.457-0.018-0.83-0.061-1.111c-0.045-0.275-0.145-0.512-0.314-0.697
				c-0.178-0.191-0.439-0.281-0.793-0.281c-0.285,0-0.547,0.086-0.805,0.252c-0.252,0.162-0.459,0.391-0.6,0.68
				C505.027,769.576,504.951,770.215,504.951,771.135z"/>
		</g>
		<g display="inline">
			<path fill="#FFFFFF" d="M401.563,761.063c-0.041-0.137-0.084-0.277-0.131-0.412c0.717-0.066,1.205-0.936,0.854-1.576
				c-0.322-0.723-1.436-0.811-1.866-0.148c-0.458,0.59-0.099,1.514,0.603,1.703c0.047,0.143,0.084,0.297,0.129,0.443
				c-1.079,0.076-2.183,0.316-3.097,0.932c0.097,0.256,0.189,0.529,0.281,0.791c1.838-0.803,3.886-0.631,5.821-0.436
				c0.068-0.254,0.131-0.512,0.195-0.766C403.473,761.201,402.516,761.057,401.563,761.063z"/>
			<path fill="#FFFFFF" d="M412.467,764.02c-0.287,0.146-0.342,0.5-0.328,0.791c-0.322,0.313-0.168,0.789-0.201,1.178
				c-0.074,0.223-0.338,0.25-0.521,0.336c-0.254-0.393-0.52-0.762-0.865-1.08l0.004-0.018c-0.371-0.344-0.771-0.658-1.191-0.934
				c-0.336,0.359-0.693,0.721-1.018,1.094c0.643,0.709,1.24,1.48,1.768,2.275c0.363,0.613,0.654,1.262,0.91,1.928
				c0.543-0.283,1.084-0.574,1.627-0.857c-0.287-0.666-0.613-1.316-0.965-1.951c0.24-0.129,0.566-0.254,0.602-0.57
				c0.025-0.35-0.047-0.727,0.156-1.031c0.422,0.271,1.064-0.033,1.068-0.543C413.568,764.1,412.904,763.723,412.467,764.02z"/>
			<path fill="#FFFFFF" d="M409.518,767.975c-0.709-1.178-1.477-2.352-2.523-3.256c-1.201-1.063-2.77-1.781-4.398-1.771
				c-2.052-0.02-4.135,0.307-6.025,1.131c-1.785,0.783-3.337,2.188-4.119,3.988c-0.759,1.621-0.747,3.492-0.407,5.219
				c1.891,0.473,3.814,0.893,5.761,0.98c1.929,0.061,3.857,0.105,5.771-0.158c2.625-0.35,5.201-1.176,7.496-2.52
				C411.072,771.588,410.75,769.859,409.518,767.975z M400.23,770.305c-0.358,0.514-0.87,0.916-1.456,1.139
				c-1.107,0.412-2.451,0.129-3.247-0.75c-0.556-0.611-0.884-1.432-0.824-2.264c0.046-1.037,0.685-2.006,1.595-2.488
				c0.691-0.371,1.527-0.438,2.288-0.227c0.315,0.078,0.604,0.227,0.876,0.408c0.564,0.395,0.98,0.979,1.17,1.645
				C400.892,768.613,400.722,769.568,400.23,770.305z M408.195,768.43c-0.131,0.889-0.979,1.635-1.885,1.58
				c-0.523,0.045-1.027-0.203-1.385-0.574c-0.258-0.318-0.465-0.682-0.502-1.104c-0.123-0.895,0.512-1.826,1.391-2.039
				c0.387-0.109,0.797-0.049,1.18,0.045C407.818,766.627,408.361,767.564,408.195,768.43z"/>
			<path fill="#FFFFFF" d="M392.472,765.344c-0.768,0.463-1.398,1.119-1.926,1.838c-0.154-0.289-0.199-0.627-0.399-0.883
				c-0.113-0.15-0.319-0.088-0.478-0.088c-0.207,0.018-0.403-0.039-0.596-0.096c0.227-0.314,0.166-0.801-0.178-1.008
				c-0.368-0.262-0.938-0.035-1.037,0.402c-0.152,0.479,0.356,0.961,0.824,0.836c0.254,0.369,0.707,0.311,1.09,0.32
				c0.17,0.301,0.303,0.629,0.527,0.898c-0.415,0.813-0.648,1.723-0.668,2.633c0.531,0.223,1.063,0.447,1.59,0.668
				c0.024-0.578,0.094-1.148,0.179-1.707c0.177-1.242,0.892-2.309,1.737-3.193C392.929,765.744,392.692,765.553,392.472,765.344z"/>
			<path fill="#FFFFFF" d="M404.834,774.645c-1.953,0.426-3.958,0.551-5.95,0.465c-1.348-0.063-2.697-0.193-4.008-0.484
				c-0.934-0.189-1.85-0.463-2.771-0.725c0.15,1.17,0.625,2.293,1.302,3.26c0.798,1.123,1.867,2.15,3.196,2.568
				c1.036,0.283,2.271,0.635,4.405,0.598c1.76-0.027,3.49-0.252,5.035-0.916c0.996-0.424,1.928-1.006,2.734-1.74
				c0.693-0.654,1.238-1.469,1.609-2.34c0.363-0.832,0.691-2.313,0.658-3.076C409.137,773.34,407.008,774.283,404.834,774.645z"/>
		</g>
	</g>
	<g>
		<path display="inline" fill="#F9410F" d="M623.834,426.539h-18.309h-18.307c0,0-3.9,16.453,1.203,32.898
			c0,0,1.959-4.727,3.84-7.035c0.322-0.396,0.719-0.719,1.209-0.941c3.338-1.49-0.215,20.432,12.053,40.863
			c12.266-20.432,8.719-42.355,12.057-40.859c0.488,0.219,0.885,0.541,1.209,0.938c1.877,2.311,3.836,7.039,3.836,7.039
			C627.73,442.996,623.834,426.539,623.834,426.539z"/>
		<rect x="582.533" y="408.023" display="inline" fill="#F3110B" width="44.848" height="13.014"/>
		<g display="inline">
			<path fill="#F3110B" d="M563.914,340.071c0,0-35.77-14.168-28.523,81.054c0,0,11.318-39.521,36.832-28.583L563.914,340.071z"/>
			<path fill="#F3110B" d="M645.996,340.071c0,0,35.773-14.168,28.527,81.054c0,0-11.316-39.521-36.83-28.583L645.996,340.071z"/>
		</g>
		<g display="inline">
			<path fill="#F6CB17" d="M604.957,174.917h-0.002c-24.768,0-44.848,64.49-44.848,144.041c0,35.572,4.018,68.119,10.668,93.253
				h34.182V174.917z"/>
			<path fill="#F29220" d="M604.957,174.917h0.002c24.766,0,44.848,64.49,44.848,144.041c0,35.572-4.016,68.119-10.668,93.253
				h-34.182V174.917z"/>
		</g>
		<circle display="inline" fill="#164257" cx="604.957" cy="358.205" r="17.358"/>
		<path display="inline" fill="#83D0E3" d="M613.323,352.168c-1.875-2.596-4.919-4.291-8.366-4.291
			c-5.703,0-10.327,4.623-10.327,10.327c0,2.938,1.233,5.585,3.204,7.466C599.904,361.895,604.587,355.361,613.323,352.168z"/>
		<path display="inline" fill="#F1F1F1" d="M597.834,365.67c1.854,1.768,4.359,2.86,7.123,2.86c5.703,0,10.326-4.624,10.326-10.326
			c0-2.257-0.732-4.337-1.96-6.036C604.587,355.361,599.904,361.895,597.834,365.67z"/>
		<g display="inline">
			<path fill="#FFFFFF" d="M649.746,311.475c-0.082-5.154-0.25-10.234-0.498-15.23c-28.246-12.221-60.336-12.221-88.582,0
				c-0.246,4.996-0.416,10.076-0.498,15.23C588.27,297.032,621.645,297.032,649.746,311.475z"/>
			<path fill="#FFFFFF" d="M635.979,214.938c-1.477-4.541-3.051-8.756-4.707-12.621c-17.051-5.818-35.578-5.818-52.629,0
				c-1.656,3.865-3.23,8.08-4.705,12.621C593.533,205.508,616.381,205.508,635.979,214.938z"/>
			<path fill="#FFFFFF" d="M649.395,338.508c0.205-4.863,0.328-9.811,0.377-14.814c-28.547-12.527-61.082-12.527-89.629,0
				c0.051,5.004,0.172,9.951,0.377,14.814C588.43,324.305,621.484,324.305,649.395,338.508z"/>
		</g>
		<defs>
			<filter id="Adobe_OpacityMaskFilter_10_" filterUnits="userSpaceOnUse" x="619.738" y="248.223" width="23.954" height="160.23">
				<feFlood  style="flood-color:white;flood-opacity:1" result="back"/>
				<feBlend  in="SourceGraphic" in2="back" mode="normal"/>
			</filter>
		</defs>
		<mask maskUnits="userSpaceOnUse" x="619.738" y="248.223" width="23.954" height="160.23" id="SVGID_25_" display="inline">
			<g filter="url(#Adobe_OpacityMaskFilter_10_)">
				<defs>
					
						<filter id="Adobe_OpacityMaskFilter_11_" filterUnits="userSpaceOnUse" x="619.738" y="248.223" width="23.954" height="160.23">
						<feFlood  style="flood-color:white;flood-opacity:1" result="back"/>
						<feBlend  in="SourceGraphic" in2="back" mode="normal"/>
					</filter>
				</defs>
				<mask maskUnits="userSpaceOnUse" x="619.738" y="248.223" width="23.954" height="160.23" id="SVGID_25_">
					<g filter="url(#Adobe_OpacityMaskFilter_11_)">
					</g>
				</mask>
				
					<linearGradient id="SVGID_26_" gradientUnits="userSpaceOnUse" x1="170.126" y1="256.5786" x2="166.3882" y2="428.5234" gradientTransform="matrix(-0.9996 -0.0294 -0.0294 0.9996 810.1177 5.5825)">
					<stop  offset="0.129" style="stop-color:#808080"/>
					<stop  offset="0.2557" style="stop-color:#7A7A7A"/>
					<stop  offset="0.4232" style="stop-color:#696969"/>
					<stop  offset="0.6134" style="stop-color:#4E4E4E"/>
					<stop  offset="0.819" style="stop-color:#282828"/>
					<stop  offset="1" style="stop-color:#000000"/>
				</linearGradient>
				<path mask="url(#SVGID_25_)" fill="url(#SVGID_26_)" d="M638.319,248.223c0,0,0.268,2.479,0.548,6.832
					c0.126,2.176,0.289,4.818,0.393,7.852c0.114,3.033,0.219,6.455,0.239,10.189c0.089,3.729-0.016,7.777-0.037,12.045
					c-0.137,4.273-0.216,8.773-0.485,13.421c-0.271,4.647-0.507,9.442-0.979,14.301c-0.214,2.429-0.398,4.876-0.643,7.328
					c-0.281,2.446-0.565,4.903-0.848,7.359c-0.496,4.917-1.302,9.792-1.991,14.593c-0.177,1.201-0.353,2.395-0.528,3.586
					c-0.212,1.18-0.424,2.355-0.636,3.523c-0.425,2.334-0.847,4.639-1.26,6.902c-0.399,2.268-0.813,4.492-1.322,6.644
					c-0.477,2.16-0.943,4.271-1.397,6.325c-0.467,2.049-0.865,4.056-1.351,5.969c-0.502,1.906-0.989,3.748-1.455,5.52
					c-0.955,3.525-1.73,6.783-2.59,9.617c-0.876,2.822-1.64,5.284-2.269,7.312c-1.255,4.047-1.971,6.358-1.971,6.358l13.334,4.555
					c0,0,0.537-2.492,1.479-6.85c0.469-2.174,1.038-4.817,1.688-7.845c0.631-3.032,1.146-6.498,1.812-10.245
					c0.32-1.876,0.654-3.83,1-5.853c0.327-2.025,0.559-4.139,0.854-6.297c0.281-2.16,0.569-4.377,0.866-6.647
					c0.326-2.259,0.551-4.585,0.758-6.951c0.22-2.361,0.443-4.765,0.67-7.197c0.109-1.214,0.222-2.435,0.332-3.663
					c0.072-1.233,0.146-2.471,0.22-3.714c0.275-4.972,0.656-10.004,0.725-15.057c0.066-2.519,0.135-5.039,0.203-7.548
					c0.03-2.509-0.001-5.01,0.001-7.486c0.045-4.955-0.141-9.825-0.279-14.532c-0.142-4.705-0.458-9.247-0.696-13.545
					c-0.356-4.296-0.606-8.355-1.024-12.085C640.238,257.991,638.318,248.223,638.319,248.223z"/>
			</g>
		</mask>
		
			<linearGradient id="SVGID_27_" gradientUnits="userSpaceOnUse" x1="170.126" y1="256.5786" x2="166.3882" y2="428.5234" gradientTransform="matrix(-0.9996 -0.0294 -0.0294 0.9996 810.1177 5.5825)">
			<stop  offset="0.129" style="stop-color:#EAEFEE"/>
			<stop  offset="0.5208" style="stop-color:#F0F3F3"/>
			<stop  offset="1" style="stop-color:#FFFFFF"/>
		</linearGradient>
		<path display="inline" fill="url(#SVGID_27_)" d="M638.319,248.223c0,0,0.268,2.479,0.548,6.832
			c0.126,2.176,0.289,4.818,0.393,7.852c0.114,3.033,0.219,6.455,0.239,10.189c0.089,3.729-0.016,7.777-0.037,12.045
			c-0.137,4.273-0.216,8.773-0.485,13.421c-0.271,4.647-0.507,9.442-0.979,14.301c-0.214,2.429-0.398,4.876-0.643,7.328
			c-0.281,2.446-0.565,4.903-0.848,7.359c-0.496,4.917-1.302,9.792-1.991,14.593c-0.177,1.201-0.353,2.395-0.528,3.586
			c-0.212,1.18-0.424,2.355-0.636,3.523c-0.425,2.334-0.847,4.639-1.26,6.902c-0.399,2.268-0.813,4.492-1.322,6.644
			c-0.477,2.16-0.943,4.271-1.397,6.325c-0.467,2.049-0.865,4.056-1.351,5.969c-0.502,1.906-0.989,3.748-1.455,5.52
			c-0.955,3.525-1.73,6.783-2.59,9.617c-0.876,2.822-1.64,5.284-2.269,7.312c-1.255,4.047-1.971,6.358-1.971,6.358l13.334,4.555
			c0,0,0.537-2.492,1.479-6.85c0.469-2.174,1.038-4.817,1.688-7.845c0.631-3.032,1.146-6.498,1.812-10.245
			c0.32-1.876,0.654-3.83,1-5.853c0.327-2.025,0.559-4.139,0.854-6.297c0.281-2.16,0.569-4.377,0.866-6.647
			c0.326-2.259,0.551-4.585,0.758-6.951c0.22-2.361,0.443-4.765,0.67-7.197c0.109-1.214,0.222-2.435,0.332-3.663
			c0.072-1.233,0.146-2.471,0.22-3.714c0.275-4.972,0.656-10.004,0.725-15.057c0.066-2.519,0.135-5.039,0.203-7.548
			c0.03-2.509-0.001-5.01,0.001-7.486c0.045-4.955-0.141-9.825-0.279-14.532c-0.142-4.705-0.458-9.247-0.696-13.545
			c-0.356-4.296-0.606-8.355-1.024-12.085C640.238,257.991,638.318,248.223,638.319,248.223z"/>
		<defs>
			
				<filter id="Adobe_OpacityMaskFilter_12_" filterUnits="userSpaceOnUse" x="567.836" y="180.643" width="31.997" height="225.843">
				<feFlood  style="flood-color:white;flood-opacity:1" result="back"/>
				<feBlend  in="SourceGraphic" in2="back" mode="normal"/>
			</filter>
		</defs>
		<mask maskUnits="userSpaceOnUse" x="567.836" y="180.643" width="31.997" height="225.843" id="SVGID_28_" display="inline">
			<g filter="url(#Adobe_OpacityMaskFilter_12_)">
				<defs>
					
						<filter id="Adobe_OpacityMaskFilter_13_" filterUnits="userSpaceOnUse" x="567.836" y="180.643" width="31.997" height="225.843">
						<feFlood  style="flood-color:white;flood-opacity:1" result="back"/>
						<feBlend  in="SourceGraphic" in2="back" mode="normal"/>
					</filter>
				</defs>
				<mask maskUnits="userSpaceOnUse" x="567.836" y="180.643" width="31.997" height="225.843" id="SVGID_28_">
					<g filter="url(#Adobe_OpacityMaskFilter_13_)">
					</g>
				</mask>
				<linearGradient id="SVGID_29_" gradientUnits="userSpaceOnUse" x1="583.7373" y1="177.1338" x2="584.1025" y2="411.2005">
					<stop  offset="0.4731" style="stop-color:#808080"/>
					<stop  offset="0.5216" style="stop-color:#7A7A7A"/>
					<stop  offset="0.5857" style="stop-color:#696969"/>
					<stop  offset="0.6585" style="stop-color:#4E4E4E"/>
					<stop  offset="0.7372" style="stop-color:#282828"/>
					<stop  offset="0.8065" style="stop-color:#000000"/>
				</linearGradient>
				<path mask="url(#SVGID_28_)" fill="url(#SVGID_29_)" d="M587.306,235.534c2.064-27.369,12.527-54.891,12.527-54.891
					c-18.908,24.234-23.956,55.283-23.956,55.283c-21.954,76.55,8.005,170.56,8.005,170.56l12.036-1.914
					C577.661,296.183,587.306,235.534,587.306,235.534z"/>
			</g>
		</mask>
		<linearGradient id="SVGID_30_" gradientUnits="userSpaceOnUse" x1="583.7373" y1="177.1338" x2="584.1025" y2="411.2005">
			<stop  offset="0.4731" style="stop-color:#EAEFEE"/>
			<stop  offset="0.6231" style="stop-color:#F0F3F3"/>
			<stop  offset="0.8065" style="stop-color:#FFFFFF"/>
		</linearGradient>
		<path display="inline" fill="url(#SVGID_30_)" d="M587.306,235.534c2.064-27.369,12.527-54.891,12.527-54.891
			c-18.908,24.234-23.956,55.283-23.956,55.283c-21.954,76.55,8.005,170.56,8.005,170.56l12.036-1.914
			C577.661,296.183,587.306,235.534,587.306,235.534z"/>
		<circle display="inline" fill="#164257" cx="604.957" cy="243.92" r="22.424"/>
		<path display="inline" fill="#83D0E3" d="M615.766,236.124c-2.424-3.354-6.355-5.543-10.809-5.543
			c-7.367,0-13.342,5.973-13.342,13.34c0,3.797,1.595,7.215,4.141,9.645C598.431,248.688,604.479,240.248,615.766,236.124z"/>
		<path display="inline" fill="#F1F1F1" d="M595.756,253.565c2.396,2.285,5.631,3.695,9.201,3.695c7.367,0,13.34-5.973,13.34-13.34
			c0-2.914-0.945-5.603-2.531-7.797C604.479,240.248,598.431,248.688,595.756,253.565z"/>
	</g>
</g>
</svg>
