<?xml version="1.0" encoding="utf-8"?>
<!-- Generator: Adobe Illustrator 16.0.0, SVG Export Plug-In . SVG Version: 6.00 Build 0)  -->
<!DOCTYPE svg PUBLIC "-//W3C//DTD SVG 1.1//EN" "http://www.w3.org/Graphics/SVG/1.1/DTD/svg11.dtd">
<svg version="1.1" xmlns="http://www.w3.org/2000/svg" xmlns:xlink="http://www.w3.org/1999/xlink" x="0px" y="0px"
	 width="197.99px" height="326.224px" viewBox="0 0 197.99 326.224" enable-background="new 0 0 197.99 326.224"
	 xml:space="preserve">
<g id="background" display="none">
	<linearGradient id="SVGID_1_" gradientUnits="userSpaceOnUse" x1="100.4102" y1="-170.0991" x2="92.4095" y2="669.9025">
		<stop  offset="0.0215" style="stop-color:#1C1B59"/>
		<stop  offset="0.7043" style="stop-color:#1A1B36"/>
	</linearGradient>
	<rect x="-303.473" y="-162.479" display="inline" fill="url(#SVGID_1_)" width="800" height="800"/>
	<g display="inline" opacity="0.15">
		<polygon fill="#FFFFFF" points="-100.037,-25.367 -98.516,-20.686 -93.594,-20.686 -97.576,-17.793 -96.055,-13.112 
			-100.037,-16.005 -104.018,-13.112 -102.498,-17.793 -106.479,-20.686 -101.558,-20.686 		"/>
		<polygon fill="#FFFFFF" points="82.575,-41.602 86.342,-36.172 92.669,-38.076 88.669,-32.816 92.437,-27.387 86.198,-29.565 
			82.198,-24.307 82.343,-30.912 76.104,-33.092 82.431,-34.995 		"/>
		<polygon fill="#FFFFFF" points="399.524,-16.99 403.292,-11.56 409.618,-13.465 405.619,-8.204 409.386,-2.775 403.147,-4.953 
			399.146,0.307 399.292,-6.301 393.054,-8.479 399.38,-10.383 		"/>
		<polygon fill="#FFFFFF" points="454.437,75.994 452.411,82.285 457.766,86.154 451.158,86.172 449.133,92.462 447.075,86.183 
			440.466,86.198 445.803,82.302 443.746,76.022 449.1,79.893 		"/>
		<polygon fill="#FFFFFF" points="403.314,161.726 405.724,165.199 409.771,163.98 407.213,167.346 409.622,170.818 
			405.633,169.426 403.073,172.789 403.166,168.563 399.175,167.17 403.222,165.951 		"/>
		<polygon fill="#FFFFFF" points="-19.77,329.824 -16.038,335.201 -9.773,333.314 -13.733,338.523 -10.002,343.9 -16.182,341.742 
			-20.143,346.951 -20,340.41 -26.178,338.251 -19.912,336.365 		"/>
		<polygon fill="#FFFFFF" points="121.453,-126.434 125.048,-121.253 131.083,-123.07 127.268,-118.051 130.862,-112.871 
			124.91,-114.949 121.093,-109.932 121.23,-116.234 115.278,-118.313 121.315,-120.13 		"/>
		<polygon fill="#FFFFFF" points="309.966,-126.07 313.387,-121.14 319.13,-122.869 315.499,-118.093 318.92,-113.163 
			313.255,-115.142 309.623,-110.365 309.754,-116.364 304.09,-118.342 309.834,-120.071 		"/>
		<polygon fill="#FFFFFF" points="-30.158,-75.335 -28.665,-64.89 -18.22,-63.396 -28.665,-61.902 -30.158,-51.457 -31.65,-61.902 
			-42.097,-63.396 -31.65,-64.89 		"/>
		<polygon fill="#FFFFFF" points="-221.422,-112.813 -220.555,-106.747 -214.49,-105.88 -220.555,-105.013 -221.422,-98.947 
			-222.289,-105.013 -228.354,-105.88 -222.289,-106.747 		"/>
		<polygon fill="#FFFFFF" points="9.734,87.176 11.228,97.621 21.673,99.114 11.228,100.607 9.734,111.053 8.241,100.607 
			-2.204,99.114 8.241,97.621 		"/>
		<polygon fill="#FFFFFF" points="312.947,-42.076 314.44,-31.631 324.886,-30.137 314.44,-28.644 312.947,-18.197 311.455,-28.644 
			301.009,-30.137 311.455,-31.631 		"/>
		<polygon fill="#FFFFFF" points="-115.93,-112.813 -115.014,-106.402 -108.604,-105.486 -115.014,-104.57 -115.93,-98.16 
			-116.845,-104.57 -123.255,-105.486 -116.845,-106.402 		"/>
		<polygon fill="#FFFFFF" points="-178.965,1.302 -178.248,6.324 -173.226,7.042 -178.248,7.76 -178.965,12.783 -179.683,7.76 
			-184.705,7.042 -179.683,6.324 		"/>
		<polygon fill="#FFFFFF" points="-267.789,132.505 -266.295,142.951 -255.85,144.443 -266.295,145.938 -267.789,156.383 
			-269.281,145.938 -279.727,144.443 -269.281,142.951 		"/>
		<polygon fill="#FFFFFF" points="353.12,358.154 354.613,368.599 365.059,370.091 354.613,371.585 353.12,382.031 351.628,371.585 
			341.182,370.091 351.628,368.599 		"/>
		<polygon fill="#FFFFFF" points="198.883,-56.279 203.705,-52.664 208.527,-56.279 204.911,-51.457 208.527,-46.635 
			203.705,-50.251 198.883,-46.635 202.498,-51.457 		"/>
		<polygon fill="#FFFFFF" points="-213.003,74.67 -206.828,79.301 -200.654,74.671 -205.284,80.846 -200.654,87.02 -206.828,82.389 
			-213.003,87.02 -208.373,80.845 		"/>
		<polygon fill="#FFFFFF" points="-225.84,319.71 -221.422,323.025 -217.003,319.71 -220.316,324.13 -217.003,328.546 
			-221.422,325.234 -225.84,328.546 -222.527,324.128 		"/>
		<polygon fill="#FFFFFF" points="393.585,279.287 401.336,285.097 409.086,279.287 403.274,287.037 409.086,294.787 
			401.336,288.974 393.585,294.787 399.396,287.037 		"/>
		<polygon fill="#FFFFFF" points="205.528,58.66 212.147,63.623 218.766,58.66 213.803,65.279 218.766,71.897 212.147,66.934 
			205.528,71.896 210.491,65.278 		"/>
		<circle fill="#FFFFFF" cx="30.132" cy="-99.992" r="3.785"/>
		<circle fill="#FFFFFF" cx="9.735" cy="11.037" r="3.996"/>
		<circle fill="#FFFFFF" cx="-143.859" cy="392.652" r="2.465"/>
		<circle fill="#FFFFFF" cx="-248.236" cy="264.06" r="2.465"/>
		<circle fill="#FFFFFF" cx="440.777" cy="338.388" r="2.465"/>
		<circle fill="#FFFFFF" cx="195.263" cy="301.63" r="3.996"/>
		<circle fill="#FFFFFF" cx="436.782" cy="219.283" r="3.995"/>
		<circle fill="#FFFFFF" cx="349.085" cy="37.55" r="3.995"/>
		<circle fill="#FFFFFF" cx="-279.728" cy="25.285" r="3.995"/>
		<circle fill="#FFFFFF" cx="457.765" cy="-110.365" r="3.995"/>
		<circle fill="#FFFFFF" cx="465.754" cy="19.027" r="3.995"/>
		<circle fill="#FFFFFF" cx="134.728" cy="15.033" r="3.995"/>
		<circle fill="#FFFFFF" cx="226.741" cy="-105.879" r="3.995"/>
		<path fill="#FFFFFF" d="M99.1,370.091c0,2.381-1.928,4.313-4.31,4.313s-4.311-1.932-4.311-4.313c0-2.379,1.929-4.311,4.311-4.311
			S99.1,367.712,99.1,370.091z"/>
		<polygon fill="#FFFFFF" points="29.853,435.853 33.555,441.189 39.771,439.318 35.841,444.486 39.544,449.822 33.413,447.681 
			29.481,452.849 29.624,446.357 23.493,444.216 29.71,442.345 		"/>
		<polygon fill="#FFFFFF" points="-178.048,413.83 -171.818,418.501 -165.588,413.83 -170.26,420.06 -165.588,426.289 
			-171.818,421.619 -178.048,426.289 -173.377,420.058 		"/>
		<circle fill="#FFFFFF" cx="146.527" cy="456.908" r="4.059"/>
		<circle fill="#FFFFFF" cx="-188.239" cy="-51.457" r="3.995"/>
	</g>
	<g display="inline">
		<defs>
			<rect id="SVGID_2_" x="-303.473" y="-162.479" width="800" height="800"/>
		</defs>
		<clipPath id="SVGID_3_">
			<use xlink:href="#SVGID_2_"  overflow="visible"/>
		</clipPath>
		<path opacity="0.7" clip-path="url(#SVGID_3_)" fill="#E4324C" d="M550.066,499.982c0-61.74-50.049-111.789-111.791-111.789
			c-42.093,0-78.744,23.268-97.813,57.641c-10.983-5.787-23.486-9.08-36.764-9.08c-3.298,0-6.541,0.227-9.731,0.619
			c-8.425-36.598-41.181-63.898-80.338-63.898c-30.786,0-57.613,16.883-71.778,41.885c-5.934-1.6-12.169-2.467-18.609-2.467
			c-20.25,0-38.516,8.451-51.501,22.002c-19.803-30.359-54.063-50.432-93.015-50.432c-45.259,0-84.185,27.096-101.455,65.947
			c-10.016-4.424-21.086-6.898-32.74-6.898c-7.813,0-15.359,1.127-22.511,3.188c-20.966-27.848-54.3-45.857-91.844-45.857
			c-63.454,0-114.894,51.439-114.894,114.895c0,50.105,32.081,92.715,76.82,108.424v87.609h808.83V592.57
			C530.583,572.468,550.066,538.501,550.066,499.982z"/>
		<path clip-path="url(#SVGID_3_)" fill="#E4324C" d="M524.348,581.626c0-56.309-45.646-101.955-101.958-101.955
			c-38.391,0-71.817,21.221-89.209,52.57c-10.018-5.279-21.421-8.281-33.53-8.281c-3.008,0-5.966,0.207-8.876,0.564
			c-7.683-33.379-37.557-58.277-73.271-58.277c-28.079,0-52.547,15.396-65.466,38.199c-5.411-1.459-11.098-2.25-16.972-2.25
			c-18.469,0-35.128,7.707-46.972,20.066c-18.061-27.689-49.307-45.994-84.833-45.994c-41.277,0-76.779,24.711-92.531,60.145
			c-9.135-4.033-19.23-6.291-29.86-6.291c-7.126,0-14.009,1.027-20.53,2.908c-19.122-25.398-49.524-41.824-83.766-41.824
			c-57.873,0-104.787,46.914-104.787,104.789c0,45.699,29.258,84.559,70.063,98.887v79.904h737.688V666.072
			C506.578,647.738,524.348,616.757,524.348,581.626z"/>
	</g>
</g>
<g id="objects">
	<g display="none">
		<path display="inline" fill="#F98B12" d="M-123.378,242.55c-2.101,4.148-4.698,19.705-3.22,30.074
			c0.298-1.098,1.491-3.625,1.789-4.711c-0.543,2.873,5.825,59.785,6.648,68.93c0.904-8.918,4.201-55.299,4.084-60.688
			c0.506,1.545,1.154,4.971,2.188,6.109c0.096-26.619-0.979-34.266-2.246-39.715H-123.378z"/>
		<g display="inline">
			<linearGradient id="SVGID_4_" gradientUnits="userSpaceOnUse" x1="-118.9995" y1="221.9854" x2="-119.5924" y2="239.1717">
				<stop  offset="0.2393" style="stop-color:#E10F82"/>
				<stop  offset="0.9035" style="stop-color:#F25F96"/>
				<stop  offset="1" style="stop-color:#F46B99"/>
			</linearGradient>
			<path fill="url(#SVGID_4_)" d="M-109.281,233.73c0,2.598-2.708,4.7-6.049,4.7h-7.998c-3.34,0-6.048-2.103-6.048-4.7v-4.474
				c0-2.595,2.708-4.698,6.048-4.698h7.998c3.341,0,6.049,2.104,6.049,4.698V233.73z"/>
			<linearGradient id="SVGID_5_" gradientUnits="userSpaceOnUse" x1="-98.9302" y1="222.6777" x2="-99.5231" y2="239.8636">
				<stop  offset="0.2393" style="stop-color:#E10F82"/>
				<stop  offset="0.9035" style="stop-color:#F25F96"/>
				<stop  offset="1" style="stop-color:#F46B99"/>
			</linearGradient>
			<path fill="url(#SVGID_5_)" d="M-89.188,233.73c0,2.598-2.707,4.7-6.049,4.7h-7.998c-3.34,0-6.047-2.103-6.047-4.7v-4.474
				c0-2.595,2.707-4.698,6.047-4.698h7.998c3.342,0,6.049,2.104,6.049,4.698V233.73z"/>
		</g>
		<g display="inline">
			<linearGradient id="SVGID_6_" gradientUnits="userSpaceOnUse" x1="-178.9648" y1="180.6353" x2="-148.9268" y2="180.6353">
				<stop  offset="0.2393" style="stop-color:#E10F82"/>
				<stop  offset="0.9035" style="stop-color:#F25F96"/>
				<stop  offset="1" style="stop-color:#F46B99"/>
			</linearGradient>
			<path fill="url(#SVGID_6_)" d="M-150.93,134.975c0,0-28.035,19.227-28.035,32.045c0,12.814,0,59.276,0,59.276l30.038-30.04
				L-150.93,134.975z"/>
			<linearGradient id="SVGID_7_" gradientUnits="userSpaceOnUse" x1="-72.5537" y1="180.6353" x2="-42.5156" y2="180.6353">
				<stop  offset="0.2393" style="stop-color:#E10F82"/>
				<stop  offset="0.9035" style="stop-color:#F25F96"/>
				<stop  offset="1" style="stop-color:#F46B99"/>
			</linearGradient>
			<path fill="url(#SVGID_7_)" d="M-70.553,134.975c0,0,28.037,19.227,28.037,32.045c0,12.814,0,59.276,0,59.276l-30.038-30.04
				L-70.553,134.975z"/>
		</g>
		<path display="inline" opacity="0.5" fill="#F8F145" d="M-125.787,268.468l2.07-4.65c0,0,3.895,39.965,5.409,55.594
			c0,0,3.995-36.072,2.599-51.023l3.135,10.771c0,0-0.719-23.24-1.817-33.305l-7.867-1.066
			C-122.259,244.789-125.455,249.964-125.787,268.468z"/>
		<path display="inline" fill="#F6EEAA" d="M-118.49,298.169c0,0,1.719-38.129,2.561-50.582l-5.098,0.438
			C-121.027,248.025-121.008,281.97-118.49,298.169z"/>
		<path display="inline" fill="#F98B12" d="M-97.4,242.55c2.1,4.148,4.698,19.705,3.219,30.074
			c-0.297-1.098-1.492-3.625-1.789-4.711c0.543,2.873-5.824,59.785-6.648,68.93c-0.904-8.918-4.201-55.299-4.083-60.688
			c-0.508,1.545-1.155,4.971-2.19,6.109c-0.093-26.619,0.98-34.266,2.247-39.715H-97.4z"/>
		<path display="inline" opacity="0.5" fill="#F8F145" d="M-94.99,268.468l-2.073-4.65c0,0-3.893,39.965-5.409,55.594
			c0,0-3.996-36.072-2.599-51.023l-3.136,10.771c0,0,0.722-23.24,1.82-33.305l7.867-1.066
			C-98.52,244.789-95.324,249.964-94.99,268.468z"/>
		<path display="inline" fill="#F6EEAA" d="M-102.288,298.169c0,0-1.721-38.129-2.563-50.582l5.1,0.438
			C-99.752,248.025-99.771,281.97-102.288,298.169z"/>
		
			<linearGradient id="SVGID_8_" gradientUnits="userSpaceOnUse" x1="427.7656" y1="-642.7632" x2="346.4838" y2="-707.9351" gradientTransform="matrix(0.7458 -0.6661 0.6661 0.7458 55.6372 881.1602)">
			<stop  offset="0.2393" style="stop-color:#1C93C1"/>
			<stop  offset="0.9957" style="stop-color:#14678B"/>
		</linearGradient>
		<path display="inline" fill="url(#SVGID_8_)" d="M-158.393,138.131c0.312,36.355,8.283,69.57,21.252,95.262
			c8.561-2.797,17.692-4.361,27.178-4.442c9.487-0.081,18.641,1.327,27.252,3.979c12.521-25.908,19.931-59.252,19.621-95.607
			C-63.582,79.568-83.383,29.729-111.861,5.439C-139.932,30.209-158.883,80.377-158.393,138.131z"/>
		<defs>
			<filter id="Adobe_OpacityMaskFilter" filterUnits="userSpaceOnUse" x="-90.632" y="54.881" width="27.551" height="178.049">
				<feFlood  style="flood-color:white;flood-opacity:1" result="back"/>
				<feBlend  in="SourceGraphic" in2="back" mode="normal"/>
			</filter>
		</defs>
		<mask maskUnits="userSpaceOnUse" x="-90.632" y="54.881" width="27.551" height="178.049" id="SVGID_9_" display="inline">
			<g filter="url(#Adobe_OpacityMaskFilter)">
				<defs>
					
						<filter id="Adobe_OpacityMaskFilter_1_" filterUnits="userSpaceOnUse" x="-90.632" y="54.881" width="27.551" height="178.049">
						<feFlood  style="flood-color:white;flood-opacity:1" result="back"/>
						<feBlend  in="SourceGraphic" in2="back" mode="normal"/>
					</filter>
				</defs>
				<mask maskUnits="userSpaceOnUse" x="-90.632" y="54.881" width="27.551" height="178.049" id="SVGID_9_">
					<g filter="url(#Adobe_OpacityMaskFilter_1_)">
					</g>
				</mask>
				
					<linearGradient id="SVGID_10_" gradientUnits="userSpaceOnUse" x1="456.2178" y1="-699.1846" x2="327.3299" y2="-573.9581" gradientTransform="matrix(0.7458 -0.6661 0.6661 0.7458 55.6372 881.1602)">
					<stop  offset="0" style="stop-color:#808080"/>
					<stop  offset="0.1455" style="stop-color:#7A7A7A"/>
					<stop  offset="0.3377" style="stop-color:#696969"/>
					<stop  offset="0.5562" style="stop-color:#4E4E4E"/>
					<stop  offset="0.7921" style="stop-color:#282828"/>
					<stop  offset="1" style="stop-color:#000000"/>
				</linearGradient>
				<path mask="url(#SVGID_9_)" fill="url(#SVGID_10_)" d="M-90.632,230.895c2.684,0.566,5.331,1.236,7.921,2.035
					c12.521-25.908,19.931-59.252,19.621-95.607c-0.255-29.971-5.719-57.797-14.889-81.041l-5.133-1.4
					C-54.07,166.27-84.758,221.668-90.632,230.895z"/>
			</g>
		</mask>
		
			<linearGradient id="SVGID_11_" gradientUnits="userSpaceOnUse" x1="456.2178" y1="-699.1846" x2="327.3299" y2="-573.9581" gradientTransform="matrix(0.7458 -0.6661 0.6661 0.7458 55.6372 881.1602)">
			<stop  offset="0" style="stop-color:#EAEFEE"/>
			<stop  offset="0.4498" style="stop-color:#F0F3F3"/>
			<stop  offset="1" style="stop-color:#FFFFFF"/>
		</linearGradient>
		<path display="inline" opacity="0.2" fill="url(#SVGID_11_)" d="M-90.632,230.895c2.684,0.566,5.331,1.236,7.921,2.035
			c12.521-25.908,19.931-59.252,19.621-95.607c-0.255-29.971-5.719-57.797-14.889-81.041l-5.133-1.4
			C-54.07,166.27-84.758,221.668-90.632,230.895z"/>
		<defs>
			<filter id="Adobe_OpacityMaskFilter_2_" filterUnits="userSpaceOnUse" x="-143.858" y="60.33" width="28.082" height="170.953">
				<feFlood  style="flood-color:white;flood-opacity:1" result="back"/>
				<feBlend  in="SourceGraphic" in2="back" mode="normal"/>
			</filter>
		</defs>
		<mask maskUnits="userSpaceOnUse" x="-143.858" y="60.33" width="28.082" height="170.953" id="SVGID_12_" display="inline">
			<g filter="url(#Adobe_OpacityMaskFilter_2_)">
				<defs>
					
						<filter id="Adobe_OpacityMaskFilter_3_" filterUnits="userSpaceOnUse" x="-143.858" y="60.33" width="28.082" height="170.953">
						<feFlood  style="flood-color:white;flood-opacity:1" result="back"/>
						<feBlend  in="SourceGraphic" in2="back" mode="normal"/>
					</filter>
				</defs>
				<mask maskUnits="userSpaceOnUse" x="-143.858" y="60.33" width="28.082" height="170.953" id="SVGID_12_">
					<g filter="url(#Adobe_OpacityMaskFilter_3_)">
					</g>
				</mask>
				
					<linearGradient id="SVGID_13_" gradientUnits="userSpaceOnUse" x1="395.876" y1="-721.2617" x2="292.619" y2="-606.2877" gradientTransform="matrix(0.7458 -0.6661 0.6661 0.7458 55.6372 881.1602)">
					<stop  offset="0" style="stop-color:#808080"/>
					<stop  offset="0.1455" style="stop-color:#7A7A7A"/>
					<stop  offset="0.3377" style="stop-color:#696969"/>
					<stop  offset="0.5562" style="stop-color:#4E4E4E"/>
					<stop  offset="0.7921" style="stop-color:#282828"/>
					<stop  offset="1" style="stop-color:#000000"/>
				</linearGradient>
				<path mask="url(#SVGID_12_)" fill="url(#SVGID_13_)" d="M-127.813,231.283l12.036-1.914
					c-18.257-108.389-8.612-169.039-8.612-169.039l-11.429,0.393C-157.771,137.273-127.813,231.283-127.813,231.283z"/>
			</g>
		</mask>
		
			<linearGradient id="SVGID_14_" gradientUnits="userSpaceOnUse" x1="395.876" y1="-721.2617" x2="292.619" y2="-606.2877" gradientTransform="matrix(0.7458 -0.6661 0.6661 0.7458 55.6372 881.1602)">
			<stop  offset="0" style="stop-color:#EAEFEE"/>
			<stop  offset="0.4498" style="stop-color:#F0F3F3"/>
			<stop  offset="1" style="stop-color:#FFFFFF"/>
		</linearGradient>
		<path display="inline" opacity="0.8" fill="url(#SVGID_14_)" d="M-127.813,231.283l12.036-1.914
			c-18.257-108.389-8.612-169.039-8.612-169.039l-11.429,0.393C-157.771,137.273-127.813,231.283-127.813,231.283z"/>
		<path display="inline" opacity="0.7" fill="#22A7B9" d="M-146.559,61.598l-2.133,6.695c0,0,40.73-4.961,75.707,0.125L-76.221,61
			C-76.221,61-123.203,55.58-146.559,61.598z"/>
		<linearGradient id="SVGID_15_" gradientUnits="userSpaceOnUse" x1="-146.5586" y1="33.5186" x2="-76.2207" y2="33.5186">
			<stop  offset="0.2393" style="stop-color:#E10F82"/>
			<stop  offset="0.9035" style="stop-color:#F25F96"/>
			<stop  offset="1" style="stop-color:#F46B99"/>
		</linearGradient>
		<path display="inline" fill="url(#SVGID_15_)" d="M-146.559,61.598c11.445-0.859,23.18-1.381,35.16-1.482
			S-87.678,60.332-76.221,61c-8.609-23.686-20.96-43.039-35.641-55.561C-126.333,18.209-138.352,37.77-146.559,61.598z"/>
		<defs>
			<filter id="Adobe_OpacityMaskFilter_4_" filterUnits="userSpaceOnUse" x="-135.817" y="5.439" width="23.956" height="55.283">
				<feFlood  style="flood-color:white;flood-opacity:1" result="back"/>
				<feBlend  in="SourceGraphic" in2="back" mode="normal"/>
			</filter>
		</defs>
		<mask maskUnits="userSpaceOnUse" x="-135.817" y="5.439" width="23.956" height="55.283" id="SVGID_16_" display="inline">
			<g filter="url(#Adobe_OpacityMaskFilter_4_)">
				<defs>
					<filter id="Adobe_OpacityMaskFilter_5_" filterUnits="userSpaceOnUse" x="-135.817" y="5.439" width="23.956" height="55.283">
						<feFlood  style="flood-color:white;flood-opacity:1" result="back"/>
						<feBlend  in="SourceGraphic" in2="back" mode="normal"/>
					</filter>
				</defs>
				<mask maskUnits="userSpaceOnUse" x="-135.817" y="5.439" width="23.956" height="55.283" id="SVGID_16_">
					<g filter="url(#Adobe_OpacityMaskFilter_5_)">
					</g>
				</mask>
				
					<linearGradient id="SVGID_17_" gradientUnits="userSpaceOnUse" x1="415.6006" y1="-738.1372" x2="445.6242" y2="-765.2316" gradientTransform="matrix(0.7458 -0.6661 0.6661 0.7458 55.6372 881.1602)">
					<stop  offset="0" style="stop-color:#808080"/>
					<stop  offset="0.1455" style="stop-color:#7A7A7A"/>
					<stop  offset="0.3377" style="stop-color:#696969"/>
					<stop  offset="0.5562" style="stop-color:#4E4E4E"/>
					<stop  offset="0.7921" style="stop-color:#282828"/>
					<stop  offset="1" style="stop-color:#000000"/>
				</linearGradient>
				<path mask="url(#SVGID_16_)" fill="url(#SVGID_17_)" d="M-124.389,60.33c2.064-27.369,12.527-54.891,12.527-54.891
					c-18.908,24.234-23.956,55.283-23.956,55.283L-124.389,60.33z"/>
			</g>
		</mask>
		
			<linearGradient id="SVGID_18_" gradientUnits="userSpaceOnUse" x1="415.6006" y1="-738.1372" x2="445.6242" y2="-765.2316" gradientTransform="matrix(0.7458 -0.6661 0.6661 0.7458 55.6372 881.1602)">
			<stop  offset="0" style="stop-color:#EAEFEE"/>
			<stop  offset="0.4498" style="stop-color:#F0F3F3"/>
			<stop  offset="1" style="stop-color:#FFFFFF"/>
		</linearGradient>
		<path display="inline" fill="url(#SVGID_18_)" d="M-124.389,60.33c2.064-27.369,12.527-54.891,12.527-54.891
			c-18.908,24.234-23.956,55.283-23.956,55.283L-124.389,60.33z"/>
		<g display="inline">
			<path opacity="0.5" fill="#444C4C" d="M-107.704,79.758c-14.765,0.123-26.678,12.238-26.552,27
				c0.127,14.771,12.242,26.68,27.009,26.555c14.763-0.125,26.673-12.238,26.546-27.008
				C-80.826,91.539-92.941,79.631-107.704,79.758z"/>
			<path fill="#112E5F" d="M-112.154,75.875c-14.764,0.125-26.676,12.238-26.551,27.002c0.129,14.771,12.242,26.68,27.008,26.553
				c14.764-0.123,26.676-12.236,26.549-27.006C-85.273,87.656-97.39,75.75-112.154,75.875z"/>
			<path fill="#18A7CA" d="M-112.082,84.049c-10.262,0.084-18.538,8.502-18.453,18.762c0.09,10.266,8.506,18.535,18.77,18.447
				c10.258-0.088,18.538-8.5,18.448-18.766C-93.404,92.236-101.824,83.961-112.082,84.049z"/>
			<path fill="#83D0E3" d="M-119.439,119.67c2.346,1.037,4.943,1.613,7.674,1.588c10.258-0.088,18.538-8.5,18.448-18.766
				c-0.032-3.648-1.12-7.043-2.968-9.902c-0.336,0.27-0.678,0.535-1.014,0.807C-105.388,99.971-115.559,109.057-119.439,119.67z"/>
		</g>
		<g display="inline">
			<path opacity="0.5" fill="#444C4C" d="M-105.672,140.463c-11.074,0.094-20.008,9.18-19.915,20.252
				c0.097,11.078,9.183,20.01,20.257,19.916c11.072-0.092,20.007-9.178,19.91-20.256
				C-85.512,149.301-94.599,140.369-105.672,140.463z"/>
			<path fill="#112E5F" d="M-109.009,137.551c-11.074,0.094-20.007,9.18-19.915,20.254c0.098,11.078,9.182,20.01,20.258,19.914
				c11.072-0.092,20.005-9.178,19.91-20.256C-88.848,146.389-97.936,137.457-109.009,137.551z"/>
			<path fill="#18A7CA" d="M-108.955,143.682c-7.697,0.064-13.904,6.377-13.84,14.07c0.066,7.701,6.379,13.904,14.076,13.838
				c7.695-0.066,13.904-6.375,13.836-14.074C-94.947,149.822-101.262,143.615-108.955,143.682z"/>
			<path fill="#83D0E3" d="M-114.473,170.396c1.759,0.781,3.706,1.211,5.754,1.193c7.695-0.066,13.904-6.375,13.836-14.074
				c-0.023-2.736-0.839-5.283-2.224-7.428c-0.253,0.203-0.511,0.4-0.761,0.605C-103.936,155.623-111.563,162.439-114.473,170.396z"
				/>
		</g>
		<g display="inline">
			<path opacity="0.5" fill="#444C4C" d="M-104.18,187.582c-7.813,0.066-14.115,6.479-14.049,14.291
				c0.066,7.816,6.479,14.117,14.291,14.051c7.813-0.064,14.115-6.475,14.046-14.291C-89.956,193.82-96.369,187.516-104.18,187.582z
				"/>
			<path fill="#112E5F" d="M-106.534,185.527c-7.812,0.064-14.116,6.479-14.05,14.293c0.067,7.814,6.48,14.117,14.293,14.051
				c7.811-0.066,14.113-6.477,14.047-14.291C-92.31,191.766-98.723,185.461-106.534,185.527z"/>
			<path fill="#18A7CA" d="M-106.496,189.854c-5.43,0.045-9.809,4.502-9.764,9.93c0.047,5.434,4.5,9.811,9.932,9.764
				c5.429-0.047,9.809-4.498,9.762-9.932C-96.612,194.188-101.068,189.807-106.496,189.854z"/>
			<path fill="#83D0E3" d="M-110.389,208.705c1.24,0.549,2.615,0.854,4.061,0.842c5.429-0.047,9.809-4.498,9.762-9.932
				c-0.018-1.93-0.594-3.727-1.569-5.238c-0.181,0.143-0.36,0.283-0.536,0.426C-102.953,198.281-108.334,203.09-110.389,208.705z"/>
		</g>
	</g>
	<g>
		<g>
			<polygon fill="#137096" points="54.167,142.217 14.438,172.414 14.438,211.158 54.167,192.775 			"/>
		</g>
		<g>
			<polygon fill="#137096" points="139.424,142.217 179.152,172.414 179.152,211.158 139.424,192.775 			"/>
		</g>
		<g>
			<polygon fill="#189694" points="47.121,166.035 7.393,196.244 7.393,234.983 47.121,216.598 			"/>
		</g>
		<g>
			<polygon fill="#189694" points="146.47,166.035 186.198,196.244 186.198,234.983 146.47,216.598 			"/>
		</g>
		<path fill="#F3110B" d="M95.917,16.943c-0.566,0.584-1.496,1.447-2.506,2.574c-1.052,1.129-2.34,2.52-3.71,4.156
			c-0.7,0.816-1.45,1.693-2.249,2.633c-0.746,0.938-1.537,1.934-2.374,2.986c-3.393,4.209-7.06,9.322-10.86,15.188
			c-3.787,5.865-7.638,12.48-11.287,19.699c-3.663,7.217-7.082,15.037-10.193,23.307c-3.076,8.271-5.75,16.992-7.926,26.016
			c-4.386,18.045-6.639,37.291-6.672,56.539c-0.012,9.625,0.506,19.254,1.608,28.73c1.073,9.473,2.76,18.795,4.911,27.82
			c1.391,5.822,3.023,11.503,4.816,17.035c14.417-6.191,30.441-9.648,47.325-9.648V16.061C96.801,16.061,96.5,16.361,95.917,16.943z
			"/>
		<path fill="#860F08" d="M148.786,113.502c-2.175-9.023-4.849-17.744-7.926-26.016c-3.11-8.27-6.529-16.09-10.192-23.307
			c-3.648-7.219-7.497-13.834-11.283-19.699c-3.802-5.865-7.469-10.979-10.861-15.188c-0.837-1.053-1.627-2.049-2.372-2.986
			c-0.801-0.939-1.552-1.816-2.25-2.633c-1.371-1.637-2.659-3.027-3.711-4.156c-1.01-1.127-1.94-1.99-2.505-2.574
			c-0.584-0.582-0.885-0.883-0.885-0.883v217.918c16.884,0,32.907,3.457,47.322,9.648c1.792-5.532,3.426-11.212,4.815-17.035
			c2.152-9.025,3.838-18.348,4.911-27.82c1.103-9.477,1.622-19.105,1.61-28.73C155.426,150.793,153.173,131.547,148.786,113.502z"/>
		<path fill="#189694" d="M98.253,162.447c0,0,0.327,0.426,0.846,1.223c0.536,0.799,1.229,1.969,2.043,3.457
			c1.6,2.98,3.473,7.234,4.929,12.344c0.738,2.555,1.396,5.32,1.88,8.248c0.504,2.926,0.83,6.012,0.776,9.205
			c-0.049,3.189-0.562,6.488-1.153,9.84c-0.598,3.35-1.186,6.758-1.537,10.158c-0.698,6.81-1.463,13.621-2.326,20.008
			c-0.452,3.191-0.89,6.277-1.307,9.201c-0.438,2.926-0.854,5.693-1.237,8.246c-0.375,2.553-0.798,4.893-1.13,6.969
			c-0.333,2.074-0.644,3.883-0.92,5.371c-0.549,2.979-0.863,4.682-0.863,4.682H96.03c0,0-0.314-1.703-0.865-4.682
			c-0.275-1.488-0.584-3.297-0.921-5.371c-0.331-2.076-0.751-4.416-1.128-6.969c-0.383-2.553-0.8-5.32-1.239-8.246
			c-0.415-2.924-0.853-6.01-1.306-9.201c-0.861-6.387-1.627-13.198-2.324-20.006c-0.354-3.404-0.94-6.807-1.538-10.16
			c-0.593-3.352-1.103-6.648-1.151-9.84c-0.057-3.191,0.27-6.279,0.773-9.203c0.488-2.928,1.143-5.695,1.883-8.252
			c1.453-5.107,3.327-9.361,4.924-12.342c0.817-1.488,1.51-2.658,2.045-3.457c0.52-0.795,0.846-1.223,0.846-1.223H98.253z"/>
		<path opacity="0.5" fill="#444C4C" d="M99.334,81.268c-18.714,0.156-33.812,15.51-33.652,34.221
			c0.161,18.721,15.516,33.813,34.232,33.654c18.71-0.156,33.802-15.51,33.641-34.229C133.396,96.199,118.043,81.107,99.334,81.268z
			"/>
		<g>
			<path fill="#164257" d="M96.512,76.348c-18.712,0.158-33.81,15.51-33.649,34.223c0.161,18.719,15.516,33.813,34.229,33.652
				c18.712-0.156,33.806-15.508,33.645-34.227C130.579,91.279,115.226,76.189,96.512,76.348z"/>
			<path fill="#18A7CA" d="M96.603,86.707c-13.006,0.105-23.494,10.775-23.387,23.777c0.112,13.012,10.78,23.492,23.788,23.381
				c13.002-0.111,23.497-10.771,23.383-23.783C120.277,97.082,109.604,86.594,96.603,86.707z"/>
			<path fill="#83D0E3" d="M87.277,131.852c2.975,1.316,6.266,2.045,9.727,2.014c13.002-0.111,23.497-10.771,23.383-23.783
				c-0.041-4.625-1.421-8.926-3.761-12.551c-0.428,0.342-0.86,0.68-1.287,1.023C105.089,106.887,92.196,118.402,87.277,131.852z"/>
		</g>
		<circle fill="#164257" cx="96.801" cy="53.416" r="12.497"/>
		<circle fill="#18A7CA" cx="96.801" cy="53.416" r="7.435"/>
		<defs>
			<filter id="Adobe_OpacityMaskFilter_6_" filterUnits="userSpaceOnUse" x="48.128" y="115.699" width="17.271" height="116.693">
				<feFlood  style="flood-color:white;flood-opacity:1" result="back"/>
				<feBlend  in="SourceGraphic" in2="back" mode="normal"/>
			</filter>
		</defs>
		<mask maskUnits="userSpaceOnUse" x="48.128" y="115.699" width="17.271" height="116.693" id="SVGID_19_">
			<g filter="url(#Adobe_OpacityMaskFilter_6_)">
				<defs>
					
						<filter id="Adobe_OpacityMaskFilter_7_" filterUnits="userSpaceOnUse" x="48.128" y="115.699" width="17.271" height="116.693">
						<feFlood  style="flood-color:white;flood-opacity:1" result="back"/>
						<feBlend  in="SourceGraphic" in2="back" mode="normal"/>
					</filter>
				</defs>
				<mask maskUnits="userSpaceOnUse" x="48.128" y="115.699" width="17.271" height="116.693" id="SVGID_19_">
					<g filter="url(#Adobe_OpacityMaskFilter_7_)">
					</g>
				</mask>
				<linearGradient id="SVGID_20_" gradientUnits="userSpaceOnUse" x1="58.4424" y1="122.2554" x2="55.7216" y2="247.4171">
					<stop  offset="0.129" style="stop-color:#808080"/>
					<stop  offset="0.2557" style="stop-color:#7A7A7A"/>
					<stop  offset="0.4232" style="stop-color:#696969"/>
					<stop  offset="0.6134" style="stop-color:#4E4E4E"/>
					<stop  offset="0.819" style="stop-color:#282828"/>
					<stop  offset="1" style="stop-color:#000000"/>
				</linearGradient>
				<path mask="url(#SVGID_19_)" fill="url(#SVGID_20_)" d="M54.167,115.699c0,0-0.273,1.799-0.602,4.959
					c-0.152,1.58-0.346,3.5-0.5,5.705c-0.164,2.203-0.328,4.691-0.434,7.408c-0.158,2.711-0.17,5.658-0.254,8.764
					c0.009,3.113-0.033,6.389,0.072,9.775c0.107,3.387,0.184,6.881,0.447,10.426c0.115,1.771,0.205,3.557,0.342,5.346
					c0.169,1.787,0.338,3.58,0.508,5.373c0.281,3.588,0.813,7.152,1.253,10.66c0.113,0.877,0.226,1.75,0.339,2.621
					c0.143,0.863,0.285,1.723,0.426,2.576c0.287,1.707,0.57,3.395,0.85,5.051c0.266,1.658,0.546,3.285,0.903,4.861
					c0.332,1.582,0.656,3.127,0.973,4.633c0.326,1.5,0.598,2.969,0.942,4.371c0.358,1.398,0.705,2.748,1.037,4.047
					c0.684,2.586,1.229,4.973,1.85,7.053c0.637,2.072,1.191,3.88,1.648,5.369c0.912,2.971,1.432,4.669,1.432,4.669l-10.808,3.026
					c0,0-0.372-1.824-1.024-5.016c-0.324-1.592-0.719-3.526-1.17-5.744c-0.436-2.219-0.766-4.752-1.211-7.492
					c-0.213-1.371-0.435-2.801-0.664-4.279c-0.215-1.48-0.351-3.023-0.537-4.6c-0.175-1.578-0.354-3.197-0.538-4.855
					c-0.208-1.65-0.334-3.348-0.444-5.074c-0.12-1.723-0.243-3.477-0.367-5.252c-0.061-0.885-0.12-1.775-0.18-2.672
					c-0.029-0.898-0.059-1.801-0.089-2.707c-0.104-3.623-0.29-7.293-0.226-10.971c0.006-1.834,0.01-3.668,0.016-5.496
					c0.035-1.826,0.119-3.645,0.176-5.447c0.081-3.605,0.345-7.145,0.566-10.566c0.226-3.42,0.586-6.719,0.88-9.84
					c0.387-3.119,0.685-6.066,1.106-8.771C52.396,122.766,54.167,115.699,54.167,115.699z"/>
			</g>
		</mask>
		<linearGradient id="SVGID_21_" gradientUnits="userSpaceOnUse" x1="58.4424" y1="122.2554" x2="55.7216" y2="247.4171">
			<stop  offset="0.129" style="stop-color:#EAEFEE"/>
			<stop  offset="0.5208" style="stop-color:#F0F3F3"/>
			<stop  offset="1" style="stop-color:#FFFFFF"/>
		</linearGradient>
		<path fill="url(#SVGID_21_)" d="M54.167,115.699c0,0-0.273,1.799-0.602,4.959c-0.152,1.58-0.346,3.5-0.5,5.705
			c-0.164,2.203-0.328,4.691-0.434,7.408c-0.158,2.711-0.17,5.658-0.254,8.764c0.009,3.113-0.033,6.389,0.072,9.775
			c0.107,3.387,0.184,6.881,0.447,10.426c0.115,1.771,0.205,3.557,0.342,5.346c0.169,1.787,0.338,3.58,0.508,5.373
			c0.281,3.588,0.813,7.152,1.253,10.66c0.113,0.877,0.226,1.75,0.339,2.621c0.143,0.863,0.285,1.723,0.426,2.576
			c0.287,1.707,0.57,3.395,0.85,5.051c0.266,1.658,0.546,3.285,0.903,4.861c0.332,1.582,0.656,3.127,0.973,4.633
			c0.326,1.5,0.598,2.969,0.942,4.371c0.358,1.398,0.705,2.748,1.037,4.047c0.684,2.586,1.229,4.973,1.85,7.053
			c0.637,2.072,1.191,3.88,1.648,5.369c0.912,2.971,1.432,4.669,1.432,4.669l-10.808,3.026c0,0-0.372-1.824-1.024-5.016
			c-0.324-1.592-0.719-3.526-1.17-5.744c-0.436-2.219-0.766-4.752-1.211-7.492c-0.213-1.371-0.435-2.801-0.664-4.279
			c-0.215-1.48-0.351-3.023-0.537-4.6c-0.175-1.578-0.354-3.197-0.538-4.855c-0.208-1.65-0.334-3.348-0.444-5.074
			c-0.12-1.723-0.243-3.477-0.367-5.252c-0.061-0.885-0.12-1.775-0.18-2.672c-0.029-0.898-0.059-1.801-0.089-2.707
			c-0.104-3.623-0.29-7.293-0.226-10.971c0.006-1.834,0.01-3.668,0.016-5.496c0.035-1.826,0.119-3.645,0.176-5.447
			c0.081-3.605,0.345-7.145,0.566-10.566c0.226-3.42,0.586-6.719,0.88-9.84c0.387-3.119,0.685-6.066,1.106-8.771
			C52.396,122.766,54.167,115.699,54.167,115.699z"/>
		<defs>
			<filter id="Adobe_OpacityMaskFilter_8_" filterUnits="userSpaceOnUse" x="128.202" y="115.699" width="17.271" height="116.693">
				<feFlood  style="flood-color:white;flood-opacity:1" result="back"/>
				<feBlend  in="SourceGraphic" in2="back" mode="normal"/>
			</filter>
		</defs>
		<mask maskUnits="userSpaceOnUse" x="128.202" y="115.699" width="17.271" height="116.693" id="SVGID_22_">
			<g filter="url(#Adobe_OpacityMaskFilter_8_)">
				<defs>
					
						<filter id="Adobe_OpacityMaskFilter_9_" filterUnits="userSpaceOnUse" x="128.202" y="115.699" width="17.271" height="116.693">
						<feFlood  style="flood-color:white;flood-opacity:1" result="back"/>
						<feBlend  in="SourceGraphic" in2="back" mode="normal"/>
					</filter>
				</defs>
				<mask maskUnits="userSpaceOnUse" x="128.202" y="115.699" width="17.271" height="116.693" id="SVGID_22_">
					<g filter="url(#Adobe_OpacityMaskFilter_9_)">
					</g>
				</mask>
				
					<linearGradient id="SVGID_23_" gradientUnits="userSpaceOnUse" x1="58.4414" y1="122.2559" x2="55.7206" y2="247.4171" gradientTransform="matrix(-1 0 0 1 193.6016 0)">
					<stop  offset="0.129" style="stop-color:#808080"/>
					<stop  offset="0.2557" style="stop-color:#7A7A7A"/>
					<stop  offset="0.4232" style="stop-color:#696969"/>
					<stop  offset="0.6134" style="stop-color:#4E4E4E"/>
					<stop  offset="0.819" style="stop-color:#282828"/>
					<stop  offset="1" style="stop-color:#000000"/>
				</linearGradient>
				<path mask="url(#SVGID_22_)" fill="url(#SVGID_23_)" d="M139.435,115.699c0,0,0.272,1.799,0.601,4.959
					c0.152,1.58,0.346,3.5,0.501,5.705c0.163,2.203,0.327,4.691,0.433,7.408c0.159,2.711,0.171,5.658,0.255,8.764
					c-0.009,3.113,0.033,6.389-0.072,9.775c-0.107,3.387-0.185,6.881-0.447,10.426c-0.115,1.771-0.205,3.557-0.343,5.346
					c-0.168,1.787-0.338,3.58-0.507,5.373c-0.281,3.588-0.813,7.152-1.253,10.66c-0.113,0.877-0.227,1.75-0.339,2.621
					c-0.143,0.863-0.285,1.723-0.427,2.576c-0.286,1.707-0.57,3.395-0.849,5.051c-0.267,1.658-0.546,3.285-0.903,4.861
					c-0.332,1.582-0.656,3.127-0.973,4.633c-0.326,1.5-0.598,2.969-0.942,4.371c-0.358,1.398-0.705,2.748-1.037,4.047
					c-0.684,2.586-1.229,4.973-1.851,7.053c-0.637,2.072-1.191,3.88-1.648,5.369c-0.911,2.971-1.431,4.669-1.431,4.669l10.808,3.026
					c0,0,0.372-1.824,1.024-5.016c0.324-1.592,0.719-3.526,1.17-5.744c0.435-2.219,0.766-4.752,1.211-7.492
					c0.213-1.371,0.435-2.801,0.664-4.279c0.215-1.48,0.351-3.023,0.537-4.6c0.175-1.578,0.354-3.197,0.538-4.855
					c0.208-1.65,0.334-3.348,0.444-5.074c0.12-1.723,0.243-3.477,0.367-5.252c0.06-0.885,0.12-1.775,0.18-2.672
					c0.029-0.898,0.059-1.801,0.089-2.707c0.104-3.623,0.29-7.293,0.226-10.971c-0.006-1.834-0.011-3.668-0.016-5.496
					c-0.035-1.826-0.119-3.645-0.176-5.447c-0.081-3.605-0.345-7.145-0.567-10.566c-0.225-3.42-0.586-6.719-0.879-9.84
					c-0.387-3.119-0.685-6.066-1.107-8.771C141.205,122.766,139.434,115.699,139.435,115.699z"/>
			</g>
		</mask>
		
			<linearGradient id="SVGID_24_" gradientUnits="userSpaceOnUse" x1="58.4414" y1="122.2559" x2="55.7206" y2="247.4171" gradientTransform="matrix(-1 0 0 1 193.6016 0)">
			<stop  offset="0.129" style="stop-color:#EAEFEE"/>
			<stop  offset="0.5208" style="stop-color:#F0F3F3"/>
			<stop  offset="1" style="stop-color:#FFFFFF"/>
		</linearGradient>
		<path fill="url(#SVGID_24_)" d="M139.435,115.699c0,0,0.272,1.799,0.601,4.959c0.152,1.58,0.346,3.5,0.501,5.705
			c0.163,2.203,0.327,4.691,0.433,7.408c0.159,2.711,0.171,5.658,0.255,8.764c-0.009,3.113,0.033,6.389-0.072,9.775
			c-0.107,3.387-0.185,6.881-0.447,10.426c-0.115,1.771-0.205,3.557-0.343,5.346c-0.168,1.787-0.338,3.58-0.507,5.373
			c-0.281,3.588-0.813,7.152-1.253,10.66c-0.113,0.877-0.227,1.75-0.339,2.621c-0.143,0.863-0.285,1.723-0.427,2.576
			c-0.286,1.707-0.57,3.395-0.849,5.051c-0.267,1.658-0.546,3.285-0.903,4.861c-0.332,1.582-0.656,3.127-0.973,4.633
			c-0.326,1.5-0.598,2.969-0.942,4.371c-0.358,1.398-0.705,2.748-1.037,4.047c-0.684,2.586-1.229,4.973-1.851,7.053
			c-0.637,2.072-1.191,3.88-1.648,5.369c-0.911,2.971-1.431,4.669-1.431,4.669l10.808,3.026c0,0,0.372-1.824,1.024-5.016
			c0.324-1.592,0.719-3.526,1.17-5.744c0.435-2.219,0.766-4.752,1.211-7.492c0.213-1.371,0.435-2.801,0.664-4.279
			c0.215-1.48,0.351-3.023,0.537-4.6c0.175-1.578,0.354-3.197,0.538-4.855c0.208-1.65,0.334-3.348,0.444-5.074
			c0.12-1.723,0.243-3.477,0.367-5.252c0.06-0.885,0.12-1.775,0.18-2.672c0.029-0.898,0.059-1.801,0.089-2.707
			c0.104-3.623,0.29-7.293,0.226-10.971c-0.006-1.834-0.011-3.668-0.016-5.496c-0.035-1.826-0.119-3.645-0.176-5.447
			c-0.081-3.605-0.345-7.145-0.567-10.566c-0.225-3.42-0.586-6.719-0.879-9.84c-0.387-3.119-0.685-6.066-1.107-8.771
			C141.205,122.766,139.434,115.699,139.435,115.699z"/>
		<g>
			<path fill="#F35F10" d="M71.366,244.248c-9.623,12.131-8.773,30.494-8.773,30.494l3.961-9.836l4.813,61.318l4.811-61.318
				l3.963,9.836C80.14,274.742,80.988,256.378,71.366,244.248z"/>
			<path fill="#F35F10" d="M122.918,244.248c-9.623,12.131-8.773,30.494-8.773,30.494l3.962-9.836l4.812,61.318l4.81-61.318
				l3.961,9.836C131.688,274.742,132.537,256.378,122.918,244.248z"/>
		</g>
	</g>
	<g display="none" opacity="0.3">
		<g display="inline">
			<path fill="#FFFFFF" d="M-7.067,611.642v-0.217c-0.287,0.336-0.574,0.604-0.853,0.811c-0.282,0.211-0.585,0.365-0.915,0.475
				c-0.33,0.104-0.688,0.162-1.076,0.162c-0.515,0-0.994-0.109-1.43-0.33c-0.44-0.213-0.82-0.527-1.137-0.934
				c-0.324-0.395-0.566-0.873-0.73-1.422c-0.167-0.547-0.249-1.139-0.249-1.773c0-1.346,0.33-2.393,0.983-3.146
				c0.658-0.748,1.521-1.123,2.592-1.123c0.623,0,1.145,0.109,1.568,0.318c0.429,0.215,0.842,0.543,1.246,0.975v-3.168
				c0-0.439,0.089-0.771,0.267-1.002c0.175-0.229,0.427-0.338,0.747-0.338c0.328,0,0.578,0.105,0.757,0.314
				c0.177,0.205,0.265,0.512,0.265,0.914v9.484c0,0.41-0.098,0.719-0.283,0.926c-0.193,0.199-0.434,0.305-0.738,0.305
				c-0.293,0-0.534-0.105-0.725-0.318C-6.97,612.345-7.067,612.035-7.067,611.642z M-11.296,608.484c0,0.58,0.089,1.08,0.27,1.488
				c0.184,0.412,0.434,0.715,0.744,0.928c0.313,0.205,0.659,0.314,1.031,0.314c0.378,0,0.725-0.109,1.039-0.303
				c0.309-0.195,0.561-0.492,0.749-0.9c0.183-0.412,0.278-0.918,0.278-1.527c0-0.574-0.096-1.063-0.278-1.475
				c-0.188-0.414-0.44-0.734-0.757-0.949c-0.32-0.223-0.668-0.328-1.045-0.328c-0.395,0-0.748,0.113-1.056,0.332
				c-0.309,0.227-0.55,0.553-0.722,0.971C-11.21,607.449-11.296,607.933-11.296,608.484z"/>
			<path fill="#FFFFFF" d="M3.13,609.027h-4.207c0.007,0.49,0.104,0.92,0.295,1.291c0.193,0.377,0.445,0.656,0.768,0.842
				c0.315,0.195,0.665,0.283,1.049,0.283c0.26,0,0.492-0.025,0.706-0.086c0.21-0.059,0.413-0.16,0.618-0.285
				c0.199-0.125,0.385-0.266,0.553-0.416c0.168-0.145,0.383-0.346,0.65-0.596c0.111-0.092,0.27-0.145,0.475-0.145
				c0.225,0,0.395,0.057,0.537,0.178c0.133,0.121,0.203,0.301,0.203,0.514c0,0.199-0.077,0.426-0.229,0.686
				c-0.152,0.262-0.382,0.512-0.693,0.748c-0.301,0.236-0.688,0.434-1.154,0.598c-0.462,0.154-0.998,0.234-1.604,0.234
				c-1.385,0-2.455-0.398-3.225-1.182c-0.766-0.785-1.15-1.852-1.15-3.207c0-0.637,0.096-1.227,0.285-1.768
				c0.191-0.543,0.465-1.014,0.827-1.398c0.364-0.391,0.808-0.686,1.341-0.9c0.531-0.203,1.118-0.301,1.769-0.301
				c0.839,0,1.558,0.17,2.155,0.531c0.604,0.35,1.059,0.809,1.357,1.371c0.298,0.557,0.445,1.135,0.445,1.717
				c0,0.543-0.153,0.896-0.463,1.053C4.128,608.947,3.688,609.027,3.13,609.027z M-1.077,607.808h3.898
				c-0.047-0.74-0.247-1.281-0.598-1.648c-0.34-0.367-0.797-0.551-1.354-0.551c-0.535,0-0.979,0.184-1.32,0.553
				C-0.796,606.535-1.009,607.082-1.077,607.808z"/>
			<path fill="#FFFFFF" d="M13.64,610.06c0,0.592-0.145,1.1-0.431,1.52c-0.29,0.43-0.717,0.75-1.282,0.963
				c-0.564,0.221-1.249,0.33-2.059,0.33c-0.771,0-1.436-0.117-1.989-0.355c-0.552-0.236-0.958-0.533-1.22-0.883
				c-0.262-0.355-0.393-0.717-0.393-1.07c0-0.236,0.082-0.438,0.252-0.605c0.168-0.17,0.378-0.252,0.641-0.252
				c0.225,0,0.395,0.053,0.516,0.166c0.123,0.1,0.24,0.264,0.35,0.463c0.22,0.381,0.484,0.664,0.791,0.855
				c0.306,0.188,0.73,0.285,1.258,0.285c0.432,0,0.781-0.098,1.06-0.285c0.276-0.195,0.413-0.414,0.413-0.652
				c0-0.385-0.144-0.664-0.428-0.832c-0.29-0.176-0.759-0.346-1.418-0.5c-0.738-0.184-1.342-0.371-1.805-0.574
				c-0.465-0.207-0.836-0.471-1.117-0.801c-0.275-0.334-0.418-0.742-0.418-1.223c0-0.426,0.126-0.838,0.387-1.225
				c0.256-0.379,0.637-0.682,1.137-0.912c0.507-0.232,1.108-0.344,1.816-0.344c0.554,0,1.057,0.057,1.504,0.174
				c0.445,0.111,0.813,0.27,1.11,0.467c0.298,0.191,0.522,0.41,0.677,0.645s0.232,0.465,0.232,0.691
				c0,0.244-0.082,0.453-0.246,0.602c-0.168,0.16-0.403,0.238-0.705,0.238c-0.223,0-0.41-0.057-0.566-0.186
				c-0.154-0.123-0.331-0.314-0.529-0.57c-0.165-0.207-0.359-0.379-0.577-0.504c-0.22-0.125-0.52-0.189-0.899-0.189
				c-0.391,0-0.709,0.09-0.967,0.254c-0.26,0.164-0.385,0.369-0.385,0.615c0,0.227,0.094,0.408,0.28,0.551
				c0.19,0.146,0.442,0.273,0.765,0.363c0.318,0.092,0.764,0.205,1.328,0.348c0.662,0.164,1.211,0.357,1.632,0.58
				c0.424,0.229,0.741,0.494,0.96,0.799C13.534,609.318,13.64,609.671,13.64,610.06z"/>
			<path fill="#FFFFFF" d="M16.552,603.13c-0.305,0-0.56-0.1-0.768-0.275c-0.215-0.188-0.321-0.445-0.321-0.783
				c0-0.305,0.108-0.559,0.329-0.754c0.218-0.193,0.469-0.295,0.76-0.295c0.275,0,0.521,0.09,0.738,0.268
				c0.216,0.182,0.321,0.443,0.321,0.781c0,0.332-0.103,0.59-0.313,0.779C17.087,603.031,16.843,603.13,16.552,603.13z
				 M17.611,605.347v6.219c0,0.426-0.103,0.756-0.306,0.973c-0.203,0.225-0.463,0.334-0.781,0.334c-0.316,0-0.568-0.109-0.768-0.34
				c-0.195-0.225-0.294-0.549-0.294-0.967v-6.152c0-0.428,0.099-0.748,0.294-0.957c0.199-0.221,0.451-0.328,0.768-0.328
				c0.318,0,0.578,0.107,0.781,0.328C17.509,604.666,17.611,604.96,17.611,605.347z"/>
			<path fill="#FFFFFF" d="M27.745,605.703v6.25c0,0.709-0.072,1.326-0.229,1.838c-0.147,0.521-0.395,0.938-0.732,1.279
				c-0.335,0.33-0.771,0.586-1.317,0.752c-0.547,0.156-1.223,0.24-2.028,0.24c-0.742,0-1.406-0.104-1.988-0.309
				c-0.58-0.211-1.027-0.482-1.35-0.809c-0.31-0.326-0.469-0.66-0.469-1.012c0-0.266,0.09-0.477,0.268-0.639
				c0.176-0.17,0.391-0.254,0.645-0.254c0.316,0,0.593,0.141,0.827,0.422c0.114,0.141,0.235,0.283,0.359,0.43
				c0.128,0.141,0.258,0.266,0.411,0.367c0.149,0.105,0.332,0.18,0.535,0.23c0.211,0.047,0.455,0.076,0.727,0.076
				c0.558,0,0.99-0.076,1.299-0.23c0.307-0.156,0.523-0.375,0.649-0.648c0.122-0.281,0.188-0.582,0.21-0.895
				c0.021-0.32,0.039-0.83,0.051-1.537c-0.331,0.459-0.715,0.818-1.15,1.055c-0.432,0.244-0.943,0.369-1.547,0.369
				c-0.717,0-1.346-0.189-1.885-0.557c-0.54-0.363-0.955-0.881-1.239-1.547c-0.294-0.66-0.437-1.424-0.437-2.295
				c0-0.637,0.088-1.221,0.264-1.744c0.178-0.518,0.426-0.959,0.754-1.314c0.326-0.359,0.701-0.625,1.129-0.813
				c0.424-0.174,0.891-0.266,1.398-0.266c0.609,0,1.139,0.113,1.588,0.352c0.443,0.23,0.859,0.598,1.242,1.092v-0.285
				c0-0.375,0.093-0.662,0.277-0.867c0.186-0.207,0.418-0.307,0.709-0.307c0.416,0,0.689,0.137,0.828,0.404
				C27.679,604.804,27.745,605.189,27.745,605.703z M21.515,608.435c0,0.867,0.19,1.527,0.57,1.969
				c0.381,0.443,0.871,0.674,1.479,0.674c0.357,0,0.696-0.098,1.01-0.295c0.317-0.191,0.58-0.477,0.778-0.861
				c0.203-0.387,0.302-0.857,0.302-1.402c0-0.881-0.197-1.563-0.579-2.049c-0.389-0.492-0.897-0.738-1.527-0.738
				c-0.616,0-1.11,0.234-1.476,0.711C21.698,606.906,21.515,607.566,21.515,608.435z"/>
			<path fill="#FFFFFF" d="M31.877,605.318v0.26c0.38-0.5,0.792-0.865,1.239-1.098c0.453-0.234,0.966-0.352,1.549-0.352
				c0.57,0,1.077,0.125,1.523,0.367c0.442,0.25,0.777,0.598,1,1.053c0.143,0.26,0.234,0.547,0.273,0.846
				c0.043,0.311,0.065,0.695,0.065,1.168v4.004c0,0.426-0.101,0.756-0.296,0.973c-0.196,0.225-0.455,0.334-0.77,0.334
				c-0.322,0-0.58-0.109-0.78-0.34c-0.2-0.225-0.3-0.549-0.3-0.967v-3.582c0-0.709-0.098-1.256-0.297-1.635
				c-0.194-0.371-0.59-0.557-1.178-0.557c-0.383,0-0.734,0.109-1.047,0.342c-0.318,0.221-0.547,0.533-0.693,0.934
				c-0.104,0.33-0.157,0.928-0.157,1.797v2.701c0,0.432-0.101,0.764-0.303,0.977c-0.204,0.221-0.464,0.33-0.784,0.33
				c-0.311,0-0.565-0.109-0.764-0.34c-0.203-0.225-0.299-0.549-0.299-0.967v-6.219c0-0.41,0.088-0.715,0.269-0.916
				c0.179-0.203,0.423-0.303,0.729-0.303c0.189,0,0.361,0.045,0.514,0.129c0.148,0.098,0.275,0.23,0.365,0.408
				C31.831,604.843,31.877,605.064,31.877,605.318z"/>
			<path fill="#FFFFFF" d="M45.671,609.027h-4.203c0.002,0.49,0.096,0.92,0.293,1.291c0.191,0.377,0.447,0.656,0.763,0.842
				c0.319,0.195,0.671,0.283,1.054,0.283c0.256,0,0.492-0.025,0.704-0.086c0.216-0.059,0.417-0.16,0.624-0.285
				c0.195-0.125,0.383-0.266,0.545-0.416c0.174-0.145,0.387-0.346,0.656-0.596c0.109-0.092,0.27-0.145,0.475-0.145
				c0.222,0,0.396,0.057,0.532,0.178c0.14,0.121,0.208,0.301,0.208,0.514c0,0.199-0.077,0.426-0.229,0.686
				c-0.152,0.262-0.385,0.512-0.693,0.748c-0.304,0.236-0.688,0.434-1.156,0.598c-0.463,0.154-1,0.234-1.604,0.234
				c-1.383,0-2.454-0.398-3.225-1.182c-0.762-0.785-1.148-1.852-1.148-3.207c0-0.637,0.096-1.227,0.285-1.768
				c0.186-0.543,0.467-1.014,0.828-1.398c0.363-0.391,0.806-0.686,1.337-0.9c0.53-0.203,1.12-0.301,1.768-0.301
				c0.835,0,1.562,0.17,2.16,0.531c0.601,0.35,1.055,0.809,1.356,1.371c0.295,0.557,0.443,1.135,0.443,1.717
				c0,0.543-0.156,0.896-0.465,1.053C46.673,608.947,46.239,609.027,45.671,609.027z M41.468,607.808h3.896
				c-0.051-0.74-0.249-1.281-0.595-1.648c-0.341-0.367-0.797-0.551-1.359-0.551c-0.534,0-0.974,0.184-1.321,0.553
				C41.751,606.535,41.54,607.082,41.468,607.808z"/>
			<path fill="#FFFFFF" d="M55.155,611.642v-0.217c-0.293,0.336-0.576,0.604-0.857,0.811c-0.283,0.211-0.59,0.365-0.912,0.475
				c-0.33,0.104-0.688,0.162-1.076,0.162c-0.516,0-0.992-0.109-1.434-0.33c-0.438-0.213-0.814-0.527-1.139-0.934
				c-0.32-0.395-0.559-0.873-0.725-1.422c-0.169-0.547-0.25-1.139-0.25-1.773c0-1.346,0.328-2.393,0.982-3.146
				c0.662-0.748,1.529-1.123,2.596-1.123c0.621,0,1.143,0.109,1.564,0.318c0.428,0.215,0.844,0.543,1.25,0.975v-3.168
				c0-0.439,0.086-0.771,0.263-1.002c0.175-0.229,0.428-0.338,0.754-0.338c0.325,0,0.572,0.105,0.752,0.314
				c0.173,0.205,0.263,0.512,0.263,0.914v9.484c0,0.41-0.096,0.719-0.285,0.926c-0.187,0.199-0.437,0.305-0.729,0.305
				c-0.298,0-0.538-0.105-0.732-0.318C55.249,612.345,55.155,612.035,55.155,611.642z M50.925,608.484c0,0.58,0.09,1.08,0.27,1.488
				c0.182,0.412,0.432,0.715,0.744,0.928c0.316,0.205,0.659,0.314,1.033,0.314c0.378,0,0.725-0.109,1.037-0.303
				c0.307-0.195,0.558-0.492,0.744-0.9c0.189-0.412,0.285-0.918,0.285-1.527c0-0.574-0.096-1.063-0.285-1.475
				c-0.187-0.414-0.438-0.734-0.756-0.949c-0.315-0.223-0.665-0.328-1.043-0.328c-0.396,0-0.744,0.113-1.059,0.332
				c-0.309,0.227-0.547,0.553-0.714,0.971C51.009,607.449,50.925,607.933,50.925,608.484z"/>
			<path fill="#FFFFFF" d="M65.367,602.158v3.279c0.404-0.41,0.815-0.734,1.233-0.957c0.427-0.227,0.943-0.336,1.563-0.336
				c0.713,0,1.342,0.17,1.879,0.506c0.535,0.336,0.958,0.83,1.248,1.48c0.305,0.639,0.45,1.4,0.45,2.283
				c0,0.65-0.085,1.248-0.245,1.789c-0.168,0.543-0.408,1.02-0.725,1.414c-0.314,0.398-0.698,0.713-1.148,0.926
				c-0.447,0.221-0.94,0.33-1.48,0.33c-0.338,0-0.643-0.043-0.938-0.117c-0.288-0.076-0.537-0.186-0.746-0.316
				c-0.203-0.129-0.375-0.258-0.523-0.393c-0.139-0.139-0.334-0.346-0.567-0.621v0.217c0,0.404-0.101,0.713-0.294,0.926
				c-0.189,0.199-0.437,0.305-0.744,0.305c-0.297,0-0.545-0.105-0.727-0.305c-0.182-0.213-0.27-0.521-0.27-0.926v-9.393
				c0-0.432,0.086-0.762,0.262-0.984c0.178-0.227,0.423-0.336,0.734-0.336c0.335,0,0.591,0.105,0.771,0.322
				C65.274,601.46,65.367,601.767,65.367,602.158z M65.47,608.546c0,0.857,0.195,1.514,0.589,1.975
				c0.388,0.459,0.897,0.693,1.536,0.693c0.539,0,1.006-0.24,1.397-0.707c0.396-0.477,0.59-1.146,0.59-2.023
				c0-0.572-0.084-1.055-0.245-1.467c-0.162-0.408-0.398-0.727-0.695-0.953c-0.298-0.219-0.648-0.332-1.047-0.332
				c-0.408,0-0.771,0.113-1.094,0.332c-0.318,0.227-0.574,0.553-0.762,0.977C65.562,607.466,65.47,607.966,65.47,608.546z"/>
			<path fill="#FFFFFF" d="M75.239,613.138l0.194-0.482l-2.646-6.66c-0.164-0.387-0.244-0.656-0.244-0.836s0.05-0.355,0.145-0.512
				c0.092-0.16,0.219-0.281,0.387-0.377c0.168-0.094,0.336-0.143,0.518-0.143c0.312,0,0.541,0.1,0.699,0.289
				c0.159,0.203,0.297,0.486,0.419,0.85l1.822,5.297l1.722-4.928c0.141-0.398,0.266-0.709,0.37-0.934
				c0.108-0.223,0.231-0.377,0.355-0.457c0.12-0.076,0.294-0.117,0.525-0.117c0.158,0,0.315,0.045,0.464,0.129
				c0.151,0.09,0.268,0.205,0.346,0.354c0.088,0.146,0.125,0.299,0.125,0.461c-0.021,0.098-0.059,0.234-0.1,0.424
				c-0.049,0.186-0.108,0.377-0.178,0.564l-2.805,7.338c-0.246,0.648-0.477,1.154-0.713,1.518c-0.224,0.375-0.531,0.648-0.913,0.85
				c-0.384,0.193-0.897,0.297-1.541,0.297c-0.63,0-1.103-0.07-1.417-0.201c-0.316-0.143-0.474-0.387-0.474-0.752
				c0-0.248,0.073-0.436,0.224-0.572s0.372-0.201,0.666-0.201c0.113,0,0.228,0.016,0.338,0.047c0.137,0.033,0.253,0.043,0.357,0.043
				c0.244,0,0.441-0.033,0.582-0.105c0.143-0.072,0.268-0.201,0.379-0.383C74.96,613.755,75.094,613.49,75.239,613.138z"/>
		</g>
		<g display="inline">
			<path fill="#FFFFFF" d="M115.043,604.314h0.51v-0.643c0-0.674,0.084-1.211,0.264-1.6c0.164-0.402,0.455-0.686,0.863-0.869
				c0.406-0.186,0.961-0.273,1.678-0.273c1.25,0,1.881,0.307,1.881,0.922c0,0.201-0.068,0.369-0.203,0.516
				c-0.129,0.143-0.281,0.213-0.461,0.213c-0.088,0-0.232-0.016-0.436-0.055c-0.201-0.027-0.377-0.043-0.518-0.043
				c-0.391,0-0.641,0.115-0.75,0.342c-0.111,0.232-0.164,0.559-0.164,0.977v0.514h0.529c0.818,0,1.229,0.25,1.229,0.75
				c0,0.346-0.105,0.566-0.326,0.664c-0.221,0.092-0.518,0.145-0.902,0.145h-0.529v5.693c0,0.42-0.104,0.744-0.301,0.969
				c-0.207,0.229-0.465,0.338-0.787,0.338c-0.305,0-0.561-0.109-0.764-0.338c-0.199-0.225-0.303-0.549-0.303-0.969v-5.693h-0.592
				c-0.32,0-0.559-0.072-0.736-0.225c-0.176-0.139-0.262-0.326-0.262-0.563C113.963,604.572,114.324,604.314,115.043,604.314z"/>
			<path fill="#FFFFFF" d="M122.729,609.761v1.805c0,0.432-0.104,0.764-0.305,0.977c-0.209,0.221-0.471,0.33-0.787,0.33
				c-0.305,0-0.563-0.109-0.758-0.334c-0.205-0.217-0.303-0.547-0.303-0.973v-5.988c0-0.967,0.344-1.449,1.045-1.449
				c0.355,0,0.615,0.111,0.771,0.338c0.16,0.223,0.246,0.563,0.262,0.998c0.26-0.436,0.523-0.775,0.795-0.998
				c0.268-0.227,0.627-0.338,1.082-0.338c0.449,0,0.889,0.111,1.314,0.338c0.428,0.223,0.637,0.525,0.637,0.893
				c0,0.271-0.086,0.479-0.268,0.66c-0.182,0.164-0.375,0.248-0.59,0.248c-0.078,0-0.268-0.045-0.57-0.137
				c-0.301-0.105-0.564-0.152-0.805-0.152c-0.309,0-0.568,0.082-0.77,0.252c-0.199,0.164-0.348,0.408-0.465,0.732
				c-0.109,0.324-0.188,0.717-0.232,1.166C122.744,608.574,122.729,609.121,122.729,609.761z"/>
			<path fill="#FFFFFF" d="M133.26,609.027h-4.209c0.014,0.49,0.105,0.92,0.299,1.291c0.189,0.377,0.443,0.656,0.766,0.842
				c0.316,0.195,0.666,0.283,1.047,0.283c0.258,0,0.498-0.025,0.709-0.086c0.215-0.059,0.418-0.16,0.619-0.285
				c0.203-0.125,0.383-0.266,0.549-0.416c0.172-0.145,0.391-0.346,0.66-0.596c0.107-0.092,0.268-0.145,0.473-0.145
				c0.221,0,0.396,0.057,0.529,0.178s0.207,0.301,0.207,0.514c0,0.199-0.074,0.426-0.229,0.686
				c-0.156,0.262-0.385,0.512-0.684,0.748c-0.309,0.236-0.699,0.434-1.164,0.598c-0.467,0.154-1.002,0.234-1.602,0.234
				c-1.387,0-2.461-0.398-3.225-1.182c-0.768-0.785-1.15-1.852-1.15-3.207c0-0.637,0.094-1.227,0.287-1.768
				c0.184-0.543,0.459-1.014,0.824-1.398c0.361-0.391,0.809-0.686,1.342-0.9c0.525-0.203,1.115-0.301,1.768-0.301
				c0.838,0,1.551,0.17,2.154,0.531c0.605,0.35,1.059,0.809,1.355,1.371c0.299,0.557,0.453,1.135,0.453,1.717
				c0,0.543-0.154,0.896-0.471,1.053C134.254,608.947,133.83,609.027,133.26,609.027z M129.051,607.808h3.902
				c-0.057-0.74-0.244-1.281-0.588-1.648c-0.352-0.367-0.805-0.551-1.365-0.551c-0.537,0-0.973,0.184-1.322,0.553
				C129.336,606.535,129.131,607.082,129.051,607.808z"/>
			<path fill="#FFFFFF" d="M142.852,609.027h-4.211c0.01,0.49,0.107,0.92,0.297,1.291c0.191,0.377,0.449,0.656,0.764,0.842
				c0.32,0.195,0.674,0.283,1.055,0.283c0.256,0,0.484-0.025,0.701-0.086c0.213-0.059,0.426-0.16,0.617-0.285
				c0.201-0.125,0.385-0.266,0.555-0.416c0.168-0.145,0.393-0.346,0.656-0.596c0.111-0.092,0.266-0.145,0.473-0.145
				c0.221,0,0.4,0.057,0.535,0.178s0.201,0.301,0.201,0.514c0,0.199-0.074,0.426-0.223,0.686c-0.152,0.262-0.385,0.512-0.693,0.748
				c-0.305,0.236-0.693,0.434-1.156,0.598c-0.467,0.154-1,0.234-1.602,0.234c-1.381,0-2.457-0.398-3.225-1.182
				c-0.768-0.785-1.15-1.852-1.15-3.207c0-0.637,0.098-1.227,0.281-1.768c0.191-0.543,0.465-1.014,0.828-1.398
				c0.363-0.391,0.809-0.686,1.342-0.9c0.533-0.203,1.119-0.301,1.764-0.301c0.838,0,1.561,0.17,2.164,0.531
				c0.6,0.35,1.051,0.809,1.352,1.371c0.301,0.557,0.445,1.135,0.445,1.717c0,0.543-0.15,0.896-0.463,1.053
				C143.85,608.947,143.418,609.027,142.852,609.027z M138.641,607.808h3.898c-0.051-0.74-0.248-1.281-0.592-1.648
				s-0.791-0.551-1.355-0.551c-0.539,0-0.975,0.184-1.322,0.553C138.932,606.535,138.713,607.082,138.641,607.808z"/>
			<path fill="#FFFFFF" d="M148.209,605.339v0.248c0.41-0.494,0.828-0.861,1.262-1.092c0.436-0.238,0.93-0.352,1.482-0.352
				c0.66,0,1.268,0.17,1.828,0.51c0.555,0.344,0.994,0.842,1.32,1.496c0.32,0.652,0.482,1.43,0.482,2.334
				c0,0.66-0.096,1.264-0.283,1.822c-0.184,0.555-0.439,1.018-0.768,1.395c-0.324,0.375-0.705,0.666-1.15,0.869
				c-0.439,0.201-0.92,0.303-1.43,0.303c-0.617,0-1.133-0.125-1.549-0.371c-0.422-0.248-0.818-0.609-1.195-1.084v3.227
				c0,0.941-0.35,1.418-1.027,1.418c-0.412,0-0.678-0.125-0.811-0.363c-0.131-0.248-0.193-0.607-0.193-1.072v-9.279
				c0-0.41,0.09-0.715,0.266-0.916c0.178-0.203,0.424-0.303,0.738-0.303c0.303,0,0.547,0.1,0.738,0.313
				C148.115,604.648,148.209,604.945,148.209,605.339z M152.426,608.462c0-0.57-0.086-1.059-0.262-1.461
				c-0.176-0.41-0.412-0.727-0.719-0.941c-0.305-0.223-0.645-0.328-1.023-0.328c-0.586,0-1.09,0.234-1.5,0.711
				c-0.404,0.463-0.613,1.152-0.613,2.057c0,0.854,0.205,1.52,0.613,1.996c0.398,0.479,0.9,0.719,1.5,0.719
				c0.365,0,0.688-0.109,0.99-0.314c0.311-0.213,0.553-0.516,0.734-0.932C152.33,609.546,152.426,609.048,152.426,608.462z"/>
			<path fill="#FFFFFF" d="M157.402,603.13c-0.305,0-0.564-0.1-0.773-0.275c-0.207-0.188-0.32-0.445-0.32-0.783
				c0-0.305,0.113-0.559,0.334-0.754c0.209-0.193,0.465-0.295,0.76-0.295c0.273,0,0.521,0.09,0.738,0.268
				c0.211,0.182,0.322,0.443,0.322,0.781c0,0.332-0.105,0.59-0.318,0.779C157.936,603.031,157.684,603.13,157.402,603.13z
				 M158.463,605.347v6.219c0,0.426-0.105,0.756-0.313,0.973c-0.201,0.225-0.455,0.334-0.779,0.334c-0.314,0-0.568-0.109-0.764-0.34
				c-0.195-0.225-0.299-0.549-0.299-0.967v-6.152c0-0.428,0.104-0.748,0.299-0.957c0.195-0.221,0.449-0.328,0.764-0.328
				c0.324,0,0.578,0.107,0.779,0.328C158.357,604.666,158.463,604.96,158.463,605.347z"/>
			<path fill="#FFFFFF" d="M166.041,611.886l-1.902-3.121l-1.166,1.107v1.707c0,0.412-0.104,0.73-0.318,0.955
				c-0.227,0.229-0.479,0.338-0.756,0.338c-0.334,0-0.588-0.109-0.777-0.334c-0.197-0.217-0.285-0.547-0.285-0.973v-9.17
				c0-0.479,0.086-0.844,0.268-1.09c0.189-0.252,0.453-0.377,0.795-0.377c0.332,0,0.594,0.109,0.787,0.338
				c0.193,0.23,0.287,0.563,0.287,1.002v5.215l2.424-2.539c0.301-0.313,0.525-0.531,0.68-0.643c0.158-0.117,0.352-0.174,0.578-0.174
				c0.27,0,0.488,0.08,0.674,0.26c0.174,0.17,0.266,0.381,0.266,0.641c0,0.314-0.293,0.73-0.875,1.258l-1.145,1.047l2.207,3.467
				c0.168,0.26,0.283,0.453,0.354,0.586c0.064,0.131,0.104,0.264,0.104,0.381c0,0.344-0.092,0.609-0.275,0.813
				c-0.189,0.191-0.441,0.293-0.742,0.293c-0.262,0-0.461-0.074-0.607-0.217C166.475,612.517,166.283,612.259,166.041,611.886z"/>
			<path fill="#FFFFFF" d="M171.357,612.873c-0.322,0-0.605-0.105-0.84-0.318c-0.236-0.207-0.363-0.502-0.363-0.881
				c0-0.318,0.119-0.596,0.346-0.826s0.512-0.348,0.838-0.348s0.611,0.117,0.846,0.344c0.232,0.229,0.352,0.502,0.352,0.83
				c0,0.373-0.119,0.672-0.352,0.881C171.949,612.767,171.676,612.873,171.357,612.873z"/>
			<path fill="#FFFFFF" d="M182.701,610.208c0,0.268-0.08,0.553-0.244,0.855c-0.158,0.313-0.402,0.598-0.729,0.875
				c-0.328,0.275-0.748,0.498-1.242,0.662c-0.5,0.17-1.066,0.254-1.688,0.254c-1.328,0-2.367-0.387-3.111-1.162
				s-1.119-1.811-1.119-3.113c0-0.885,0.17-1.668,0.51-2.34c0.34-0.68,0.838-1.203,1.484-1.57c0.646-0.369,1.416-0.553,2.316-0.553
				c0.553,0,1.063,0.078,1.531,0.244c0.467,0.158,0.859,0.365,1.184,0.625c0.324,0.254,0.57,0.531,0.738,0.822
				c0.174,0.297,0.258,0.564,0.258,0.818c0,0.262-0.096,0.477-0.291,0.652c-0.191,0.178-0.422,0.268-0.695,0.268
				c-0.18,0-0.332-0.049-0.445-0.137c-0.123-0.092-0.25-0.24-0.398-0.447c-0.258-0.398-0.533-0.699-0.824-0.898
				c-0.285-0.197-0.65-0.297-1.09-0.297c-0.631,0-1.145,0.252-1.537,0.744c-0.385,0.498-0.582,1.172-0.582,2.035
				c0,0.406,0.049,0.777,0.152,1.115c0.096,0.336,0.244,0.625,0.43,0.871c0.188,0.232,0.42,0.42,0.684,0.539
				c0.27,0.125,0.566,0.184,0.887,0.184c0.426,0,0.799-0.104,1.107-0.293c0.305-0.211,0.576-0.508,0.814-0.92
				c0.133-0.24,0.273-0.43,0.424-0.561c0.152-0.143,0.338-0.207,0.559-0.207c0.27,0,0.479,0.094,0.656,0.295
				C182.609,609.775,182.701,609.984,182.701,610.208z"/>
			<path fill="#FFFFFF" d="M192.625,608.5c0,0.637-0.09,1.229-0.295,1.768c-0.201,0.545-0.492,1.012-0.869,1.395
				c-0.377,0.391-0.826,0.693-1.355,0.906c-0.525,0.199-1.115,0.305-1.775,0.305c-0.641,0-1.232-0.105-1.754-0.318
				c-0.516-0.207-0.973-0.508-1.355-0.895c-0.371-0.398-0.668-0.859-0.861-1.393c-0.193-0.529-0.297-1.123-0.297-1.768
				c0-0.652,0.104-1.242,0.307-1.793c0.193-0.533,0.48-1,0.848-1.383c0.377-0.385,0.832-0.676,1.359-0.883
				c0.531-0.213,1.115-0.313,1.754-0.313c0.66,0,1.242,0.107,1.775,0.316c0.533,0.205,0.984,0.506,1.365,0.898
				c0.381,0.385,0.662,0.846,0.859,1.385C192.535,607.265,192.625,607.857,192.625,608.5z M190.469,608.5
				c0-0.877-0.195-1.559-0.582-2.049c-0.381-0.486-0.896-0.73-1.557-0.73c-0.416,0-0.785,0.104-1.111,0.322
				c-0.316,0.221-0.564,0.543-0.74,0.967c-0.172,0.426-0.258,0.924-0.258,1.49c0,0.563,0.086,1.055,0.258,1.473
				c0.17,0.422,0.416,0.736,0.732,0.963c0.316,0.225,0.693,0.328,1.119,0.328c0.66,0,1.176-0.236,1.557-0.725
				C190.273,610.042,190.469,609.361,190.469,608.5z"/>
			<path fill="#FFFFFF" d="M201.479,608.656v2.861c0,0.451-0.104,0.791-0.305,1.016c-0.209,0.23-0.48,0.34-0.816,0.34
				c-0.324,0-0.588-0.109-0.793-0.34c-0.201-0.225-0.307-0.564-0.307-1.016v-3.424c0-0.547-0.016-0.959-0.049-1.266
				c-0.037-0.297-0.137-0.547-0.303-0.732c-0.16-0.197-0.418-0.287-0.771-0.287c-0.701,0-1.168,0.238-1.387,0.723
				c-0.225,0.484-0.338,1.178-0.338,2.076v2.91c0,0.445-0.1,0.781-0.303,1.01c-0.205,0.229-0.471,0.346-0.801,0.346
				c-0.322,0-0.588-0.117-0.803-0.346c-0.207-0.229-0.309-0.564-0.309-1.01v-6.158c0-0.398,0.09-0.709,0.277-0.914
				c0.191-0.209,0.438-0.316,0.734-0.316c0.301,0,0.547,0.1,0.738,0.289c0.203,0.203,0.299,0.479,0.299,0.82v0.199
				c0.373-0.439,0.771-0.768,1.201-0.977c0.422-0.207,0.898-0.316,1.412-0.316c0.547,0,1.01,0.109,1.396,0.322
				c0.391,0.215,0.711,0.541,0.963,0.971c0.359-0.432,0.752-0.76,1.17-0.975c0.408-0.209,0.871-0.318,1.375-0.318
				c0.588,0,1.096,0.113,1.521,0.344c0.428,0.238,0.74,0.566,0.953,0.992c0.188,0.393,0.275,1.002,0.275,1.838v4.199
				c0,0.451-0.105,0.791-0.311,1.016c-0.199,0.23-0.469,0.34-0.807,0.34c-0.322,0-0.596-0.117-0.797-0.346
				c-0.213-0.229-0.314-0.564-0.314-1.01v-3.619c0-0.457-0.018-0.83-0.061-1.111c-0.045-0.275-0.145-0.512-0.314-0.697
				c-0.178-0.191-0.439-0.281-0.793-0.281c-0.285,0-0.547,0.086-0.805,0.252c-0.252,0.162-0.459,0.391-0.6,0.68
				C201.555,607.097,201.479,607.736,201.479,608.656z"/>
		</g>
		<g display="inline">
			<path fill="#FFFFFF" d="M98.09,598.583c-0.041-0.137-0.084-0.277-0.131-0.412c0.717-0.066,1.205-0.936,0.854-1.576
				c-0.322-0.723-1.436-0.811-1.866-0.148c-0.458,0.59-0.099,1.514,0.603,1.703c0.047,0.143,0.084,0.297,0.129,0.443
				c-1.079,0.076-2.183,0.316-3.097,0.932c0.097,0.256,0.189,0.529,0.281,0.791c1.838-0.803,3.886-0.631,5.821-0.436
				c0.068-0.254,0.131-0.512,0.195-0.766C100,598.722,99.043,598.578,98.09,598.583z"/>
			<path fill="#FFFFFF" d="M108.994,601.541c-0.287,0.146-0.342,0.5-0.328,0.791c-0.322,0.313-0.168,0.789-0.201,1.178
				c-0.074,0.223-0.338,0.25-0.521,0.336c-0.254-0.393-0.52-0.762-0.865-1.08l0.004-0.018c-0.371-0.344-0.771-0.658-1.191-0.934
				c-0.336,0.359-0.693,0.721-1.018,1.094c0.643,0.709,1.24,1.48,1.768,2.275c0.363,0.613,0.654,1.262,0.91,1.928
				c0.543-0.283,1.084-0.574,1.627-0.857c-0.287-0.666-0.613-1.316-0.965-1.951c0.24-0.129,0.566-0.254,0.602-0.57
				c0.025-0.35-0.047-0.727,0.156-1.031c0.422,0.271,1.064-0.033,1.068-0.543C110.096,601.621,109.432,601.244,108.994,601.541z"/>
			<path fill="#FFFFFF" d="M106.045,605.496c-0.709-1.178-1.477-2.352-2.523-3.256c-1.201-1.063-2.77-1.781-4.398-1.771
				c-2.052-0.02-4.135,0.307-6.025,1.131c-1.785,0.783-3.337,2.188-4.119,3.988c-0.759,1.621-0.747,3.492-0.407,5.219
				c1.891,0.473,3.814,0.893,5.761,0.98c1.929,0.061,3.857,0.105,5.771-0.158c2.625-0.35,5.201-1.176,7.496-2.52
				C107.6,609.109,107.277,607.38,106.045,605.496z M96.758,607.826c-0.358,0.514-0.87,0.916-1.456,1.139
				c-1.107,0.412-2.451,0.129-3.247-0.75c-0.556-0.611-0.884-1.432-0.824-2.264c0.046-1.037,0.685-2.006,1.595-2.488
				c0.691-0.371,1.527-0.438,2.288-0.227c0.315,0.078,0.604,0.227,0.876,0.408c0.564,0.395,0.98,0.979,1.17,1.645
				C97.419,606.134,97.249,607.089,96.758,607.826z M104.723,605.951c-0.131,0.889-0.979,1.635-1.885,1.58
				c-0.523,0.045-1.027-0.203-1.385-0.574c-0.258-0.318-0.465-0.682-0.502-1.104c-0.123-0.895,0.512-1.826,1.391-2.039
				c0.387-0.109,0.797-0.049,1.18,0.045C104.346,604.148,104.889,605.085,104.723,605.951z"/>
			<path fill="#FFFFFF" d="M88.999,602.865c-0.768,0.463-1.398,1.119-1.926,1.838c-0.154-0.289-0.199-0.627-0.399-0.883
				c-0.113-0.15-0.319-0.088-0.478-0.088c-0.207,0.018-0.403-0.039-0.596-0.096c0.227-0.314,0.166-0.801-0.178-1.008
				c-0.368-0.262-0.938-0.035-1.037,0.402c-0.152,0.479,0.356,0.961,0.824,0.836c0.254,0.369,0.707,0.311,1.09,0.32
				c0.17,0.301,0.303,0.629,0.527,0.898c-0.415,0.813-0.648,1.723-0.668,2.633c0.531,0.223,1.063,0.447,1.59,0.668
				c0.024-0.578,0.094-1.148,0.179-1.707c0.177-1.242,0.892-2.309,1.737-3.193C89.456,603.265,89.22,603.074,88.999,602.865z"/>
			<path fill="#FFFFFF" d="M101.361,612.166c-1.953,0.426-3.958,0.551-5.95,0.465c-1.348-0.063-2.697-0.193-4.008-0.484
				c-0.934-0.189-1.85-0.463-2.771-0.725c0.15,1.17,0.625,2.293,1.302,3.26c0.798,1.123,1.867,2.15,3.196,2.568
				c1.036,0.283,2.271,0.635,4.405,0.598c1.76-0.027,3.49-0.252,5.035-0.916c0.996-0.424,1.928-1.006,2.734-1.74
				c0.693-0.654,1.238-1.469,1.609-2.34c0.363-0.832,0.691-2.313,0.658-3.076C105.664,610.861,103.535,611.804,101.361,612.166z"/>
		</g>
	</g>
	<g display="none">
		<path display="inline" fill="#F9410F" d="M320.361,264.06h-18.309h-18.307c0,0-3.9,16.453,1.203,32.898
			c0,0,1.959-4.727,3.84-7.035c0.322-0.396,0.719-0.719,1.209-0.941c3.338-1.49-0.215,20.432,12.053,40.863
			c12.266-20.432,8.719-42.355,12.057-40.859c0.488,0.219,0.885,0.541,1.209,0.938c1.877,2.311,3.836,7.039,3.836,7.039
			C324.258,280.517,320.361,264.06,320.361,264.06z"/>
		<rect x="279.061" y="245.544" display="inline" fill="#F3110B" width="44.848" height="13.014"/>
		<g display="inline">
			<path fill="#F3110B" d="M260.441,177.592c0,0-35.77-14.168-28.523,81.054c0,0,11.318-39.521,36.832-28.583L260.441,177.592z"/>
			<path fill="#F3110B" d="M342.523,177.592c0,0,35.773-14.168,28.527,81.054c0,0-11.316-39.521-36.83-28.583L342.523,177.592z"/>
		</g>
		<g display="inline">
			<path fill="#F6CB17" d="M301.484,12.438h-0.002c-24.768,0-44.848,64.49-44.848,144.041c0,35.572,4.018,68.119,10.668,93.253
				h34.182V12.438z"/>
			<path fill="#F29220" d="M301.484,12.438h0.002c24.766,0,44.848,64.49,44.848,144.041c0,35.572-4.016,68.119-10.668,93.253
				h-34.182V12.438z"/>
		</g>
		<circle display="inline" fill="#164257" cx="301.484" cy="195.726" r="17.358"/>
		<path display="inline" fill="#83D0E3" d="M309.851,189.689c-1.875-2.596-4.919-4.291-8.366-4.291
			c-5.703,0-10.327,4.623-10.327,10.327c0,2.938,1.233,5.585,3.204,7.466C296.432,199.416,301.114,192.882,309.851,189.689z"/>
		<path display="inline" fill="#F1F1F1" d="M294.361,203.191c1.854,1.768,4.359,2.86,7.123,2.86c5.703,0,10.326-4.624,10.326-10.326
			c0-2.257-0.732-4.337-1.96-6.036C301.114,192.882,296.432,199.416,294.361,203.191z"/>
		<g display="inline">
			<path fill="#FFFFFF" d="M346.273,148.996c-0.082-5.154-0.25-10.234-0.498-15.23c-28.246-12.221-60.336-12.221-88.582,0
				c-0.246,4.996-0.416,10.076-0.498,15.23C284.797,134.553,318.172,134.553,346.273,148.996z"/>
			<path fill="#FFFFFF" d="M332.506,52.459c-1.477-4.541-3.051-8.756-4.707-12.621c-17.051-5.818-35.578-5.818-52.629,0
				c-1.656,3.865-3.23,8.08-4.705,12.621C290.061,43.029,312.908,43.029,332.506,52.459z"/>
			<path fill="#FFFFFF" d="M345.922,176.029c0.205-4.863,0.328-9.811,0.377-14.814c-28.547-12.527-61.082-12.527-89.629,0
				c0.051,5.004,0.172,9.951,0.377,14.814C284.957,161.826,318.012,161.826,345.922,176.029z"/>
		</g>
		<defs>
			<filter id="Adobe_OpacityMaskFilter_10_" filterUnits="userSpaceOnUse" x="316.266" y="85.744" width="23.954" height="160.23">
				<feFlood  style="flood-color:white;flood-opacity:1" result="back"/>
				<feBlend  in="SourceGraphic" in2="back" mode="normal"/>
			</filter>
		</defs>
		<mask maskUnits="userSpaceOnUse" x="316.266" y="85.744" width="23.954" height="160.23" id="SVGID_25_" display="inline">
			<g filter="url(#Adobe_OpacityMaskFilter_10_)">
				<defs>
					
						<filter id="Adobe_OpacityMaskFilter_11_" filterUnits="userSpaceOnUse" x="316.266" y="85.744" width="23.954" height="160.23">
						<feFlood  style="flood-color:white;flood-opacity:1" result="back"/>
						<feBlend  in="SourceGraphic" in2="back" mode="normal"/>
					</filter>
				</defs>
				<mask maskUnits="userSpaceOnUse" x="316.266" y="85.744" width="23.954" height="160.23" id="SVGID_25_">
					<g filter="url(#Adobe_OpacityMaskFilter_11_)">
					</g>
				</mask>
				
					<linearGradient id="SVGID_26_" gradientUnits="userSpaceOnUse" x1="-133.3467" y1="94.0996" x2="-137.0844" y2="266.0444" gradientTransform="matrix(-0.9996 -0.0294 -0.0294 0.9996 198.5169 -3.4046)">
					<stop  offset="0.129" style="stop-color:#808080"/>
					<stop  offset="0.2557" style="stop-color:#7A7A7A"/>
					<stop  offset="0.4232" style="stop-color:#696969"/>
					<stop  offset="0.6134" style="stop-color:#4E4E4E"/>
					<stop  offset="0.819" style="stop-color:#282828"/>
					<stop  offset="1" style="stop-color:#000000"/>
				</linearGradient>
				<path mask="url(#SVGID_25_)" fill="url(#SVGID_26_)" d="M334.847,85.744c0,0,0.268,2.479,0.548,6.832
					c0.126,2.176,0.289,4.818,0.393,7.852c0.114,3.033,0.219,6.455,0.239,10.189c0.089,3.729-0.016,7.777-0.037,12.045
					c-0.137,4.273-0.216,8.773-0.485,13.421c-0.271,4.647-0.507,9.442-0.979,14.301c-0.214,2.429-0.398,4.876-0.643,7.328
					c-0.281,2.446-0.565,4.903-0.848,7.359c-0.496,4.917-1.302,9.792-1.991,14.593c-0.177,1.201-0.353,2.395-0.528,3.586
					c-0.212,1.18-0.424,2.355-0.636,3.523c-0.425,2.334-0.847,4.639-1.26,6.902c-0.399,2.268-0.813,4.492-1.322,6.644
					c-0.477,2.16-0.943,4.271-1.397,6.325c-0.467,2.049-0.865,4.056-1.351,5.969c-0.502,1.906-0.989,3.748-1.455,5.52
					c-0.955,3.525-1.73,6.783-2.59,9.617c-0.876,2.822-1.64,5.284-2.269,7.312c-1.255,4.047-1.971,6.358-1.971,6.358l13.334,4.555
					c0,0,0.537-2.492,1.479-6.85c0.469-2.174,1.038-4.817,1.688-7.845c0.631-3.032,1.146-6.498,1.812-10.245
					c0.32-1.876,0.654-3.83,1-5.853c0.327-2.025,0.559-4.139,0.854-6.297c0.281-2.16,0.569-4.377,0.866-6.647
					c0.326-2.259,0.551-4.585,0.758-6.951c0.22-2.361,0.443-4.765,0.67-7.197c0.109-1.214,0.222-2.435,0.332-3.663
					c0.072-1.233,0.146-2.471,0.22-3.714c0.275-4.972,0.656-10.004,0.725-15.057c0.066-2.519,0.135-5.039,0.203-7.548
					c0.03-2.509-0.001-5.01,0.001-7.486c0.045-4.955-0.141-9.825-0.279-14.532c-0.142-4.705-0.458-9.247-0.696-13.545
					c-0.356-4.296-0.606-8.355-1.024-12.085C336.766,95.512,334.846,85.744,334.847,85.744z"/>
			</g>
		</mask>
		
			<linearGradient id="SVGID_27_" gradientUnits="userSpaceOnUse" x1="-133.3467" y1="94.0996" x2="-137.0844" y2="266.0444" gradientTransform="matrix(-0.9996 -0.0294 -0.0294 0.9996 198.5169 -3.4046)">
			<stop  offset="0.129" style="stop-color:#EAEFEE"/>
			<stop  offset="0.5208" style="stop-color:#F0F3F3"/>
			<stop  offset="1" style="stop-color:#FFFFFF"/>
		</linearGradient>
		<path display="inline" fill="url(#SVGID_27_)" d="M334.847,85.744c0,0,0.268,2.479,0.548,6.832
			c0.126,2.176,0.289,4.818,0.393,7.852c0.114,3.033,0.219,6.455,0.239,10.189c0.089,3.729-0.016,7.777-0.037,12.045
			c-0.137,4.273-0.216,8.773-0.485,13.421c-0.271,4.647-0.507,9.442-0.979,14.301c-0.214,2.429-0.398,4.876-0.643,7.328
			c-0.281,2.446-0.565,4.903-0.848,7.359c-0.496,4.917-1.302,9.792-1.991,14.593c-0.177,1.201-0.353,2.395-0.528,3.586
			c-0.212,1.18-0.424,2.355-0.636,3.523c-0.425,2.334-0.847,4.639-1.26,6.902c-0.399,2.268-0.813,4.492-1.322,6.644
			c-0.477,2.16-0.943,4.271-1.397,6.325c-0.467,2.049-0.865,4.056-1.351,5.969c-0.502,1.906-0.989,3.748-1.455,5.52
			c-0.955,3.525-1.73,6.783-2.59,9.617c-0.876,2.822-1.64,5.284-2.269,7.312c-1.255,4.047-1.971,6.358-1.971,6.358l13.334,4.555
			c0,0,0.537-2.492,1.479-6.85c0.469-2.174,1.038-4.817,1.688-7.845c0.631-3.032,1.146-6.498,1.812-10.245
			c0.32-1.876,0.654-3.83,1-5.853c0.327-2.025,0.559-4.139,0.854-6.297c0.281-2.16,0.569-4.377,0.866-6.647
			c0.326-2.259,0.551-4.585,0.758-6.951c0.22-2.361,0.443-4.765,0.67-7.197c0.109-1.214,0.222-2.435,0.332-3.663
			c0.072-1.233,0.146-2.471,0.22-3.714c0.275-4.972,0.656-10.004,0.725-15.057c0.066-2.519,0.135-5.039,0.203-7.548
			c0.03-2.509-0.001-5.01,0.001-7.486c0.045-4.955-0.141-9.825-0.279-14.532c-0.142-4.705-0.458-9.247-0.696-13.545
			c-0.356-4.296-0.606-8.355-1.024-12.085C336.766,95.512,334.846,85.744,334.847,85.744z"/>
		<defs>
			<filter id="Adobe_OpacityMaskFilter_12_" filterUnits="userSpaceOnUse" x="264.363" y="18.164" width="31.997" height="225.843">
				<feFlood  style="flood-color:white;flood-opacity:1" result="back"/>
				<feBlend  in="SourceGraphic" in2="back" mode="normal"/>
			</filter>
		</defs>
		<mask maskUnits="userSpaceOnUse" x="264.363" y="18.164" width="31.997" height="225.843" id="SVGID_28_" display="inline">
			<g filter="url(#Adobe_OpacityMaskFilter_12_)">
				<defs>
					
						<filter id="Adobe_OpacityMaskFilter_13_" filterUnits="userSpaceOnUse" x="264.363" y="18.164" width="31.997" height="225.843">
						<feFlood  style="flood-color:white;flood-opacity:1" result="back"/>
						<feBlend  in="SourceGraphic" in2="back" mode="normal"/>
					</filter>
				</defs>
				<mask maskUnits="userSpaceOnUse" x="264.363" y="18.164" width="31.997" height="225.843" id="SVGID_28_">
					<g filter="url(#Adobe_OpacityMaskFilter_13_)">
					</g>
				</mask>
				<linearGradient id="SVGID_29_" gradientUnits="userSpaceOnUse" x1="280.2646" y1="14.6548" x2="280.6299" y2="248.7215">
					<stop  offset="0.4731" style="stop-color:#808080"/>
					<stop  offset="0.5216" style="stop-color:#7A7A7A"/>
					<stop  offset="0.5857" style="stop-color:#696969"/>
					<stop  offset="0.6585" style="stop-color:#4E4E4E"/>
					<stop  offset="0.7372" style="stop-color:#282828"/>
					<stop  offset="0.8065" style="stop-color:#000000"/>
				</linearGradient>
				<path mask="url(#SVGID_28_)" fill="url(#SVGID_29_)" d="M283.833,73.055c2.064-27.369,12.527-54.891,12.527-54.891
					c-18.908,24.234-23.956,55.283-23.956,55.283c-21.954,76.55,8.005,170.56,8.005,170.56l12.036-1.914
					C274.188,133.704,283.833,73.055,283.833,73.055z"/>
			</g>
		</mask>
		<linearGradient id="SVGID_30_" gradientUnits="userSpaceOnUse" x1="280.2646" y1="14.6548" x2="280.6299" y2="248.7215">
			<stop  offset="0.4731" style="stop-color:#EAEFEE"/>
			<stop  offset="0.6231" style="stop-color:#F0F3F3"/>
			<stop  offset="0.8065" style="stop-color:#FFFFFF"/>
		</linearGradient>
		<path display="inline" fill="url(#SVGID_30_)" d="M283.833,73.055c2.064-27.369,12.527-54.891,12.527-54.891
			c-18.908,24.234-23.956,55.283-23.956,55.283c-21.954,76.55,8.005,170.56,8.005,170.56l12.036-1.914
			C274.188,133.704,283.833,73.055,283.833,73.055z"/>
		<circle display="inline" fill="#164257" cx="301.484" cy="81.441" r="22.424"/>
		<path display="inline" fill="#83D0E3" d="M312.293,73.645c-2.424-3.354-6.355-5.543-10.809-5.543
			c-7.367,0-13.342,5.973-13.342,13.34c0,3.797,1.595,7.215,4.141,9.645C294.958,86.209,301.007,77.769,312.293,73.645z"/>
		<path display="inline" fill="#F1F1F1" d="M292.283,91.086c2.396,2.285,5.631,3.695,9.201,3.695c7.367,0,13.34-5.973,13.34-13.34
			c0-2.914-0.945-5.603-2.531-7.797C301.007,77.769,294.958,86.209,292.283,91.086z"/>
	</g>
</g>
</svg>
