<?xml version="1.0" encoding="utf-8"?>
<!-- Generator: Adobe Illustrator 16.0.0, SVG Export Plug-In . SVG Version: 6.00 Build 0)  -->
<!DOCTYPE svg PUBLIC "-//W3C//DTD SVG 1.1//EN" "http://www.w3.org/Graphics/SVG/1.1/DTD/svg11.dtd">
<svg version="1.1" xmlns="http://www.w3.org/2000/svg"  x="0px" y="0px"
	 width="340.482px" height="134.993px" viewBox="0 0 340.482 134.993" enable-background="new 0 0 340.482 134.993"
	 xml:space="preserve">
<g id="Layer_1">
	<path d="M334.616,130.401h-26.398l-36.547-63.169l20.475,0.172c5.02,0,9.236-1.77,12.877-5.41c3.696-3.56,5.56-7.99,5.56-13.189
		c0-5.07-1.812-9.28-5.539-12.869c-3.662-3.661-7.878-5.43-12.91-5.43h-40.669l-2.828-2.828L236.882,7.406h55.251
		c11.36,0,21.205,4.084,29.26,12.139c8.172,8.328,12.139,17.896,12.139,29.259c0,8.892-2.396,16.585-7.327,23.518
		c-4.437,6.441-10.03,11.231-16.636,14.245L334.616,130.401z M309.948,127.401h19.498l-24.168-42.295l1.592-0.644
		c6.74-2.725,12.418-7.387,16.876-13.86c4.57-6.426,6.785-13.55,6.785-21.798c0-10.539-3.687-19.419-11.27-27.148
		c-7.462-7.461-16.593-11.25-27.129-11.25h-50.044l8.945,15.427l1.672,1.672h39.427c5.786,0,10.837,2.116,15.011,6.289
		c4.266,4.107,6.438,9.164,6.438,15.01c0,6.045-2.173,11.203-6.459,15.33c-4.153,4.153-9.203,6.269-14.99,6.269l-15.235-0.128
		L309.948,127.401z M250.768,130.401h-26.399l-36.546-63.169l20.475,0.172c5.02,0,9.236-1.77,12.877-5.41
		c3.696-3.56,5.56-7.99,5.56-13.189c0-5.07-1.812-9.28-5.539-12.869c-3.662-3.661-7.878-5.43-12.91-5.43h-40.669l-2.828-2.828
		L153.033,7.406h55.251c11.36,0,21.205,4.084,29.26,12.139c8.172,8.328,12.139,17.896,12.139,29.259
		c0,8.892-2.396,16.585-7.327,23.518c-4.437,6.441-10.03,11.231-16.636,14.245L250.768,130.401z M226.099,127.401h19.499
		L221.43,85.106l1.592-0.644c6.74-2.725,12.418-7.387,16.876-13.86c4.57-6.426,6.785-13.55,6.785-21.798
		c0-10.539-3.687-19.419-11.27-27.148c-7.462-7.461-16.593-11.25-27.129-11.25H158.24l8.945,15.427l1.672,1.672h39.426
		c5.786,0,10.837,2.116,15.011,6.289c4.266,4.107,6.438,9.164,6.438,15.01c0,6.045-2.173,11.203-6.459,15.33
		c-4.153,4.153-9.203,6.269-14.99,6.269l-15.235-0.128L226.099,127.401z M155.933,130.401h-1.5v-23.099h1.5
		c2.039,0,3.764-0.306,5.274-0.935c1.782-0.686,3.271-1.632,4.465-2.826c1.292-1.292,2.185-2.651,2.811-4.278
		c0.734-1.765,1.099-3.539,1.099-5.312c0-3.475-1.337-6.571-4.086-9.466c-2.743-2.743-5.791-4.033-9.563-4.033h-29.849
		c-10.066,0-18.75-3.58-25.81-10.639c-0.075-0.077-0.15-0.153-0.224-0.23l10.46,20.919H84.655L68.028,57.108L51.675,89.676
		l-9.898,19.797l-10.621,20.928H5.609L68.034,5.552l22.01,44.02c-0.272-1.855-0.409-3.762-0.409-5.717
		c0-9.948,3.476-18.337,10.627-25.648c7.011-7.167,15.699-10.801,25.821-10.801h1.5v23.099h-1.5c-2.038,0-3.763,0.306-5.273,0.935
		c-1.708,0.657-3.032,1.543-4.465,2.976c-1.169,1.168-2.12,2.621-2.826,4.316c-0.62,1.488-0.935,3.212-0.935,5.123
		c0,3.841,1.204,6.896,3.788,9.616c2.743,2.743,5.837,4.033,9.711,4.033h29.849c10.067,0,18.751,3.58,25.81,10.639
		c7.159,7.158,10.789,15.842,10.789,25.81c0,9.968-3.63,18.652-10.789,25.81C174.684,126.822,166,130.401,155.933,130.401z
		 M10.464,127.401h18.851l9.783-19.278l9.895-19.792L68.04,50.4l18.473,37.103h19.143L68.034,12.26L10.464,127.401z
		 M157.433,110.251v17.121c8.607-0.338,16.066-3.607,22.188-9.731c6.576-6.575,9.91-14.545,9.91-23.688
		c0-9.143-3.334-17.113-9.91-23.688c-6.476-6.476-14.446-9.76-23.688-9.76h-29.849c-4.658,0-8.537-1.616-11.86-4.939
		c-3.13-3.294-4.639-7.115-4.639-11.71c0-2.31,0.392-4.421,1.165-6.277c0.858-2.059,2.027-3.837,3.475-5.284
		c1.725-1.725,3.413-2.848,5.471-3.639c1.456-0.607,3.072-0.972,4.888-1.099V10.436c-8.646,0.342-16.1,3.658-22.177,9.869
		c-6.575,6.722-9.771,14.426-9.771,23.55c0,9.326,3.196,17.128,9.771,23.85c6.465,6.465,14.436,9.749,23.677,9.749h29.849
		c4.557,0,8.388,1.616,11.711,4.939c3.286,3.458,4.938,7.338,4.938,11.56c0,2.171-0.442,4.333-1.314,6.427
		c-0.767,1.994-1.875,3.686-3.475,5.284c-1.493,1.492-3.333,2.667-5.471,3.489C160.866,109.759,159.25,110.125,157.433,110.251z
		 M130.467,130.401h-25.715l-11.388-22.949h25.542L130.467,130.401z M106.613,127.401h18.984l-8.539-16.949H98.202L106.613,127.401z
		"/>
</g>
<g id="Layer_2">
	<polygon points="31.102,126.37 23.335,96.941 57.214,74.041 57.214,28.976 80.295,32.009 81.406,78.906 99.417,71.585
		99.794,72.512 80.44,80.377 79.316,32.889 58.214,30.116 58.214,74.572 57.994,74.72 24.483,97.372 32.069,126.115 	"/>
	<polygon points="172.893,124.479 167.776,102.517 188.817,85.446 158.938,79.752 147.211,59.672 113.432,77.71 112.554,51.803
		91.042,35.583 125.896,21.438 126.272,22.365 93.053,35.846 113.538,51.292 114.377,76.072 147.589,58.336 159.572,78.854
		191.118,84.867 168.893,102.9 173.866,124.252 	"/>
	<rect x="93.53" y="117.097" transform="matrix(0.8727 0.4882 -0.4882 0.8727 71.5667 -39.3396)" width="35.416" height="1"/>
	<polygon points="224.176,126.38 223.215,126.104 230.769,99.79 200.791,88.243 216.493,66.49 240.287,70.792 227.798,43.009
		227.798,15.158 205.835,30.197 185.788,9.509 162.229,20.367 161.81,19.459 186.013,8.304 205.966,28.895 228.798,13.261
		228.798,42.794 241.979,72.115 216.935,67.586 202.361,87.776 231.981,99.186 	"/>
	<polygon points="306.92,124.56 305.998,124.171 315.572,101.46 281.923,84.696 314.194,81.457 311.388,51.268 330.107,38.813
		306.709,12.232 274.392,29.578 274.151,29.438 239.236,9.339 239.734,8.473 274.409,28.433 306.936,10.976 331.615,39.012
		312.438,51.77 315.282,82.352 285.468,85.345 316.857,100.984 	"/>
</g>
</svg>
