<?xml version="1.0" standalone="no"?>
<!DOCTYPE svg PUBLIC "-//W3C//DTD SVG 20010904//EN"
 "http://www.w3.org/TR/2001/REC-SVG-20010904/DTD/svg10.dtd">
<svg version="1.0" xmlns="http://www.w3.org/2000/svg"
 width="1560.000000pt" height="1560.000000pt" viewBox="0 0 1560.000000 1560.000000"
 preserveAspectRatio="xMidYMid meet">
<metadata>
Created by potrace 1.11, written by Peter Selinger 2001-2013
</metadata>
<g transform="translate(0.000000,1560.000000) scale(0.100000,-0.100000)"
fill="#000000" stroke="none">
<path d="M6990 10082 c-6 -2 -10 -12 -10 -22 0 -10 -4 -21 -9 -25 -5 -3 -17
-28 -26 -56 l-17 -50 33 -67 c19 -37 53 -99 76 -138 24 -39 43 -76 43 -83 0
-6 5 -11 10 -11 6 0 10 -6 10 -14 0 -8 6 -21 14 -29 8 -7 26 -37 41 -65 14
-28 33 -56 41 -63 8 -6 14 -16 14 -21 0 -5 18 -36 40 -69 22 -33 40 -63 40
-65 0 -11 93 -135 133 -177 l42 -45 178 2 c97 0 177 -2 177 -6 0 -4 14 -3 31
2 17 5 40 5 54 0 12 -5 25 -6 28 -3 9 9 207 9 207 0 0 -5 5 -5 11 -2 6 4 58 7
117 7 157 -1 265 -1 282 -1 48 1 613 -12 654 -15 26 -2 65 -7 85 -11 38 -7
172 -75 197 -100 9 -8 19 -15 24 -15 4 0 45 -38 91 -84 80 -79 160 -196 176
-257 3 -13 8 -105 9 -204 3 -167 1 -186 -21 -250 -12 -38 -28 -71 -34 -73 -6
-2 -11 -9 -11 -16 0 -20 -66 -104 -134 -171 -75 -75 -190 -154 -226 -157 -3 0
-12 -4 -21 -8 -34 -19 -196 -28 -609 -35 -135 -2 -258 -7 -275 -10 -60 -12
-95 -27 -105 -45 -14 -26 -19 -79 -9 -86 5 -3 9 -14 9 -25 0 -10 4 -27 9 -37
6 -9 29 -55 52 -102 23 -47 59 -115 80 -152 22 -36 39 -71 39 -77 0 -6 5 -11
10 -11 6 0 10 -4 10 -9 0 -8 101 -187 130 -231 6 -8 13 -22 17 -30 4 -8 22
-38 40 -67 18 -29 33 -57 33 -63 0 -5 5 -10 11 -10 5 0 8 -4 5 -9 -3 -5 1 -14
9 -21 8 -7 15 -16 15 -21 0 -4 13 -29 29 -56 75 -122 351 -606 351 -614 0 -5
5 -9 10 -9 6 0 10 -4 10 -10 0 -5 36 -70 80 -146 44 -75 80 -138 80 -139 0 -2
22 -40 50 -84 27 -45 50 -85 51 -89 1 -4 12 -23 24 -42 12 -19 37 -62 55 -95
18 -33 43 -76 55 -95 12 -19 43 -72 70 -117 26 -46 50 -83 53 -84 9 -1 483 -8
765 -12 119 -2 221 -1 225 2 21 16 56 127 42 136 -4 2 -11 19 -15 37 -4 18 -8
35 -9 38 -1 3 -4 10 -8 15 -3 6 -32 60 -63 120 -31 61 -63 117 -70 125 -8 8
-14 20 -15 25 -1 6 -19 39 -40 75 -21 36 -47 81 -58 101 -11 20 -59 104 -106
186 -47 83 -86 155 -86 161 0 6 -4 12 -8 14 -5 2 -44 66 -87 143 -43 77 -82
142 -87 143 -4 2 -8 12 -8 22 0 10 -5 22 -10 25 -6 4 -24 32 -40 63 -17 31
-39 71 -49 87 -19 32 -52 91 -107 191 l-34 61 94 58 c52 32 120 78 153 102 67
50 234 210 278 267 17 21 35 44 40 50 6 6 22 27 35 46 13 19 27 37 30 40 9 7
93 147 127 210 74 138 139 334 159 480 7 50 12 483 6 494 -3 5 -6 29 -8 52 -1
24 -5 57 -9 73 -4 17 -6 33 -6 36 0 14 -40 138 -64 200 -59 151 -183 372 -254
454 -12 13 -21 27 -21 30 0 13 -198 209 -265 263 -91 72 -206 143 -341 211
-169 84 -231 102 -424 123 -135 14 -545 23 -1370 29 -294 2 -537 4 -540 5 -3
1 -43 1 -90 0 -47 0 -103 0 -125 1 -141 3 -266 4 -275 1z"/>
<path d="M10491 10080 c-11 -8 -61 -126 -61 -144 0 -15 67 -152 103 -211 43
-71 74 -124 87 -150 8 -16 17 -32 20 -35 3 -3 28 -41 54 -85 100 -164 174
-272 223 -323 50 -52 52 -54 104 -52 30 1 59 1 64 0 6 -1 21 -1 35 0 72 7 540
4 540 -3 0 -5 5 -5 11 -1 6 3 57 6 112 6 142 -1 249 -1 267 -1 8 0 31 0 50 0
19 -1 42 0 50 0 26 1 513 -12 561 -15 134 -10 244 -70 398 -216 75 -72 155
-201 169 -271 8 -45 7 -355 -2 -397 -35 -169 -292 -433 -455 -468 -70 -15
-234 -23 -566 -29 -275 -4 -318 -7 -368 -27 -32 -12 -55 -51 -52 -88 6 -60 84
-228 181 -390 22 -36 45 -76 52 -90 7 -14 21 -38 32 -55 11 -16 24 -39 29 -51
5 -12 26 -46 45 -77 20 -31 36 -58 36 -60 0 -3 52 -93 115 -201 63 -109 115
-199 115 -201 0 -3 15 -28 33 -57 53 -87 67 -112 73 -130 4 -10 10 -18 15 -18
5 0 9 -5 9 -11 0 -6 20 -45 45 -86 25 -40 45 -78 45 -83 0 -5 6 -15 13 -22 7
-7 37 -56 66 -108 79 -138 81 -143 165 -288 42 -73 120 -206 172 -294 51 -88
94 -165 94 -169 0 -5 5 -9 11 -9 5 0 8 -3 6 -8 -3 -4 5 -20 18 -36 l23 -29
274 -4 c150 -2 373 -5 495 -6 l222 -3 22 53 c15 39 19 63 14 90 -7 40 -82 194
-169 347 -31 54 -56 101 -56 103 0 3 -8 17 -19 31 -10 15 -32 52 -48 82 -38
69 -70 126 -94 165 -11 17 -22 37 -26 45 -4 8 -25 47 -47 85 -23 39 -48 84
-56 100 -8 17 -17 32 -20 35 -5 5 -12 17 -58 99 -14 25 -36 64 -49 86 -13 22
-29 52 -36 68 -6 15 -14 27 -18 27 -4 0 -12 15 -19 33 -8 17 -19 39 -25 47 -7
8 -27 42 -45 75 -17 33 -50 90 -71 127 -21 36 -39 69 -39 71 0 3 46 34 103 68
56 35 104 66 107 69 3 3 25 21 50 40 91 70 229 207 288 285 4 6 21 28 37 50
17 22 32 42 35 45 3 3 18 25 34 50 16 25 37 56 46 70 20 30 114 217 123 245 3
11 13 38 22 60 57 147 79 309 78 570 0 195 -7 273 -33 375 -17 69 -18 75 -20
78 -2 1 -3 5 -4 10 -12 46 -39 117 -60 162 -15 30 -29 63 -31 74 -3 10 -11 26
-20 36 -8 9 -15 21 -15 27 0 10 -126 214 -139 223 -3 3 -17 21 -31 40 -53 76
-266 290 -288 290 -4 0 -19 11 -33 24 -32 30 -209 137 -309 187 -84 42 -206
85 -265 95 -21 3 -47 7 -59 10 -21 4 -106 11 -231 19 -116 8 -1694 30 -1805
25 -22 -1 -84 0 -273 3 -93 1 -172 0 -176 -3z"/>
<path d="M5528 10074 c-2 -1 -30 -5 -62 -8 -32 -4 -61 -8 -65 -10 -4 -3 -25
-7 -47 -10 -34 -4 -152 -36 -194 -53 -8 -3 -20 -7 -27 -9 -6 -1 -39 -16 -72
-33 -34 -17 -63 -31 -66 -31 -21 -2 -198 -117 -271 -176 -119 -96 -252 -244
-329 -364 -15 -25 -36 -56 -45 -70 -69 -106 -144 -336 -167 -517 -9 -70 -9
-409 0 -475 9 -74 -1 -66 -65 50 -61 110 -128 239 -210 402 -46 91 -85 167
-88 170 -3 3 -117 230 -255 505 -137 275 -253 502 -257 503 -5 2 -8 10 -8 18
0 8 -7 26 -16 39 -15 23 -22 25 -103 25 l-86 0 -280 -562 c-154 -310 -283
-564 -287 -566 -5 -2 -8 -8 -8 -13 0 -13 -564 -1144 -572 -1147 -5 -2 -8 -8
-8 -13 0 -15 -42 -103 -59 -123 -9 -10 -15 -21 -14 -25 0 -3 -151 -311 -337
-683 -186 -373 -336 -678 -332 -678 4 0 2 -4 -4 -8 -6 -4 -52 -92 -104 -197
-299 -611 -362 -754 -362 -819 0 -31 26 -95 43 -106 4 -3 222 -5 485 -5 l477
0 107 213 c59 116 105 212 101 212 -3 0 -1 4 4 8 12 8 398 780 393 785 -2 2 3
11 9 19 19 22 242 468 235 468 -4 0 -2 4 3 8 6 4 141 269 302 589 l291 581
318 -636 c174 -350 321 -640 327 -643 13 -9 885 -4 927 6 51 11 76 32 94 76
15 38 15 41 -13 111 -46 116 -301 645 -320 663 -3 4 -6 10 -6 13 -1 4 -9 23
-20 42 -32 59 -26 63 23 16 100 -95 133 -125 194 -178 76 -66 162 -128 176
-128 6 0 12 -4 14 -9 5 -14 195 -106 280 -135 170 -58 271 -66 1053 -81 160
-3 302 -7 318 -9 15 -2 30 1 33 6 3 4 10 5 16 2 6 -4 105 -8 221 -10 l210 -3
61 -42 c196 -135 287 -311 263 -512 -9 -83 -35 -151 -86 -225 -72 -106 -217
-191 -351 -207 -87 -10 -98 -15 -115 -51 -31 -66 -38 -142 -38 -459 0 -303 5
-372 32 -429 20 -41 26 -46 66 -52 40 -6 191 3 206 12 6 3 55 13 99 19 90 12
344 100 381 131 8 8 20 14 25 14 5 0 40 20 77 45 38 25 71 45 73 45 2 0 12 8
22 18 10 9 41 36 68 58 66 56 139 130 194 195 24 30 48 56 52 57 5 2 8 9 8 16
0 6 9 18 20 26 11 8 20 18 20 22 0 4 14 28 31 53 84 124 169 345 185 480 2 22
7 60 11 85 9 59 10 368 1 445 -13 112 -32 190 -72 294 -33 86 -93 211 -105
221 -3 3 -15 21 -25 40 -11 19 -22 37 -25 40 -4 3 -26 30 -51 60 -78 97 -193
214 -280 285 -25 20 -55 46 -68 56 -99 84 -342 198 -477 224 -122 23 -350 35
-758 39 -147 2 -270 6 -273 9 -3 3 -16 2 -29 -3 -13 -5 -25 -6 -28 -3 -3 3
-108 7 -234 9 -125 2 -244 6 -263 9 -19 2 -62 7 -95 10 -58 5 -73 10 -143 44
-32 16 -107 82 -147 131 -58 71 -94 184 -95 300 -1 74 19 171 43 215 6 11 12
22 12 25 3 33 143 180 171 180 7 0 14 3 16 8 7 16 148 69 188 71 153 7 164 41
164 506 0 138 -3 282 -6 321 -7 82 -37 149 -70 160 -23 7 -144 14 -150 8z"/>
<path d="M4277 6063 c-6 -13 -14 -23 -19 -23 -4 0 -8 -5 -8 -11 0 -6 -12 -25
-26 -44 -19 -26 -23 -38 -15 -52 9 -17 62 -124 82 -165 5 -10 13 -27 19 -38
54 -108 263 -528 285 -573 15 -31 33 -61 39 -65 12 -7 942 -11 964 -4 6 2 12
13 12 23 0 10 4 19 9 19 8 0 14 21 28 92 3 21 -38 134 -62 172 -10 14 -14 26
-10 26 4 0 3 6 -3 13 -18 21 -90 167 -84 167 4 0 2 4 -4 8 -5 4 -62 110 -125
236 l-115 229 -265 4 c-145 2 -271 4 -279 4 -33 -1 -113 0 -259 2 -151 2 -154
2 -164 -20z"/>
</g>
</svg>
