<svg height="512pt" viewBox="0 -16 512 512" width="512pt" xmlns="http://www.w3.org/2000/svg">
    <path d="m10 331.679688v-301.507813c0-11.140625 9.03125-20.171875 20.171875-20.171875h451.65625c11.140625 0 20.171875 9.03125 20.171875 20.171875v301.507813"
          fill="#1F3335"/>
    <path d="m51.871094 331.679688v-279.722657h408.257812v279.722657" fill="#fcfcfc"/>
    <path d="m335.980469 303.578125h-204.273438c-5.523437 0-10-4.476563-10-10s4.476563-10 10-10h204.273438c5.523437 0 10 4.476563 10 10s-4.476563 10-10 10zm0 0"/>
    <path d="m380.289062 303.578125c-.648437 0-1.308593-.070313-1.949218-.199219s-1.269532-.320312-1.871094-.570312c-.609375-.25-1.1875-.558594-1.726562-.917969-.550782-.363281-1.0625-.78125-1.523438-1.242187-.457031-.460938-.878906-.96875-1.238281-1.519532-.359375-.539062-.671875-1.121094-.921875-1.730468-.25-.597657-.4375-1.230469-.566406-1.871094-.132813-.636719-.203126-1.296875-.203126-1.949219 0-.648437.070313-1.308594.203126-1.960937.128906-.628907.316406-1.257813.566406-1.867188.25-.601562.5625-1.179688.921875-1.722656.359375-.546875.78125-1.058594 1.238281-1.519532.460938-.457031.972656-.878906 1.523438-1.25.539062-.359374 1.117187-.667968 1.726562-.917968.601562-.25 1.230469-.441406 1.871094-.570313 1.289062-.261719 2.621094-.261719 3.910156 0 .640625.128907 1.261719.320313 1.871094.570313.597656.25 1.179687.558594 1.71875.917968.550781.371094 1.058594.792969 1.519531 1.25.460937.460938.882813.972657 1.25 1.519532.359375.542968.671875 1.121094.921875 1.722656.25.609375.4375 1.238281.570312 1.867188.128907.652343.1875 1.3125.1875 1.960937 0 .652344-.058593 1.3125-.1875 1.949219-.132812.640625-.320312 1.273437-.570312 1.871094-.25.609374-.5625 1.191406-.921875 1.730468-.367187.550782-.789063 1.058594-1.25 1.519532-.460937.460937-.96875.878906-1.519531 1.242187-.539063.359375-1.121094.667969-1.71875.917969-.609375.25-1.242188.441406-1.871094.570312-.648438.128906-1.308594.199219-1.960938.199219zm0 0"/>
    <path d="m436.460938 331.679688h65.539062v57.40625c0 17.347656-14.03125 31.40625-31.34375 31.40625h-429.3125c-17.3125 0-31.34375-14.058594-31.34375-31.40625v-57.40625h370.292969"
          fill="#1F3335"/>
    <path d="m201.042969 420.492188h109.914062v48.945312h-109.914062zm0 0" fill="#fcfcfc"/>
    <path d="m256 396.890625c-11.542969 0-20.9375-9.414063-20.9375-20.980469s9.394531-20.980468 20.9375-20.980468 20.9375 9.414062 20.9375 20.980468-9.394531 20.980469-20.9375 20.980469zm0 0"
          fill="#fcfcfc"/>
    <path d="m256 406.890625c-17.058594 0-30.9375-13.898437-30.9375-30.980469 0-17.082031 13.878906-30.980468 30.9375-30.980468s30.9375 13.898437 30.9375 30.980468c0 17.082032-13.878906 30.980469-30.9375 30.980469zm0-41.960937c-6.03125 0-10.9375 4.925781-10.9375 10.980468 0 6.054688 4.90625 10.980469 10.9375 10.980469s10.9375-4.925781 10.9375-10.980469c0-6.054687-4.90625-10.980468-10.9375-10.980468zm0 0"/>
    <path d="m274.308594 169.851562v-75.90625h111.945312v75.90625" fill="#f3756a"/>
    <path d="m125.746094 93.945312h148.5625v75.90625h-148.5625zm0 0" fill="#fed99c"/>
    <path d="m330.277344 169.851562h-204.53125v82.710938h260.503906v-82.710938" fill="#a5e6ff"/>
    <path d="m481.828125 0h-451.65625c-16.636719 0-30.171875 13.535156-30.171875 30.171875v358.914063c0 22.832031 18.546875 41.40625 41.34375 41.40625h149.699219v28.945312h-78.316407c-5.523437 0-10 4.476562-10 10s4.476563 10 10 10h286.546876c5.523437 0 10-4.476562 10-10s-4.476563-10-10-10h-78.316407v-28.945312h149.699219c22.796875 0 41.34375-18.574219 41.34375-41.40625v-358.914063c0-16.636719-13.535156-30.171875-30.171875-30.171875zm-451.65625 20h451.65625c5.609375 0 10.171875 4.5625 10.171875 10.171875v291.511719h-21.871094v-269.726563c0-5.523437-4.480468-10-10-10h-408.257812c-5.523438 0-10 4.476563-10 10v269.722657h-21.871094v-291.507813c0-5.609375 4.5625-10.171875 10.171875-10.171875zm270.785156 439.4375h-89.914062v-28.945312h89.914062zm191.042969-70.351562c0 11.804687-9.574219 21.40625-21.34375 21.40625h-429.3125c-11.769531 0-21.34375-9.601563-21.34375-21.40625v-47.402344h360.292969c5.523437 0 10-4.480469 10-10 0-5.523438-4.476563-10-10-10h-318.421875v-259.726563h388.257812v259.722657h-13.667968c-5.519532 0-10 4.476562-10 10 0 5.523437 4.480468 10 10 10h55.539062zm0 0"/>
    <path d="m386.253906 83.945312h-260.507812c-5.519532 0-10 4.476563-10 10v158.617188c0 5.523438 4.480468 10 10 10h260.507812c5.519532 0 10-4.476562 10-10v-158.617188c0-5.523437-4.480468-10-10-10zm-250.507812 20h128.5625v55.90625h-128.5625zm240.507812 138.617188h-240.507812v-62.710938h194.53125c5.523437 0 10-4.476562 10-10 0-5.523437-4.476563-10-10-10h-45.96875v-55.90625h91.941406v138.617188zm0 0"/>
</svg>