<svg height="512pt" viewBox="0 -52 512 512" width="512pt" xmlns="http://www.w3.org/2000/svg">
    <path d="m31 319.34375v-289.171875c0-11.140625 9.03125-20.171875 20.171875-20.171875h409.65625c11.140625 0 20.171875 9.03125 20.171875 20.171875v289.171875"
          fill="#1F3335"/>
    <path d="m71 319.34375v-269.34375h370v269.34375" fill="#fcfcfc"/>
    <path d="m336 319.34375h-326v48.402344c0 16.347656 13.253906 29.601562 29.601562 29.601562h432.796876c16.347656 0 29.601562-13.253906 29.601562-29.601562v-48.402344h-94.332031"
          fill="#1F3335"/>
    <path d="m309.527344 361.679688h-107.054688c-14.621094 0-26.472656-11.855469-26.472656-26.476563v-15.859375h160v15.859375c0 14.621094-11.851562 26.476563-26.472656 26.476563zm0 0"
          fill="#fed99c"/>
    <path d="m502 309.34375h-11v-279.171875c0-16.636719-13.535156-30.171875-30.171875-30.171875h-409.65625c-16.636719 0-30.171875 13.535156-30.171875 30.171875v279.171875h-11c-5.523438 0-10 4.476562-10 10v48.402344c0 21.835937 17.765625 39.601562 39.601562 39.601562h432.796876c21.835937 0 39.601562-17.765625 39.601562-39.601562v-48.402344c0-5.523438-4.476562-10-10-10zm-461-279.171875c0-5.609375 4.5625-10.171875 10.171875-10.171875h409.65625c5.609375 0 10.171875 4.5625 10.171875 10.171875v279.171875h-20v-259.34375c0-5.523438-4.476562-10-10-10h-370c-5.523438 0-10 4.476562-10 10v259.34375h-20zm451 337.574219c0 10.808594-8.792969 19.601562-19.601562 19.601562h-432.796876c-10.808593 0-19.601562-8.792968-19.601562-19.601562v-38.402344h146v5.859375c0 20.113281 16.363281 36.476563 36.472656 36.476563h107.054688c20.109375 0 36.472656-16.363282 36.472656-36.476563v-15.859375c0-5.523438-4.476562-10-10-10h-255v-249.34375h350v249.34375h-23.335938c-5.519531 0-10 4.476562-10 10s4.480469 10 10 10h84.335938zm-306-38.402344h140v5.859375c0 9.085937-7.390625 16.476563-16.472656 16.476563h-107.054688c-9.082031 0-16.472656-7.390626-16.472656-16.476563zm0 0"/>
    <path d="m332.402344 293.347656h-195.136719c-5.523437 0-10-4.476562-10-10 0-5.523437 4.476563-10 10-10h195.136719c5.523437 0 10 4.476563 10 10 0 5.523438-4.476563 10-10 10zm0 0"/>
    <path d="m374.738281 293.34375c-.660156 0-1.308593-.058594-1.957031-.191406-.640625-.128906-1.269531-.316406-1.871094-.566406-.601562-.25-1.179687-.5625-1.71875-.921876-.550781-.371093-1.0625-.78125-1.519531-1.25-.472656-.460937-.882813-.96875-1.25-1.519531-.363281-.539062-.671875-1.121093-.921875-1.71875-.25-.613281-.441406-1.242187-.570312-1.871093-.128907-.652344-.191407-1.3125-.191407-1.960938s.0625-1.308594.191407-1.949219c.128906-.640625.320312-1.269531.570312-1.871093.25-.609376.558594-1.1875.921875-1.730469.367187-.550781.777344-1.058594 1.25-1.519531.457031-.460938.96875-.878907 1.519531-1.238282.539063-.359375 1.117188-.671875 1.71875-.921875.601563-.25 1.230469-.4375 1.871094-.570312 1.289062-.257813 2.617188-.257813 3.910156 0 .636719.132812 1.269532.320312 1.867188.570312.601562.25 1.179687.5625 1.730468.921875.539063.359375 1.0625.777344 1.519532 1.238282.460937.460937.882812.96875 1.242187 1.519531.359375.542969.667969 1.121093.917969 1.730469.25.601562.441406 1.230468.570312 1.871093.132813.640625.199219 1.300781.199219 1.949219s-.066406 1.308594-.199219 1.960938c-.128906.628906-.320312 1.257812-.570312 1.871093-.25.597657-.558594 1.179688-.917969 1.71875-.359375.550781-.78125 1.058594-1.242187 1.519531-.460938.46875-.980469.878907-1.519532 1.25-.550781.359376-1.128906.671876-1.730468.921876-.597656.25-1.230469.4375-1.867188.566406-.652344.132812-1.300781.191406-1.953125.191406zm0 0"/>
    <path d="m273.488281 168.070312v-72.367187h106.941407v72.367187" fill="#f3756a"/>
    <path d="m131.570312 95.703125h141.917969v72.367187h-141.917969zm0 0" fill="#fed99c"/>
    <path d="m326.957031 168.070312h-195.386719v78.851563h248.859376v-78.851563" fill="#a5e6ff"/>
    <path d="m380.429688 85.703125h-106.941407c-.011719 0-.023437 0-.039062 0h-141.878907c-5.519531 0-10 4.480469-10 10v151.21875c0 5.523437 4.480469 10 10 10h248.855469c5.523438 0 10-4.476563 10-10v-151.21875c.003907-5.519531-4.476562-10-9.996093-10zm-238.859376 20.003906h121.917969v52.363281h-121.917969zm228.859376 131.214844h-228.859376v-58.851563h185.386719c5.523438 0 10-4.476562 10-10 0-5.523437-4.476562-10-10-10h-43.46875v-52.367187h86.9375v131.21875zm0 0"/>
</svg>