<svg height="512pt" viewBox="-105 0 511 512" width="512pt" xmlns="http://www.w3.org/2000/svg">
    <path d="m292.105469 73.996094v334.003906h-281.605469v-334.003906" fill="#fcfcfc"/>
    <path d="m205.640625 73.996094h-195.140625v-37.191406c0-14.804688 12.003906-26.804688 26.804688-26.804688h227.992187c14.804687 0 26.808594 12.003906 26.808594 26.804688v37.191406"
          fill="#1F3335"/>
    <path d="m247.972656 84c-.652344 0-1.3125-.070312-1.949218-.199219-.640626-.128906-1.269532-.320312-1.871094-.570312-.609375-.25-1.191406-.558594-1.730469-.921875-.550781-.359375-1.058594-.777344-1.519531-1.238282-.460938-.460937-.878906-.96875-1.25-1.519531-.351563-.539062-.660156-1.121093-.910156-1.730469-.25-.601562-.449219-1.230468-.570313-1.871093-.128906-.640625-.199219-1.300781-.199219-1.949219s.070313-1.308594.199219-1.960938c.121094-.628906.320313-1.257812.570313-1.867187.25-.601563.558593-1.183594.910156-1.722656.371094-.550781.789062-1.058594 1.25-1.519531.460937-.460938.96875-.878907 1.519531-1.25.539063-.359376 1.121094-.667969 1.730469-.917969.601562-.25 1.230468-.441407 1.871094-.570313 1.289062-.261718 2.609374-.261718 3.898437 0 .640625.128906 1.269531.320313 1.871094.570313.609375.25 1.1875.558593 1.730469.917969.546874.371093 1.058593.789062 1.519531 1.25.460937.460937.878906.96875 1.238281 1.519531.359375.539062.671875 1.121093.921875 1.722656.25.609375.4375 1.238281.570313 1.867187.128906.652344.199218 1.3125.199218 1.960938s-.070312 1.308594-.199218 1.949219c-.132813.640625-.320313 1.269531-.570313 1.871093-.25.609376-.5625 1.191407-.921875 1.730469-.359375.550781-.777344 1.058594-1.238281 1.519531-.460938.460938-.972657.878907-1.519531 1.238282-.542969.363281-1.121094.671875-1.730469.921875-.601563.25-1.230469.441406-1.871094.570312-.640625.128907-1.300781.199219-1.949219.199219zm0 0"/>
    <path d="m76.304688 408h215.800781v67.195312c0 14.804688-12.003907 26.804688-26.808594 26.804688h-227.992187c-14.804688 0-26.804688-12.003906-26.804688-26.804688v-67.195312"
          fill="#1F3335"/>
    <path d="m265.296875 0h-227.992187c-20.292969 0-36.804688 16.511719-36.804688 36.804688v438.390624c0 20.292969 16.511719 36.804688 36.804688 36.804688h227.992187c20.296875 0 36.808594-16.511719 36.808594-36.804688v-438.390624c0-20.292969-16.511719-36.804688-36.808594-36.804688zm16.808594 475.195312c0 9.265626-7.539063 16.804688-16.808594 16.804688h-227.992187c-9.265626 0-16.804688-7.539062-16.804688-16.804688v-391.199218h185.140625c5.519531 0 10-4.476563 10-10 0-5.519532-4.480469-10-10-10h-185.140625v-27.191406c0-9.265626 7.539062-16.804688 16.804688-16.804688h227.992187c9.269531 0 16.808594 7.539062 16.808594 16.804688v361.195312h-205.800781c-5.523438 0-10 4.476562-10 10s4.476562 10 10 10h205.800781zm0 0"/>
    <path d="m151.300781 475c-11.027343 0-20-8.972656-20-20s8.972657-20 20-20c11.027344 0 20 8.972656 20 20s-8.972656 20-20 20zm0 0"
          fill="#fcfcfc"/>
    <path d="m151.300781 485c-16.539062 0-30-13.457031-30-30 0-16.539062 13.460938-30 30-30 16.542969 0 30 13.460938 30 30 0 16.542969-13.457031 30-30 30zm0-40c-5.511719 0-10 4.488281-10 10 0 5.515625 4.488281 10 10 10 5.515625 0 10-4.484375 10-10 0-5.511719-4.484375-10-10-10zm0 0"/>
    <path d="m51.167969 141.9375h80.132812v80.128906h-80.132812zm0 0" fill="#f3756a"/>
    <path d="m131.300781 232.066406h-80.132812c-5.523438 0-10-4.476562-10-10v-80.128906c0-5.523438 4.476562-10 10-10h80.132812c5.523438 0 10 4.476562 10 10v80.128906c0 5.523438-4.476562 10-10 10zm-70.132812-20h60.132812v-60.128906h-60.132812zm0 0"/>
    <path d="m171.304688 141.9375h80.128906v80.128906h-80.128906zm0 0" fill="#50b4ff"/>
    <path d="m251.433594 232.066406h-80.128906c-5.523438 0-10-4.476562-10-10v-80.128906c0-5.523438 4.476562-10 10-10h80.128906c5.523437 0 10 4.476562 10 10v80.128906c0 5.523438-4.476563 10-10 10zm-70.128906-20h60.128906v-60.128906h-60.128906zm0 0"/>
    <path d="m51.167969 262.070312h80.132812v80.132813h-80.132812zm0 0" fill="#c1ee92"/>
    <path d="m131.300781 352.203125h-80.132812c-5.523438 0-10-4.476563-10-10v-80.132813c0-5.523437 4.476562-10 10-10h80.132812c5.523438 0 10 4.476563 10 10v80.132813c0 5.523437-4.476562 10-10 10zm-70.132812-20h60.132812v-60.132813h-60.132812zm0 0"/>
    <path d="m251.433594 342.203125h-80.128906v-80.132813h80.128906v40.066407" fill="#fed99c"/>
    <path d="m251.433594 352.203125h-80.128906c-5.523438 0-10-4.476563-10-10v-80.132813c0-5.523437 4.476562-10 10-10h80.128906c5.523437 0 10 4.476563 10 10v40.066407c0 5.523437-4.476563 10-10 10-5.523438 0-10-4.476563-10-10v-30.066407h-60.128906v60.132813h70.128906c5.523437 0 10 4.476563 10 10s-4.476563 10-10 10zm0 0"/>
</svg>