<svg height="511pt" viewBox="0 0 511 511.99854" width="511pt" xmlns="http://www.w3.org/2000/svg">
    <path d="m393.5 163.886719v124.914062h32v-124.914062" fill="#a5e6ff"/>
    <path d="m287.648438 150.5625c-5.0625 0-9.40625-3.832031-9.933594-8.980469-3.996094-38.878906 9.503906-76.964843 37.035156-104.496093 18.226562-18.226563 41.21875-30.453126 66.492188-35.347657 5.425781-1.046875 10.667968 2.492188 11.71875 7.914063 1.054687 5.421875-2.492188 10.667968-7.914063 11.71875-21.339844 4.136718-40.757813 14.460937-56.15625 29.855468-23.257813 23.257813-34.660156 55.445313-31.28125 88.3125.5625 5.492188-3.433594 10.402344-8.925781 10.96875-.347656.039063-.691406.054688-1.035156.054688zm0 0"/>
    <path d="m418.222656 19.996094c-.652344 0-1.300781-.058594-1.953125-.1875-.636719-.132813-1.269531-.332032-1.867187-.582032-.601563-.25-1.179688-.550781-1.730469-.917968-.539063-.359375-1.0625-.78125-1.519531-1.242188-1.863282-1.859375-2.929688-4.4375-2.929688-7.066406 0-.652344.066406-1.3125.199219-1.953125.128906-.636719.320313-1.265625.570313-1.878906.25-.601563.558593-1.179688.917968-1.71875.359375-.550781.78125-1.0625 1.242188-1.523438.457031-.457031.980468-.878906 1.519531-1.238281.550781-.371094 1.128906-.671875 1.730469-.921875.597656-.25 1.230468-.449219 1.867187-.578125 3.25-.648438 6.703125.421875 9.03125 2.738281.460938.460938.878907.972657 1.238281 1.523438.363282.539062.671876 1.117187.921876 1.71875.25.609375.441406 1.242187.570312 1.878906.128906.640625.199219 1.300781.199219 1.953125 0 2.628906-1.070313 5.207031-2.929688 7.066406s-4.441406 2.929688-7.078125 2.929688zm0 0"/>
    <path d="m325.890625 150.5625c-4.859375 0-9.121094-3.546875-9.875-8.5-4.339844-28.570312 5.222656-57.78125 25.574219-78.136719 20.355468-20.355469 49.566406-29.914062 78.136718-25.574219 5.460938.832032 9.214844 5.929688 8.386719 11.390626-.832031 5.460937-5.921875 9.21875-11.390625 8.382812-22.3125-3.390625-45.113281 4.066406-60.988281 19.941406-15.878906 15.878906-23.332031 38.679688-19.941406 60.992188.828125 5.460937-2.925781 10.558594-8.386719 11.390625-.507812.074219-1.015625.113281-1.515625.113281zm0 0"/>
    <path d="m10.5 288.800781h490v178.53125h-490zm0 0" fill="#1F3335"/>
    <path d="m60.5 288.800781h390v138.53125h-390zm0 0" fill="#fcfcfc"/>
    <path d="m91.5 332.066406h52v52h-52zm0 0" fill="#a5e6ff"/>
    <path d="m143.5 394.066406h-52c-5.523438 0-10-4.476562-10-10v-52c0-5.523437 4.476562-10 10-10h52c5.523438 0 10 4.476563 10 10v52c0 5.523438-4.476562 10-10 10zm-42-20h32v-32h-32zm0 0"/>
    <path d="m266.5 358.066406c0 14.359375-11.640625 26-26 26s-26-11.640625-26-26 11.640625-26 26-26 26 11.640625 26 26zm0 0"
          fill="#f3756a"/>
    <path d="m240.5 394.066406c-19.851562 0-36-16.148437-36-36 0-19.851562 16.148438-36 36-36s36 16.148438 36 36c0 19.851563-16.148438 36-36 36zm0-52c-8.820312 0-16 7.179688-16 16 0 8.824219 7.179688 16 16 16s16-7.175781 16-16c0-8.820312-7.179688-16-16-16zm0 0"/>
    <path d="m343 358.066406c0 14.359375-11.640625 26-26 26s-26-11.640625-26-26 11.640625-26 26-26 26 11.640625 26 26zm0 0"
          fill="#fdbf6c"/>
    <path d="m317 394.066406c-19.851562 0-36-16.148437-36-36 0-19.851562 16.148438-36 36-36s36 16.148438 36 36c0 19.851563-16.148438 36-36 36zm0-52c-8.820312 0-16 7.179688-16 16 0 8.824219 7.179688 16 16 16 8.824219 0 16-7.175781 16-16 0-8.820312-7.175781-16-16-16zm0 0"/>
    <path d="m419.5 358.066406c0 14.359375-11.640625 26-26 26s-26-11.640625-26-26 11.640625-26 26-26 26 11.640625 26 26zm0 0"
          fill="#c1ee92"/>
    <path d="m393.5 394.066406c-19.851562 0-36-16.148437-36-36 0-19.851562 16.148438-36 36-36s36 16.148438 36 36c0 19.851563-16.148438 36-36 36zm0-52c-8.820312 0-16 7.179688-16 16 0 8.824219 7.179688 16 16 16 8.824219 0 16-7.175781 16-16 0-8.820312-7.175781-16-16-16zm0 0"/>
    <path d="m29.324219 467.332031h84.664062v34.667969h-84.664062zm0 0" fill="#50b4ff"/>
    <path d="m397.011719 467.332031h84.667969v34.667969h-84.667969zm0 0" fill="#50b4ff"/>
    <path d="m446.5 127.515625c0 20.433594-16.566406 37-37 37s-37-16.566406-37-37c0-20.4375 16.566406-37 37-37s37 16.5625 37 37zm0 0"
          fill="#fcfcfc"/>
    <path d="m500.5 278.800781h-65v-112.152343c12.648438-8.429688 21-22.824219 21-39.132813 0-25.917969-21.082031-47-47-47-25.914062 0-47 21.082031-47 47 0 16.308594 8.351562 30.703125 21 39.132813v112.152343h-373c-5.523438 0-10 4.480469-10 10v178.53125c0 5.523438 4.476562 10 10 10h8.824219v24.667969c0 5.523438 4.476562 10 10 10h84.667969c5.523437 0 10-4.476562 10-10v-24.667969h263.019531v24.667969c0 5.523438 4.476562 10 10 10h84.667969c5.523437 0 10-4.476562 10-10v-24.667969h8.824218c5.523438 0 10-4.476562 10-10v-178.53125c-.003906-5.519531-4.480468-10-10.003906-10zm-91-178.285156c14.890625 0 27 12.109375 27 27 0 14.886719-12.109375 27-27 27-14.886719 0-27-12.113281-27-27 0-14.890625 12.113281-27 27-27zm-6 73.617187c1.964844.25 3.96875.382813 6 .382813s4.035156-.132813 6-.382813v104.667969h-12zm37 124.667969v118.53125h-370v-118.53125zm-420 0h30v128.53125c0 5.523438 4.476562 10 10 10h390c5.523438 0 10-4.476562 10-10v-128.53125h30v158.53125h-470zm83.488281 193.199219h-64.664062v-14.667969h64.664062zm367.691407 0h-64.667969v-14.667969h64.667969zm0 0"/>
</svg>