<svg xmlns="http://www.w3.org/2000/svg" width="1440" height="900"><path d="M787,403L830,298L620,258Z" fill="#a7a4ce" stroke="#a7a4ce" stroke-width="1.51"/><path d="M620,258L684,506L787,403Z" fill="#a4a1cc" stroke="#a4a1cc" stroke-width="1.51"/><path d="M620,258L435,389L684,506Z" fill="#aba9d1" stroke="#aba9d1" stroke-width="1.51"/><path d="M830,298L675,68L620,258Z" fill="#b1b0d4" stroke="#b1b0d4" stroke-width="1.51"/><path d="M620,258L675,68L504,267Z" fill="#b8b8d8" stroke="#b8b8d8" stroke-width="1.51"/><path d="M1001,475L926,223L830,298Z" fill="#9c99c9" stroke="#9c99c9" stroke-width="1.51"/><path d="M849,76L675,68L830,298Z" fill="#b2b0d4" stroke="#b2b0d4" stroke-width="1.51"/><path d="M984,615L1001,475L787,403Z" fill="#8f8bc1" stroke="#8f8bc1" stroke-width="1.51"/><path d="M435,389L648,558L684,506Z" fill="#a3a0cc" stroke="#a3a0cc" stroke-width="1.51"/><path d="M926,223L849,76L830,298Z" fill="#a9a7d0" stroke="#a9a7d0" stroke-width="1.51"/><path d="M504,267L435,389L620,258Z" fill="#b5b4d7" stroke="#b5b4d7" stroke-width="1.51"/><path d="M787,403L1001,475L830,298Z" fill="#9a96c7" stroke="#9a96c7" stroke-width="1.51"/><path d="M836,688L787,403L684,506Z" fill="#9591c4" stroke="#9591c4" stroke-width="1.51"/><path d="M310,170L334,279L504,267Z" fill="#c2c2df" stroke="#c2c2df" stroke-width="1.51"/><path d="M849,76L752,-28L675,68Z" fill="#bbb8d9" stroke="#bbb8d9" stroke-width="1.51"/><path d="M926,223L999,83L849,76Z" fill="#aba9d2" stroke="#aba9d2" stroke-width="1.51"/><path d="M849,76L1017,-5L752,-28Z" fill="#b6b3d7" stroke="#b6b3d7" stroke-width="1.51"/><path d="M1095,341L999,83L926,223Z" fill="#a09dcc" stroke="#a09dcc" stroke-width="1.51"/><path d="M1001,475L1095,341L926,223Z" fill="#9692c6" stroke="#9692c6" stroke-width="1.51"/><path d="M504,267L334,279L435,389Z" fill="#b9bada" stroke="#b9bada" stroke-width="1.51"/><path d="M438,48L504,267L675,68Z" fill="#c1c1de" stroke="#c1c1de" stroke-width="1.51"/><path d="M682,-72L438,48L675,68Z" fill="#c5c4df" stroke="#c5c4df" stroke-width="1.51"/><path d="M752,-28L682,-72L675,68Z" fill="#c1bedc" stroke="#c1bedc" stroke-width="1.51"/><path d="M766,-238L682,-72L752,-28Z" fill="#c4c1dd" stroke="#c4c1dd" stroke-width="1.51"/><path d="M648,558L836,688L684,506Z" fill="#9490c3" stroke="#9490c3" stroke-width="1.51"/><path d="M1001,475L1116,509L1095,341Z" fill="#8c84be" stroke="#8c84be" stroke-width="1.51"/><path d="M836,688L984,615L787,403Z" fill="#8c88bf" stroke="#8c88bf" stroke-width="1.51"/><path d="M435,389L437,637L648,558Z" fill="#a5a2cd" stroke="#a5a2cd" stroke-width="1.51"/><path d="M665,823L803,792L836,688Z" fill="#867bb8" stroke="#867bb8" stroke-width="1.51"/><path d="M239,381L437,637L435,389Z" fill="#b1afd4" stroke="#b1afd4" stroke-width="1.51"/><path d="M438,48L310,170L504,267Z" fill="#c6c6e1" stroke="#c6c6e1" stroke-width="1.51"/><path d="M999,83L1017,-5L849,76Z" fill="#afacd3" stroke="#afacd3" stroke-width="1.51"/><path d="M1086,49L1017,-5L999,83Z" fill="#aca7d1" stroke="#aca7d1" stroke-width="1.51"/><path d="M984,615L1116,509L1001,475Z" fill="#8780bc" stroke="#8780bc" stroke-width="1.51"/><path d="M1304,264L1086,49L1095,341Z" fill="#9a8fc5" stroke="#9a8fc5" stroke-width="1.51"/><path d="M1095,341L1086,49L999,83Z" fill="#a29ccc" stroke="#a29ccc" stroke-width="1.51"/><path d="M310,170L239,381L334,279Z" fill="#c4c4e0" stroke="#c4c4e0" stroke-width="1.51"/><path d="M334,279L239,381L435,389Z" fill="#bbbbda" stroke="#bbbbda" stroke-width="1.51"/><path d="M836,688L945,823L984,615Z" fill="#8078b8" stroke="#8078b8" stroke-width="1.51"/><path d="M984,615L1141,685L1116,509Z" fill="#7f77b7" stroke="#7f77b7" stroke-width="1.51"/><path d="M665,823L836,688L648,558Z" fill="#8d86bf" stroke="#8d86bf" stroke-width="1.51"/><path d="M437,637L665,823L648,558Z" fill="#9691c5" stroke="#9691c5" stroke-width="1.51"/><path d="M438,48L279,-97L310,170Z" fill="#d3d3e8" stroke="#d3d3e8" stroke-width="1.51"/><path d="M53,292L134,512L239,381Z" fill="#c2c1dd" stroke="#c2c1dd" stroke-width="1.51"/><path d="M682,-72L404,-121L438,48Z" fill="#cecee4" stroke="#cecee4" stroke-width="1.51"/><path d="M682,-72L609,-269L404,-121Z" fill="#d0cee5" stroke="#d0cee5" stroke-width="1.51"/><path d="M1017,-5L766,-238L752,-28Z" fill="#bdb9da" stroke="#bdb9da" stroke-width="1.51"/><path d="M990,-269L766,-238L1017,-5Z" fill="#bcb8da" stroke="#bcb8da" stroke-width="1.51"/><path d="M803,792L945,823L836,688Z" fill="#8075b6" stroke="#8075b6" stroke-width="1.51"/><path d="M929,902L945,823L803,792Z" fill="#7a6cb1" stroke="#7a6cb1" stroke-width="1.51"/><path d="M1116,509L1291,432L1095,341Z" fill="#897dba" stroke="#897dba" stroke-width="1.51"/><path d="M945,823L1141,685L984,615Z" fill="#7b72b5" stroke="#7b72b5" stroke-width="1.51"/><path d="M437,637L505,864L665,823Z" fill="#9388c1" stroke="#9388c1" stroke-width="1.51"/><path d="M239,381L293,694L437,637Z" fill="#aca9d1" stroke="#aca9d1" stroke-width="1.51"/><path d="M1346,564L1291,432L1116,509Z" fill="#8070b3" stroke="#8070b3" stroke-width="1.51"/><path d="M1291,432L1304,264L1095,341Z" fill="#8d7fbc" stroke="#8d7fbc" stroke-width="1.51"/><path d="M665,823L747,901L803,792Z" fill="#8474b5" stroke="#8474b5" stroke-width="1.51"/><path d="M636,1006L747,901L665,823Z" fill="#8370b4" stroke="#8370b4" stroke-width="1.51"/><path d="M293,694L505,864L437,637Z" fill="#9c94c8" stroke="#9c94c8" stroke-width="1.51"/><path d="M766,-238L609,-269L682,-72Z" fill="#cac7e1" stroke="#cac7e1" stroke-width="1.51"/><path d="M404,-121L279,-97L438,48Z" fill="#d6d6e9" stroke="#d6d6e9" stroke-width="1.51"/><path d="M323,-193L279,-97L404,-121Z" fill="#dddcec" stroke="#dddcec" stroke-width="1.51"/><path d="M239,381L134,512L293,694Z" fill="#b5b2d6" stroke="#b5b2d6" stroke-width="1.51"/><path d="M53,292L239,381L310,170Z" fill="#c9c9e2" stroke="#c9c9e2" stroke-width="1.51"/><path d="M945,823L1122,824L1141,685Z" fill="#7566ae" stroke="#7566ae" stroke-width="1.51"/><path d="M747,901L929,902L803,792Z" fill="#7d6db1" stroke="#7d6db1" stroke-width="1.51"/><path d="M1086,49L1155,-138L1017,-5Z" fill="#aea5d1" stroke="#aea5d1" stroke-width="1.51"/><path d="M1332,-10L1155,-138L1086,49Z" fill="#aa9ccb" stroke="#aa9ccb" stroke-width="1.51"/><path d="M482,-295L323,-193L404,-121Z" fill="#dbdaeb" stroke="#dbdaeb" stroke-width="1.51"/><path d="M1155,-138L990,-269L1017,-5Z" fill="#b5acd4" stroke="#b5acd4" stroke-width="1.51"/><path d="M766,-238L990,-269L609,-269Z" fill="#c6c3df" stroke="#c6c3df" stroke-width="1.51"/><path d="M134,512L137,591L293,694Z" fill="#b1afd4" stroke="#b1afd4" stroke-width="1.51"/><path d="M320,977L523,948L505,864Z" fill="#907dbc" stroke="#907dbc" stroke-width="1.51"/><path d="M1098,961L1122,824L945,823Z" fill="#715ea9" stroke="#715ea9" stroke-width="1.51"/><path d="M1141,685L1346,564L1116,509Z" fill="#7b6eb2" stroke="#7b6eb2" stroke-width="1.51"/><path d="M990,-269L482,-295L609,-269Z" fill="#cdc9e2" stroke="#cdc9e2" stroke-width="1.51"/><path d="M609,-269L482,-295L404,-121Z" fill="#d6d6e9" stroke="#d6d6e9" stroke-width="1.51"/><path d="M747,901L838,1124L929,902Z" fill="#7760ac" stroke="#7760ac" stroke-width="1.51"/><path d="M505,864L523,948L665,823Z" fill="#8c7bba" stroke="#8c7bba" stroke-width="1.51"/><path d="M243,824L505,864L293,694Z" fill="#9d91c5" stroke="#9d91c5" stroke-width="1.51"/><path d="M55,174L310,170L108,-42Z" fill="#d9d8ea" stroke="#d9d8ea" stroke-width="1.51"/><path d="M55,174L53,292L310,170Z" fill="#d1d1e6" stroke="#d1d1e6" stroke-width="1.51"/><path d="M134,512L6,435L137,591Z" fill="#bbb9d9" stroke="#bbb9d9" stroke-width="1.51"/><path d="M1468,210L1334,57L1304,264Z" fill="#9581be" stroke="#9581be" stroke-width="1.51"/><path d="M1304,264L1334,57L1086,49Z" fill="#9e8fc5" stroke="#9e8fc5" stroke-width="1.51"/><path d="M1459,616L1346,564L1456,741Z" fill="#6f59a8" stroke="#6f59a8" stroke-width="1.51"/><path d="M1291,432L1435,436L1304,264Z" fill="#8673b5" stroke="#8673b5" stroke-width="1.51"/><path d="M108,-42L310,170L279,-97Z" fill="#dadbeb" stroke="#dadbeb" stroke-width="1.51"/><path d="M1334,57L1332,-10L1086,49Z" fill="#a494c7" stroke="#a494c7" stroke-width="1.51"/><path d="M1155,-138L1105,-263L990,-269Z" fill="#b6add5" stroke="#b6add5" stroke-width="1.51"/><path d="M1390,-216L1105,-263L1155,-138Z" fill="#b1a1ce" stroke="#b1a1ce" stroke-width="1.51"/><path d="M523,948L636,1006L665,823Z" fill="#8773b6" stroke="#8773b6" stroke-width="1.51"/><path d="M110,753L243,824L293,694Z" fill="#a69ccc" stroke="#a69ccc" stroke-width="1.51"/><path d="M512,1094L598,1108L636,1006Z" fill="#8166b0" stroke="#8166b0" stroke-width="1.51"/><path d="M133,-209L108,-42L279,-97Z" fill="#e4e3f0" stroke="#e4e3f0" stroke-width="1.51"/><path d="M137,591L110,753L293,694Z" fill="#aca7d1" stroke="#aca7d1" stroke-width="1.51"/><path d="M53,292L6,435L134,512Z" fill="#c4c2de" stroke="#c4c2de" stroke-width="1.51"/><path d="M-67,243L6,435L53,292Z" fill="#cecde4" stroke="#cecde4" stroke-width="1.51"/><path d="M1346,564L1435,436L1291,432Z" fill="#7e6ab0" stroke="#7e6ab0" stroke-width="1.51"/><path d="M1334,57L1443,-9L1332,-10Z" fill="#a08bc3" stroke="#a08bc3" stroke-width="1.51"/><path d="M-20,683L110,753L137,591Z" fill="#b1abd3" stroke="#b1abd3" stroke-width="1.51"/><path d="M1355,824L1346,564L1141,685Z" fill="#715eaa" stroke="#715eaa" stroke-width="1.51"/><path d="M1346,564L1459,616L1435,436Z" fill="#7761ac" stroke="#7761ac" stroke-width="1.51"/><path d="M929,902L1098,961L945,823Z" fill="#7260ab" stroke="#7260ab" stroke-width="1.51"/><path d="M984,1198L1098,961L929,902Z" fill="#6b52a4" stroke="#6b52a4" stroke-width="1.51"/><path d="M1435,436L1468,210L1304,264Z" fill="#8a74b7" stroke="#8a74b7" stroke-width="1.51"/><path d="M128,921L320,977L243,824Z" fill="#9e8bc3" stroke="#9e8bc3" stroke-width="1.51"/><path d="M243,824L320,977L505,864Z" fill="#9886c0" stroke="#9886c0" stroke-width="1.51"/><path d="M323,-193L133,-209L279,-97Z" fill="#e3e2ef" stroke="#e3e2ef" stroke-width="1.51"/><path d="M108,-42L-57,171L55,174Z" fill="#dddded" stroke="#dddded" stroke-width="1.51"/><path d="M482,-295L133,-209L323,-193Z" fill="#e1e0ef" stroke="#e1e0ef" stroke-width="1.51"/><path d="M55,174L-67,243L53,292Z" fill="#d4d4e7" stroke="#d4d4e7" stroke-width="1.51"/><path d="M-101,-52L-57,171L108,-42Z" fill="#e5e3f0" stroke="#e5e3f0" stroke-width="1.51"/><path d="M-57,171L-67,243L55,174Z" fill="#d8d8ea" stroke="#d8d8ea" stroke-width="1.51"/><path d="M6,435L-20,683L137,591Z" fill="#bab6d8" stroke="#bab6d8" stroke-width="1.51"/><path d="M1332,-10L1390,-216L1155,-138Z" fill="#ab97ca" stroke="#ab97ca" stroke-width="1.51"/><path d="M1493,62L1443,-9L1334,57Z" fill="#9e85c1" stroke="#9e85c1" stroke-width="1.51"/><path d="M1355,824L1141,685L1122,824Z" fill="#6f5ba8" stroke="#6f5ba8" stroke-width="1.51"/><path d="M1435,436L1632,332L1468,210Z" fill="#846ab2" stroke="#846ab2" stroke-width="1.51"/><path d="M636,1006L838,1124L747,901Z" fill="#7b62ac" stroke="#7b62ac" stroke-width="1.51"/><path d="M512,1094L636,1006L523,948Z" fill="#856db3" stroke="#856db3" stroke-width="1.51"/><path d="M320,977L512,1094L523,948Z" fill="#8c74b8" stroke="#8c74b8" stroke-width="1.51"/><path d="M1643,173L1493,62L1468,210Z" fill="#9177b8" stroke="#9177b8" stroke-width="1.51"/><path d="M1468,210L1493,62L1334,57Z" fill="#9880be" stroke="#9880be" stroke-width="1.51"/><path d="M1365,963L1355,824L1122,824Z" fill="#674aa0" stroke="#674aa0" stroke-width="1.51"/><path d="M1098,961L1365,963L1122,824Z" fill="#684da1" stroke="#684da1" stroke-width="1.51"/><path d="M598,1108L838,1124L636,1006Z" fill="#7a5fab" stroke="#7a5fab" stroke-width="1.51"/><path d="M-188,607L-20,683L6,435Z" fill="#bdb9da" stroke="#bdb9da" stroke-width="1.51"/><path d="M110,753L128,921L243,824Z" fill="#a595c9" stroke="#a595c9" stroke-width="1.51"/><path d="M320,977L287,1197L512,1094Z" fill="#8d72b5" stroke="#8d72b5" stroke-width="1.51"/><path d="M-128,783L128,921L110,753Z" fill="#aa9bcb" stroke="#aa9bcb" stroke-width="1.51"/><path d="M1355,824L1456,741L1346,564Z" fill="#6c54a5" stroke="#6c54a5" stroke-width="1.51"/><path d="M1740,425L1632,332L1735,555Z" fill="#7557a5" stroke="#7557a5" stroke-width="1.51"/><path d="M1434,-236L1390,-216L1443,-9Z" fill="#a78ec6" stroke="#a78ec6" stroke-width="1.51"/><path d="M1443,-9L1390,-216L1332,-10Z" fill="#a58dc5" stroke="#a58dc5" stroke-width="1.51"/><path d="M-254,497L-188,607L6,435Z" fill="#c3c0dd" stroke="#c3c0dd" stroke-width="1.51"/><path d="M-57,171L-257,296L-67,243Z" fill="#d8d8ea" stroke="#d8d8ea" stroke-width="1.51"/><path d="M-81,-234L-101,-52L108,-42Z" fill="#ecebf4" stroke="#ecebf4" stroke-width="1.51"/><path d="M1622,-25L1434,-236L1443,-9Z" fill="#a185c1" stroke="#a185c1" stroke-width="1.51"/><path d="M1390,-216L1434,-236L1105,-263Z" fill="#ae9acc" stroke="#ae9acc" stroke-width="1.51"/><path d="M1632,332L1435,436L1735,555Z" fill="#785ca9" stroke="#785ca9" stroke-width="1.51"/><path d="M1493,62L1622,-25L1443,-9Z" fill="#9b7fbd" stroke="#9b7fbd" stroke-width="1.51"/><path d="M1735,555L1435,436L1459,616Z" fill="#7258a7" stroke="#7258a7" stroke-width="1.51"/><path d="M1355,824L1503,998L1456,741Z" fill="#61409b" stroke="#61409b" stroke-width="1.51"/><path d="M1216,1162L1365,963L1098,961Z" fill="#603e99" stroke="#603e99" stroke-width="1.51"/><path d="M838,1124L984,1198L929,902Z" fill="#6d53a4" stroke="#6d53a4" stroke-width="1.51"/><path d="M598,1108L984,1198L838,1124Z" fill="#7054a4" stroke="#7054a4" stroke-width="1.51"/><path d="M287,1197L984,1198L598,1108Z" fill="#7a5da9" stroke="#7a5da9" stroke-width="1.51"/><path d="M1632,332L1643,173L1468,210Z" fill="#896eb3" stroke="#896eb3" stroke-width="1.51"/><path d="M-20,683L-128,783L110,753Z" fill="#b1a6d1" stroke="#b1a6d1" stroke-width="1.51"/><path d="M-257,296L6,435L-67,243Z" fill="#d1d0e6" stroke="#d1d0e6" stroke-width="1.51"/><path d="M1643,173L1622,-25L1493,62Z" fill="#9679ba" stroke="#9679ba" stroke-width="1.51"/><path d="M-188,607L-128,783L-20,683Z" fill="#b7afd5" stroke="#b7afd5" stroke-width="1.51"/><path d="M133,-209L-81,-234L108,-42Z" fill="#ebeaf4" stroke="#ebeaf4" stroke-width="1.51"/><path d="M-101,-52L-215,52L-57,171Z" fill="#e6e5f1" stroke="#e6e5f1" stroke-width="1.51"/><path d="M482,-295L-81,-234L133,-209Z" fill="#e9e8f3" stroke="#e9e8f3" stroke-width="1.51"/><path d="M-198,-28L-215,52L-101,-52Z" fill="#ebeaf4" stroke="#ebeaf4" stroke-width="1.51"/><path d="M-215,52L-257,296L-57,171Z" fill="#dfdeed" stroke="#dfdeed" stroke-width="1.51"/><path d="M-186,-244L-198,-28L-101,-52Z" fill="#f0eff6" stroke="#f0eff6" stroke-width="1.51"/><path d="M109,1188L287,1197L320,977Z" fill="#9376b8" stroke="#9376b8" stroke-width="1.51"/><path d="M512,1094L287,1197L598,1108Z" fill="#8569b1" stroke="#8569b1" stroke-width="1.51"/><path d="M109,1188L320,977L128,921Z" fill="#9a7fbd" stroke="#9a7fbd" stroke-width="1.51"/><path d="M984,1198L1216,1162L1098,961Z" fill="#62449b" stroke="#62449b" stroke-width="1.51"/><path d="M-257,296L-254,497L6,435Z" fill="#ccc9e2" stroke="#ccc9e2" stroke-width="1.51"/><path d="M-188,607L-298,757L-128,783Z" fill="#b7afd6" stroke="#b7afd6" stroke-width="1.51"/><path d="M1365,963L1503,998L1355,824Z" fill="#5e3a98" stroke="#5e3a98" stroke-width="1.51"/><path d="M1216,1162L1380,1083L1365,963Z" fill="#5a3394" stroke="#5a3394" stroke-width="1.51"/><path d="M1793,-92L1674,-201L1622,-25Z" fill="#9b7bba" stroke="#9b7bba" stroke-width="1.51"/><path d="M1632,332L1881,294L1643,173Z" fill="#8164ad" stroke="#8164ad" stroke-width="1.51"/><path d="M1735,555L1459,616L1706,770Z" fill="#664ba0" stroke="#664ba0" stroke-width="1.51"/><path d="M1380,1083L1503,998L1365,963Z" fill="#593093" stroke="#593093" stroke-width="1.51"/><path d="M1706,770L1459,616L1456,741Z" fill="#66499f" stroke="#66499f" stroke-width="1.51"/><path d="M-81,-234L-186,-244L-101,-52Z" fill="#f2f1f7" stroke="#f2f1f7" stroke-width="1.51"/><path d="M-198,-28L-186,-244L-215,52Z" fill="#efeef5" stroke="#efeef5" stroke-width="1.51"/><path d="M-215,52L-186,-244L-257,296Z" fill="#eae9f3" stroke="#eae9f3" stroke-width="1.51"/><path d="M482,-295L-186,-244L-81,-234Z" fill="#eeecf5" stroke="#eeecf5" stroke-width="1.51"/><path d="M-95,1116L109,1188L128,921Z" fill="#9d80be" stroke="#9d80be" stroke-width="1.51"/><path d="M1622,-25L1674,-201L1434,-236Z" fill="#a183bf" stroke="#a183bf" stroke-width="1.51"/><path d="M1793,-92L1622,-25L1643,173Z" fill="#9576b7" stroke="#9576b7" stroke-width="1.51"/><path d="M1503,998L1706,770L1456,741Z" fill="#5e3a97" stroke="#5e3a97" stroke-width="1.51"/><path d="M1879,162L1793,-92L1643,173Z" fill="#8f6fb3" stroke="#8f6fb3" stroke-width="1.51"/><path d="M1735,555L1807,520L1740,425Z" fill="#6e4fa0" stroke="#6e4fa0" stroke-width="1.51"/><path d="M1868,645L1807,520L1735,555Z" fill="#684a9e" stroke="#684a9e" stroke-width="1.51"/><path d="M-128,783L-127,1034L128,921Z" fill="#a994c8" stroke="#a994c8" stroke-width="1.51"/><path d="M-254,497L-298,757L-188,607Z" fill="#bebadb" stroke="#bebadb" stroke-width="1.51"/><path d="M-257,296L-298,757L-254,497Z" fill="#c7c3df" stroke="#c7c3df" stroke-width="1.51"/><path d="M-296,966L-127,1034L-128,783Z" fill="#ac95ca" stroke="#ac95ca" stroke-width="1.51"/><path d="M-127,1034L-95,1116L128,921Z" fill="#a387c2" stroke="#a387c2" stroke-width="1.51"/><path d="M-167,1105L-95,1116L-127,1034Z" fill="#a385c0" stroke="#a385c0" stroke-width="1.51"/><path d="M1881,294L1632,332L1740,425Z" fill="#7a5ba7" stroke="#7a5ba7" stroke-width="1.51"/><path d="M1807,520L1881,294L1740,425Z" fill="#7556a4" stroke="#7556a4" stroke-width="1.51"/><path d="M1881,294L1879,162L1643,173Z" fill="#8566ae" stroke="#8566ae" stroke-width="1.51"/><path d="M1706,770L1868,645L1735,555Z" fill="#62449b" stroke="#62449b" stroke-width="1.51"/><path d="M1807,520L1868,645L1881,294Z" fill="#6f50a1" stroke="#6f50a1" stroke-width="1.51"/><path d="M1503,998L1720,950L1706,770Z" fill="#562d90" stroke="#562d90" stroke-width="1.51"/><path d="M1714,1074L1720,950L1503,998Z" fill="#50218b" stroke="#50218b" stroke-width="1.51"/><path d="M1558,1161L1503,998L1380,1083Z" fill="#53258d" stroke="#53258d" stroke-width="1.51"/><path d="M-95,1116L-167,1105L109,1188Z" fill="#9e7fbd" stroke="#9e7fbd" stroke-width="1.51"/><path d="M-296,966L-167,1105L-127,1034Z" fill="#a78ac4" stroke="#a78ac4" stroke-width="1.51"/><path d="M984,1198L1558,1161L1216,1162Z" fill="#583192" stroke="#583192" stroke-width="1.51"/><path d="M1216,1162L1558,1161L1380,1083Z" fill="#54298f" stroke="#54298f" stroke-width="1.51"/><path d="M1895,754L1868,645L1706,770Z" fill="#5d3c97" stroke="#5d3c97" stroke-width="1.51"/><path d="M-298,757L-296,966L-128,783Z" fill="#b2a1cf" stroke="#b2a1cf" stroke-width="1.51"/><path d="M1720,950L1895,754L1706,770Z" fill="#573091" stroke="#573091" stroke-width="1.51"/><path d="M1558,1161L1714,1074L1503,998Z" fill="#4e1e89" stroke="#4e1e89" stroke-width="1.51"/><path d="M1850,1006L1895,754L1720,950Z" fill="#52278c" stroke="#52278c" stroke-width="1.51"/><path d="M1868,645L1895,754L1881,294Z" fill="#684b9e" stroke="#684b9e" stroke-width="1.51"/><path d="M1881,294L1906,-310L1879,162Z" fill="#9171b4" stroke="#9171b4" stroke-width="1.51"/><path d="M1714,1074L1850,1006L1720,950Z" fill="#4b1a87" stroke="#4b1a87" stroke-width="1.51"/><path d="M1814,1165L1850,1006L1714,1074Z" fill="#471283" stroke="#471283" stroke-width="1.51"/><path d="M1793,-92L1906,-310L1674,-201Z" fill="#9d7bba" stroke="#9d7bba" stroke-width="1.51"/><path d="M1674,-201L1906,-310L1434,-236Z" fill="#a181be" stroke="#a181be" stroke-width="1.51"/><path d="M1434,-236L1906,-310L1105,-263Z" fill="#a88dc5" stroke="#a88dc5" stroke-width="1.51"/><path d="M1105,-263L1906,-310L990,-269Z" fill="#af99cc" stroke="#af99cc" stroke-width="1.51"/><path d="M990,-269L1906,-310L482,-295Z" fill="#b7abd4" stroke="#b7abd4" stroke-width="1.51"/><path d="M1879,162L1906,-310L1793,-92Z" fill="#9876b7" stroke="#9876b7" stroke-width="1.51"/><path d="M1895,754L1906,-310L1881,294Z" fill="#8263ad" stroke="#8263ad" stroke-width="1.51"/><path d="M984,1198L1814,1165L1558,1161Z" fill="#4f208a" stroke="#4f208a" stroke-width="1.51"/><path d="M1558,1161L1814,1165L1714,1074Z" fill="#471183" stroke="#471183" stroke-width="1.51"/></svg>