<svg xmlns="http://www.w3.org/2000/svg" width="1440" height="900">
    <path d="M702,366L788,244L467,138Z" fill="#89bddd" stroke="#89bddd" stroke-width="1.51"/>
    <path d="M788,244L751,23L467,138Z" fill="#93c2df" stroke="#93c2df" stroke-width="1.51"/>
    <path d="M467,138L511,428L702,366Z" fill="#8abedd" stroke="#8abedd" stroke-width="1.51"/>
    <path d="M751,23L427,-28L467,138Z" fill="#a5cae4" stroke="#a5cae4" stroke-width="1.51"/>
    <path d="M467,138L225,172L511,428Z" fill="#9ec9e1" stroke="#9ec9e1" stroke-width="1.51"/>
    <path d="M788,244L886,24L751,23Z" fill="#8dbcdd" stroke="#8dbcdd" stroke-width="1.51"/>
    <path d="M751,23L654,-279L427,-28Z" fill="#a9cce6" stroke="#a9cce6" stroke-width="1.51"/>
    <path d="M1069,356L968,203L788,244Z" fill="#74aed5" stroke="#74aed5" stroke-width="1.51"/>
    <path d="M788,244L968,203L886,24Z" fill="#83b6d9" stroke="#83b6d9" stroke-width="1.51"/>
    <path d="M427,-28L225,172L467,138Z" fill="#aed0e6" stroke="#aed0e6" stroke-width="1.51"/>
    <path d="M702,366L1069,356L788,244Z" fill="#73afd6" stroke="#73afd6" stroke-width="1.51"/>
    <path d="M968,203L1234,-123L886,24Z" fill="#86b3d9" stroke="#86b3d9" stroke-width="1.51"/>
    <path d="M1147,410L1069,356L917,739Z" fill="#529bcb" stroke="#529bcb" stroke-width="1.51"/>
    <path d="M948,-284L654,-279L751,23Z" fill="#a1c7e4" stroke="#a1c7e4" stroke-width="1.51"/>
    <path d="M427,-28L161,-68L225,172Z" fill="#bbd6eb" stroke="#bbd6eb" stroke-width="1.51"/>
    <path d="M1069,356L1140,245L968,203Z" fill="#6ea8d1" stroke="#6ea8d1" stroke-width="1.51"/>
    <path d="M886,24L948,-284L751,23Z" fill="#97bfe0" stroke="#97bfe0" stroke-width="1.51"/>
    <path d="M386,-323L161,-68L427,-28Z" fill="#c0daed" stroke="#c0daed" stroke-width="1.51"/>
    <path d="M511,428L772,769L702,366Z" fill="#6bacd5" stroke="#6bacd5" stroke-width="1.51"/>
    <path d="M261,736L458,731L511,428Z" fill="#79b1d6" stroke="#79b1d6" stroke-width="1.51"/>
    <path d="M225,172L122,452L511,428Z" fill="#9bc6e2" stroke="#9bc6e2" stroke-width="1.51"/>
    <path d="M-17,525L122,452L-140,115Z" fill="#aacee6" stroke="#aacee6" stroke-width="1.51"/>
    <path d="M1069,356L1147,410L1140,245Z" fill="#63a1ce" stroke="#63a1ce" stroke-width="1.51"/>
    <path d="M917,739L1069,356L702,366Z" fill="#5da3cf" stroke="#5da3cf" stroke-width="1.51"/>
    <path d="M458,731L772,769L511,428Z" fill="#69a8d2" stroke="#69a8d2" stroke-width="1.51"/>
    <path d="M654,-279L386,-323L427,-28Z" fill="#b9d7ea" stroke="#b9d7ea" stroke-width="1.51"/>
    <path d="M654,-279L298,-423L386,-323Z" fill="#c3dded" stroke="#c3dded" stroke-width="1.51"/>
    <path d="M1234,-123L948,-284L886,24Z" fill="#91badc" stroke="#91badc" stroke-width="1.51"/>
    <path d="M772,769L917,739L702,366Z" fill="#579fce" stroke="#579fce" stroke-width="1.51"/>
    <path d="M458,731L544,905L772,769Z" fill="#5f9ccc" stroke="#5f9ccc" stroke-width="1.51"/>
    <path d="M122,452L261,736L511,428Z" fill="#89badc" stroke="#89badc" stroke-width="1.51"/>
    <path d="M261,736L544,905L458,731Z" fill="#6fa5cf" stroke="#6fa5cf" stroke-width="1.51"/>
    <path d="M772,769L1028,1041L917,739Z" fill="#408ac3" stroke="#408ac3" stroke-width="1.51"/>
    <path d="M1140,245L1234,-123L968,203Z" fill="#7cacd4" stroke="#7cacd4" stroke-width="1.51"/>
    <path d="M1540,-67L1234,-123L1140,245Z" fill="#7da3d2" stroke="#7da3d2" stroke-width="1.51"/>
    <path d="M122,452L-17,525L261,736Z" fill="#92bdde" stroke="#92bdde" stroke-width="1.51"/>
    <path d="M-140,115L122,452L225,172Z" fill="#b3d3e8" stroke="#b3d3e8" stroke-width="1.51"/>
    <path d="M386,-323L33,-232L161,-68Z" fill="#cde0f1" stroke="#cde0f1" stroke-width="1.51"/>
    <path d="M948,-284L298,-423L654,-279Z" fill="#b4d4ea" stroke="#b4d4ea" stroke-width="1.51"/>
    <path d="M1234,-123L1178,-258L948,-284Z" fill="#93b7dc" stroke="#93b7dc" stroke-width="1.51"/>
    <path d="M948,-284L1509,-390L298,-423Z" fill="#a4c7e4" stroke="#a4c7e4" stroke-width="1.51"/>
    <path d="M161,-68L-140,115L225,172Z" fill="#c2d9ed" stroke="#c2d9ed" stroke-width="1.51"/>
    <path d="M298,-423L33,-232L386,-323Z" fill="#d1e3f2" stroke="#d1e3f2" stroke-width="1.51"/>
    <path d="M-138,-121L-140,115L161,-68Z" fill="#cfe0f2" stroke="#cfe0f2" stroke-width="1.51"/>
    <path d="M544,905L704,996L772,769Z" fill="#5292c7" stroke="#5292c7" stroke-width="1.51"/>
    <path d="M1204,882L1163,807L1028,1041Z" fill="#2c7aba" stroke="#2c7aba" stroke-width="1.51"/>
    <path d="M917,739L1163,807L1147,410Z" fill="#4290c5" stroke="#4290c5" stroke-width="1.51"/>
    <path d="M1147,410L1397,465L1140,245Z" fill="#5997ca" stroke="#5997ca" stroke-width="1.51"/>
    <path d="M1432,616L1397,465L1147,410Z" fill="#468bc3" stroke="#468bc3" stroke-width="1.51"/>
    <path d="M-17,525L110,882L261,736Z" fill="#89b3da" stroke="#89b3da" stroke-width="1.51"/>
    <path d="M261,736L110,882L544,905Z" fill="#76a4d1" stroke="#76a4d1" stroke-width="1.51"/>
    <path d="M544,905L480,1141L704,996Z" fill="#588dc2" stroke="#588dc2" stroke-width="1.51"/>
    <path d="M-417,417L-103,612L-17,525Z" fill="#a4c8e5" stroke="#a4c8e5" stroke-width="1.51"/>
    <path d="M-355,-55L-138,-121L-379,-266Z" fill="#e0ebf8" stroke="#e0ebf8" stroke-width="1.51"/>
    <path d="M33,-232L-138,-121L161,-68Z" fill="#d3e3f3" stroke="#d3e3f3" stroke-width="1.51"/>
    <path d="M-103,612L110,882L-17,525Z" fill="#91badd" stroke="#91badd" stroke-width="1.51"/>
    <path d="M1163,807L1432,616L1147,410Z" fill="#3e88c2" stroke="#3e88c2" stroke-width="1.51"/>
    <path d="M1028,1041L1163,807L917,739Z" fill="#3583bf" stroke="#3583bf" stroke-width="1.51"/>
    <path d="M-355,-55L-275,224L-140,115Z" fill="#cee2f1" stroke="#cee2f1" stroke-width="1.51"/>
    <path d="M-140,115L-275,224L-17,525Z" fill="#b7d6ea" stroke="#b7d6ea" stroke-width="1.51"/>
    <path d="M1204,882L1432,616L1163,807Z" fill="#2f7cbb" stroke="#2f7cbb" stroke-width="1.51"/>
    <path d="M704,996L1028,1041L772,769Z" fill="#4287c0" stroke="#4287c0" stroke-width="1.51"/>
    <path d="M110,882L480,1141L544,905Z" fill="#6b98c8" stroke="#6b98c8" stroke-width="1.51"/>
    <path d="M704,996L791,1205L1028,1041Z" fill="#3d7cb8" stroke="#3d7cb8" stroke-width="1.51"/>
    <path d="M1790,490L1561,255L1397,465Z" fill="#4c81ba" stroke="#4c81ba" stroke-width="1.51"/>
    <path d="M1397,465L1561,255L1140,245Z" fill="#5c93c6" stroke="#5c93c6" stroke-width="1.51"/>
    <path d="M1234,-123L1509,-390L1178,-258Z" fill="#8eadd7" stroke="#8eadd7" stroke-width="1.51"/>
    <path d="M1561,255L1540,-67L1140,245Z" fill="#6e98c9" stroke="#6e98c9" stroke-width="1.51"/>
    <path d="M-258,777L-92,890L-103,612Z" fill="#93b7dc" stroke="#93b7dc" stroke-width="1.51"/>
    <path d="M-103,612L-92,890L110,882Z" fill="#8cb1d9" stroke="#8cb1d9" stroke-width="1.51"/>
    <path d="M110,882L218,1256L480,1141Z" fill="#6f92c4" stroke="#6f92c4" stroke-width="1.51"/>
    <path d="M480,1141L791,1205L704,996Z" fill="#4c82bb" stroke="#4c82bb" stroke-width="1.51"/>
    <path d="M-138,-121L-355,-55L-140,115Z" fill="#d6e5f5" stroke="#d6e5f5" stroke-width="1.51"/>
    <path d="M-417,417L-258,777L-103,612Z" fill="#a1c5e3" stroke="#a1c5e3" stroke-width="1.51"/>
    <path d="M-379,-266L-138,-121L33,-232Z" fill="#ddeaf7" stroke="#ddeaf7" stroke-width="1.51"/>
    <path d="M-417,417L-17,525L-275,224Z" fill="#b2d2e9" stroke="#b2d2e9" stroke-width="1.51"/>
    <path d="M-355,-55L-417,417L-275,224Z" fill="#cae1ef" stroke="#cae1ef" stroke-width="1.51"/>
    <path d="M1540,-67L1509,-390L1234,-123Z" fill="#87a3d0" stroke="#87a3d0" stroke-width="1.51"/>
    <path d="M1178,-258L1509,-390L948,-284Z" fill="#94b4da" stroke="#94b4da" stroke-width="1.51"/>
    <path d="M-355,-55L-379,-266L-417,417Z" fill="#d9e8f5" stroke="#d9e8f5" stroke-width="1.51"/>
    <path d="M298,-423L-379,-266L33,-232Z" fill="#dde9f7" stroke="#dde9f7" stroke-width="1.51"/>
    <path d="M791,1205L994,1262L1028,1041Z" fill="#3271ae" stroke="#3271ae" stroke-width="1.51"/>
    <path d="M1265,1268L1442,1008L1204,882Z" fill="#1b66ad" stroke="#1b66ad" stroke-width="1.51"/>
    <path d="M1204,882L1442,1008L1432,616Z" fill="#2673b5" stroke="#2673b5" stroke-width="1.51"/>
    <path d="M218,1256L994,1262L791,1205Z" fill="#4877ad" stroke="#4877ad" stroke-width="1.51"/>
    <path d="M480,1141L218,1256L791,1205Z" fill="#5a82b5" stroke="#5a82b5" stroke-width="1.51"/>
    <path d="M-4,1231L218,1256L110,882Z" fill="#7994c6" stroke="#7994c6" stroke-width="1.51"/>
    <path d="M-4,1231L110,882L-92,890Z" fill="#82a0ce" stroke="#82a0ce" stroke-width="1.51"/>
    <path d="M1265,1268L1204,882L1028,1041Z" fill="#256db0" stroke="#256db0" stroke-width="1.51"/>
    <path d="M1432,616L1790,490L1397,465Z" fill="#3f7db9" stroke="#3f7db9" stroke-width="1.51"/>
    <path d="M1442,1008L1660,782L1432,616Z" fill="#246db0" stroke="#246db0" stroke-width="1.51"/>
    <path d="M1839,221L1792,-96L1540,-67Z" fill="#7289b9" stroke="#7289b9" stroke-width="1.51"/>
    <path d="M1540,-67L1715,-314L1509,-390Z" fill="#869bca" stroke="#869bca" stroke-width="1.51"/>
    <path d="M-356,980L-4,1231L-92,890Z" fill="#88a1cf" stroke="#88a1cf" stroke-width="1.51"/>
    <path d="M1660,782L1790,490L1432,616Z" fill="#3271af" stroke="#3271af" stroke-width="1.51"/>
    <path d="M1839,221L1540,-67L1561,255Z" fill="#698bbc" stroke="#698bbc" stroke-width="1.51"/>
    <path d="M1792,-96L1715,-314L1540,-67Z" fill="#7d92c0" stroke="#7d92c0" stroke-width="1.51"/>
    <path d="M1790,490L1839,221L1561,255Z" fill="#537db0" stroke="#537db0" stroke-width="1.51"/>
    <path d="M994,1262L1265,1268L1028,1041Z" fill="#2667a8" stroke="#2667a8" stroke-width="1.51"/>
    <path d="M1442,1008L1722,1007L1660,782Z" fill="#165ea6" stroke="#165ea6" stroke-width="1.51"/>
    <path d="M-260,1315L1265,1268L994,1262Z" fill="#4774a9" stroke="#4774a9" stroke-width="1.51"/>
    <path d="M-258,777L-356,980L-92,890Z" fill="#91afd8" stroke="#91afd8" stroke-width="1.51"/>
    <path d="M-417,417L-356,980L-258,777Z" fill="#9dbedf" stroke="#9dbedf" stroke-width="1.51"/>
    <path d="M1265,1268L1446,1159L1442,1008Z" fill="#145ba3" stroke="#145ba3" stroke-width="1.51"/>
    <path d="M1790,490L1722,1007L1839,221Z" fill="#366ba4" stroke="#366ba4" stroke-width="1.51"/>
    <path d="M1660,782L1722,1007L1790,490Z" fill="#2563a3" stroke="#2563a3" stroke-width="1.51"/>
    <path d="M1657,1147L1722,1007L1442,1008Z" fill="#0e569f" stroke="#0e569f" stroke-width="1.51"/>
    <path d="M1657,1147L1442,1008L1446,1159Z" fill="#0f57a1" stroke="#0f57a1" stroke-width="1.51"/>
    <path d="M1265,1268L1657,1147L1446,1159Z" fill="#10549b" stroke="#10549b" stroke-width="1.51"/>
    <path d="M218,1256L-260,1315L994,1262Z" fill="#6681b0" stroke="#6681b0" stroke-width="1.51"/>
    <path d="M-4,1231L-260,1315L218,1256Z" fill="#798bb7" stroke="#798bb7" stroke-width="1.51"/>
    <path d="M-356,980L-260,1315L-4,1231Z" fill="#8597c5" stroke="#8597c5" stroke-width="1.51"/>
</svg>