<svg xmlns="http://www.w3.org/2000/svg" width="1440" height="900"><path d="M760,407L815,475L842,325Z" fill="#2689e7" stroke="#2689e7" stroke-width="1.51"/><path d="M842,325L695,277L760,407Z" fill="#3a93ec" stroke="#3a93ec" stroke-width="1.51"/><path d="M815,475L1016,467L842,325Z" fill="#1f81e0" stroke="#1f81e0" stroke-width="1.51"/><path d="M842,325L829,202L695,277Z" fill="#4a9bec" stroke="#4a9bec" stroke-width="1.51"/><path d="M1017,275L829,202L842,325Z" fill="#4994e4" stroke="#4994e4" stroke-width="1.51"/><path d="M760,407L685,538L815,475Z" fill="#0b84e7" stroke="#0b84e7" stroke-width="1.51"/><path d="M815,475L824,679L1016,467Z" fill="#1277d6" stroke="#1277d6" stroke-width="1.51"/><path d="M546,417L685,538L760,407Z" fill="#248ded" stroke="#248ded" stroke-width="1.51"/><path d="M1016,467L1017,275L842,325Z" fill="#3685dc" stroke="#3685dc" stroke-width="1.51"/><path d="M1016,467L1079,374L1017,275Z" fill="#317ed6" stroke="#317ed6" stroke-width="1.51"/><path d="M685,538L824,679L815,475Z" fill="#107bdc" stroke="#107bdc" stroke-width="1.51"/><path d="M695,277L546,417L760,407Z" fill="#3d97f0" stroke="#3d97f0" stroke-width="1.51"/><path d="M685,538L523,540L685,629Z" fill="#2e87e2" stroke="#2e87e2" stroke-width="1.51"/><path d="M572,72L589,280L695,277Z" fill="#63b0f5" stroke="#63b0f5" stroke-width="1.51"/><path d="M685,629L824,679L685,538Z" fill="#117ada" stroke="#117ada" stroke-width="1.51"/><path d="M589,280L546,417L695,277Z" fill="#4fa2f2" stroke="#4fa2f2" stroke-width="1.51"/><path d="M1016,467L1150,417L1079,374Z" fill="#2276d2" stroke="#2276d2" stroke-width="1.51"/><path d="M1176,189L1061,78L1017,275Z" fill="#5793d7" stroke="#5793d7" stroke-width="1.51"/><path d="M1160,584L1150,417L1016,467Z" fill="#156ecb" stroke="#156ecb" stroke-width="1.51"/><path d="M1017,275L909,94L829,202Z" fill="#579ce4" stroke="#579ce4" stroke-width="1.51"/><path d="M829,202L767,42L695,277Z" fill="#5ba8f0" stroke="#5ba8f0" stroke-width="1.51"/><path d="M1061,78L909,94L1017,275Z" fill="#5d9ddf" stroke="#5d9ddf" stroke-width="1.51"/><path d="M546,417L523,540L685,538Z" fill="#3791ea" stroke="#3791ea" stroke-width="1.51"/><path d="M909,94L767,42L829,202Z" fill="#65abec" stroke="#65abec" stroke-width="1.51"/><path d="M685,629L739,802L824,679Z" fill="#1472d1" stroke="#1472d1" stroke-width="1.51"/><path d="M523,540L615,695L685,629Z" fill="#3385dd" stroke="#3385dd" stroke-width="1.51"/><path d="M824,679L1061,694L1016,467Z" fill="#166cc9" stroke="#166cc9" stroke-width="1.51"/><path d="M855,817L1061,694L824,679Z" fill="#1767c2" stroke="#1767c2" stroke-width="1.51"/><path d="M1061,694L1160,584L1016,467Z" fill="#1668c4" stroke="#1668c4" stroke-width="1.51"/><path d="M1176,189L1017,275L1079,374Z" fill="#4686d4" stroke="#4686d4" stroke-width="1.51"/><path d="M909,94L852,-31L767,42Z" fill="#65a8ec" stroke="#65a8ec" stroke-width="1.51"/><path d="M1286,327L1176,189L1150,417Z" fill="#3e7ccb" stroke="#3e7ccb" stroke-width="1.51"/><path d="M1150,417L1176,189L1079,374Z" fill="#3c7ed0" stroke="#3c7ed0" stroke-width="1.51"/><path d="M589,280L433,332L546,417Z" fill="#59a8f3" stroke="#59a8f3" stroke-width="1.51"/><path d="M546,417L396,494L523,540Z" fill="#499cee" stroke="#499cee" stroke-width="1.51"/><path d="M397,258L433,332L589,280Z" fill="#68b4f6" stroke="#68b4f6" stroke-width="1.51"/><path d="M615,695L739,802L685,629Z" fill="#2278d3" stroke="#2278d3" stroke-width="1.51"/><path d="M1151,778L1137,686L1061,694Z" fill="#195bb4" stroke="#195bb4" stroke-width="1.51"/><path d="M1061,694L1137,686L1160,584Z" fill="#1860ba" stroke="#1860ba" stroke-width="1.51"/><path d="M739,802L855,817L824,679Z" fill="#166ac7" stroke="#166ac7" stroke-width="1.51"/><path d="M767,42L572,72L695,277Z" fill="#68b5f6" stroke="#68b5f6" stroke-width="1.51"/><path d="M1028,-48L852,-31L909,94Z" fill="#619ee6" stroke="#619ee6" stroke-width="1.51"/><path d="M767,42L699,-79L572,72Z" fill="#69b0f7" stroke="#69b0f7" stroke-width="1.51"/><path d="M523,540L430,618L615,695Z" fill="#438ddf" stroke="#438ddf" stroke-width="1.51"/><path d="M433,332L396,494L546,417Z" fill="#55a6f3" stroke="#55a6f3" stroke-width="1.51"/><path d="M1061,78L1028,-48L909,94Z" fill="#649fe1" stroke="#649fe1" stroke-width="1.51"/><path d="M1176,189L1154,77L1061,78Z" fill="#6198d6" stroke="#6198d6" stroke-width="1.51"/><path d="M855,817L1041,807L1061,694Z" fill="#185fb8" stroke="#185fb8" stroke-width="1.51"/><path d="M1283,505L1150,417L1160,584Z" fill="#1768c3" stroke="#1768c3" stroke-width="1.51"/><path d="M1283,505L1286,327L1150,417Z" fill="#246cc7" stroke="#246cc7" stroke-width="1.51"/><path d="M1176,189L1356,128L1154,77Z" fill="#5d90cf" stroke="#5d90cf" stroke-width="1.51"/><path d="M1344,639L1283,505L1160,584Z" fill="#1a5db9" stroke="#1a5db9" stroke-width="1.51"/><path d="M1344,639L1160,584L1137,686Z" fill="#185cb5" stroke="#185cb5" stroke-width="1.51"/><path d="M615,695L576,871L739,802Z" fill="#2b75cc" stroke="#2b75cc" stroke-width="1.51"/><path d="M396,494L430,618L523,540Z" fill="#4f9ae8" stroke="#4f9ae8" stroke-width="1.51"/><path d="M433,332L279,387L396,494Z" fill="#62aff5" stroke="#62aff5" stroke-width="1.51"/><path d="M572,72L397,258L589,280Z" fill="#70bbf7" stroke="#70bbf7" stroke-width="1.51"/><path d="M1154,77L1028,-48L1061,78Z" fill="#6299da" stroke="#6299da" stroke-width="1.51"/><path d="M1041,807L1151,778L1061,694Z" fill="#195ab2" stroke="#195ab2" stroke-width="1.51"/><path d="M614,-218L699,-79L733,-281Z" fill="#4b8df6" stroke="#4b8df6" stroke-width="1.51"/><path d="M852,-31L699,-79L767,42Z" fill="#5fa3f2" stroke="#5fa3f2" stroke-width="1.51"/><path d="M572,72L382,126L397,258Z" fill="#7fc9fa" stroke="#7fc9fa" stroke-width="1.51"/><path d="M1286,327L1328,248L1176,189Z" fill="#4a7eca" stroke="#4a7eca" stroke-width="1.51"/><path d="M1154,77L1172,-90L1028,-48Z" fill="#5b8dd7" stroke="#5b8dd7" stroke-width="1.51"/><path d="M1418,253L1328,248L1286,327Z" fill="#4776c6" stroke="#4776c6" stroke-width="1.51"/><path d="M699,-79L573,-43L572,72Z" fill="#6eb2f8" stroke="#6eb2f8" stroke-width="1.51"/><path d="M427,-65L382,126L572,72Z" fill="#85ccfb" stroke="#85ccfb" stroke-width="1.51"/><path d="M397,258L279,387L433,332Z" fill="#6fbaf7" stroke="#6fbaf7" stroke-width="1.51"/><path d="M855,817L956,922L1041,807Z" fill="#195bb5" stroke="#195bb5" stroke-width="1.51"/><path d="M1041,807L1133,968L1151,778Z" fill="#1952a9" stroke="#1952a9" stroke-width="1.51"/><path d="M884,1012L956,922L855,817Z" fill="#1c58b5" stroke="#1c58b5" stroke-width="1.51"/><path d="M397,835L576,871L615,695Z" fill="#407ecd" stroke="#407ecd" stroke-width="1.51"/><path d="M739,802L746,1003L855,817Z" fill="#1963c0" stroke="#1963c0" stroke-width="1.51"/><path d="M302,167L279,387L397,258Z" fill="#7bc5f9" stroke="#7bc5f9" stroke-width="1.51"/><path d="M396,494L271,509L430,618Z" fill="#5aa3ea" stroke="#5aa3ea" stroke-width="1.51"/><path d="M430,618L397,835L615,695Z" fill="#488ad7" stroke="#488ad7" stroke-width="1.51"/><path d="M1466,386L1418,253L1286,327Z" fill="#3f6dc3" stroke="#3f6dc3" stroke-width="1.51"/><path d="M1306,764L1344,639L1137,686Z" fill="#1a54ad" stroke="#1a54ad" stroke-width="1.51"/><path d="M1306,764L1137,686L1151,778Z" fill="#1955ac" stroke="#1955ac" stroke-width="1.51"/><path d="M279,387L271,509L396,494Z" fill="#62aef3" stroke="#62aef3" stroke-width="1.51"/><path d="M333,79L302,167L382,126Z" fill="#8ed7fc" stroke="#8ed7fc" stroke-width="1.51"/><path d="M382,126L302,167L397,258Z" fill="#84cdfb" stroke="#84cdfb" stroke-width="1.51"/><path d="M1328,248L1356,128L1176,189Z" fill="#5585cb" stroke="#5585cb" stroke-width="1.51"/><path d="M1418,253L1356,128L1328,248Z" fill="#527cc7" stroke="#527cc7" stroke-width="1.51"/><path d="M1133,968L1306,764L1151,778Z" fill="#1a4ea3" stroke="#1a4ea3" stroke-width="1.51"/><path d="M1336,-87L1172,-90L1154,77Z" fill="#5985d0" stroke="#5985d0" stroke-width="1.51"/><path d="M847,-274L699,-79L852,-31Z" fill="#508fef" stroke="#508fef" stroke-width="1.51"/><path d="M427,-65L333,79L382,126Z" fill="#8dd4fd" stroke="#8dd4fd" stroke-width="1.51"/><path d="M1466,386L1286,327L1283,505Z" fill="#2b66c3" stroke="#2b66c3" stroke-width="1.51"/><path d="M576,871L746,1003L739,802Z" fill="#2468c4" stroke="#2468c4" stroke-width="1.51"/><path d="M1344,639L1421,584L1283,505Z" fill="#1d57b5" stroke="#1d57b5" stroke-width="1.51"/><path d="M1509,672L1421,584L1344,639Z" fill="#1d4ead" stroke="#1d4ead" stroke-width="1.51"/><path d="M956,922L1133,968L1041,807Z" fill="#1b51ab" stroke="#1b51ab" stroke-width="1.51"/><path d="M746,1003L884,1012L855,817Z" fill="#1d59b8" stroke="#1d59b8" stroke-width="1.51"/><path d="M576,871L595,1086L746,1003Z" fill="#3063c0" stroke="#3063c0" stroke-width="1.51"/><path d="M232,793L397,835L430,618Z" fill="#5993d6" stroke="#5993d6" stroke-width="1.51"/><path d="M573,-43L427,-65L572,72Z" fill="#78bbfa" stroke="#78bbfa" stroke-width="1.51"/><path d="M614,-218L427,-65L573,-43Z" fill="#6caaf9" stroke="#6caaf9" stroke-width="1.51"/><path d="M397,835L516,942L576,871Z" fill="#467ac9" stroke="#467ac9" stroke-width="1.51"/><path d="M1421,584L1466,386L1283,505Z" fill="#1d5abc" stroke="#1d5abc" stroke-width="1.51"/><path d="M1117,1058L1133,968L956,922Z" fill="#1d48a5" stroke="#1d48a5" stroke-width="1.51"/><path d="M1569,87L1427,118L1624,174Z" fill="#607ac2" stroke="#607ac2" stroke-width="1.51"/><path d="M1418,253L1427,118L1356,128Z" fill="#597fc7" stroke="#597fc7" stroke-width="1.51"/><path d="M1356,128L1336,-87L1154,77Z" fill="#618cce" stroke="#618cce" stroke-width="1.51"/><path d="M699,-79L614,-218L573,-43Z" fill="#60a0f7" stroke="#60a0f7" stroke-width="1.51"/><path d="M847,-274L852,-31L1028,-48Z" fill="#508ae7" stroke="#508ae7" stroke-width="1.51"/><path d="M884,1012L920,1065L956,922Z" fill="#1e4faf" stroke="#1e4faf" stroke-width="1.51"/><path d="M743,1078L920,1065L884,1012Z" fill="#1f4eb1" stroke="#1f4eb1" stroke-width="1.51"/><path d="M743,1078L884,1012L746,1003Z" fill="#1f54b7" stroke="#1f54b7" stroke-width="1.51"/><path d="M1039,-256L847,-274L1028,-48Z" fill="#437ae2" stroke="#437ae2" stroke-width="1.51"/><path d="M271,509L212,673L430,618Z" fill="#61a4e6" stroke="#61a4e6" stroke-width="1.51"/><path d="M397,835L439,956L516,942Z" fill="#4d7cc8" stroke="#4d7cc8" stroke-width="1.51"/><path d="M169,655L212,673L271,509Z" fill="#67a7e6" stroke="#67a7e6" stroke-width="1.51"/><path d="M169,655L271,509L125,543Z" fill="#65a7ea" stroke="#65a7ea" stroke-width="1.51"/><path d="M595,1086L743,1078L746,1003Z" fill="#2658bb" stroke="#2658bb" stroke-width="1.51"/><path d="M285,1024L439,956L397,835Z" fill="#5680c8" stroke="#5680c8" stroke-width="1.51"/><path d="M595,1086L576,871L516,942Z" fill="#3e6cc3" stroke="#3e6cc3" stroke-width="1.51"/><path d="M1143,-259L1039,-256L1172,-90Z" fill="#4070d7" stroke="#4070d7" stroke-width="1.51"/><path d="M1172,-90L1039,-256L1028,-48Z" fill="#4c7eda" stroke="#4c7eda" stroke-width="1.51"/><path d="M847,-274L733,-281L699,-79Z" fill="#4184f2" stroke="#4184f2" stroke-width="1.51"/><path d="M1427,118L1336,-87L1356,128Z" fill="#6388ca" stroke="#6388ca" stroke-width="1.51"/><path d="M212,673L232,793L430,618Z" fill="#619ddd" stroke="#619ddd" stroke-width="1.51"/><path d="M125,543L271,509L279,387Z" fill="#6ab3f3" stroke="#6ab3f3" stroke-width="1.51"/><path d="M920,1065L1117,1058L956,922Z" fill="#1e49a9" stroke="#1e49a9" stroke-width="1.51"/><path d="M1342,1028L1456,868L1306,764Z" fill="#1d3e9a" stroke="#1d3e9a" stroke-width="1.51"/><path d="M957,1126L1117,1058L920,1065Z" fill="#1f43a5" stroke="#1f43a5" stroke-width="1.51"/><path d="M166,767L232,793L212,673Z" fill="#639bd9" stroke="#639bd9" stroke-width="1.51"/><path d="M1652,564L1654,416L1466,386Z" fill="#214fb7" stroke="#214fb7" stroke-width="1.51"/><path d="M1569,87L1462,-63L1427,118Z" fill="#637fc5" stroke="#637fc5" stroke-width="1.51"/><path d="M1306,764L1509,672L1344,639Z" fill="#1d4ca9" stroke="#1d4ca9" stroke-width="1.51"/><path d="M1456,868L1509,672L1306,764Z" fill="#1d44a0" stroke="#1d44a0" stroke-width="1.51"/><path d="M68,396L279,387L69,167Z" fill="#77bbf9" stroke="#77bbf9" stroke-width="1.51"/><path d="M68,396L125,543L279,387Z" fill="#66aef6" stroke="#66aef6" stroke-width="1.51"/><path d="M743,1078L957,1126L920,1065Z" fill="#204aae" stroke="#204aae" stroke-width="1.51"/><path d="M466,1132L595,1086L516,942Z" fill="#4468bf" stroke="#4468bf" stroke-width="1.51"/><path d="M466,1132L516,942L439,956Z" fill="#4b70c2" stroke="#4b70c2" stroke-width="1.51"/><path d="M847,-274L1514,-269L733,-281Z" fill="#306ade" stroke="#306ade" stroke-width="1.51"/><path d="M1039,-256L1143,-259L847,-274Z" fill="#336ddf" stroke="#336ddf" stroke-width="1.51"/><path d="M1273,-243L1143,-259L1172,-90Z" fill="#406cd1" stroke="#406cd1" stroke-width="1.51"/><path d="M466,1132L957,1126L743,1078Z" fill="#2151b8" stroke="#2151b8" stroke-width="1.51"/><path d="M333,79L163,81L302,167Z" fill="#96e1fe" stroke="#96e1fe" stroke-width="1.51"/><path d="M270,-99L163,81L333,79Z" fill="#97ddff" stroke="#97ddff" stroke-width="1.51"/><path d="M270,-99L333,79L427,-65Z" fill="#8acbfd" stroke="#8acbfd" stroke-width="1.51"/><path d="M392,-236L270,-99L427,-65Z" fill="#7eb6fd" stroke="#7eb6fd" stroke-width="1.51"/><path d="M392,-236L427,-65L614,-218Z" fill="#6ca5fb" stroke="#6ca5fb" stroke-width="1.51"/><path d="M285,1024L466,1132L439,956Z" fill="#5475c2" stroke="#5475c2" stroke-width="1.51"/><path d="M169,655L166,767L212,673Z" fill="#639bdd" stroke="#639bdd" stroke-width="1.51"/><path d="M24,855L166,767L-72,659Z" fill="#5484d7" stroke="#5484d7" stroke-width="1.51"/><path d="M69,167L279,387L302,167Z" fill="#88d0fb" stroke="#88d0fb" stroke-width="1.51"/><path d="M125,543L-72,659L169,655Z" fill="#5a94e5" stroke="#5a94e5" stroke-width="1.51"/><path d="M1342,1028L1306,764L1133,968Z" fill="#1c439c" stroke="#1c439c" stroke-width="1.51"/><path d="M733,-281L392,-236L614,-218Z" fill="#538ff9" stroke="#538ff9" stroke-width="1.51"/><path d="M1336,-87L1273,-243L1172,-90Z" fill="#4a71ce" stroke="#4a71ce" stroke-width="1.51"/><path d="M1514,-269L1273,-243L1336,-87Z" fill="#405fc9" stroke="#405fc9" stroke-width="1.51"/><path d="M1427,118L1418,253L1624,174Z" fill="#5777c3" stroke="#5777c3" stroke-width="1.51"/><path d="M1427,118L1462,-63L1336,-87Z" fill="#5c7bc8" stroke="#5c7bc8" stroke-width="1.51"/><path d="M1624,174L1418,253L1466,386Z" fill="#496bc0" stroke="#496bc0" stroke-width="1.51"/><path d="M163,81L69,167L302,167Z" fill="#92d9fd" stroke="#92d9fd" stroke-width="1.51"/><path d="M-22,131L69,167L163,81Z" fill="#8cccfe" stroke="#8cccfe" stroke-width="1.51"/><path d="M1293,1175L1342,1028L1117,1058Z" fill="#1d3494" stroke="#1d3494" stroke-width="1.51"/><path d="M1117,1058L1342,1028L1133,968Z" fill="#1c3e9a" stroke="#1c3e9a" stroke-width="1.51"/><path d="M1652,564L1466,386L1421,584Z" fill="#1f51b5" stroke="#1f51b5" stroke-width="1.51"/><path d="M1652,564L1421,584L1509,672Z" fill="#1f48ab" stroke="#1f48ab" stroke-width="1.51"/><path d="M285,1024L397,835L232,793Z" fill="#5e8ccd" stroke="#5e8ccd" stroke-width="1.51"/><path d="M595,1086L466,1132L743,1078Z" fill="#385dbb" stroke="#385dbb" stroke-width="1.51"/><path d="M31,215L17,382L68,396Z" fill="#6dadf9" stroke="#6dadf9" stroke-width="1.51"/><path d="M68,396L21,515L125,543Z" fill="#5c9ff2" stroke="#5c9ff2" stroke-width="1.51"/><path d="M1654,416L1624,174L1466,386Z" fill="#405fbb" stroke="#405fbb" stroke-width="1.51"/><path d="M1572,797L1509,672L1456,868Z" fill="#1d3d9b" stroke="#1d3d9b" stroke-width="1.51"/><path d="M1572,797L1618,655L1509,672Z" fill="#1e3ea0" stroke="#1e3ea0" stroke-width="1.51"/><path d="M17,382L21,515L68,396Z" fill="#5ca0f6" stroke="#5ca0f6" stroke-width="1.51"/><path d="M-22,131L31,215L69,167Z" fill="#84c0fd" stroke="#84c0fd" stroke-width="1.51"/><path d="M69,167L31,215L68,396Z" fill="#79b8fa" stroke="#79b8fa" stroke-width="1.51"/><path d="M1618,655L1652,564L1509,672Z" fill="#1f42a7" stroke="#1f42a7" stroke-width="1.51"/><path d="M63,1002L285,1024L232,793Z" fill="#6388cb" stroke="#6388cb" stroke-width="1.51"/><path d="M269,1087L285,1024L63,1002Z" fill="#6380c5" stroke="#6380c5" stroke-width="1.51"/><path d="M-81,-15L-22,131L163,81Z" fill="#8ecaff" stroke="#8ecaff" stroke-width="1.51"/><path d="M392,-236L332,-260L270,-99Z" fill="#7aaffe" stroke="#7aaffe" stroke-width="1.51"/><path d="M733,-281L332,-260L392,-236Z" fill="#5f96fb" stroke="#5f96fb" stroke-width="1.51"/><path d="M1617,950L1572,797L1456,868Z" fill="#1c3393" stroke="#1c3393" stroke-width="1.51"/><path d="M1618,655L1617,950L1652,564Z" fill="#1e399c" stroke="#1e399c" stroke-width="1.51"/><path d="M1342,1028L1460,967L1456,868Z" fill="#1d3494" stroke="#1d3494" stroke-width="1.51"/><path d="M285,1024L269,1087L466,1132Z" fill="#5b76c1" stroke="#5b76c1" stroke-width="1.51"/><path d="M25,934L232,793L166,767Z" fill="#5d8bd0" stroke="#5d8bd0" stroke-width="1.51"/><path d="M1342,1028L1482,1068L1460,967Z" fill="#1c2e90" stroke="#1c2e90" stroke-width="1.51"/><path d="M957,1126L1293,1175L1117,1058Z" fill="#1e399a" stroke="#1e399a" stroke-width="1.51"/><path d="M466,1132L1293,1175L957,1126Z" fill="#2043a8" stroke="#2043a8" stroke-width="1.51"/><path d="M-171,225L-166,373L17,382Z" fill="#5f9af9" stroke="#5f9af9" stroke-width="1.51"/><path d="M-142,562L-72,659L21,515Z" fill="#4b86e9" stroke="#4b86e9" stroke-width="1.51"/><path d="M92,-115L163,81L270,-99Z" fill="#8fcbff" stroke="#8fcbff" stroke-width="1.51"/><path d="M68,-208L92,-115L270,-99Z" fill="#83b6ff" stroke="#83b6ff" stroke-width="1.51"/><path d="M1462,-63L1514,-269L1336,-87Z" fill="#4a64c7" stroke="#4a64c7" stroke-width="1.51"/><path d="M1569,87L1637,-25L1462,-63Z" fill="#5d72c3" stroke="#5d72c3" stroke-width="1.51"/><path d="M1624,174L1637,-25L1569,87Z" fill="#667ac0" stroke="#667ac0" stroke-width="1.51"/><path d="M1654,416L1637,-25L1624,174Z" fill="#576bbd" stroke="#576bbd" stroke-width="1.51"/><path d="M1293,1175L1482,1068L1342,1028Z" fill="#1c2b8f" stroke="#1c2b8f" stroke-width="1.51"/><path d="M1460,967L1617,950L1456,868Z" fill="#1c3092" stroke="#1c3092" stroke-width="1.51"/><path d="M1572,797L1617,950L1618,655Z" fill="#1d3596" stroke="#1d3596" stroke-width="1.51"/><path d="M-72,659L125,543L21,515Z" fill="#5592e9" stroke="#5592e9" stroke-width="1.51"/><path d="M-72,659L166,767L169,655Z" fill="#5b90dd" stroke="#5b90dd" stroke-width="1.51"/><path d="M-142,562L21,515L-166,373Z" fill="#488af2" stroke="#488af2" stroke-width="1.51"/><path d="M1664,-209L1514,-269L1462,-63Z" fill="#4455c2" stroke="#4455c2" stroke-width="1.51"/><path d="M1273,-243L1514,-269L1143,-259Z" fill="#335bcc" stroke="#335bcc" stroke-width="1.51"/><path d="M1143,-259L1514,-269L847,-274Z" fill="#3162d3" stroke="#3162d3" stroke-width="1.51"/><path d="M1482,1068L1617,950L1460,967Z" fill="#1c2a8e" stroke="#1c2a8e" stroke-width="1.51"/><path d="M24,855L25,934L166,767Z" fill="#5781cf" stroke="#5781cf" stroke-width="1.51"/><path d="M-168,793L25,934L24,855Z" fill="#4b72cf" stroke="#4b72cf" stroke-width="1.51"/><path d="M25,934L63,1002L232,793Z" fill="#5a80cc" stroke="#5a80cc" stroke-width="1.51"/><path d="M332,-260L68,-208L270,-99Z" fill="#85b8ff" stroke="#85b8ff" stroke-width="1.51"/><path d="M92,-115L-81,-15L163,81Z" fill="#89c0ff" stroke="#89c0ff" stroke-width="1.51"/><path d="M-72,659L-168,793L24,855Z" fill="#4776d6" stroke="#4776d6" stroke-width="1.51"/><path d="M-166,373L21,515L17,382Z" fill="#5497f6" stroke="#5497f6" stroke-width="1.51"/><path d="M17,382L31,215L-171,225Z" fill="#6eaafb" stroke="#6eaafb" stroke-width="1.51"/><path d="M-171,225L31,215L-22,131Z" fill="#7ab2fd" stroke="#7ab2fd" stroke-width="1.51"/><path d="M-56,-224L-81,-15L92,-115Z" fill="#78a5ff" stroke="#78a5ff" stroke-width="1.51"/><path d="M-188,87L-171,225L-22,131Z" fill="#7aaffe" stroke="#7aaffe" stroke-width="1.51"/><path d="M1637,-25L1664,-209L1462,-63Z" fill="#5060c1" stroke="#5060c1" stroke-width="1.51"/><path d="M1654,416L1664,-209L1637,-25Z" fill="#6475bf" stroke="#6475bf" stroke-width="1.51"/><path d="M1666,1126L1664,-209L1654,416Z" fill="#234bb4" stroke="#234bb4" stroke-width="1.51"/><path d="M-45,1163L89,1146L63,1002Z" fill="#5465c1" stroke="#5465c1" stroke-width="1.51"/><path d="M63,1002L89,1146L269,1087Z" fill="#5e74c3" stroke="#5e74c3" stroke-width="1.51"/><path d="M269,1087L89,1146L466,1132Z" fill="#6278c1" stroke="#6278c1" stroke-width="1.51"/><path d="M466,1132L-45,1163L1293,1175Z" fill="#3e5ab8" stroke="#3e5ab8" stroke-width="1.51"/><path d="M-45,1163L63,1002L-196,1023Z" fill="#495dc4" stroke="#495dc4" stroke-width="1.51"/><path d="M-81,-15L-188,87L-22,131Z" fill="#85baff" stroke="#85baff" stroke-width="1.51"/><path d="M-171,225L-211,670L-166,373Z" fill="#4185f7" stroke="#4185f7" stroke-width="1.51"/><path d="M-231,-100L-188,87L-81,-15Z" fill="#77a4ff" stroke="#77a4ff" stroke-width="1.51"/><path d="M-211,670L-168,793L-72,659Z" fill="#3d71dc" stroke="#3d71dc" stroke-width="1.51"/><path d="M-211,670L-72,659L-142,562Z" fill="#3f78e4" stroke="#3f78e4" stroke-width="1.51"/><path d="M-211,670L-142,562L-166,373Z" fill="#3b7ced" stroke="#3b7ced" stroke-width="1.51"/><path d="M-188,87L-211,670L-171,225Z" fill="#5590f9" stroke="#5590f9" stroke-width="1.51"/><path d="M68,-208L-56,-224L92,-115Z" fill="#75a1ff" stroke="#75a1ff" stroke-width="1.51"/><path d="M-136,-269L-56,-224L68,-208Z" fill="#658dff" stroke="#658dff" stroke-width="1.51"/><path d="M1482,1068L1666,1126L1617,950Z" fill="#1a1f88" stroke="#1a1f88" stroke-width="1.51"/><path d="M1617,950L1666,1126L1652,564Z" fill="#1c2b8f" stroke="#1c2b8f" stroke-width="1.51"/><path d="M1652,564L1666,1126L1654,416Z" fill="#1e389d" stroke="#1e389d" stroke-width="1.51"/><path d="M1293,1175L1666,1126L1482,1068Z" fill="#1a1f89" stroke="#1a1f89" stroke-width="1.51"/><path d="M89,1146L-45,1163L466,1132Z" fill="#6171c0" stroke="#6171c0" stroke-width="1.51"/><path d="M-196,1023L63,1002L25,934Z" fill="#4b67c8" stroke="#4b67c8" stroke-width="1.51"/><path d="M-196,1023L25,934L-168,793Z" fill="#4264cb" stroke="#4264cb" stroke-width="1.51"/><path d="M-188,87L-231,-100L-211,670Z" fill="#679bfc" stroke="#679bfc" stroke-width="1.51"/><path d="M-56,-224L-231,-100L-81,-15Z" fill="#6e97ff" stroke="#6e97ff" stroke-width="1.51"/><path d="M-56,-224L-136,-269L-231,-100Z" fill="#6086ff" stroke="#6086ff" stroke-width="1.51"/><path d="M332,-260L-136,-269L68,-208Z" fill="#729dff" stroke="#729dff" stroke-width="1.51"/><path d="M733,-281L-136,-269L332,-260Z" fill="#74a5fe" stroke="#74a5fe" stroke-width="1.51"/><path d="M-211,670L-196,1023L-168,793Z" fill="#3462d0" stroke="#3462d0" stroke-width="1.51"/><path d="M-196,1023L-201,1160L-45,1163Z" fill="#3c4dc0" stroke="#3c4dc0" stroke-width="1.51"/><path d="M-211,670L-201,1160L-196,1023Z" fill="#3356c9" stroke="#3356c9" stroke-width="1.51"/><path d="M-231,-100L-201,1160L-211,670Z" fill="#3273e9" stroke="#3273e9" stroke-width="1.51"/></svg>