<svg xmlns="http://www.w3.org/2000/svg" width="1440" height="900">
    <path d="M802,409L751,409L848,525Z" fill="#3f648e" stroke="#3f648e" stroke-width="1.51"/>
    <path d="M751,409L718,552L848,525Z" fill="#3f668f" stroke="#3f668f" stroke-width="1.51"/>
    <path d="M718,552L839,668L848,525Z" fill="#426e95" stroke="#426e95" stroke-width="1.51"/>
    <path d="M756,674L839,668L718,552Z" fill="#437096" stroke="#437096" stroke-width="1.51"/>
    <path d="M751,409L581,521L718,552Z" fill="#3d628c" stroke="#3d628c" stroke-width="1.51"/>
    <path d="M718,552L594,620L756,674Z" fill="#416b92" stroke="#416b92" stroke-width="1.51"/>
    <path d="M848,525L967,360L802,409Z" fill="#3f668f" stroke="#3f668f" stroke-width="1.51"/>
    <path d="M986,619L994,542L848,525Z" fill="#447398" stroke="#447398" stroke-width="1.51"/>
    <path d="M581,521L594,620L718,552Z" fill="#3e648e" stroke="#3e648e" stroke-width="1.51"/>
    <path d="M751,409L574,382L581,521Z" fill="#3b5b88" stroke="#3b5b88" stroke-width="1.51"/>
    <path d="M682,277L574,382L751,409Z" fill="#395785" stroke="#395785" stroke-width="1.51"/>
    <path d="M994,542L967,360L848,525Z" fill="#426d94" stroke="#426d94" stroke-width="1.51"/>
    <path d="M821,244L682,277L751,409Z" fill="#395785" stroke="#395785" stroke-width="1.51"/>
    <path d="M821,244L751,409L802,409Z" fill="#3b5c89" stroke="#3b5c89" stroke-width="1.51"/>
    <path d="M940,262L821,244L802,409Z" fill="#3b5c88" stroke="#3b5c88" stroke-width="1.51"/>
    <path d="M839,668L986,619L848,525Z" fill="#447499" stroke="#447499" stroke-width="1.51"/>
    <path d="M967,360L940,262L802,409Z" fill="#3d618c" stroke="#3d618c" stroke-width="1.51"/>
    <path d="M839,668L896,749L986,619Z" fill="#477b9d" stroke="#477b9d" stroke-width="1.51"/>
    <path d="M756,674L896,749L839,668Z" fill="#46789b" stroke="#46789b" stroke-width="1.51"/>
    <path d="M845,863L896,749L756,674Z" fill="#477d9f" stroke="#477d9f" stroke-width="1.51"/>
    <path d="M581,521L482,513L594,620Z" fill="#3c5f8a" stroke="#3c5f8a" stroke-width="1.51"/>
    <path d="M574,382L482,513L581,521Z" fill="#3a5a86" stroke="#3a5a86" stroke-width="1.51"/>
    <path d="M574,382L436,400L482,513Z" fill="#385482" stroke="#385482" stroke-width="1.51"/>
    <path d="M682,277L605,239L574,382Z" fill="#365180" stroke="#365180" stroke-width="1.51"/>
    <path d="M640,176L605,239L682,277Z" fill="#354d7d" stroke="#354d7d" stroke-width="1.51"/>
    <path d="M967,360L1062,350L940,262Z" fill="#3e648e" stroke="#3e648e" stroke-width="1.51"/>
    <path d="M994,542L1062,350L967,360Z" fill="#416c93" stroke="#416c93" stroke-width="1.51"/>
    <path d="M1095,526L1062,350L994,542Z" fill="#447298" stroke="#447298" stroke-width="1.51"/>
    <path d="M594,620L686,791L756,674Z" fill="#437096" stroke="#437096" stroke-width="1.51"/>
    <path d="M581,768L686,791L594,620Z" fill="#437096" stroke="#437096" stroke-width="1.51"/>
    <path d="M986,619L1095,526L994,542Z" fill="#46789b" stroke="#46789b" stroke-width="1.51"/>
    <path d="M1080,657L1095,526L986,619Z" fill="#477c9e" stroke="#477c9e" stroke-width="1.51"/>
    <path d="M740,98L640,176L682,277Z" fill="#344c7d" stroke="#344c7d" stroke-width="1.51"/>
    <path d="M740,98L682,277L821,244Z" fill="#365080" stroke="#365080" stroke-width="1.51"/>
    <path d="M440,622L581,768L594,620Z" fill="#3f6890" stroke="#3f6890" stroke-width="1.51"/>
    <path d="M1023,758L1080,657L986,619Z" fill="#4980a1" stroke="#4980a1" stroke-width="1.51"/>
    <path d="M464,230L436,400L574,382Z" fill="#354d7e" stroke="#354d7e" stroke-width="1.51"/>
    <path d="M482,513L440,622L594,620Z" fill="#3c608b" stroke="#3c608b" stroke-width="1.51"/>
    <path d="M464,230L574,382L605,239Z" fill="#344c7d" stroke="#344c7d" stroke-width="1.51"/>
    <path d="M940,262L899,152L821,244Z" fill="#395885" stroke="#395885" stroke-width="1.51"/>
    <path d="M950,167L899,152L940,262Z" fill="#395885" stroke="#395885" stroke-width="1.51"/>
    <path d="M377,438L440,622L482,513Z" fill="#395885" stroke="#395885" stroke-width="1.51"/>
    <path d="M1145,261L950,167L940,262Z" fill="#3c5e8a" stroke="#3c5e8a" stroke-width="1.51"/>
    <path d="M896,749L1023,758L986,619Z" fill="#4980a0" stroke="#4980a0" stroke-width="1.51"/>
    <path d="M974,917L1023,758L896,749Z" fill="#4b88a6" stroke="#4b88a6" stroke-width="1.51"/>
    <path d="M686,791L845,863L756,674Z" fill="#467b9d" stroke="#467b9d" stroke-width="1.51"/>
    <path d="M669,918L845,863L686,791Z" fill="#487fa0" stroke="#487fa0" stroke-width="1.51"/>
    <path d="M771,0L740,98L869,-5Z" fill="#314679" stroke="#314679" stroke-width="1.51"/>
    <path d="M899,152L740,98L821,244Z" fill="#365180" stroke="#365180" stroke-width="1.51"/>
    <path d="M436,400L377,438L482,513Z" fill="#375281" stroke="#375281" stroke-width="1.51"/>
    <path d="M343,284L377,438L436,400Z" fill="#344b7c" stroke="#344b7c" stroke-width="1.51"/>
    <path d="M640,176L464,230L605,239Z" fill="#33487a" stroke="#33487a" stroke-width="1.51"/>
    <path d="M441,73L464,230L640,176Z" fill="#2f4276" stroke="#2f4276" stroke-width="1.51"/>
    <path d="M1095,526L1194,476L1062,350Z" fill="#447498" stroke="#447498" stroke-width="1.51"/>
    <path d="M1062,350L1145,261L940,262Z" fill="#3f658e" stroke="#3f658e" stroke-width="1.51"/>
    <path d="M1275,627L1194,476L1095,526Z" fill="#487ea0" stroke="#487ea0" stroke-width="1.51"/>
    <path d="M1275,627L1095,526L1080,657Z" fill="#4981a1" stroke="#4981a1" stroke-width="1.51"/>
    <path d="M440,622L428,774L581,768Z" fill="#406991" stroke="#406991" stroke-width="1.51"/>
    <path d="M302,469L383,648L440,622Z" fill="#3a5a86" stroke="#3a5a86" stroke-width="1.51"/>
    <path d="M1194,476L1145,261L1062,350Z" fill="#426f94" stroke="#426f94" stroke-width="1.51"/>
    <path d="M1023,758L1077,814L1080,657Z" fill="#4b87a5" stroke="#4b87a5" stroke-width="1.51"/>
    <path d="M974,917L1077,814L1023,758Z" fill="#4d8ca9" stroke="#4d8ca9" stroke-width="1.51"/>
    <path d="M568,892L669,918L686,791Z" fill="#477c9e" stroke="#477c9e" stroke-width="1.51"/>
    <path d="M845,863L974,917L896,749Z" fill="#4b87a5" stroke="#4b87a5" stroke-width="1.51"/>
    <path d="M568,892L686,791L581,768Z" fill="#45769a" stroke="#45769a" stroke-width="1.51"/>
    <path d="M383,648L428,774L440,622Z" fill="#3d628d" stroke="#3d628d" stroke-width="1.51"/>
    <path d="M428,774L568,892L581,768Z" fill="#437297" stroke="#437297" stroke-width="1.51"/>
    <path d="M926,995L974,917L845,863Z" fill="#4d8eaa" stroke="#4d8eaa" stroke-width="1.51"/>
    <path d="M377,438L302,469L440,622Z" fill="#375482" stroke="#375482" stroke-width="1.51"/>
    <path d="M383,648L345,781L428,774Z" fill="#3f658e" stroke="#3f658e" stroke-width="1.51"/>
    <path d="M343,284L302,469L377,438Z" fill="#344a7c" stroke="#344a7c" stroke-width="1.51"/>
    <path d="M464,230L343,284L436,400Z" fill="#32477a" stroke="#32477a" stroke-width="1.51"/>
    <path d="M283,105L343,284L464,230Z" fill="#2e3e73" stroke="#2e3e73" stroke-width="1.51"/>
    <path d="M869,-5L740,98L899,152Z" fill="#344c7d" stroke="#344c7d" stroke-width="1.51"/>
    <path d="M540,-7L441,73L640,176Z" fill="#2d3d73" stroke="#2d3d73" stroke-width="1.51"/>
    <path d="M869,-5L899,152L950,167Z" fill="#365180" stroke="#365180" stroke-width="1.51"/>
    <path d="M1145,261L1083,95L950,167Z" fill="#3b5d89" stroke="#3b5d89" stroke-width="1.51"/>
    <path d="M964,-48L869,-5L950,167Z" fill="#344d7e" stroke="#344d7e" stroke-width="1.51"/>
    <path d="M1145,261L1219,103L1083,95Z" fill="#3c5f8b" stroke="#3c5f8b" stroke-width="1.51"/>
    <path d="M1194,476L1254,290L1145,261Z" fill="#437096" stroke="#437096" stroke-width="1.51"/>
    <path d="M974,917L1064,916L1077,814Z" fill="#4e91ac" stroke="#4e91ac" stroke-width="1.51"/>
    <path d="M1243,819L1275,627L1080,657Z" fill="#4c8ba8" stroke="#4c8ba8" stroke-width="1.51"/>
    <path d="M1194,476L1285,346L1254,290Z" fill="#447499" stroke="#447499" stroke-width="1.51"/>
    <path d="M1243,819L1080,657L1077,814Z" fill="#4d8da9" stroke="#4d8da9" stroke-width="1.51"/>
    <path d="M428,774L412,886L568,892Z" fill="#437197" stroke="#437197" stroke-width="1.51"/>
    <path d="M171,722L345,781L383,648Z" fill="#3c5f8a" stroke="#3c5f8a" stroke-width="1.51"/>
    <path d="M1340,401L1285,346L1194,476Z" fill="#46789c" stroke="#46789c" stroke-width="1.51"/>
    <path d="M739,1021L926,995L845,863Z" fill="#4c8da9" stroke="#4c8da9" stroke-width="1.51"/>
    <path d="M974,917L926,995L1064,916Z" fill="#4f93ad" stroke="#4f93ad" stroke-width="1.51"/>
    <path d="M739,1021L845,863L669,918Z" fill="#4a86a5" stroke="#4a86a5" stroke-width="1.51"/>
    <path d="M540,-7L640,176L740,98Z" fill="#304377" stroke="#304377" stroke-width="1.51"/>
    <path d="M627,1083L669,918L568,892Z" fill="#4982a2" stroke="#4982a2" stroke-width="1.51"/>
    <path d="M627,1083L739,1021L669,918Z" fill="#4b88a6" stroke="#4b88a6" stroke-width="1.51"/>
    <path d="M345,781L412,886L428,774Z" fill="#416b93" stroke="#416b93" stroke-width="1.51"/>
    <path d="M771,0L540,-7L740,98Z" fill="#2f4175" stroke="#2f4175" stroke-width="1.51"/>
    <path d="M740,-115L540,-7L771,0Z" fill="#2c3c72" stroke="#2c3c72" stroke-width="1.51"/>
    <path d="M1275,627L1329,541L1194,476Z" fill="#4983a2" stroke="#4983a2" stroke-width="1.51"/>
    <path d="M1083,95L964,-48L950,167Z" fill="#375282" stroke="#375282" stroke-width="1.51"/>
    <path d="M869,-5L740,-115L771,0Z" fill="#2f4175" stroke="#2f4175" stroke-width="1.51"/>
    <path d="M1121,-18L964,-48L1083,95Z" fill="#365181" stroke="#365181" stroke-width="1.51"/>
    <path d="M1329,541L1340,401L1194,476Z" fill="#487fa0" stroke="#487fa0" stroke-width="1.51"/>
    <path d="M1285,346L1339,250L1254,290Z" fill="#437197" stroke="#437197" stroke-width="1.51"/>
    <path d="M1275,627L1413,655L1329,541Z" fill="#4c8ba8" stroke="#4c8ba8" stroke-width="1.51"/>
    <path d="M1064,916L1243,819L1077,814Z" fill="#4e93ad" stroke="#4e93ad" stroke-width="1.51"/>
    <path d="M1272,871L1243,819L1064,916Z" fill="#5098b0" stroke="#5098b0" stroke-width="1.51"/>
    <path d="M302,469L189,622L383,648Z" fill="#385583" stroke="#385583" stroke-width="1.51"/>
    <path d="M194,338L196,482L302,469Z" fill="#32477a" stroke="#32477a" stroke-width="1.51"/>
    <path d="M194,338L302,469L343,284Z" fill="#314578" stroke="#314578" stroke-width="1.51"/>
    <path d="M1346,154L1219,103L1254,290Z" fill="#406891" stroke="#406891" stroke-width="1.51"/>
    <path d="M1254,290L1219,103L1145,261Z" fill="#3f6790" stroke="#3f6790" stroke-width="1.51"/>
    <path d="M345,781L360,911L412,886Z" fill="#426d94" stroke="#426d94" stroke-width="1.51"/>
    <path d="M407,1030L627,1083L568,892Z" fill="#4880a1" stroke="#4880a1" stroke-width="1.51"/>
    <path d="M247,940L360,911L345,781Z" fill="#416c94" stroke="#416c94" stroke-width="1.51"/>
    <path d="M196,174L218,274L343,284Z" fill="#2c3b71" stroke="#2c3b71" stroke-width="1.51"/>
    <path d="M218,274L194,338L343,284Z" fill="#2e3f74" stroke="#2e3f74" stroke-width="1.51"/>
    <path d="M897,-138L740,-115L869,-5Z" fill="#2e4075" stroke="#2e4075" stroke-width="1.51"/>
    <path d="M171,722L189,622L105,614Z" fill="#375483" stroke="#375483" stroke-width="1.51"/>
    <path d="M196,482L189,622L302,469Z" fill="#354e7f" stroke="#354e7f" stroke-width="1.51"/>
    <path d="M926,995L1159,1001L1064,916Z" fill="#5098b1" stroke="#5098b1" stroke-width="1.51"/>
    <path d="M739,1021L887,1085L926,995Z" fill="#4e93ad" stroke="#4e93ad" stroke-width="1.51"/>
    <path d="M627,1083L887,1085L739,1021Z" fill="#4e90ab" stroke="#4e90ab" stroke-width="1.51"/>
    <path d="M1340,401L1339,250L1285,346Z" fill="#457599" stroke="#457599" stroke-width="1.51"/>
    <path d="M964,-48L897,-138L869,-5Z" fill="#314578" stroke="#314578" stroke-width="1.51"/>
    <path d="M1224,34L1121,-18L1083,95Z" fill="#395784" stroke="#395784" stroke-width="1.51"/>
    <path d="M1224,34L1083,95L1219,103Z" fill="#3b5b88" stroke="#3b5b88" stroke-width="1.51"/>
    <path d="M407,1030L568,892L412,886Z" fill="#45789b" stroke="#45789b" stroke-width="1.51"/>
    <path d="M441,73L283,105L464,230Z" fill="#2c3b71" stroke="#2c3b71" stroke-width="1.51"/>
    <path d="M540,-7L413,-16L441,73Z" fill="#29366d" stroke="#29366d" stroke-width="1.51"/>
    <path d="M425,-88L413,-16L540,-7Z" fill="#27316a" stroke="#27316a" stroke-width="1.51"/>
    <path d="M308,-11L283,105L441,73Z" fill="#28336b" stroke="#28336b" stroke-width="1.51"/>
    <path d="M1243,819L1359,784L1275,627Z" fill="#4f93ad" stroke="#4f93ad" stroke-width="1.51"/>
    <path d="M1159,1001L1272,871L1064,916Z" fill="#519bb2" stroke="#519bb2" stroke-width="1.51"/>
    <path d="M740,-115L565,-112L540,-7Z" fill="#29366d" stroke="#29366d" stroke-width="1.51"/>
    <path d="M740,-115L952,-181L565,-112Z" fill="#2b396f" stroke="#2b396f" stroke-width="1.51"/>
    <path d="M952,-181L897,-138L964,-48Z" fill="#2f4276" stroke="#2f4276" stroke-width="1.51"/>
    <path d="M1121,-18L1118,-109L964,-48Z" fill="#344d7d" stroke="#344d7d" stroke-width="1.51"/>
    <path d="M1329,26L1224,34L1219,103Z" fill="#3c5e89" stroke="#3c5e89" stroke-width="1.51"/>
    <path d="M887,1085L1159,1001L926,995Z" fill="#5199b2" stroke="#5199b2" stroke-width="1.51"/>
    <path d="M189,622L171,722L383,648Z" fill="#395986" stroke="#395986" stroke-width="1.51"/>
    <path d="M105,614L189,622L196,482Z" fill="#354f7f" stroke="#354f7f" stroke-width="1.51"/>
    <path d="M1272,871L1359,784L1243,819Z" fill="#5199b1" stroke="#5199b1" stroke-width="1.51"/>
    <path d="M1329,541L1454,463L1340,401Z" fill="#4982a2" stroke="#4982a2" stroke-width="1.51"/>
    <path d="M1485,358L1451,244L1339,250Z" fill="#45779b" stroke="#45779b" stroke-width="1.51"/>
    <path d="M1350,896L1359,784L1272,871Z" fill="#529db4" stroke="#529db4" stroke-width="1.51"/>
    <path d="M360,911L407,1030L412,886Z" fill="#45759a" stroke="#45759a" stroke-width="1.51"/>
    <path d="M247,940L407,1030L360,911Z" fill="#447398" stroke="#447398" stroke-width="1.51"/>
    <path d="M1359,784L1413,655L1275,627Z" fill="#4e92ac" stroke="#4e92ac" stroke-width="1.51"/>
    <path d="M244,-2L196,174L283,105Z" fill="#27306a" stroke="#27306a" stroke-width="1.51"/>
    <path d="M283,105L196,174L343,284Z" fill="#2b386f" stroke="#2b386f" stroke-width="1.51"/>
    <path d="M218,274L47,216L194,338Z" fill="#2b3970" stroke="#2b3970" stroke-width="1.51"/>
    <path d="M85,466L105,614L196,482Z" fill="#33497b" stroke="#33497b" stroke-width="1.51"/>
    <path d="M1339,250L1346,154L1254,290Z" fill="#426d94" stroke="#426d94" stroke-width="1.51"/>
    <path d="M1451,244L1346,154L1339,250Z" fill="#426f96" stroke="#426f96" stroke-width="1.51"/>
    <path d="M565,-112L425,-88L540,-7Z" fill="#27326a" stroke="#27326a" stroke-width="1.51"/>
    <path d="M413,-16L308,-11L441,73Z" fill="#27326a" stroke="#27326a" stroke-width="1.51"/>
    <path d="M1413,655L1454,463L1329,541Z" fill="#4c8aa8" stroke="#4c8aa8" stroke-width="1.51"/>
    <path d="M370,-81L308,-11L413,-16Z" fill="#252d67" stroke="#252d67" stroke-width="1.51"/>
    <path d="M85,466L196,482L80,410Z" fill="#304478" stroke="#304478" stroke-width="1.51"/>
    <path d="M1224,34L1118,-109L1121,-18Z" fill="#375282" stroke="#375282" stroke-width="1.51"/>
    <path d="M1224,-168L1118,-109L1224,34Z" fill="#365080" stroke="#365080" stroke-width="1.51"/>
    <path d="M897,-138L952,-181L740,-115Z" fill="#2d3d72" stroke="#2d3d72" stroke-width="1.51"/>
    <path d="M207,-124L370,-81L425,-88Z" fill="#212864" stroke="#212864" stroke-width="1.51"/>
    <path d="M1118,-109L952,-181L964,-48Z" fill="#314679" stroke="#314679" stroke-width="1.51"/>
    <path d="M80,410L196,482L194,338Z" fill="#2f4376" stroke="#2f4376" stroke-width="1.51"/>
    <path d="M114,896L247,940L171,722Z" fill="#3e638d" stroke="#3e638d" stroke-width="1.51"/>
    <path d="M171,722L247,940L345,781Z" fill="#3e648e" stroke="#3e648e" stroke-width="1.51"/>
    <path d="M207,-124L425,-88L565,-112Z" fill="#232a65" stroke="#232a65" stroke-width="1.51"/>
    <path d="M425,-88L370,-81L413,-16Z" fill="#252d67" stroke="#252d67" stroke-width="1.51"/>
    <path d="M47,216L80,410L194,338Z" fill="#2c3a70" stroke="#2c3a70" stroke-width="1.51"/>
    <path d="M1260,1016L1350,896L1272,871Z" fill="#53a1b7" stroke="#53a1b7" stroke-width="1.51"/>
    <path d="M1359,784L1470,685L1413,655Z" fill="#5097b0" stroke="#5097b0" stroke-width="1.51"/>
    <path d="M1346,154L1329,26L1219,103Z" fill="#3e628d" stroke="#3e628d" stroke-width="1.51"/>
    <path d="M1485,358L1339,250L1340,401Z" fill="#46799c" stroke="#46799c" stroke-width="1.51"/>
    <path d="M1159,1001L1260,1016L1272,871Z" fill="#53a1b7" stroke="#53a1b7" stroke-width="1.51"/>
    <path d="M887,1085L1260,1016L1159,1001Z" fill="#52a1b6" stroke="#52a1b6" stroke-width="1.51"/>
    <path d="M1474,129L1329,26L1346,154Z" fill="#406790" stroke="#406790" stroke-width="1.51"/>
    <path d="M1454,463L1485,358L1340,401Z" fill="#4980a1" stroke="#4980a1" stroke-width="1.51"/>
    <path d="M1621,390L1485,358L1454,463Z" fill="#4a85a4" stroke="#4a85a4" stroke-width="1.51"/>
    <path d="M1413,655L1470,685L1454,463Z" fill="#4d90ab" stroke="#4d90ab" stroke-width="1.51"/>
    <path d="M1452,798L1470,685L1359,784Z" fill="#519bb2" stroke="#519bb2" stroke-width="1.51"/>
    <path d="M196,174L125,151L218,274Z" fill="#29356d" stroke="#29356d" stroke-width="1.51"/>
    <path d="M308,-11L244,-2L283,105Z" fill="#252e68" stroke="#252e68" stroke-width="1.51"/>
    <path d="M207,-124L244,-2L308,-11Z" fill="#212763" stroke="#212763" stroke-width="1.51"/>
    <path d="M244,-2L125,151L196,174Z" fill="#262f69" stroke="#262f69" stroke-width="1.51"/>
    <path d="M1350,896L1452,798L1359,784Z" fill="#529eb5" stroke="#529eb5" stroke-width="1.51"/>
    <path d="M1513,934L1452,798L1350,896Z" fill="#54a5b9" stroke="#54a5b9" stroke-width="1.51"/>
    <path d="M247,940L294,1084L407,1030Z" fill="#45769a" stroke="#45769a" stroke-width="1.51"/>
    <path d="M407,1030L294,1084L627,1083Z" fill="#4981a1" stroke="#4981a1" stroke-width="1.51"/>
    <path d="M627,1083L294,1084L887,1085Z" fill="#4b8aa7" stroke="#4b8aa7" stroke-width="1.51"/>
    <path d="M215,1050L294,1084L247,940Z" fill="#447498" stroke="#447498" stroke-width="1.51"/>
    <path d="M-6,542L105,614L85,466Z" fill="#32487a" stroke="#32487a" stroke-width="1.51"/>
    <path d="M-37,660L72,811L105,614Z" fill="#365281" stroke="#365281" stroke-width="1.51"/>
    <path d="M105,614L72,811L171,722Z" fill="#385684" stroke="#385684" stroke-width="1.51"/>
    <path d="M80,410L-6,542L85,466Z" fill="#304276" stroke="#304276" stroke-width="1.51"/>
    <path d="M125,151L47,216L218,274Z" fill="#28346c" stroke="#28346c" stroke-width="1.51"/>
    <path d="M-102,141L47,216L-34,-5Z" fill="#202662" stroke="#202662" stroke-width="1.51"/>
    <path d="M72,811L114,896L171,722Z" fill="#3c5d89" stroke="#3c5d89" stroke-width="1.51"/>
    <path d="M1451,244L1474,129L1346,154Z" fill="#426f95" stroke="#426f95" stroke-width="1.51"/>
    <path d="M1601,149L1474,129L1451,244Z" fill="#447398" stroke="#447398" stroke-width="1.51"/>
    <path d="M-15,335L-6,542L80,410Z" fill="#2d3d73" stroke="#2d3d73" stroke-width="1.51"/>
    <path d="M1118,-109L1224,-168L952,-181Z" fill="#32477a" stroke="#32477a" stroke-width="1.51"/>
    <path d="M1346,-103L1224,-168L1224,34Z" fill="#385483" stroke="#385483" stroke-width="1.51"/>
    <path d="M1346,-103L1224,34L1329,26Z" fill="#3a5b88" stroke="#3a5b88" stroke-width="1.51"/>
    <path d="M114,896L215,1050L247,940Z" fill="#416c93" stroke="#416c93" stroke-width="1.51"/>
    <path d="M47,216L-15,335L80,410Z" fill="#2a376e" stroke="#2a376e" stroke-width="1.51"/>
    <path d="M1511,981L1407,991L1596,1080Z" fill="#58b4c3" stroke="#58b4c3" stroke-width="1.51"/>
    <path d="M1260,1016L1407,991L1350,896Z" fill="#55a7ba" stroke="#55a7ba" stroke-width="1.51"/>
    <path d="M1544,11L1346,-103L1329,26Z" fill="#3c5f8b" stroke="#3c5f8b" stroke-width="1.51"/>
    <path d="M-6,542L-37,660L105,614Z" fill="#334a7c" stroke="#334a7c" stroke-width="1.51"/>
    <path d="M72,811L-45,931L114,896Z" fill="#3c5f8a" stroke="#3c5f8a" stroke-width="1.51"/>
    <path d="M-134,756L-37,660L-235,678Z" fill="#33497b" stroke="#33497b" stroke-width="1.51"/>
    <path d="M244,-2L38,-27L125,151Z" fill="#222964" stroke="#222964" stroke-width="1.51"/>
    <path d="M47,216L-33,253L-15,335Z" fill="#27316a" stroke="#27316a" stroke-width="1.51"/>
    <path d="M370,-81L207,-124L308,-11Z" fill="#212863" stroke="#212863" stroke-width="1.51"/>
    <path d="M952,-181L207,-124L565,-112Z" fill="#26306a" stroke="#26306a" stroke-width="1.51"/>
    <path d="M-175,503L-37,660L-6,542Z" fill="#304377" stroke="#304377" stroke-width="1.51"/>
    <path d="M-102,141L-33,253L47,216Z" fill="#242c66" stroke="#242c66" stroke-width="1.51"/>
    <path d="M1650,255L1601,149L1451,244Z" fill="#46799c" stroke="#46799c" stroke-width="1.51"/>
    <path d="M1474,129L1544,11L1329,26Z" fill="#3f6790" stroke="#3f6790" stroke-width="1.51"/>
    <path d="M1655,489L1621,390L1454,463Z" fill="#4c8ba8" stroke="#4c8ba8" stroke-width="1.51"/>
    <path d="M1655,489L1454,463L1470,685Z" fill="#4e90ab" stroke="#4e90ab" stroke-width="1.51"/>
    <path d="M1597,806L1470,685L1452,798Z" fill="#52a0b6" stroke="#52a0b6" stroke-width="1.51"/>
    <path d="M1407,991L1513,934L1350,896Z" fill="#56aabc" stroke="#56aabc" stroke-width="1.51"/>
    <path d="M1675,611L1655,489L1470,685Z" fill="#5098b1" stroke="#5098b1" stroke-width="1.51"/>
    <path d="M1513,934L1597,806L1452,798Z" fill="#54a7bb" stroke="#54a7bb" stroke-width="1.51"/>
    <path d="M1513,934L1627,949L1597,806Z" fill="#57afbf" stroke="#57afbf" stroke-width="1.51"/>
    <path d="M1407,991L1511,981L1513,934Z" fill="#57afbf" stroke="#57afbf" stroke-width="1.51"/>
    <path d="M1596,1080L1407,991L1260,1016Z" fill="#57b1c1" stroke="#57b1c1" stroke-width="1.51"/>
    <path d="M1650,255L1485,358L1621,390Z" fill="#4983a3" stroke="#4983a3" stroke-width="1.51"/>
    <path d="M1650,255L1451,244L1485,358Z" fill="#477c9e" stroke="#477c9e" stroke-width="1.51"/>
    <path d="M207,-124L102,-108L244,-2Z" fill="#1e225f" stroke="#1e225f" stroke-width="1.51"/>
    <path d="M102,-108L38,-27L244,-2Z" fill="#1e225f" stroke="#1e225f" stroke-width="1.51"/>
    <path d="M1601,149L1544,11L1474,129Z" fill="#426f95" stroke="#426f95" stroke-width="1.51"/>
    <path d="M1601,149L1654,47L1544,11Z" fill="#437096" stroke="#437096" stroke-width="1.51"/>
    <path d="M1758,347L1650,255L1621,390Z" fill="#4b87a5" stroke="#4b87a5" stroke-width="1.51"/>
    <path d="M-37,660L-74,794L72,811Z" fill="#375382" stroke="#375382" stroke-width="1.51"/>
    <path d="M114,896L36,1044L215,1050Z" fill="#416b93" stroke="#416b93" stroke-width="1.51"/>
    <path d="M-134,756L-74,794L-37,660Z" fill="#354f7f" stroke="#354f7f" stroke-width="1.51"/>
    <path d="M1655,489L1758,347L1621,390Z" fill="#4d8daa" stroke="#4d8daa" stroke-width="1.51"/>
    <path d="M1597,806L1675,611L1470,685Z" fill="#529fb5" stroke="#529fb5" stroke-width="1.51"/>
    <path d="M-45,931L36,1044L114,896Z" fill="#3e648e" stroke="#3e648e" stroke-width="1.51"/>
    <path d="M215,1050L36,1044L294,1084Z" fill="#447398" stroke="#447398" stroke-width="1.51"/>
    <path d="M-74,794L-45,931L72,811Z" fill="#3a5987" stroke="#3a5987" stroke-width="1.51"/>
    <path d="M-205,339L-175,503L-15,335Z" fill="#28346c" stroke="#28346c" stroke-width="1.51"/>
    <path d="M-34,-5L47,216L125,151Z" fill="#222a65" stroke="#222a65" stroke-width="1.51"/>
    <path d="M-34,-5L125,151L38,-27Z" fill="#1f2461" stroke="#1f2461" stroke-width="1.51"/>
    <path d="M-65,-90L-34,-5L38,-27Z" fill="#1a1c5b" stroke="#1a1c5b" stroke-width="1.51"/>
    <path d="M-74,794L-158,876L-45,931Z" fill="#395785" stroke="#395785" stroke-width="1.51"/>
    <path d="M-175,503L-6,542L-15,335Z" fill="#2c3c72" stroke="#2c3c72" stroke-width="1.51"/>
    <path d="M-147,223L-15,335L-33,253Z" fill="#252f68" stroke="#252f68" stroke-width="1.51"/>
    <path d="M-102,141L-147,223L-33,253Z" fill="#222964" stroke="#222964" stroke-width="1.51"/>
    <path d="M-198,151L-147,223L-102,141Z" fill="#1f2561" stroke="#1f2561" stroke-width="1.51"/>
    <path d="M1597,806L1763,689L1675,611Z" fill="#54a5b9" stroke="#54a5b9" stroke-width="1.51"/>
    <path d="M1511,981L1627,949L1513,934Z" fill="#57b2c1" stroke="#57b2c1" stroke-width="1.51"/>
    <path d="M1731,41L1654,47L1601,149Z" fill="#447399" stroke="#447399" stroke-width="1.51"/>
    <path d="M1544,11L1548,-154L1346,-103Z" fill="#3c5e8a" stroke="#3c5e8a" stroke-width="1.51"/>
    <path d="M1346,-103L1548,-154L1224,-168Z" fill="#385583" stroke="#385583" stroke-width="1.51"/>
    <path d="M1731,41L1601,149L1804,124Z" fill="#45779a" stroke="#45779a" stroke-width="1.51"/>
    <path d="M1794,504L1758,347L1655,489Z" fill="#4e91ac" stroke="#4e91ac" stroke-width="1.51"/>
    <path d="M1794,504L1655,489L1675,611Z" fill="#5098b1" stroke="#5098b1" stroke-width="1.51"/>
    <path d="M-147,223L-205,339L-15,335Z" fill="#252e68" stroke="#252e68" stroke-width="1.51"/>
    <path d="M-235,678L-158,876L-134,756Z" fill="#344c7e" stroke="#344c7e" stroke-width="1.51"/>
    <path d="M-198,151L-205,339L-147,223Z" fill="#212763" stroke="#212763" stroke-width="1.51"/>
    <path d="M1758,347L1756,273L1650,255Z" fill="#4a85a4" stroke="#4a85a4" stroke-width="1.51"/>
    <path d="M1576,-151L1548,-154L1544,11Z" fill="#3d618b" stroke="#3d618b" stroke-width="1.51"/>
    <path d="M1224,-168L1774,-180L952,-181Z" fill="#355080" stroke="#355080" stroke-width="1.51"/>
    <path d="M-45,931L-46,1062L36,1044Z" fill="#3f668f" stroke="#3f668f" stroke-width="1.51"/>
    <path d="M36,1044L-46,1062L294,1084Z" fill="#426f95" stroke="#426f95" stroke-width="1.51"/>
    <path d="M-229,1064L-46,1062L-45,931Z" fill="#3d628c" stroke="#3d628c" stroke-width="1.51"/>
    <path d="M1781,795L1763,689L1597,806Z" fill="#55aabc" stroke="#55aabc" stroke-width="1.51"/>
    <path d="M1761,885L1781,795L1597,806Z" fill="#57afc0" stroke="#57afc0" stroke-width="1.51"/>
    <path d="M1511,981L1596,1080L1627,949Z" fill="#59b7c5" stroke="#59b7c5" stroke-width="1.51"/>
    <path d="M887,1085L1596,1080L1260,1016Z" fill="#55aabc" stroke="#55aabc" stroke-width="1.51"/>
    <path d="M-134,756L-158,876L-74,794Z" fill="#375281" stroke="#375281" stroke-width="1.51"/>
    <path d="M-235,678L-37,660L-175,503Z" fill="#304377" stroke="#304377" stroke-width="1.51"/>
    <path d="M1758,347L1804,124L1756,273Z" fill="#4981a2" stroke="#4981a2" stroke-width="1.51"/>
    <path d="M1763,689L1794,504L1675,611Z" fill="#519db4" stroke="#519db4" stroke-width="1.51"/>
    <path d="M-206,-28L-198,151L-102,141Z" fill="#1b1e5c" stroke="#1b1e5c" stroke-width="1.51"/>
    <path d="M102,-108L-65,-90L38,-27Z" fill="#191c5b" stroke="#191c5b" stroke-width="1.51"/>
    <path d="M-190,-146L-65,-90L102,-108Z" fill="#151656" stroke="#151656" stroke-width="1.51"/>
    <path d="M1654,47L1576,-151L1544,11Z" fill="#3f6890" stroke="#3f6890" stroke-width="1.51"/>
    <path d="M1731,41L1576,-151L1654,47Z" fill="#416c93" stroke="#416c93" stroke-width="1.51"/>
    <path d="M-205,339L-235,678L-175,503Z" fill="#2b3970" stroke="#2b3970" stroke-width="1.51"/>
    <path d="M-205,339L-206,-28L-235,678Z" fill="#242c66" stroke="#242c66" stroke-width="1.51"/>
    <path d="M-206,-28L-102,141L-34,-5Z" fill="#1a1d5b" stroke="#1a1d5b" stroke-width="1.51"/>
    <path d="M1763,689L1781,795L1794,504Z" fill="#53a2b7" stroke="#53a2b7" stroke-width="1.51"/>
    <path d="M1761,885L1597,806L1627,949Z" fill="#57b2c1" stroke="#57b2c1" stroke-width="1.51"/>
    <path d="M1804,124L1601,149L1650,255Z" fill="#477c9e" stroke="#477c9e" stroke-width="1.51"/>
    <path d="M1804,124L1650,255L1756,273Z" fill="#487fa0" stroke="#487fa0" stroke-width="1.51"/>
    <path d="M1768,1039L1761,885L1627,949Z" fill="#59b9c6" stroke="#59b9c6" stroke-width="1.51"/>
    <path d="M1731,41L1774,-180L1576,-151Z" fill="#406891" stroke="#406891" stroke-width="1.51"/>
    <path d="M1794,504L1804,124L1758,347Z" fill="#4b87a6" stroke="#4b87a6" stroke-width="1.51"/>
    <path d="M-65,-90L-206,-28L-34,-5Z" fill="#171858" stroke="#171858" stroke-width="1.51"/>
    <path d="M-198,151L-206,-28L-205,339Z" fill="#1c215e" stroke="#1c215e" stroke-width="1.51"/>
    <path d="M1596,1080L1768,1039L1627,949Z" fill="#5abdc9" stroke="#5abdc9" stroke-width="1.51"/>
    <path d="M1761,885L1768,1039L1781,795Z" fill="#58b5c4" stroke="#58b5c4" stroke-width="1.51"/>
    <path d="M-65,-90L-190,-146L-206,-28Z" fill="#131354" stroke="#131354" stroke-width="1.51"/>
    <path d="M207,-124L-190,-146L102,-108Z" fill="#171959" stroke="#171959" stroke-width="1.51"/>
    <path d="M952,-181L-190,-146L207,-124Z" fill="#1f2461" stroke="#1f2461" stroke-width="1.51"/>
    <path d="M-46,1062L-229,1064L294,1084Z" fill="#416b92" stroke="#416b92" stroke-width="1.51"/>
    <path d="M-158,876L-229,1064L-45,931Z" fill="#3b5b88" stroke="#3b5b88" stroke-width="1.51"/>
    <path d="M-235,678L-229,1064L-158,876Z" fill="#375281" stroke="#375281" stroke-width="1.51"/>
    <path d="M1804,124L1774,-180L1731,41Z" fill="#426f95" stroke="#426f95" stroke-width="1.51"/>
    <path d="M1576,-151L1774,-180L1548,-154Z" fill="#3c608b" stroke="#3c608b" stroke-width="1.51"/>
    <path d="M1548,-154L1774,-180L1224,-168Z" fill="#3a5a87" stroke="#3a5a87" stroke-width="1.51"/>
</svg>