<svg xmlns="http://www.w3.org/2000/svg" width="1440" height="900">
    <path d="M738,505L816,539L822,368Z" fill="#8d8dc2" stroke="#8d8dc2" stroke-width="1.51"/>
    <path d="M822,368L704,345L738,505Z" fill="#8f98c7" stroke="#8f98c7" stroke-width="1.51"/>
    <path d="M816,539L961,412L822,368Z" fill="#8d8ac0" stroke="#8d8ac0" stroke-width="1.51"/>
    <path d="M816,539L872,601L961,412Z" fill="#8d7fba" stroke="#8d7fba" stroke-width="1.51"/>
    <path d="M671,638L872,601L816,539Z" fill="#8d7db9" stroke="#8d7db9" stroke-width="1.51"/>
    <path d="M961,412L889,289L822,368Z" fill="#9392c4" stroke="#9392c4" stroke-width="1.51"/>
    <path d="M822,368L889,289L704,345Z" fill="#939cc9" stroke="#939cc9" stroke-width="1.51"/>
    <path d="M704,345L613,429L738,505Z" fill="#8f9bc9" stroke="#8f9bc9" stroke-width="1.51"/>
    <path d="M738,505L671,638L816,539Z" fill="#8d86be" stroke="#8d86be" stroke-width="1.51"/>
    <path d="M872,601L1024,496L961,412Z" fill="#8d7bb8" stroke="#8d7bb8" stroke-width="1.51"/>
    <path d="M961,412L1005,204L889,289Z" fill="#9693c5" stroke="#9693c5" stroke-width="1.51"/>
    <path d="M613,429L588,498L738,505Z" fill="#8f98c7" stroke="#8f98c7" stroke-width="1.51"/>
    <path d="M588,498L671,638L738,505Z" fill="#8f8dc1" stroke="#8f8dc1" stroke-width="1.51"/>
    <path d="M1024,496L1061,431L961,412Z" fill="#8d7db9" stroke="#8d7db9" stroke-width="1.51"/>
    <path d="M1024,496L1055,563L1061,431Z" fill="#8d74b5" stroke="#8d74b5" stroke-width="1.51"/>
    <path d="M872,601L1055,563L1024,496Z" fill="#8d72b4" stroke="#8d72b4" stroke-width="1.51"/>
    <path d="M889,289L689,201L704,345Z" fill="#96a6ce" stroke="#96a6ce" stroke-width="1.51"/>
    <path d="M704,345L511,279L613,429Z" fill="#96aad0" stroke="#96aad0" stroke-width="1.51"/>
    <path d="M613,429L469,417L588,498Z" fill="#92a2cc" stroke="#92a2cc" stroke-width="1.51"/>
    <path d="M843,818L1000,696L872,601Z" fill="#8c65ad" stroke="#8c65ad" stroke-width="1.51"/>
    <path d="M588,498L607,653L671,638Z" fill="#908ac0" stroke="#908ac0" stroke-width="1.51"/>
    <path d="M872,601L1000,696L1055,563Z" fill="#8c69b0" stroke="#8c69b0" stroke-width="1.51"/>
    <path d="M724,770L872,601L671,638Z" fill="#8d77b6" stroke="#8d77b6" stroke-width="1.51"/>
    <path d="M846,72L740,79L689,201Z" fill="#a7b1d5" stroke="#a7b1d5" stroke-width="1.51"/>
    <path d="M1061,431L1005,204L961,412Z" fill="#9389bf" stroke="#9389bf" stroke-width="1.51"/>
    <path d="M637,753L724,770L671,638Z" fill="#8f77b7" stroke="#8f77b7" stroke-width="1.51"/>
    <path d="M689,201L582,202L704,345Z" fill="#9cb0d4" stroke="#9cb0d4" stroke-width="1.51"/>
    <path d="M511,279L469,417L613,429Z" fill="#97add2" stroke="#97add2" stroke-width="1.51"/>
    <path d="M588,498L490,599L607,653Z" fill="#9391c4" stroke="#9391c4" stroke-width="1.51"/>
    <path d="M582,202L511,279L704,345Z" fill="#9bb3d5" stroke="#9bb3d5" stroke-width="1.51"/>
    <path d="M482,741L637,753L607,653Z" fill="#937fbb" stroke="#937fbb" stroke-width="1.51"/>
    <path d="M607,653L637,753L671,638Z" fill="#907fba" stroke="#907fba" stroke-width="1.51"/>
    <path d="M470,565L490,599L588,498Z" fill="#9598c8" stroke="#9598c8" stroke-width="1.51"/>
    <path d="M689,201L628,148L582,202Z" fill="#a3b7d7" stroke="#a3b7d7" stroke-width="1.51"/>
    <path d="M582,202L471,156L511,279Z" fill="#a5bedb" stroke="#a5bedb" stroke-width="1.51"/>
    <path d="M740,79L628,148L689,201Z" fill="#a6b6d7" stroke="#a6b6d7" stroke-width="1.51"/>
    <path d="M469,417L470,565L588,498Z" fill="#95a1cb" stroke="#95a1cb" stroke-width="1.51"/>
    <path d="M1005,204L953,127L889,289Z" fill="#9f9ac9" stroke="#9f9ac9" stroke-width="1.51"/>
    <path d="M1000,696L1125,680L1055,563Z" fill="#8c5fab" stroke="#8c5fab" stroke-width="1.51"/>
    <path d="M843,818L1009,753L1000,696Z" fill="#8b5aa8" stroke="#8b5aa8" stroke-width="1.51"/>
    <path d="M724,770L843,818L872,601Z" fill="#8d6ab0" stroke="#8d6ab0" stroke-width="1.51"/>
    <path d="M673,873L843,818L724,770Z" fill="#8c66ab" stroke="#8c66ab" stroke-width="1.51"/>
    <path d="M846,72L689,201L889,289Z" fill="#a0a8cf" stroke="#a0a8cf" stroke-width="1.51"/>
    <path d="M953,127L846,72L889,289Z" fill="#a3a2cd" stroke="#a3a2cd" stroke-width="1.51"/>
    <path d="M1061,431L1111,219L1005,204Z" fill="#978cc1" stroke="#978cc1" stroke-width="1.51"/>
    <path d="M1005,204L1060,151L953,127Z" fill="#a399c8" stroke="#a399c8" stroke-width="1.51"/>
    <path d="M1261,300L1111,219L1061,431Z" fill="#9581bc" stroke="#9581bc" stroke-width="1.51"/>
    <path d="M1055,563L1194,544L1061,431Z" fill="#8c6eb1" stroke="#8c6eb1" stroke-width="1.51"/>
    <path d="M1009,753L1125,680L1000,696Z" fill="#8b58a7" stroke="#8b58a7" stroke-width="1.51"/>
    <path d="M953,127L854,40L846,72Z" fill="#aba9d1" stroke="#aba9d1" stroke-width="1.51"/>
    <path d="M1111,219L1060,151L1005,204Z" fill="#a092c5" stroke="#a092c5" stroke-width="1.51"/>
    <path d="M1125,680L1194,544L1055,563Z" fill="#8b60ab" stroke="#8b60ab" stroke-width="1.51"/>
    <path d="M846,72L854,40L740,79Z" fill="#adb1d4" stroke="#adb1d4" stroke-width="1.51"/>
    <path d="M1028,-16L854,40L953,127Z" fill="#aea5d0" stroke="#aea5d0" stroke-width="1.51"/>
    <path d="M1009,753L1114,779L1125,680Z" fill="#8a51a4" stroke="#8a51a4" stroke-width="1.51"/>
    <path d="M843,818L933,862L1009,753Z" fill="#8a56a4" stroke="#8a56a4" stroke-width="1.51"/>
    <path d="M890,946L933,862L843,818Z" fill="#8a539f" stroke="#8a539f" stroke-width="1.51"/>
    <path d="M490,599L482,741L607,653Z" fill="#9489c0" stroke="#9489c0" stroke-width="1.51"/>
    <path d="M637,753L673,873L724,770Z" fill="#8e6eb0" stroke="#8e6eb0" stroke-width="1.51"/>
    <path d="M346,663L482,741L490,599Z" fill="#998fc3" stroke="#998fc3" stroke-width="1.51"/>
    <path d="M579,888L673,873L637,753Z" fill="#906eae" stroke="#906eae" stroke-width="1.51"/>
    <path d="M740,79L628,49L628,148Z" fill="#abbbd9" stroke="#abbbd9" stroke-width="1.51"/>
    <path d="M628,148L471,156L582,202Z" fill="#a7bedb" stroke="#a7bedb" stroke-width="1.51"/>
    <path d="M698,-46L628,49L740,79Z" fill="#b1bedc" stroke="#b1bedc" stroke-width="1.51"/>
    <path d="M1194,544L1250,422L1061,431Z" fill="#8c6eb2" stroke="#8c6eb2" stroke-width="1.51"/>
    <path d="M470,565L346,663L490,599Z" fill="#9996c6" stroke="#9996c6" stroke-width="1.51"/>
    <path d="M469,417L368,536L470,565Z" fill="#99a3cd" stroke="#99a3cd" stroke-width="1.51"/>
    <path d="M313,358L368,536L469,417Z" fill="#9cafd3" stroke="#9cafd3" stroke-width="1.51"/>
    <path d="M313,358L469,417L511,279Z" fill="#9eb6d7" stroke="#9eb6d7" stroke-width="1.51"/>
    <path d="M933,862L1114,779L1009,753Z" fill="#894fa2" stroke="#894fa2" stroke-width="1.51"/>
    <path d="M1125,680L1231,684L1194,544Z" fill="#8b55a6" stroke="#8b55a6" stroke-width="1.51"/>
    <path d="M1194,544L1344,542L1250,422Z" fill="#8c62aa" stroke="#8c62aa" stroke-width="1.51"/>
    <path d="M628,49L471,156L628,148Z" fill="#acc0dd" stroke="#acc0dd" stroke-width="1.51"/>
    <path d="M1114,779L1204,720L1125,680Z" fill="#8a4da2" stroke="#8a4da2" stroke-width="1.51"/>
    <path d="M1150,-19L1028,-16L1060,151Z" fill="#af9bca" stroke="#af9bca" stroke-width="1.51"/>
    <path d="M1250,422L1261,300L1061,431Z" fill="#9076b6" stroke="#9076b6" stroke-width="1.51"/>
    <path d="M1204,720L1231,684L1125,680Z" fill="#894ea3" stroke="#894ea3" stroke-width="1.51"/>
    <path d="M1250,422L1409,405L1261,300Z" fill="#916faf" stroke="#916faf" stroke-width="1.51"/>
    <path d="M805,1002L890,946L843,818Z" fill="#8a529d" stroke="#8a529d" stroke-width="1.51"/>
    <path d="M482,741L579,888L637,753Z" fill="#9377b6" stroke="#9377b6" stroke-width="1.51"/>
    <path d="M805,1002L843,818L673,873Z" fill="#8c5ca2" stroke="#8c5ca2" stroke-width="1.51"/>
    <path d="M933,862L1118,954L1114,779Z" fill="#894599" stroke="#894599" stroke-width="1.51"/>
    <path d="M1114,779L1250,896L1204,720Z" fill="#88409b" stroke="#88409b" stroke-width="1.51"/>
    <path d="M333,246L313,358L511,279Z" fill="#a4bfdc" stroke="#a4bfdc" stroke-width="1.51"/>
    <path d="M482,741L447,890L579,888Z" fill="#9678b3" stroke="#9678b3" stroke-width="1.51"/>
    <path d="M368,536L346,663L470,565Z" fill="#9c9ac9" stroke="#9c9ac9" stroke-width="1.51"/>
    <path d="M232,590L346,663L368,536Z" fill="#a19dca" stroke="#a19dca" stroke-width="1.51"/>
    <path d="M376,-11L377,135L471,156Z" fill="#b7cde3" stroke="#b7cde3" stroke-width="1.51"/>
    <path d="M854,40L698,-46L740,79Z" fill="#b0b8d8" stroke="#b0b8d8" stroke-width="1.51"/>
    <path d="M724,-152L698,-46L878,-165Z" fill="#bcc0dd" stroke="#bcc0dd" stroke-width="1.51"/>
    <path d="M377,135L333,246L471,156Z" fill="#afc7e0" stroke="#afc7e0" stroke-width="1.51"/>
    <path d="M471,156L333,246L511,279Z" fill="#a7c2dd" stroke="#a7c2dd" stroke-width="1.51"/>
    <path d="M1060,151L1028,-16L953,127Z" fill="#ab9dcb" stroke="#ab9dcb" stroke-width="1.51"/>
    <path d="M1289,138L1060,151L1111,219Z" fill="#a28cc2" stroke="#a28cc2" stroke-width="1.51"/>
    <path d="M424,-45L471,156L628,49Z" fill="#b5cae2" stroke="#b5cae2" stroke-width="1.51"/>
    <path d="M1413,636L1344,542L1231,684Z" fill="#8a4d9e" stroke="#8a4d9e" stroke-width="1.51"/>
    <path d="M1231,684L1344,542L1194,544Z" fill="#8a56a5" stroke="#8a56a5" stroke-width="1.51"/>
    <path d="M701,1012L805,1002L673,873Z" fill="#875a9c" stroke="#875a9c" stroke-width="1.51"/>
    <path d="M153,404L249,496L313,358Z" fill="#a7b8d8" stroke="#a7b8d8" stroke-width="1.51"/>
    <path d="M313,358L249,496L368,536Z" fill="#a1afd3" stroke="#a1afd3" stroke-width="1.51"/>
    <path d="M336,806L447,890L482,741Z" fill="#9b7fb9" stroke="#9b7fb9" stroke-width="1.51"/>
    <path d="M644,1006L701,1012L673,873Z" fill="#895e9e" stroke="#895e9e" stroke-width="1.51"/>
    <path d="M336,806L482,741L346,663Z" fill="#9c88c0" stroke="#9c88c0" stroke-width="1.51"/>
    <path d="M644,1006L673,873L579,888Z" fill="#9065a5" stroke="#9065a5" stroke-width="1.51"/>
    <path d="M1261,300L1289,138L1111,219Z" fill="#9e84bd" stroke="#9e84bd" stroke-width="1.51"/>
    <path d="M1330,211L1289,138L1261,300Z" fill="#9e7fb8" stroke="#9e7fb8" stroke-width="1.51"/>
    <path d="M1409,405L1330,211L1261,300Z" fill="#9675b2" stroke="#9675b2" stroke-width="1.51"/>
    <path d="M500,1075L644,1006L579,888Z" fill="#88649d" stroke="#88649d" stroke-width="1.51"/>
    <path d="M1028,-16L1015,-87L854,40Z" fill="#b5a9d2" stroke="#b5a9d2" stroke-width="1.51"/>
    <path d="M1150,-19L1015,-87L1028,-16Z" fill="#b7a2ce" stroke="#b7a2ce" stroke-width="1.51"/>
    <path d="M698,-46L623,-96L628,49Z" fill="#b8c5e0" stroke="#b8c5e0" stroke-width="1.51"/>
    <path d="M724,-152L623,-96L698,-46Z" fill="#bcc6e0" stroke="#bcc6e0" stroke-width="1.51"/>
    <path d="M805,1002L985,1008L890,946Z" fill="#814991" stroke="#814991" stroke-width="1.51"/>
    <path d="M890,946L985,1008L933,862Z" fill="#884897" stroke="#884897" stroke-width="1.51"/>
    <path d="M1204,720L1382,804L1231,684Z" fill="#88419b" stroke="#88419b" stroke-width="1.51"/>
    <path d="M1084,1060L985,1008L805,1002Z" fill="#7a4088" stroke="#7a4088" stroke-width="1.51"/>
    <path d="M1289,138L1150,-19L1060,151Z" fill="#aa90c4" stroke="#aa90c4" stroke-width="1.51"/>
    <path d="M193,765L336,806L346,663Z" fill="#a38bc2" stroke="#a38bc2" stroke-width="1.51"/>
    <path d="M985,1008L1118,954L933,862Z" fill="#874093" stroke="#874093" stroke-width="1.51"/>
    <path d="M249,496L232,590L368,536Z" fill="#a3a5cf" stroke="#a3a5cf" stroke-width="1.51"/>
    <path d="M333,246L249,226L313,358Z" fill="#abc5df" stroke="#abc5df" stroke-width="1.51"/>
    <path d="M249,496L33,557L232,590Z" fill="#abaad1" stroke="#abaad1" stroke-width="1.51"/>
    <path d="M231,155L249,226L333,246Z" fill="#b4cbe2" stroke="#b4cbe2" stroke-width="1.51"/>
    <path d="M231,155L333,246L377,135Z" fill="#b4cbe2" stroke="#b4cbe2" stroke-width="1.51"/>
    <path d="M1344,542L1409,405L1250,422Z" fill="#8c63a8" stroke="#8c63a8" stroke-width="1.51"/>
    <path d="M878,-165L698,-46L854,40Z" fill="#b8b9d9" stroke="#b8b9d9" stroke-width="1.51"/>
    <path d="M1015,-87L878,-165L854,40Z" fill="#b9b0d5" stroke="#b9b0d5" stroke-width="1.51"/>
    <path d="M1062,-150L878,-165L1015,-87Z" fill="#beadd4" stroke="#beadd4" stroke-width="1.51"/>
    <path d="M1118,954L1250,896L1114,779Z" fill="#873994" stroke="#873994" stroke-width="1.51"/>
    <path d="M1344,542L1480,422L1409,405Z" fill="#8b5ea2" stroke="#8b5ea2" stroke-width="1.51"/>
    <path d="M422,-174L424,-45L623,-96Z" fill="#c4d6e8" stroke="#c4d6e8" stroke-width="1.51"/>
    <path d="M623,-96L424,-45L628,49Z" fill="#bccde3" stroke="#bccde3" stroke-width="1.51"/>
    <path d="M1382,804L1413,636L1231,684Z" fill="#884097" stroke="#884097" stroke-width="1.51"/>
    <path d="M424,-45L376,-11L471,156Z" fill="#bcd1e6" stroke="#bcd1e6" stroke-width="1.51"/>
    <path d="M209,9L231,155L377,135Z" fill="#bfd3e6" stroke="#bfd3e6" stroke-width="1.51"/>
    <path d="M249,226L153,404L313,358Z" fill="#acc2de" stroke="#acc2de" stroke-width="1.51"/>
    <path d="M1150,-19L1062,-150L1015,-87Z" fill="#baa3cf" stroke="#baa3cf" stroke-width="1.51"/>
    <path d="M1265,-80L1062,-150L1150,-19Z" fill="#ba9ccc" stroke="#ba9ccc" stroke-width="1.51"/>
    <path d="M81,359L153,404L249,226Z" fill="#b1c6e0" stroke="#b1c6e0" stroke-width="1.51"/>
    <path d="M1421,152L1289,138L1330,211Z" fill="#a27eb6" stroke="#a27eb6" stroke-width="1.51"/>
    <path d="M1353,34L1291,7L1289,138Z" fill="#ac88bd" stroke="#ac88bd" stroke-width="1.51"/>
    <path d="M1289,138L1291,7L1150,-19Z" fill="#ae8ec2" stroke="#ae8ec2" stroke-width="1.51"/>
    <path d="M500,1075L1084,1060L701,1012Z" fill="#77508c" stroke="#77508c" stroke-width="1.51"/>
    <path d="M701,1012L1084,1060L805,1002Z" fill="#7b498c" stroke="#7b498c" stroke-width="1.51"/>
    <path d="M985,1008L1084,1060L1118,954Z" fill="#7b3787" stroke="#7b3787" stroke-width="1.51"/>
    <path d="M1118,954L1199,1006L1250,896Z" fill="#832d8a" stroke="#832d8a" stroke-width="1.51"/>
    <path d="M1368,951L1382,804L1250,896Z" fill="#852889" stroke="#852889" stroke-width="1.51"/>
    <path d="M1250,896L1382,804L1204,720Z" fill="#873794" stroke="#873794" stroke-width="1.51"/>
    <path d="M1409,405L1467,275L1330,211Z" fill="#9672ad" stroke="#9672ad" stroke-width="1.51"/>
    <path d="M1548,529L1480,422L1344,542Z" fill="#8a559c" stroke="#8a559c" stroke-width="1.51"/>
    <path d="M1548,529L1344,542L1413,636Z" fill="#8a4d9a" stroke="#8a4d9a" stroke-width="1.51"/>
    <path d="M1084,1060L1199,1006L1118,954Z" fill="#7b3084" stroke="#7b3084" stroke-width="1.51"/>
    <path d="M1480,422L1467,275L1409,405Z" fill="#9066a5" stroke="#9066a5" stroke-width="1.51"/>
    <path d="M1467,275L1421,152L1330,211Z" fill="#9d77b0" stroke="#9d77b0" stroke-width="1.51"/>
    <path d="M1421,152L1353,34L1289,138Z" fill="#a882b8" stroke="#a882b8" stroke-width="1.51"/>
    <path d="M1291,7L1265,-80L1150,-19Z" fill="#b593c6" stroke="#b593c6" stroke-width="1.51"/>
    <path d="M315,1047L500,1075L447,890Z" fill="#8e6ca0" stroke="#8e6ca0" stroke-width="1.51"/>
    <path d="M447,890L500,1075L579,888Z" fill="#926ca6" stroke="#926ca6" stroke-width="1.51"/>
    <path d="M232,590L193,765L346,663Z" fill="#a596c7" stroke="#a596c7" stroke-width="1.51"/>
    <path d="M71,698L193,765L232,590Z" fill="#ab99c9" stroke="#ab99c9" stroke-width="1.51"/>
    <path d="M644,1006L500,1075L701,1012Z" fill="#805d95" stroke="#805d95" stroke-width="1.51"/>
    <path d="M287,938L447,890L336,806Z" fill="#9e7ab3" stroke="#9e7ab3" stroke-width="1.51"/>
    <path d="M1382,804L1458,695L1413,636Z" fill="#873992" stroke="#873992" stroke-width="1.51"/>
    <path d="M1408,-109L1265,-80L1291,7Z" fill="#b78fc0" stroke="#b78fc0" stroke-width="1.51"/>
    <path d="M193,765L287,938L336,806Z" fill="#a482ba" stroke="#a482ba" stroke-width="1.51"/>
    <path d="M1382,804L1461,743L1458,695Z" fill="#86328f" stroke="#86328f" stroke-width="1.51"/>
    <path d="M1458,695L1548,529L1413,636Z" fill="#864393" stroke="#864393" stroke-width="1.51"/>
    <path d="M1510,890L1461,743L1382,804Z" fill="#842788" stroke="#842788" stroke-width="1.51"/>
    <path d="M33,557L71,698L232,590Z" fill="#afa3cf" stroke="#afa3cf" stroke-width="1.51"/>
    <path d="M25,291L81,359L249,226Z" fill="#b7cde4" stroke="#b7cde4" stroke-width="1.51"/>
    <path d="M724,-152L422,-174L623,-96Z" fill="#c3cfe5" stroke="#c3cfe5" stroke-width="1.51"/>
    <path d="M424,-45L351,-129L376,-11Z" fill="#c8daea" stroke="#c8daea" stroke-width="1.51"/>
    <path d="M376,-11L209,9L377,135Z" fill="#c2d5e8" stroke="#c2d5e8" stroke-width="1.51"/>
    <path d="M33,173L25,291L249,226Z" fill="#bed2e6" stroke="#bed2e6" stroke-width="1.51"/>
    <path d="M878,-165L422,-174L724,-152Z" fill="#c1cae2" stroke="#c1cae2" stroke-width="1.51"/>
    <path d="M422,-174L351,-129L424,-45Z" fill="#cadbeb" stroke="#cadbeb" stroke-width="1.51"/>
    <path d="M1652,343L1586,207L1467,275Z" fill="#8a6a9d" stroke="#8a6a9d" stroke-width="1.51"/>
    <path d="M1617,630L1548,529L1458,695Z" fill="#7e408c" stroke="#7e408c" stroke-width="1.51"/>
    <path d="M213,-95L209,9L376,-11Z" fill="#cdddec" stroke="#cdddec" stroke-width="1.51"/>
    <path d="M1341,1010L1368,951L1250,896Z" fill="#812082" stroke="#812082" stroke-width="1.51"/>
    <path d="M1341,1010L1250,896L1199,1006Z" fill="#7e2583" stroke="#7e2583" stroke-width="1.51"/>
    <path d="M236,1085L315,1047L287,938Z" fill="#9371a0" stroke="#9371a0" stroke-width="1.51"/>
    <path d="M287,938L315,1047L447,890Z" fill="#9a73a9" stroke="#9a73a9" stroke-width="1.51"/>
    <path d="M1084,1060L1341,1010L1199,1006Z" fill="#76277e" stroke="#76277e" stroke-width="1.51"/>
    <path d="M1353,34L1408,-109L1291,7Z" fill="#b48bbd" stroke="#b48bbd" stroke-width="1.51"/>
    <path d="M1421,152L1499,-38L1353,34Z" fill="#ad81b5" stroke="#ad81b5" stroke-width="1.51"/>
    <path d="M1467,275L1516,139L1421,152Z" fill="#9d75ab" stroke="#9d75ab" stroke-width="1.51"/>
    <path d="M1586,207L1516,139L1467,275Z" fill="#9570a5" stroke="#9570a5" stroke-width="1.51"/>
    <path d="M33,557L249,496L153,404Z" fill="#acb4d6" stroke="#acb4d6" stroke-width="1.51"/>
    <path d="M193,765L150,922L287,938Z" fill="#a781b7" stroke="#a781b7" stroke-width="1.51"/>
    <path d="M81,359L33,557L153,404Z" fill="#b0bcda" stroke="#b0bcda" stroke-width="1.51"/>
    <path d="M1548,529L1595,498L1480,422Z" fill="#815394" stroke="#815394" stroke-width="1.51"/>
    <path d="M1617,630L1595,498L1548,529Z" fill="#7a478b" stroke="#7a478b" stroke-width="1.51"/>
    <path d="M1617,630L1458,695L1607,740Z" fill="#7b3586" stroke="#7b3586" stroke-width="1.51"/>
    <path d="M1510,890L1382,804L1368,951Z" fill="#831f83" stroke="#831f83" stroke-width="1.51"/>
    <path d="M81,359L-40,494L33,557Z" fill="#b4bcda" stroke="#b4bcda" stroke-width="1.51"/>
    <path d="M33,173L249,226L231,155Z" fill="#bed2e6" stroke="#bed2e6" stroke-width="1.51"/>
    <path d="M85,882L150,922L193,765Z" fill="#ac86bb" stroke="#ac86bb" stroke-width="1.51"/>
    <path d="M209,9L33,173L231,155Z" fill="#c6d8e9" stroke="#c6d8e9" stroke-width="1.51"/>
    <path d="M351,-129L213,-95L376,-11Z" fill="#cdddec" stroke="#cdddec" stroke-width="1.51"/>
    <path d="M422,-174L213,-95L351,-129Z" fill="#d0e0ed" stroke="#d0e0ed" stroke-width="1.51"/>
    <path d="M1652,343L1467,275L1480,422Z" fill="#89649e" stroke="#89649e" stroke-width="1.51"/>
    <path d="M1265,-80L1408,-109L1062,-150Z" fill="#bb97c8" stroke="#bb97c8" stroke-width="1.51"/>
    <path d="M1499,-38L1408,-109L1353,34Z" fill="#b587b9" stroke="#b587b9" stroke-width="1.51"/>
    <path d="M1499,-38L1421,152L1516,139Z" fill="#a67baf" stroke="#a67baf" stroke-width="1.51"/>
    <path d="M-12,124L33,173L43,-33Z" fill="#d2e1ed" stroke="#d2e1ed" stroke-width="1.51"/>
    <path d="M71,698L30,732L193,765Z" fill="#af96c8" stroke="#af96c8" stroke-width="1.51"/>
    <path d="M-51,685L30,732L71,698Z" fill="#b59dcc" stroke="#b59dcc" stroke-width="1.51"/>
    <path d="M-51,685L71,698L33,557Z" fill="#b4a4cf" stroke="#b4a4cf" stroke-width="1.51"/>
    <path d="M1476,993L1510,890L1368,951Z" fill="#7f0f7a" stroke="#7f0f7a" stroke-width="1.51"/>
    <path d="M1607,740L1458,695L1461,743Z" fill="#803289" stroke="#803289" stroke-width="1.51"/>
    <path d="M1595,498L1652,343L1480,422Z" fill="#7f5994" stroke="#7f5994" stroke-width="1.51"/>
    <path d="M150,922L236,1085L287,938Z" fill="#9e76a9" stroke="#9e76a9" stroke-width="1.51"/>
    <path d="M30,732L85,882L193,765Z" fill="#af8ec3" stroke="#af8ec3" stroke-width="1.51"/>
    <path d="M-77,374L81,359L25,291Z" fill="#bbcce3" stroke="#bbcce3" stroke-width="1.51"/>
    <path d="M-77,374L-40,494L81,359Z" fill="#b9c5df" stroke="#b9c5df" stroke-width="1.51"/>
    <path d="M1592,25L1499,-38L1516,139Z" fill="#a37baa" stroke="#a37baa" stroke-width="1.51"/>
    <path d="M1510,890L1607,740L1461,743Z" fill="#7c2782" stroke="#7c2782" stroke-width="1.51"/>
    <path d="M44,1043L236,1085L150,922Z" fill="#9d77a5" stroke="#9d77a5" stroke-width="1.51"/>
    <path d="M315,1047L236,1085L500,1075Z" fill="#866a97" stroke="#866a97" stroke-width="1.51"/>
    <path d="M500,1075L236,1085L1084,1060Z" fill="#795b8e" stroke="#795b8e" stroke-width="1.51"/>
    <path d="M1711,263L1652,343L1742,361Z" fill="#785e8e" stroke="#785e8e" stroke-width="1.51"/>
    <path d="M1742,361L1652,343L1595,498Z" fill="#76578c" stroke="#76578c" stroke-width="1.51"/>
    <path d="M1586,207L1591,96L1516,139Z" fill="#9672a2" stroke="#9672a2" stroke-width="1.51"/>
    <path d="M33,173L-14,216L25,291Z" fill="#c4d7e9" stroke="#c4d7e9" stroke-width="1.51"/>
    <path d="M-12,124L-14,216L33,173Z" fill="#cadceb" stroke="#cadceb" stroke-width="1.51"/>
    <path d="M1671,1022L1476,993L1341,1010Z" fill="#70086c" stroke="#70086c" stroke-width="1.51"/>
    <path d="M1341,1010L1476,993L1368,951Z" fill="#7a1578" stroke="#7a1578" stroke-width="1.51"/>
    <path d="M1510,890L1603,930L1607,740Z" fill="#751c77" stroke="#751c77" stroke-width="1.51"/>
    <path d="M1736,125L1591,96L1586,207Z" fill="#8d6e9b" stroke="#8d6e9b" stroke-width="1.51"/>
    <path d="M-14,216L-77,374L25,291Z" fill="#bfd4e7" stroke="#bfd4e7" stroke-width="1.51"/>
    <path d="M43,-33L33,173L209,9Z" fill="#d1e0ee" stroke="#d1e0ee" stroke-width="1.51"/>
    <path d="M213,-95L113,-94L209,9Z" fill="#d5e3ef" stroke="#d5e3ef" stroke-width="1.51"/>
    <path d="M422,-174L113,-94L213,-95Z" fill="#d5e3ef" stroke="#d5e3ef" stroke-width="1.51"/>
    <path d="M-210,290L-77,374L-14,216Z" fill="#c3d6e8" stroke="#c3d6e8" stroke-width="1.51"/>
    <path d="M-40,494L-51,685L33,557Z" fill="#b7afd4" stroke="#b7afd4" stroke-width="1.51"/>
    <path d="M-107,744L-51,685L-165,664Z" fill="#bba2cf" stroke="#bba2cf" stroke-width="1.51"/>
    <path d="M30,732L-90,862L85,882Z" fill="#b590c2" stroke="#b590c2" stroke-width="1.51"/>
    <path d="M1591,96L1592,25L1516,139Z" fill="#9b76a5" stroke="#9b76a5" stroke-width="1.51"/>
    <path d="M1499,-38L1501,-153L1408,-109Z" fill="#b686b7" stroke="#b686b7" stroke-width="1.51"/>
    <path d="M1736,125L1592,25L1591,96Z" fill="#93729d" stroke="#93729d" stroke-width="1.51"/>
    <path d="M113,-94L43,-33L209,9Z" fill="#d7e5f0" stroke="#d7e5f0" stroke-width="1.51"/>
    <path d="M1408,-109L1501,-153L1062,-150Z" fill="#bc92c3" stroke="#bc92c3" stroke-width="1.51"/>
    <path d="M1062,-150L1501,-153L878,-165Z" fill="#bea0ce" stroke="#bea0ce" stroke-width="1.51"/>
    <path d="M878,-165L1663,-162L422,-174Z" fill="#c0aed5" stroke="#c0aed5" stroke-width="1.51"/>
    <path d="M1663,-162L1501,-153L1499,-38Z" fill="#ae83ad" stroke="#ae83ad" stroke-width="1.51"/>
    <path d="M1742,361L1595,498L1755,522Z" fill="#704f86" stroke="#704f86" stroke-width="1.51"/>
    <path d="M1652,343L1711,263L1586,207Z" fill="#816594" stroke="#816594" stroke-width="1.51"/>
    <path d="M1755,522L1595,498L1617,630Z" fill="#724484" stroke="#724484" stroke-width="1.51"/>
    <path d="M1476,993L1603,930L1510,890Z" fill="#770b73" stroke="#770b73" stroke-width="1.51"/>
    <path d="M1755,522L1617,630L1755,633Z" fill="#6e3d7d" stroke="#6e3d7d" stroke-width="1.51"/>
    <path d="M1755,633L1617,630L1607,740Z" fill="#70347c" stroke="#70347c" stroke-width="1.51"/>
    <path d="M-51,685L-107,744L30,732Z" fill="#b89ecc" stroke="#b89ecc" stroke-width="1.51"/>
    <path d="M85,882L44,1043L150,922Z" fill="#ac7fb2" stroke="#ac7fb2" stroke-width="1.51"/>
    <path d="M-165,664L-51,685L-40,494Z" fill="#baacd4" stroke="#baacd4" stroke-width="1.51"/>
    <path d="M-46,1033L44,1043L85,882Z" fill="#a97fad" stroke="#a97fad" stroke-width="1.51"/>
    <path d="M1770,754L1755,633L1607,740Z" fill="#6c2d76" stroke="#6c2d76" stroke-width="1.51"/>
    <path d="M1711,263L1736,125L1586,207Z" fill="#846994" stroke="#846994" stroke-width="1.51"/>
    <path d="M1592,25L1663,-162L1499,-38Z" fill="#a57ea8" stroke="#a57ea8" stroke-width="1.51"/>
    <path d="M1742,361L1736,125L1711,263Z" fill="#7d6491" stroke="#7d6491" stroke-width="1.51"/>
    <path d="M1755,522L1736,125L1742,361Z" fill="#775d8d" stroke="#775d8d" stroke-width="1.51"/>
    <path d="M-107,744L-90,862L30,732Z" fill="#b897c9" stroke="#b897c9" stroke-width="1.51"/>
    <path d="M-76,-107L-91,31L43,-33Z" fill="#e2edf5" stroke="#e2edf5" stroke-width="1.51"/>
    <path d="M43,-33L-91,31L-12,124Z" fill="#d9e6f0" stroke="#d9e6f0" stroke-width="1.51"/>
    <path d="M-12,124L-137,144L-14,216Z" fill="#cedeec" stroke="#cedeec" stroke-width="1.51"/>
    <path d="M-225,524L-165,664L-40,494Z" fill="#bdb5d8" stroke="#bdb5d8" stroke-width="1.51"/>
    <path d="M-91,31L-137,144L-12,124Z" fill="#d6e4ef" stroke="#d6e4ef" stroke-width="1.51"/>
    <path d="M-107,744L-216,818L-90,862Z" fill="#bc96c7" stroke="#bc96c7" stroke-width="1.51"/>
    <path d="M-202,411L-40,494L-77,374Z" fill="#bcc6e0" stroke="#bcc6e0" stroke-width="1.51"/>
    <path d="M1603,930L1770,754L1607,740Z" fill="#6d2073" stroke="#6d2073" stroke-width="1.51"/>
    <path d="M1755,633L1770,754L1755,522Z" fill="#6d377b" stroke="#6d377b" stroke-width="1.51"/>
    <path d="M1800,898L1732,-85L1736,125Z" fill="#785f8e" stroke="#785f8e" stroke-width="1.51"/>
    <path d="M-210,290L-202,411L-77,374Z" fill="#c3d0e5" stroke="#c3d0e5" stroke-width="1.51"/>
    <path d="M1736,125L1704,-51L1592,25Z" fill="#93739b" stroke="#93739b" stroke-width="1.51"/>
    <path d="M-137,144L-210,290L-14,216Z" fill="#ccdceb" stroke="#ccdceb" stroke-width="1.51"/>
    <path d="M-174,-41L-210,290L-137,144Z" fill="#d7e4f0" stroke="#d7e4f0" stroke-width="1.51"/>
    <path d="M-90,862L-46,1033L85,882Z" fill="#b687b8" stroke="#b687b8" stroke-width="1.51"/>
    <path d="M44,1043L-205,1074L236,1085Z" fill="#9a78a0" stroke="#9a78a0" stroke-width="1.51"/>
    <path d="M-162,950L-46,1033L-90,862Z" fill="#b787b6" stroke="#b787b6" stroke-width="1.51"/>
    <path d="M1603,930L1800,898L1770,754Z" fill="#68166a" stroke="#68166a" stroke-width="1.51"/>
    <path d="M1476,993L1671,1022L1603,930Z" fill="#6b0767" stroke="#6b0767" stroke-width="1.51"/>
    <path d="M1084,1060L1671,1022L1341,1010Z" fill="#731673" stroke="#731673" stroke-width="1.51"/>
    <path d="M-165,664L-216,818L-107,744Z" fill="#be9fcd" stroke="#be9fcd" stroke-width="1.51"/>
    <path d="M-202,411L-225,524L-40,494Z" fill="#bdc1de" stroke="#bdc1de" stroke-width="1.51"/>
    <path d="M-210,290L-225,524L-202,411Z" fill="#c2cce3" stroke="#c2cce3" stroke-width="1.51"/>
    <path d="M-91,31L-174,-41L-137,144Z" fill="#dee9f3" stroke="#dee9f3" stroke-width="1.51"/>
    <path d="M113,-94L-76,-107L43,-33Z" fill="#e1ecf4" stroke="#e1ecf4" stroke-width="1.51"/>
    <path d="M-217,-168L-76,-107L113,-94Z" fill="#e8f2f8" stroke="#e8f2f8" stroke-width="1.51"/>
    <path d="M1704,-51L1663,-162L1592,25Z" fill="#9e7ba1" stroke="#9e7ba1" stroke-width="1.51"/>
    <path d="M1501,-153L1663,-162L878,-165Z" fill="#be92c2" stroke="#be92c2" stroke-width="1.51"/>
    <path d="M1704,-51L1732,-85L1663,-162Z" fill="#9c7a9e" stroke="#9c7a9e" stroke-width="1.51"/>
    <path d="M1736,125L1732,-85L1704,-51Z" fill="#94759a" stroke="#94759a" stroke-width="1.51"/>
    <path d="M1800,898L1736,125L1755,522Z" fill="#6f4782" stroke="#6f4782" stroke-width="1.51"/>
    <path d="M1671,1022L1736,1011L1603,930Z" fill="#61045d" stroke="#61045d" stroke-width="1.51"/>
    <path d="M-225,524L-216,818L-165,664Z" fill="#bfa9d2" stroke="#bfa9d2" stroke-width="1.51"/>
    <path d="M1736,1011L1800,898L1603,930Z" fill="#650562" stroke="#650562" stroke-width="1.51"/>
    <path d="M1770,754L1800,898L1755,522Z" fill="#6b2b76" stroke="#6b2b76" stroke-width="1.51"/>
    <path d="M-216,818L-162,950L-90,862Z" fill="#bc90c0" stroke="#bc90c0" stroke-width="1.51"/>
    <path d="M-76,-107L-174,-41L-91,31Z" fill="#e5eff6" stroke="#e5eff6" stroke-width="1.51"/>
    <path d="M-162,950L-205,1074L-46,1033Z" fill="#ab81ab" stroke="#ab81ab" stroke-width="1.51"/>
    <path d="M-46,1033L-205,1074L44,1043Z" fill="#a37da5" stroke="#a37da5" stroke-width="1.51"/>
    <path d="M-216,818L-205,1074L-162,950Z" fill="#bb89b8" stroke="#bb89b8" stroke-width="1.51"/>
    <path d="M-76,-107L-217,-168L-174,-41Z" fill="#ecf4f9" stroke="#ecf4f9" stroke-width="1.51"/>
    <path d="M-174,-41L-217,-168L-210,290Z" fill="#e3edf5" stroke="#e3edf5" stroke-width="1.51"/>
    <path d="M-210,290L-217,-168L-225,524Z" fill="#d1e0ed" stroke="#d1e0ed" stroke-width="1.51"/>
    <path d="M422,-174L-217,-168L113,-94Z" fill="#e0ebf3" stroke="#e0ebf3" stroke-width="1.51"/>
</svg>