<svg xmlns="http://www.w3.org/2000/svg" width="1440" height="900"><path d="M760,407L815,475L842,325Z" fill="#fff694" stroke="#fff694" stroke-width="1.51"/><path d="M842,325L695,277L760,407Z" fill="#fff292" stroke="#fff292" stroke-width="1.51"/><path d="M815,475L1016,467L842,325Z" fill="#fff490" stroke="#fff490" stroke-width="1.51"/><path d="M842,325L829,202L695,277Z" fill="#ffea8b" stroke="#ffea8b" stroke-width="1.51"/><path d="M1017,275L829,202L842,325Z" fill="#ffe485" stroke="#ffe485" stroke-width="1.51"/><path d="M760,407L685,538L815,475Z" fill="#fffc99" stroke="#fffc99" stroke-width="1.51"/><path d="M815,475L824,679L1016,467Z" fill="#fff18a" stroke="#fff18a" stroke-width="1.51"/><path d="M546,417L685,538L760,407Z" fill="#fffa99" stroke="#fffa99" stroke-width="1.51"/><path d="M1016,467L1017,275L842,325Z" fill="#ffe986" stroke="#ffe986" stroke-width="1.51"/><path d="M1016,467L1079,374L1017,275Z" fill="#ffe783" stroke="#ffe783" stroke-width="1.51"/><path d="M685,538L824,679L815,475Z" fill="#fff58f" stroke="#fff58f" stroke-width="1.51"/><path d="M695,277L546,417L760,407Z" fill="#fff394" stroke="#fff394" stroke-width="1.51"/><path d="M685,538L523,540L685,629Z" fill="#fff18e" stroke="#fff18e" stroke-width="1.51"/><path d="M572,72L589,280L695,277Z" fill="#ffe086" stroke="#ffe086" stroke-width="1.51"/><path d="M685,629L824,679L685,538Z" fill="#fff48e" stroke="#fff48e" stroke-width="1.51"/><path d="M589,280L546,417L695,277Z" fill="#ffea8e" stroke="#ffea8e" stroke-width="1.51"/><path d="M1016,467L1150,417L1079,374Z" fill="#ffea83" stroke="#ffea83" stroke-width="1.51"/><path d="M1176,189L1061,78L1017,275Z" fill="#ffd372" stroke="#ffd372" stroke-width="1.51"/><path d="M1160,584L1150,417L1016,467Z" fill="#ffe980" stroke="#ffe980" stroke-width="1.51"/><path d="M1017,275L909,94L829,202Z" fill="#ffdc7d" stroke="#ffdc7d" stroke-width="1.51"/><path d="M829,202L767,42L695,277Z" fill="#ffe286" stroke="#ffe286" stroke-width="1.51"/><path d="M1061,78L909,94L1017,275Z" fill="#ffd475" stroke="#ffd475" stroke-width="1.51"/><path d="M546,417L523,540L685,538Z" fill="#fff291" stroke="#fff291" stroke-width="1.51"/><path d="M909,94L767,42L829,202Z" fill="#ffd87d" stroke="#ffd87d" stroke-width="1.51"/><path d="M685,629L739,802L824,679Z" fill="#ffed85" stroke="#ffed85" stroke-width="1.51"/><path d="M523,540L615,695L685,629Z" fill="#ffeb88" stroke="#ffeb88" stroke-width="1.51"/><path d="M824,679L1061,694L1016,467Z" fill="#ffe87f" stroke="#ffe87f" stroke-width="1.51"/><path d="M855,817L1061,694L824,679Z" fill="#ffe378" stroke="#ffe378" stroke-width="1.51"/><path d="M1061,694L1160,584L1016,467Z" fill="#ffe47a" stroke="#ffe47a" stroke-width="1.51"/><path d="M1176,189L1017,275L1079,374Z" fill="#ffdb79" stroke="#ffdb79" stroke-width="1.51"/><path d="M909,94L852,-31L767,42Z" fill="#ffd078" stroke="#ffd078" stroke-width="1.51"/><path d="M1286,327L1176,189L1150,417Z" fill="#ffd973" stroke="#ffd973" stroke-width="1.51"/><path d="M1150,417L1176,189L1079,374Z" fill="#ffde79" stroke="#ffde79" stroke-width="1.51"/><path d="M589,280L433,332L546,417Z" fill="#ffe68a" stroke="#ffe68a" stroke-width="1.51"/><path d="M546,417L396,494L523,540Z" fill="#ffec8d" stroke="#ffec8d" stroke-width="1.51"/><path d="M397,258L433,332L589,280Z" fill="#ffdc84" stroke="#ffdc84" stroke-width="1.51"/><path d="M615,695L739,802L685,629Z" fill="#ffeb84" stroke="#ffeb84" stroke-width="1.51"/><path d="M1151,778L1137,686L1061,694Z" fill="#ffda6b" stroke="#ffda6b" stroke-width="1.51"/><path d="M1061,694L1137,686L1160,584Z" fill="#ffde71" stroke="#ffde71" stroke-width="1.51"/><path d="M739,802L855,817L824,679Z" fill="#ffe67c" stroke="#ffe67c" stroke-width="1.51"/><path d="M767,42L572,72L695,277Z" fill="#ffdc84" stroke="#ffdc84" stroke-width="1.51"/><path d="M1028,-48L852,-31L909,94Z" fill="#ffc870" stroke="#ffc870" stroke-width="1.51"/><path d="M767,42L699,-79L572,72Z" fill="#ffd07b" stroke="#ffd07b" stroke-width="1.51"/><path d="M523,540L430,618L615,695Z" fill="#ffe584" stroke="#ffe584" stroke-width="1.51"/><path d="M433,332L396,494L546,417Z" fill="#ffe88c" stroke="#ffe88c" stroke-width="1.51"/><path d="M1061,78L1028,-48L909,94Z" fill="#ffc86e" stroke="#ffc86e" stroke-width="1.51"/><path d="M1176,189L1154,77L1061,78Z" fill="#ffc96a" stroke="#ffc96a" stroke-width="1.51"/><path d="M855,817L1041,807L1061,694Z" fill="#ffdd70" stroke="#ffdd70" stroke-width="1.51"/><path d="M1283,505L1150,417L1160,584Z" fill="#ffe379" stroke="#ffe379" stroke-width="1.51"/><path d="M1283,505L1286,327L1150,417Z" fill="#ffe178" stroke="#ffe178" stroke-width="1.51"/><path d="M1176,189L1356,128L1154,77Z" fill="#ffc665" stroke="#ffc665" stroke-width="1.51"/><path d="M1344,639L1283,505L1160,584Z" fill="#ffdc6e" stroke="#ffdc6e" stroke-width="1.51"/><path d="M1344,639L1160,584L1137,686Z" fill="#ffda6c" stroke="#ffda6c" stroke-width="1.51"/><path d="M615,695L576,871L739,802Z" fill="#ffe37b" stroke="#ffe37b" stroke-width="1.51"/><path d="M396,494L430,618L523,540Z" fill="#ffe485" stroke="#ffe485" stroke-width="1.51"/><path d="M433,332L279,387L396,494Z" fill="#ffe086" stroke="#ffe086" stroke-width="1.51"/><path d="M572,72L397,258L589,280Z" fill="#ffd880" stroke="#ffd880" stroke-width="1.51"/><path d="M1154,77L1028,-48L1061,78Z" fill="#ffc468" stroke="#ffc468" stroke-width="1.51"/><path d="M1041,807L1151,778L1061,694Z" fill="#ffd96a" stroke="#ffd96a" stroke-width="1.51"/><path d="M614,-218L699,-79L733,-281Z" fill="#ffbc6e" stroke="#ffbc6e" stroke-width="1.51"/><path d="M852,-31L699,-79L767,42Z" fill="#ffce78" stroke="#ffce78" stroke-width="1.51"/><path d="M572,72L382,126L397,258Z" fill="#ffcd79" stroke="#ffcd79" stroke-width="1.51"/><path d="M1286,327L1328,248L1176,189Z" fill="#ffd06b" stroke="#ffd06b" stroke-width="1.51"/><path d="M1154,77L1172,-90L1028,-48Z" fill="#ffbc61" stroke="#ffbc61" stroke-width="1.51"/><path d="M1418,253L1328,248L1286,327Z" fill="#ffcf67" stroke="#ffcf67" stroke-width="1.51"/><path d="M699,-79L573,-43L572,72Z" fill="#ffc876" stroke="#ffc876" stroke-width="1.51"/><path d="M427,-65L382,126L572,72Z" fill="#ffc372" stroke="#ffc372" stroke-width="1.51"/><path d="M397,258L279,387L433,332Z" fill="#ffd881" stroke="#ffd881" stroke-width="1.51"/><path d="M855,817L956,922L1041,807Z" fill="#ffda6b" stroke="#ffda6b" stroke-width="1.51"/><path d="M1041,807L1133,968L1151,778Z" fill="#ffd260" stroke="#ffd260" stroke-width="1.51"/><path d="M884,1012L956,922L855,817Z" fill="#ffd869" stroke="#ffd869" stroke-width="1.51"/><path d="M397,835L576,871L615,695Z" fill="#ffda74" stroke="#ffda74" stroke-width="1.51"/><path d="M739,802L746,1003L855,817Z" fill="#ffe074" stroke="#ffe074" stroke-width="1.51"/><path d="M302,167L279,387L397,258Z" fill="#ffd07a" stroke="#ffd07a" stroke-width="1.51"/><path d="M396,494L271,509L430,618Z" fill="#ffde81" stroke="#ffde81" stroke-width="1.51"/><path d="M430,618L397,835L615,695Z" fill="#ffdc79" stroke="#ffdc79" stroke-width="1.51"/><path d="M1466,386L1418,253L1286,327Z" fill="#ffd168" stroke="#ffd168" stroke-width="1.51"/><path d="M1306,764L1344,639L1137,686Z" fill="#ffd463" stroke="#ffd463" stroke-width="1.51"/><path d="M1306,764L1137,686L1151,778Z" fill="#ffd464" stroke="#ffd464" stroke-width="1.51"/><path d="M279,387L271,509L396,494Z" fill="#ffdf86" stroke="#ffdf86" stroke-width="1.51"/><path d="M333,79L302,167L382,126Z" fill="#ffc271" stroke="#ffc271" stroke-width="1.51"/><path d="M382,126L302,167L397,258Z" fill="#ffc976" stroke="#ffc976" stroke-width="1.51"/><path d="M1328,248L1356,128L1176,189Z" fill="#ffc965" stroke="#ffc965" stroke-width="1.51"/><path d="M1418,253L1356,128L1328,248Z" fill="#ffc661" stroke="#ffc661" stroke-width="1.51"/><path d="M1133,968L1306,764L1151,778Z" fill="#ffcf5c" stroke="#ffcf5c" stroke-width="1.51"/><path d="M1336,-87L1172,-90L1154,77Z" fill="#ffb65a" stroke="#ffb65a" stroke-width="1.51"/><path d="M847,-274L699,-79L852,-31Z" fill="#ffc16f" stroke="#ffc16f" stroke-width="1.51"/><path d="M427,-65L333,79L382,126Z" fill="#ffbd6e" stroke="#ffbd6e" stroke-width="1.51"/><path d="M1466,386L1286,327L1283,505Z" fill="#ffdb70" stroke="#ffdb70" stroke-width="1.51"/><path d="M576,871L746,1003L739,802Z" fill="#ffe075" stroke="#ffe075" stroke-width="1.51"/><path d="M1344,639L1421,584L1283,505Z" fill="#ffd868" stroke="#ffd868" stroke-width="1.51"/><path d="M1509,672L1421,584L1344,639Z" fill="#ffd05f" stroke="#ffd05f" stroke-width="1.51"/><path d="M956,922L1133,968L1041,807Z" fill="#ffd260" stroke="#ffd260" stroke-width="1.51"/><path d="M746,1003L884,1012L855,817Z" fill="#ffda6b" stroke="#ffda6b" stroke-width="1.51"/><path d="M576,871L595,1086L746,1003Z" fill="#ffd66a" stroke="#ffd66a" stroke-width="1.51"/><path d="M232,793L397,835L430,618Z" fill="#ffd06f" stroke="#ffd06f" stroke-width="1.51"/><path d="M573,-43L427,-65L572,72Z" fill="#ffc271" stroke="#ffc271" stroke-width="1.51"/><path d="M614,-218L427,-65L573,-43Z" fill="#ffb96c" stroke="#ffb96c" stroke-width="1.51"/><path d="M397,835L516,942L576,871Z" fill="#ffd26b" stroke="#ffd26b" stroke-width="1.51"/><path d="M1421,584L1466,386L1283,505Z" fill="#ffdb6d" stroke="#ffdb6d" stroke-width="1.51"/><path d="M1117,1058L1133,968L956,922Z" fill="#ffcb57" stroke="#ffcb57" stroke-width="1.51"/><path d="M1569,87L1427,118L1624,174Z" fill="#ffb64f" stroke="#ffb64f" stroke-width="1.51"/><path d="M1418,253L1427,118L1356,128Z" fill="#ffc15c" stroke="#ffc15c" stroke-width="1.51"/><path d="M1356,128L1336,-87L1154,77Z" fill="#ffba5b" stroke="#ffba5b" stroke-width="1.51"/><path d="M699,-79L614,-218L573,-43Z" fill="#ffc070" stroke="#ffc070" stroke-width="1.51"/><path d="M847,-274L852,-31L1028,-48Z" fill="#ffbd68" stroke="#ffbd68" stroke-width="1.51"/><path d="M884,1012L920,1065L956,922Z" fill="#ffd260" stroke="#ffd260" stroke-width="1.51"/><path d="M743,1078L920,1065L884,1012Z" fill="#ffd260" stroke="#ffd260" stroke-width="1.51"/><path d="M743,1078L884,1012L746,1003Z" fill="#ffd666" stroke="#ffd666" stroke-width="1.51"/><path d="M1039,-256L847,-274L1028,-48Z" fill="#ffb260" stroke="#ffb260" stroke-width="1.51"/><path d="M271,509L212,673L430,618Z" fill="#ffd679" stroke="#ffd679" stroke-width="1.51"/><path d="M397,835L439,956L516,942Z" fill="#ffcc66" stroke="#ffcc66" stroke-width="1.51"/><path d="M169,655L212,673L271,509Z" fill="#ffce74" stroke="#ffce74" stroke-width="1.51"/><path d="M169,655L271,509L125,543Z" fill="#ffcf76" stroke="#ffcf76" stroke-width="1.51"/><path d="M595,1086L743,1078L746,1003Z" fill="#ffd667" stroke="#ffd667" stroke-width="1.51"/><path d="M285,1024L439,956L397,835Z" fill="#ffc560" stroke="#ffc560" stroke-width="1.51"/><path d="M595,1086L576,871L516,942Z" fill="#ffd168" stroke="#ffd168" stroke-width="1.51"/><path d="M1143,-259L1039,-256L1172,-90Z" fill="#ffaa55" stroke="#ffaa55" stroke-width="1.51"/><path d="M1172,-90L1039,-256L1028,-48Z" fill="#ffb35d" stroke="#ffb35d" stroke-width="1.51"/><path d="M847,-274L733,-281L699,-79Z" fill="#ffbb6c" stroke="#ffbb6c" stroke-width="1.51"/><path d="M1427,118L1336,-87L1356,128Z" fill="#ffb756" stroke="#ffb756" stroke-width="1.51"/><path d="M212,673L232,793L430,618Z" fill="#ffce71" stroke="#ffce71" stroke-width="1.51"/><path d="M125,543L271,509L279,387Z" fill="#ffd77f" stroke="#ffd77f" stroke-width="1.51"/><path d="M920,1065L1117,1058L956,922Z" fill="#ffcd59" stroke="#ffcd59" stroke-width="1.51"/><path d="M1342,1028L1456,868L1306,764Z" fill="#ffc24b" stroke="#ffc24b" stroke-width="1.51"/><path d="M957,1126L1117,1058L920,1065Z" fill="#ffc853" stroke="#ffc853" stroke-width="1.51"/><path d="M166,767L232,793L212,673Z" fill="#ffc568" stroke="#ffc568" stroke-width="1.51"/><path d="M1652,564L1654,416L1466,386Z" fill="#ffd362" stroke="#ffd362" stroke-width="1.51"/><path d="M1569,87L1462,-63L1427,118Z" fill="#ffb04e" stroke="#ffb04e" stroke-width="1.51"/><path d="M1306,764L1509,672L1344,639Z" fill="#ffcf5b" stroke="#ffcf5b" stroke-width="1.51"/><path d="M1456,868L1509,672L1306,764Z" fill="#ffc852" stroke="#ffc852" stroke-width="1.51"/><path d="M68,396L279,387L69,167Z" fill="#ffc574" stroke="#ffc574" stroke-width="1.51"/><path d="M68,396L125,543L279,387Z" fill="#ffd37d" stroke="#ffd37d" stroke-width="1.51"/><path d="M743,1078L957,1126L920,1065Z" fill="#ffce5b" stroke="#ffce5b" stroke-width="1.51"/><path d="M466,1132L595,1086L516,942Z" fill="#ffca5f" stroke="#ffca5f" stroke-width="1.51"/><path d="M466,1132L516,942L439,956Z" fill="#ffc85f" stroke="#ffc85f" stroke-width="1.51"/><path d="M847,-274L1514,-269L733,-281Z" fill="#ffa756" stroke="#ffa756" stroke-width="1.51"/><path d="M1039,-256L1143,-259L847,-274Z" fill="#ffa958" stroke="#ffa958" stroke-width="1.51"/><path d="M1273,-243L1143,-259L1172,-90Z" fill="#ffa650" stroke="#ffa650" stroke-width="1.51"/><path d="M466,1132L957,1126L743,1078Z" fill="#ffd463" stroke="#ffd463" stroke-width="1.51"/><path d="M333,79L163,81L302,167Z" fill="#ffba6c" stroke="#ffba6c" stroke-width="1.51"/><path d="M270,-99L163,81L333,79Z" fill="#ffb166" stroke="#ffb166" stroke-width="1.51"/><path d="M270,-99L333,79L427,-65Z" fill="#ffb267" stroke="#ffb267" stroke-width="1.51"/><path d="M392,-236L270,-99L427,-65Z" fill="#ffa961" stroke="#ffa961" stroke-width="1.51"/><path d="M392,-236L427,-65L614,-218Z" fill="#ffae64" stroke="#ffae64" stroke-width="1.51"/><path d="M285,1024L466,1132L439,956Z" fill="#ffc059" stroke="#ffc059" stroke-width="1.51"/><path d="M169,655L166,767L212,673Z" fill="#ffc66a" stroke="#ffc66a" stroke-width="1.51"/><path d="M24,855L166,767L-72,659Z" fill="#ffb75d" stroke="#ffb75d" stroke-width="1.51"/><path d="M69,167L279,387L302,167Z" fill="#ffc473" stroke="#ffc473" stroke-width="1.51"/><path d="M125,543L-72,659L169,655Z" fill="#ffc36c" stroke="#ffc36c" stroke-width="1.51"/><path d="M1342,1028L1306,764L1133,968Z" fill="#ffc64f" stroke="#ffc64f" stroke-width="1.51"/><path d="M733,-281L392,-236L614,-218Z" fill="#ffaf64" stroke="#ffaf64" stroke-width="1.51"/><path d="M1336,-87L1273,-243L1172,-90Z" fill="#ffa950" stroke="#ffa950" stroke-width="1.51"/><path d="M1514,-269L1273,-243L1336,-87Z" fill="#ff9d44" stroke="#ff9d44" stroke-width="1.51"/><path d="M1427,118L1418,253L1624,174Z" fill="#ffbe57" stroke="#ffbe57" stroke-width="1.51"/><path d="M1427,118L1462,-63L1336,-87Z" fill="#ffae4f" stroke="#ffae4f" stroke-width="1.51"/><path d="M1624,174L1418,253L1466,386Z" fill="#ffc75c" stroke="#ffc75c" stroke-width="1.51"/><path d="M163,81L69,167L302,167Z" fill="#ffb669" stroke="#ffb669" stroke-width="1.51"/><path d="M-22,131L69,167L163,81Z" fill="#ffad63" stroke="#ffad63" stroke-width="1.51"/><path d="M1293,1175L1342,1028L1117,1058Z" fill="#ffbb41" stroke="#ffbb41" stroke-width="1.51"/><path d="M1117,1058L1342,1028L1133,968Z" fill="#ffc24b" stroke="#ffc24b" stroke-width="1.51"/><path d="M1652,564L1466,386L1421,584Z" fill="#ffd462" stroke="#ffd462" stroke-width="1.51"/><path d="M1652,564L1421,584L1509,672Z" fill="#ffcd59" stroke="#ffcd59" stroke-width="1.51"/><path d="M285,1024L397,835L232,793Z" fill="#ffc361" stroke="#ffc361" stroke-width="1.51"/><path d="M595,1086L466,1132L743,1078Z" fill="#ffcc5e" stroke="#ffcc5e" stroke-width="1.51"/><path d="M31,215L17,382L68,396Z" fill="#ffbf6f" stroke="#ffbf6f" stroke-width="1.51"/><path d="M68,396L21,515L125,543Z" fill="#ffcb77" stroke="#ffcb77" stroke-width="1.51"/><path d="M1654,416L1624,174L1466,386Z" fill="#ffc85b" stroke="#ffc85b" stroke-width="1.51"/><path d="M1572,797L1509,672L1456,868Z" fill="#ffc24b" stroke="#ffc24b" stroke-width="1.51"/><path d="M1572,797L1618,655L1509,672Z" fill="#ffc44d" stroke="#ffc44d" stroke-width="1.51"/><path d="M17,382L21,515L68,396Z" fill="#ffc876" stroke="#ffc876" stroke-width="1.51"/><path d="M-22,131L31,215L69,167Z" fill="#ffae64" stroke="#ffae64" stroke-width="1.51"/><path d="M69,167L31,215L68,396Z" fill="#ffb96c" stroke="#ffb96c" stroke-width="1.51"/><path d="M1618,655L1652,564L1509,672Z" fill="#ffc853" stroke="#ffc853" stroke-width="1.51"/><path d="M63,1002L285,1024L232,793Z" fill="#ffb756" stroke="#ffb756" stroke-width="1.51"/><path d="M269,1087L285,1024L63,1002Z" fill="#ffb14e" stroke="#ffb14e" stroke-width="1.51"/><path d="M-81,-15L-22,131L163,81Z" fill="#ffa25c" stroke="#ffa25c" stroke-width="1.51"/><path d="M392,-236L332,-260L270,-99Z" fill="#ffa05b" stroke="#ffa05b" stroke-width="1.51"/><path d="M733,-281L332,-260L392,-236Z" fill="#ffa65e" stroke="#ffa65e" stroke-width="1.51"/><path d="M1617,950L1572,797L1456,868Z" fill="#ffba3f" stroke="#ffba3f" stroke-width="1.51"/><path d="M1618,655L1617,950L1652,564Z" fill="#ffc048" stroke="#ffc048" stroke-width="1.51"/><path d="M1342,1028L1460,967L1456,868Z" fill="#ffbc41" stroke="#ffbc41" stroke-width="1.51"/><path d="M285,1024L269,1087L466,1132Z" fill="#ffb952" stroke="#ffb952" stroke-width="1.51"/><path d="M25,934L232,793L166,767Z" fill="#ffba5d" stroke="#ffba5d" stroke-width="1.51"/><path d="M1342,1028L1482,1068L1460,967Z" fill="#ffb73a" stroke="#ffb73a" stroke-width="1.51"/><path d="M957,1126L1293,1175L1117,1058Z" fill="#ffc046" stroke="#ffc046" stroke-width="1.51"/><path d="M466,1132L1293,1175L957,1126Z" fill="#ffc954" stroke="#ffc954" stroke-width="1.51"/><path d="M-171,225L-166,373L17,382Z" fill="#ffb368" stroke="#ffb368" stroke-width="1.51"/><path d="M-142,562L-72,659L21,515Z" fill="#ffba68" stroke="#ffba68" stroke-width="1.51"/><path d="M92,-115L163,81L270,-99Z" fill="#ffa35d" stroke="#ffa35d" stroke-width="1.51"/><path d="M68,-208L92,-115L270,-99Z" fill="#ff9655" stroke="#ff9655" stroke-width="1.51"/><path d="M1462,-63L1514,-269L1336,-87Z" fill="#ff9f45" stroke="#ff9f45" stroke-width="1.51"/><path d="M1569,87L1637,-25L1462,-63Z" fill="#ffa846" stroke="#ffa846" stroke-width="1.51"/><path d="M1624,174L1637,-25L1569,87Z" fill="#ffad48" stroke="#ffad48" stroke-width="1.51"/><path d="M1654,416L1637,-25L1624,174Z" fill="#ffb74d" stroke="#ffb74d" stroke-width="1.51"/><path d="M1293,1175L1482,1068L1342,1028Z" fill="#ffb536" stroke="#ffb536" stroke-width="1.51"/><path d="M1460,967L1617,950L1456,868Z" fill="#ffb93d" stroke="#ffb93d" stroke-width="1.51"/><path d="M1572,797L1617,950L1618,655Z" fill="#ffbd42" stroke="#ffbd42" stroke-width="1.51"/><path d="M-72,659L125,543L21,515Z" fill="#ffc16d" stroke="#ffc16d" stroke-width="1.51"/><path d="M-72,659L166,767L169,655Z" fill="#ffbf66" stroke="#ffbf66" stroke-width="1.51"/><path d="M-142,562L21,515L-166,373Z" fill="#ffbe6e" stroke="#ffbe6e" stroke-width="1.51"/><path d="M1664,-209L1514,-269L1462,-63Z" fill="#ff953a" stroke="#ff953a" stroke-width="1.51"/><path d="M1273,-243L1514,-269L1143,-259Z" fill="#ff9a45" stroke="#ff9a45" stroke-width="1.51"/><path d="M1143,-259L1514,-269L847,-274Z" fill="#ffa04d" stroke="#ffa04d" stroke-width="1.51"/><path d="M1482,1068L1617,950L1460,967Z" fill="#ffb435" stroke="#ffb435" stroke-width="1.51"/><path d="M24,855L25,934L166,767Z" fill="#ffb358" stroke="#ffb358" stroke-width="1.51"/><path d="M-168,793L25,934L24,855Z" fill="#ffaa51" stroke="#ffaa51" stroke-width="1.51"/><path d="M25,934L63,1002L232,793Z" fill="#ffb254" stroke="#ffb254" stroke-width="1.51"/><path d="M332,-260L68,-208L270,-99Z" fill="#ff9856" stroke="#ff9856" stroke-width="1.51"/><path d="M92,-115L-81,-15L163,81Z" fill="#ff9d59" stroke="#ff9d59" stroke-width="1.51"/><path d="M-72,659L-168,793L24,855Z" fill="#ffad57" stroke="#ffad57" stroke-width="1.51"/><path d="M-166,373L21,515L17,382Z" fill="#ffc271" stroke="#ffc271" stroke-width="1.51"/><path d="M17,382L31,215L-171,225Z" fill="#ffb367" stroke="#ffb367" stroke-width="1.51"/><path d="M-171,225L31,215L-22,131Z" fill="#ffa961" stroke="#ffa961" stroke-width="1.51"/><path d="M-56,-224L-81,-15L92,-115Z" fill="#ff8c4f" stroke="#ff8c4f" stroke-width="1.51"/><path d="M-188,87L-171,225L-22,131Z" fill="#ff9f5b" stroke="#ff9f5b" stroke-width="1.51"/><path d="M1637,-25L1664,-209L1462,-63Z" fill="#ff9c3d" stroke="#ff9c3d" stroke-width="1.51"/><path d="M1654,416L1664,-209L1637,-25Z" fill="#ffa943" stroke="#ffa943" stroke-width="1.51"/><path d="M1666,1126L1664,-209L1654,416Z" fill="#ffd05e" stroke="#ffd05e" stroke-width="1.51"/><path d="M-45,1163L89,1146L63,1002Z" fill="#ff9f40" stroke="#ff9f40" stroke-width="1.51"/><path d="M63,1002L89,1146L269,1087Z" fill="#ffa948" stroke="#ffa948" stroke-width="1.51"/><path d="M269,1087L89,1146L466,1132Z" fill="#ffb14b" stroke="#ffb14b" stroke-width="1.51"/><path d="M466,1132L-45,1163L1293,1175Z" fill="#ffc658" stroke="#ffc658" stroke-width="1.51"/><path d="M-45,1163L63,1002L-196,1023Z" fill="#ff9a3e" stroke="#ff9a3e" stroke-width="1.51"/><path d="M-81,-15L-188,87L-22,131Z" fill="#ff9957" stroke="#ff9957" stroke-width="1.51"/><path d="M-171,225L-211,670L-166,373Z" fill="#ffb76a" stroke="#ffb76a" stroke-width="1.51"/><path d="M-231,-100L-188,87L-81,-15Z" fill="#ff8b4e" stroke="#ff8b4e" stroke-width="1.51"/><path d="M-211,670L-168,793L-72,659Z" fill="#ffab58" stroke="#ffab58" stroke-width="1.51"/><path d="M-211,670L-72,659L-142,562Z" fill="#ffb15f" stroke="#ffb15f" stroke-width="1.51"/><path d="M-211,670L-142,562L-166,373Z" fill="#ffb565" stroke="#ffb565" stroke-width="1.51"/><path d="M-188,87L-211,670L-171,225Z" fill="#ffad63" stroke="#ffad63" stroke-width="1.51"/><path d="M68,-208L-56,-224L92,-115Z" fill="#ff894d" stroke="#ff894d" stroke-width="1.51"/><path d="M-136,-269L-56,-224L68,-208Z" fill="#ff7c46" stroke="#ff7c46" stroke-width="1.51"/><path d="M1482,1068L1666,1126L1617,950Z" fill="#ffad29" stroke="#ffad29" stroke-width="1.51"/><path d="M1617,950L1666,1126L1652,564Z" fill="#ffb537" stroke="#ffb537" stroke-width="1.51"/><path d="M1652,564L1666,1126L1654,416Z" fill="#ffc047" stroke="#ffc047" stroke-width="1.51"/><path d="M1293,1175L1666,1126L1482,1068Z" fill="#ffae2a" stroke="#ffae2a" stroke-width="1.51"/><path d="M89,1146L-45,1163L466,1132Z" fill="#ffa743" stroke="#ffa743" stroke-width="1.51"/><path d="M-196,1023L63,1002L25,934Z" fill="#ffa147" stroke="#ffa147" stroke-width="1.51"/><path d="M-196,1023L25,934L-168,793Z" fill="#ffa048" stroke="#ffa048" stroke-width="1.51"/><path d="M-188,87L-231,-100L-211,670Z" fill="#ffa05b" stroke="#ffa05b" stroke-width="1.51"/><path d="M-56,-224L-231,-100L-81,-15Z" fill="#ff8349" stroke="#ff8349" stroke-width="1.51"/><path d="M-56,-224L-136,-269L-231,-100Z" fill="#ff7843" stroke="#ff7843" stroke-width="1.51"/><path d="M332,-260L-136,-269L68,-208Z" fill="#ff864b" stroke="#ff864b" stroke-width="1.51"/><path d="M733,-281L-136,-269L332,-260Z" fill="#ff9655" stroke="#ff9655" stroke-width="1.51"/><path d="M-211,670L-196,1023L-168,793Z" fill="#ffa04b" stroke="#ffa04b" stroke-width="1.51"/><path d="M-196,1023L-201,1160L-45,1163Z" fill="#ff9035" stroke="#ff9035" stroke-width="1.51"/><path d="M-211,670L-201,1160L-196,1023Z" fill="#ff9641" stroke="#ff9641" stroke-width="1.51"/><path d="M-231,-100L-201,1160L-211,670Z" fill="#ffaf60" stroke="#ffaf60" stroke-width="1.51"/></svg>