<svg xmlns="http://www.w3.org/2000/svg" width="1440" height="900"><path d="M835,558L972,432L773,438Z" fill="#ff9c5d" stroke="#ff9c5d" stroke-width="1.51"/><path d="M972,432L827,209L773,438Z" fill="#ff985b" stroke="#ff985b" stroke-width="1.51"/><path d="M835,558L996,674L972,432Z" fill="#ffa060" stroke="#ffa060" stroke-width="1.51"/><path d="M972,432L1139,420L1048,324Z" fill="#ff9e5f" stroke="#ff9e5f" stroke-width="1.51"/><path d="M1048,324L827,209L972,432Z" fill="#ff995c" stroke="#ff995c" stroke-width="1.51"/><path d="M773,438L607,661L835,558Z" fill="#ff9b5d" stroke="#ff9b5d" stroke-width="1.51"/><path d="M835,558L903,788L996,674Z" fill="#ffa363" stroke="#ffa363" stroke-width="1.51"/><path d="M643,303L614,432L773,438Z" fill="#ff9558" stroke="#ff9558" stroke-width="1.51"/><path d="M996,674L1139,420L972,432Z" fill="#ffa161" stroke="#ffa161" stroke-width="1.51"/><path d="M827,209L643,303L773,438Z" fill="#ff9458" stroke="#ff9458" stroke-width="1.51"/><path d="M827,209L822,185L643,303Z" fill="#ff9156" stroke="#ff9156" stroke-width="1.51"/><path d="M985,163L822,185L827,209Z" fill="#ff9357" stroke="#ff9357" stroke-width="1.51"/><path d="M1048,324L985,163L827,209Z" fill="#ff965a" stroke="#ff965a" stroke-width="1.51"/><path d="M1127,214L985,163L1048,324Z" fill="#ff985b" stroke="#ff985b" stroke-width="1.51"/><path d="M840,788L903,788L835,558Z" fill="#ffa363" stroke="#ffa363" stroke-width="1.51"/><path d="M607,661L840,788L835,558Z" fill="#ff9f60" stroke="#ff9f60" stroke-width="1.51"/><path d="M614,432L607,661L773,438Z" fill="#ff985b" stroke="#ff985b" stroke-width="1.51"/><path d="M1139,420L1127,214L1048,324Z" fill="#ff9c5e" stroke="#ff9c5e" stroke-width="1.51"/><path d="M996,674L1177,696L1139,420Z" fill="#ffa564" stroke="#ffa564" stroke-width="1.51"/><path d="M1139,420L1274,335L1127,214Z" fill="#ff9e60" stroke="#ff9e60" stroke-width="1.51"/><path d="M1229,839L1177,696L1188,900Z" fill="#ffae6b" stroke="#ffae6b" stroke-width="1.51"/><path d="M335,370L466,531L614,432Z" fill="#ff9156" stroke="#ff9156" stroke-width="1.51"/><path d="M822,185L642,130L643,303Z" fill="#ff8f55" stroke="#ff8f55" stroke-width="1.51"/><path d="M708,-71L642,130L822,185Z" fill="#ff8c52" stroke="#ff8c52" stroke-width="1.51"/><path d="M614,432L466,531L607,661Z" fill="#ff975a" stroke="#ff975a" stroke-width="1.51"/><path d="M502,206L614,432L643,303Z" fill="#ff9055" stroke="#ff9055" stroke-width="1.51"/><path d="M1297,384L1274,335L1139,420Z" fill="#ffa262" stroke="#ffa262" stroke-width="1.51"/><path d="M1177,696L1244,675L1139,420Z" fill="#ffa766" stroke="#ffa766" stroke-width="1.51"/><path d="M1229,839L1244,675L1177,696Z" fill="#ffac6a" stroke="#ffac6a" stroke-width="1.51"/><path d="M1244,675L1297,384L1139,420Z" fill="#ffa564" stroke="#ffa564" stroke-width="1.51"/><path d="M607,661L592,813L840,788Z" fill="#ffa061" stroke="#ffa061" stroke-width="1.51"/><path d="M840,788L912,1012L903,788Z" fill="#ffa867" stroke="#ffa867" stroke-width="1.51"/><path d="M504,751L592,813L607,661Z" fill="#ff9d5e" stroke="#ff9d5e" stroke-width="1.51"/><path d="M642,130L502,206L643,303Z" fill="#ff8d53" stroke="#ff8d53" stroke-width="1.51"/><path d="M1127,214L1084,46L985,163Z" fill="#ff965a" stroke="#ff965a" stroke-width="1.51"/><path d="M985,163L848,-58L822,185Z" fill="#ff9055" stroke="#ff9055" stroke-width="1.51"/><path d="M1274,167L1084,46L1127,214Z" fill="#ff985b" stroke="#ff985b" stroke-width="1.51"/><path d="M397,635L504,751L607,661Z" fill="#ff9a5c" stroke="#ff9a5c" stroke-width="1.51"/><path d="M642,130L535,113L502,206Z" fill="#ff8a51" stroke="#ff8a51" stroke-width="1.51"/><path d="M505,-2L535,113L642,130Z" fill="#ff884f" stroke="#ff884f" stroke-width="1.51"/><path d="M417,912L702,927L592,813Z" fill="#ffa162" stroke="#ffa162" stroke-width="1.51"/><path d="M592,813L702,927L840,788Z" fill="#ffa463" stroke="#ffa463" stroke-width="1.51"/><path d="M1188,900L1177,696L996,674Z" fill="#ffab69" stroke="#ffab69" stroke-width="1.51"/><path d="M1462,249L1274,167L1274,335Z" fill="#ff9f61" stroke="#ff9f61" stroke-width="1.51"/><path d="M1274,335L1274,167L1127,214Z" fill="#ff9d5e" stroke="#ff9d5e" stroke-width="1.51"/><path d="M466,531L397,635L607,661Z" fill="#ff975a" stroke="#ff975a" stroke-width="1.51"/><path d="M335,370L397,635L466,531Z" fill="#ff9257" stroke="#ff9257" stroke-width="1.51"/><path d="M1244,675L1453,433L1297,384Z" fill="#ffa766" stroke="#ffa766" stroke-width="1.51"/><path d="M1188,900L996,674L903,788Z" fill="#ffa967" stroke="#ffa967" stroke-width="1.51"/><path d="M951,-54L848,-58L985,163Z" fill="#ff8e54" stroke="#ff8e54" stroke-width="1.51"/><path d="M1084,46L951,-54L985,163Z" fill="#ff9257" stroke="#ff9257" stroke-width="1.51"/><path d="M1134,-51L951,-54L1084,46Z" fill="#ff9055" stroke="#ff9055" stroke-width="1.51"/><path d="M912,1012L1188,900L903,788Z" fill="#ffac6a" stroke="#ffac6a" stroke-width="1.51"/><path d="M502,206L335,370L614,432Z" fill="#ff8e54" stroke="#ff8e54" stroke-width="1.51"/><path d="M233,216L335,370L502,206Z" fill="#ff8850" stroke="#ff8850" stroke-width="1.51"/><path d="M779,1029L912,1012L840,788Z" fill="#ffaa68" stroke="#ffaa68" stroke-width="1.51"/><path d="M848,-58L708,-71L822,185Z" fill="#ff8b52" stroke="#ff8b52" stroke-width="1.51"/><path d="M726,-229L708,-71L848,-58Z" fill="#ff864e" stroke="#ff864e" stroke-width="1.51"/><path d="M1188,900L1294,847L1229,839Z" fill="#ffb16d" stroke="#ffb16d" stroke-width="1.51"/><path d="M1229,839L1294,847L1244,675Z" fill="#ffae6b" stroke="#ffae6b" stroke-width="1.51"/><path d="M702,927L779,1029L840,788Z" fill="#ffa766" stroke="#ffa766" stroke-width="1.51"/><path d="M708,1175L779,1029L702,927Z" fill="#ffaa68" stroke="#ffaa68" stroke-width="1.51"/><path d="M1274,167L1134,-51L1084,46Z" fill="#ff9559" stroke="#ff9559" stroke-width="1.51"/><path d="M951,-54L929,-172L848,-58Z" fill="#ff8a51" stroke="#ff8a51" stroke-width="1.51"/><path d="M1297,384L1462,249L1274,335Z" fill="#ffa262" stroke="#ffa262" stroke-width="1.51"/><path d="M1274,167L1324,-49L1134,-51Z" fill="#ff965a" stroke="#ff965a" stroke-width="1.51"/><path d="M1467,635L1453,433L1244,675Z" fill="#ffac69" stroke="#ffac69" stroke-width="1.51"/><path d="M397,635L338,687L504,751Z" fill="#ff985b" stroke="#ff985b" stroke-width="1.51"/><path d="M504,751L417,912L592,813Z" fill="#ff9e5f" stroke="#ff9e5f" stroke-width="1.51"/><path d="M143,613L338,687L397,635Z" fill="#ff9358" stroke="#ff9358" stroke-width="1.51"/><path d="M210,77L233,216L502,206Z" fill="#ff844d" stroke="#ff844d" stroke-width="1.51"/><path d="M708,-71L505,-2L642,130Z" fill="#ff874f" stroke="#ff874f" stroke-width="1.51"/><path d="M779,1029L816,1068L912,1012Z" fill="#ffad6a" stroke="#ffad6a" stroke-width="1.51"/><path d="M912,1012L1002,1120L1188,900Z" fill="#ffb06d" stroke="#ffb06d" stroke-width="1.51"/><path d="M708,1175L816,1068L779,1029Z" fill="#ffad6a" stroke="#ffad6a" stroke-width="1.51"/><path d="M1294,847L1467,635L1244,675Z" fill="#ffae6b" stroke="#ffae6b" stroke-width="1.51"/><path d="M338,687L370,832L504,751Z" fill="#ff9a5c" stroke="#ff9a5c" stroke-width="1.51"/><path d="M1453,433L1462,249L1297,384Z" fill="#ffa464" stroke="#ffa464" stroke-width="1.51"/><path d="M1487,90L1462,249L1663,101Z" fill="#ffa162" stroke="#ffa162" stroke-width="1.51"/><path d="M1134,-51L929,-172L951,-54Z" fill="#ff8d53" stroke="#ff8d53" stroke-width="1.51"/><path d="M708,-71L557,-173L505,-2Z" fill="#ff824c" stroke="#ff824c" stroke-width="1.51"/><path d="M370,832L417,912L504,751Z" fill="#ff9c5e" stroke="#ff9c5e" stroke-width="1.51"/><path d="M816,1068L1002,1120L912,1012Z" fill="#ffaf6c" stroke="#ffaf6c" stroke-width="1.51"/><path d="M1188,900L1322,1045L1294,847Z" fill="#ffb36f" stroke="#ffb36f" stroke-width="1.51"/><path d="M1134,-51L1212,-163L929,-172Z" fill="#ff8e54" stroke="#ff8e54" stroke-width="1.51"/><path d="M1487,90L1324,-49L1274,167Z" fill="#ff9a5d" stroke="#ff9a5d" stroke-width="1.51"/><path d="M335,370L143,613L397,635Z" fill="#ff9055" stroke="#ff9055" stroke-width="1.51"/><path d="M128,856L194,936L370,832Z" fill="#ff995c" stroke="#ff995c" stroke-width="1.51"/><path d="M210,77L502,206L535,113Z" fill="#ff854e" stroke="#ff854e" stroke-width="1.51"/><path d="M929,-172L726,-229L848,-58Z" fill="#ff864f" stroke="#ff864f" stroke-width="1.51"/><path d="M505,-2L210,77L535,113Z" fill="#ff834c" stroke="#ff834c" stroke-width="1.51"/><path d="M726,-229L557,-173L708,-71Z" fill="#ff824c" stroke="#ff824c" stroke-width="1.51"/><path d="M1324,-49L1212,-163L1134,-51Z" fill="#ff9257" stroke="#ff9257" stroke-width="1.51"/><path d="M929,-172L1261,-254L726,-229Z" fill="#ff8750" stroke="#ff8750" stroke-width="1.51"/><path d="M1324,-49L1261,-254L1212,-163Z" fill="#ff9156" stroke="#ff9156" stroke-width="1.51"/><path d="M1462,249L1487,90L1274,167Z" fill="#ff9f60" stroke="#ff9f60" stroke-width="1.51"/><path d="M1642,446L1462,249L1453,433Z" fill="#ffa867" stroke="#ffa867" stroke-width="1.51"/><path d="M233,216L172,270L335,370Z" fill="#ff874f" stroke="#ff874f" stroke-width="1.51"/><path d="M210,77L172,270L233,216Z" fill="#ff824c" stroke="#ff824c" stroke-width="1.51"/><path d="M816,1068L781,1249L1002,1120Z" fill="#ffb06d" stroke="#ffb06d" stroke-width="1.51"/><path d="M424,1122L708,1175L702,927Z" fill="#ffa867" stroke="#ffa867" stroke-width="1.51"/><path d="M1294,847L1570,796L1467,635Z" fill="#ffb26e" stroke="#ffb26e" stroke-width="1.51"/><path d="M1292,1152L1322,1045L1188,900Z" fill="#ffb672" stroke="#ffb672" stroke-width="1.51"/><path d="M59,451L143,613L335,370Z" fill="#ff8b52" stroke="#ff8b52" stroke-width="1.51"/><path d="M370,832L355,1002L417,912Z" fill="#ff9e5f" stroke="#ff9e5f" stroke-width="1.51"/><path d="M417,912L424,1122L702,927Z" fill="#ffa364" stroke="#ffa364" stroke-width="1.51"/><path d="M194,936L355,1002L370,832Z" fill="#ff9d5f" stroke="#ff9d5f" stroke-width="1.51"/><path d="M254,-91L210,77L505,-2Z" fill="#ff7f49" stroke="#ff7f49" stroke-width="1.51"/><path d="M1646,568L1642,446L1453,433Z" fill="#ffac6a" stroke="#ffac6a" stroke-width="1.51"/><path d="M1646,568L1453,433L1467,635Z" fill="#ffad6b" stroke="#ffad6b" stroke-width="1.51"/><path d="M1571,907L1570,796L1294,847Z" fill="#ffb671" stroke="#ffb671" stroke-width="1.51"/><path d="M1570,796L1646,568L1467,635Z" fill="#ffb26e" stroke="#ffb26e" stroke-width="1.51"/><path d="M708,1175L781,1249L816,1068Z" fill="#ffaf6c" stroke="#ffaf6c" stroke-width="1.51"/><path d="M1002,1120L1128,1218L1188,900Z" fill="#ffb470" stroke="#ffb470" stroke-width="1.51"/><path d="M687,1310L781,1249L708,1175Z" fill="#ffb06d" stroke="#ffb06d" stroke-width="1.51"/><path d="M1487,90L1478,-53L1324,-49Z" fill="#ff9a5c" stroke="#ff9a5c" stroke-width="1.51"/><path d="M1678,-6L1478,-53L1487,90Z" fill="#ff9d5f" stroke="#ff9d5f" stroke-width="1.51"/><path d="M994,1328L1128,1218L1002,1120Z" fill="#ffb772" stroke="#ffb772" stroke-width="1.51"/><path d="M355,1002L424,1122L417,912Z" fill="#ffa262" stroke="#ffa262" stroke-width="1.51"/><path d="M1322,1045L1571,907L1294,847Z" fill="#ffb671" stroke="#ffb671" stroke-width="1.51"/><path d="M1128,1218L1292,1152L1188,900Z" fill="#ffb772" stroke="#ffb772" stroke-width="1.51"/><path d="M1425,-211L1261,-254L1324,-49Z" fill="#ff9257" stroke="#ff9257" stroke-width="1.51"/><path d="M1212,-163L1261,-254L929,-172Z" fill="#ff8d53" stroke="#ff8d53" stroke-width="1.51"/><path d="M172,270L59,451L335,370Z" fill="#ff8850" stroke="#ff8850" stroke-width="1.51"/><path d="M-18,487L59,451L-113,225Z" fill="#ff834d" stroke="#ff834d" stroke-width="1.51"/><path d="M1425,1135L1571,907L1322,1045Z" fill="#ffba75" stroke="#ffba75" stroke-width="1.51"/><path d="M1570,796L1741,757L1646,568Z" fill="#ffb571" stroke="#ffb571" stroke-width="1.51"/><path d="M355,1002L332,1105L424,1122Z" fill="#ffa363" stroke="#ffa363" stroke-width="1.51"/><path d="M128,856L370,832L338,687Z" fill="#ff985b" stroke="#ff985b" stroke-width="1.51"/><path d="M128,856L338,687L143,613Z" fill="#ff9458" stroke="#ff9458" stroke-width="1.51"/><path d="M210,77L37,35L172,270Z" fill="#ff7e49" stroke="#ff7e49" stroke-width="1.51"/><path d="M557,-173L254,-91L505,-2Z" fill="#ff7f49" stroke="#ff7f49" stroke-width="1.51"/><path d="M458,-296L254,-91L557,-173Z" fill="#ff7b47" stroke="#ff7b47" stroke-width="1.51"/><path d="M180,1117L332,1105L355,1002Z" fill="#ffa162" stroke="#ffa162" stroke-width="1.51"/><path d="M437,1290L687,1310L708,1175Z" fill="#ffad6b" stroke="#ffad6b" stroke-width="1.51"/><path d="M268,1332L437,1290L332,1105Z" fill="#ffa766" stroke="#ffa766" stroke-width="1.51"/><path d="M-17,677L128,856L143,613Z" fill="#ff9056" stroke="#ff9056" stroke-width="1.51"/><path d="M1261,-254L458,-296L726,-229Z" fill="#ff824c" stroke="#ff824c" stroke-width="1.51"/><path d="M726,-229L458,-296L557,-173Z" fill="#ff7d49" stroke="#ff7d49" stroke-width="1.51"/><path d="M781,1249L994,1328L1002,1120Z" fill="#ffb470" stroke="#ffb470" stroke-width="1.51"/><path d="M437,1290L708,1175L424,1122Z" fill="#ffaa69" stroke="#ffaa69" stroke-width="1.51"/><path d="M1745,221L1663,101L1462,249Z" fill="#ffa464" stroke="#ffa464" stroke-width="1.51"/><path d="M1478,-53L1425,-211L1324,-49Z" fill="#ff965a" stroke="#ff965a" stroke-width="1.51"/><path d="M1745,221L1462,249L1642,446Z" fill="#ffa867" stroke="#ffa867" stroke-width="1.51"/><path d="M1292,1152L1425,1135L1322,1045Z" fill="#ffbb75" stroke="#ffbb75" stroke-width="1.51"/><path d="M1316,1312L1425,1135L1292,1152Z" fill="#ffbe77" stroke="#ffbe77" stroke-width="1.51"/><path d="M1592,-222L1425,-211L1478,-53Z" fill="#ff975a" stroke="#ff975a" stroke-width="1.51"/><path d="M1128,1218L1316,1312L1292,1152Z" fill="#ffbc76" stroke="#ffbc76" stroke-width="1.51"/><path d="M687,1310L994,1328L781,1249Z" fill="#ffb26e" stroke="#ffb26e" stroke-width="1.51"/><path d="M148,-301L142,-21L254,-91Z" fill="#ff7644" stroke="#ff7644" stroke-width="1.51"/><path d="M254,-91L142,-21L210,77Z" fill="#ff7b47" stroke="#ff7b47" stroke-width="1.51"/><path d="M59,451L-18,487L143,613Z" fill="#ff8a51" stroke="#ff8a51" stroke-width="1.51"/><path d="M-113,225L59,451L172,270Z" fill="#ff824c" stroke="#ff824c" stroke-width="1.51"/><path d="M1856,376L1642,446L1646,568Z" fill="#ffaf6c" stroke="#ffaf6c" stroke-width="1.51"/><path d="M1856,376L1745,221L1642,446Z" fill="#ffac6a" stroke="#ffac6a" stroke-width="1.51"/><path d="M-18,487L-17,677L143,613Z" fill="#ff8b52" stroke="#ff8b52" stroke-width="1.51"/><path d="M1571,907L1741,757L1570,796Z" fill="#ffb873" stroke="#ffb873" stroke-width="1.51"/><path d="M1634,992L1741,757L1571,907Z" fill="#ffbb75" stroke="#ffbb75" stroke-width="1.51"/><path d="M1425,1135L1634,992L1571,907Z" fill="#ffbc76" stroke="#ffbc76" stroke-width="1.51"/><path d="M1812,150L1678,-6L1663,101Z" fill="#ffa364" stroke="#ffa364" stroke-width="1.51"/><path d="M1663,101L1678,-6L1487,90Z" fill="#ffa161" stroke="#ffa161" stroke-width="1.51"/><path d="M458,-296L289,-268L254,-91Z" fill="#ff7745" stroke="#ff7745" stroke-width="1.51"/><path d="M332,1105L437,1290L424,1122Z" fill="#ffa666" stroke="#ffa666" stroke-width="1.51"/><path d="M180,1117L355,1002L194,936Z" fill="#ff9e5f" stroke="#ff9e5f" stroke-width="1.51"/><path d="M180,1117L194,936L10,951Z" fill="#ff9b5d" stroke="#ff9b5d" stroke-width="1.51"/><path d="M-36,48L37,35L-69,-4Z" fill="#ff7745" stroke="#ff7745" stroke-width="1.51"/><path d="M142,-21L37,35L210,77Z" fill="#ff7b48" stroke="#ff7b48" stroke-width="1.51"/><path d="M994,1328L1153,1363L1128,1218Z" fill="#ffb873" stroke="#ffb873" stroke-width="1.51"/><path d="M1425,1135L1612,1190L1634,992Z" fill="#ffbf78" stroke="#ffbf78" stroke-width="1.51"/><path d="M687,1310L1153,1363L994,1328Z" fill="#ffb570" stroke="#ffb570" stroke-width="1.51"/><path d="M268,1332L1153,1363L687,1310Z" fill="#ffaf6c" stroke="#ffaf6c" stroke-width="1.51"/><path d="M1741,757L1787,699L1646,568Z" fill="#ffb671" stroke="#ffb671" stroke-width="1.51"/><path d="M1888,859L1787,699L1741,757Z" fill="#ffba74" stroke="#ffba74" stroke-width="1.51"/><path d="M10,951L194,936L128,856Z" fill="#ff985b" stroke="#ff985b" stroke-width="1.51"/><path d="M1153,1363L1316,1312L1128,1218Z" fill="#ffbb75" stroke="#ffbb75" stroke-width="1.51"/><path d="M1745,221L1812,150L1663,101Z" fill="#ffa666" stroke="#ffa666" stroke-width="1.51"/><path d="M1787,699L1856,376L1646,568Z" fill="#ffb36f" stroke="#ffb36f" stroke-width="1.51"/><path d="M1902,341L1812,150L1745,221Z" fill="#ffa968" stroke="#ffa968" stroke-width="1.51"/><path d="M-126,776L10,951L128,856Z" fill="#ff9358" stroke="#ff9358" stroke-width="1.51"/><path d="M1678,-6L1592,-222L1478,-53Z" fill="#ff9b5d" stroke="#ff9b5d" stroke-width="1.51"/><path d="M1425,-211L1592,-222L1261,-254Z" fill="#ff9257" stroke="#ff9257" stroke-width="1.51"/><path d="M1804,-241L1592,-222L1678,-6Z" fill="#ff9b5d" stroke="#ff9b5d" stroke-width="1.51"/><path d="M-69,-4L37,35L142,-21Z" fill="#ff7745" stroke="#ff7745" stroke-width="1.51"/><path d="M37,35L-113,225L172,270Z" fill="#ff7d48" stroke="#ff7d48" stroke-width="1.51"/><path d="M-290,662L-126,776L-17,677Z" fill="#ff8a52" stroke="#ff8a52" stroke-width="1.51"/><path d="M-36,48L-113,225L37,35Z" fill="#ff7946" stroke="#ff7946" stroke-width="1.51"/><path d="M-17,677L-126,776L128,856Z" fill="#ff9055" stroke="#ff9055" stroke-width="1.51"/><path d="M1787,699L1902,341L1856,376Z" fill="#ffb06d" stroke="#ffb06d" stroke-width="1.51"/><path d="M1856,376L1902,341L1745,221Z" fill="#ffab69" stroke="#ffab69" stroke-width="1.51"/><path d="M1539,1317L1612,1190L1425,1135Z" fill="#ffc27a" stroke="#ffc27a" stroke-width="1.51"/><path d="M1634,992L1888,859L1741,757Z" fill="#ffbd76" stroke="#ffbd76" stroke-width="1.51"/><path d="M-290,662L-17,677L-18,487Z" fill="#ff8850" stroke="#ff8850" stroke-width="1.51"/><path d="M-55,-270L-69,-4L142,-21Z" fill="#ff7343" stroke="#ff7343" stroke-width="1.51"/><path d="M-36,48L-259,59L-113,225Z" fill="#ff7644" stroke="#ff7644" stroke-width="1.51"/><path d="M289,-268L148,-301L254,-91Z" fill="#ff7443" stroke="#ff7443" stroke-width="1.51"/><path d="M458,-296L148,-301L289,-268Z" fill="#ff7443" stroke="#ff7443" stroke-width="1.51"/><path d="M170,1327L268,1332L180,1117Z" fill="#ffa464" stroke="#ffa464" stroke-width="1.51"/><path d="M180,1117L268,1332L332,1105Z" fill="#ffa464" stroke="#ffa464" stroke-width="1.51"/><path d="M437,1290L268,1332L687,1310Z" fill="#ffaa68" stroke="#ffaa68" stroke-width="1.51"/><path d="M170,1327L180,1117L-38,1115Z" fill="#ffa061" stroke="#ffa061" stroke-width="1.51"/><path d="M-266,358L-192,384L-113,225Z" fill="#ff7c48" stroke="#ff7c48" stroke-width="1.51"/><path d="M-113,225L-192,384L-18,487Z" fill="#ff804b" stroke="#ff804b" stroke-width="1.51"/><path d="M1316,1312L1539,1317L1425,1135Z" fill="#ffc079" stroke="#ffc079" stroke-width="1.51"/><path d="M1153,1363L1539,1317L1316,1312Z" fill="#ffbe77" stroke="#ffbe77" stroke-width="1.51"/><path d="M1787,699L1888,859L1902,341Z" fill="#ffb571" stroke="#ffb571" stroke-width="1.51"/><path d="M1903,995L1888,859L1634,992Z" fill="#ffbf78" stroke="#ffbf78" stroke-width="1.51"/><path d="M1862,1149L1634,992L1612,1190Z" fill="#ffc37b" stroke="#ffc37b" stroke-width="1.51"/><path d="M-38,1115L180,1117L10,951Z" fill="#ff9b5d" stroke="#ff9b5d" stroke-width="1.51"/><path d="M-214,999L-38,1115L10,951Z" fill="#ff965a" stroke="#ff965a" stroke-width="1.51"/><path d="M-259,59L-266,358L-113,225Z" fill="#ff7845" stroke="#ff7845" stroke-width="1.51"/><path d="M-192,384L-290,662L-18,487Z" fill="#ff844d" stroke="#ff844d" stroke-width="1.51"/><path d="M-126,776L-214,999L10,951Z" fill="#ff9257" stroke="#ff9257" stroke-width="1.51"/><path d="M1539,1317L1705,1256L1612,1190Z" fill="#ffc47c" stroke="#ffc47c" stroke-width="1.51"/><path d="M1902,341L1884,-86L1812,150Z" fill="#ffa665" stroke="#ffa665" stroke-width="1.51"/><path d="M1812,150L1884,-86L1678,-6Z" fill="#ffa263" stroke="#ffa263" stroke-width="1.51"/><path d="M1862,1149L1903,995L1634,992Z" fill="#ffc27a" stroke="#ffc27a" stroke-width="1.51"/><path d="M1888,859L1903,995L1902,341Z" fill="#ffb873" stroke="#ffb873" stroke-width="1.51"/><path d="M1884,-86L1804,-241L1678,-6Z" fill="#ff9e5f" stroke="#ff9e5f" stroke-width="1.51"/><path d="M1592,-222L1804,-241L1261,-254Z" fill="#ff9559" stroke="#ff9559" stroke-width="1.51"/><path d="M1261,-254L1804,-241L458,-296Z" fill="#ff8b52" stroke="#ff8b52" stroke-width="1.51"/><path d="M-266,358L-290,662L-192,384Z" fill="#ff804a" stroke="#ff804a" stroke-width="1.51"/><path d="M148,-301L-55,-270L142,-21Z" fill="#ff7141" stroke="#ff7141" stroke-width="1.51"/><path d="M-69,-4L-259,59L-36,48Z" fill="#ff7443" stroke="#ff7443" stroke-width="1.51"/><path d="M-261,-229L-221,-8L-69,-4Z" fill="#ff6e3f" stroke="#ff6e3f" stroke-width="1.51"/><path d="M-221,-8L-259,59L-69,-4Z" fill="#ff7241" stroke="#ff7241" stroke-width="1.51"/><path d="M-266,358L-303,757L-290,662Z" fill="#ff834d" stroke="#ff834d" stroke-width="1.51"/><path d="M1705,1256L1862,1149L1612,1190Z" fill="#ffc67e" stroke="#ffc67e" stroke-width="1.51"/><path d="M-303,757L-214,999L-126,776Z" fill="#ff8d54" stroke="#ff8d54" stroke-width="1.51"/><path d="M-38,1115L-74,1313L170,1327Z" fill="#ff9f60" stroke="#ff9f60" stroke-width="1.51"/><path d="M-290,662L-303,757L-126,776Z" fill="#ff8951" stroke="#ff8951" stroke-width="1.51"/><path d="M-259,59L-303,757L-266,358Z" fill="#ff7d48" stroke="#ff7d48" stroke-width="1.51"/><path d="M-232,1118L-74,1313L-38,1115Z" fill="#ff9a5d" stroke="#ff9a5d" stroke-width="1.51"/><path d="M-303,757L-232,1118L-214,999Z" fill="#ff9055" stroke="#ff9055" stroke-width="1.51"/><path d="M-214,999L-232,1118L-38,1115Z" fill="#ff965a" stroke="#ff965a" stroke-width="1.51"/><path d="M-55,-270L-261,-229L-69,-4Z" fill="#ff6d3f" stroke="#ff6d3f" stroke-width="1.51"/><path d="M-221,-8L-261,-229L-259,59Z" fill="#ff6d3f" stroke="#ff6d3f" stroke-width="1.51"/><path d="M-259,59L-261,-229L-303,757Z" fill="#ff7644" stroke="#ff7644" stroke-width="1.51"/><path d="M1705,1256L1842,1372L1862,1149Z" fill="#ffc77f" stroke="#ffc77f" stroke-width="1.51"/><path d="M1862,1149L1842,1372L1903,995Z" fill="#ffc67d" stroke="#ffc67d" stroke-width="1.51"/><path d="M1539,1317L1842,1372L1705,1256Z" fill="#ffc67e" stroke="#ffc67e" stroke-width="1.51"/><path d="M1153,1363L1842,1372L1539,1317Z" fill="#ffc27a" stroke="#ffc27a" stroke-width="1.51"/><path d="M-232,1118L-237,1353L-74,1313Z" fill="#ff9b5d" stroke="#ff9b5d" stroke-width="1.51"/><path d="M-74,1313L-237,1353L170,1327Z" fill="#ff9d5f" stroke="#ff9d5f" stroke-width="1.51"/><path d="M170,1327L-237,1353L268,1332Z" fill="#ffa061" stroke="#ffa061" stroke-width="1.51"/><path d="M268,1332L-237,1353L1153,1363Z" fill="#ffa867" stroke="#ffa867" stroke-width="1.51"/><path d="M1153,1363L-237,1353L1842,1372Z" fill="#ffb470" stroke="#ffb470" stroke-width="1.51"/><path d="M-303,757L-237,1353L-232,1118Z" fill="#ff9458" stroke="#ff9458" stroke-width="1.51"/></svg>