<svg xmlns="http://www.w3.org/2000/svg" width="1440" height="900">
    <path d="M768,709L721,857L894,843Z" fill="#f77500" stroke="#f77500" stroke-width="1.51"/>
    <path d="M768,709L577,848L721,857Z" fill="#f87900" stroke="#f87900" stroke-width="1.51"/>
    <path d="M894,843L969,640L768,709Z" fill="#f87500" stroke="#f87500" stroke-width="1.51"/>
    <path d="M894,843L1107,907L969,640Z" fill="#f66e00" stroke="#f66e00" stroke-width="1.51"/>
    <path d="M958,1154L1107,907L894,843Z" fill="#f66500" stroke="#f66500" stroke-width="1.51"/>
    <path d="M798,1127L894,843L721,857Z" fill="#f66e00" stroke="#f66e00" stroke-width="1.51"/>
    <path d="M577,848L798,1127L721,857Z" fill="#f77200" stroke="#f77200" stroke-width="1.51"/>
    <path d="M768,709L460,767L577,848Z" fill="#f97e00" stroke="#f97e00" stroke-width="1.51"/>
    <path d="M577,848L487,1188L798,1127Z" fill="#f76f00" stroke="#f76f00" stroke-width="1.51"/>
    <path d="M573,470L460,767L768,709Z" fill="#fa8400" stroke="#fa8400" stroke-width="1.51"/>
    <path d="M798,1127L958,1154L894,843Z" fill="#f56500" stroke="#f56500" stroke-width="1.51"/>
    <path d="M717,356L573,470L768,709Z" fill="#fa8800" stroke="#fa8800" stroke-width="1.51"/>
    <path d="M1107,907L1242,798L969,640Z" fill="#f66a00" stroke="#f66a00" stroke-width="1.51"/>
    <path d="M1436,948L1242,798L1107,907Z" fill="#f45e00" stroke="#f45e00" stroke-width="1.51"/>
    <path d="M1065,365L717,356L969,640Z" fill="#f98200" stroke="#f98200" stroke-width="1.51"/>
    <path d="M969,640L717,356L768,709Z" fill="#f98000" stroke="#f98000" stroke-width="1.51"/>
    <path d="M958,1154L1152,1103L1107,907Z" fill="#f45c00" stroke="#f45c00" stroke-width="1.51"/>
    <path d="M256,1092L487,1188L577,848Z" fill="#f77700" stroke="#f77700" stroke-width="1.51"/>
    <path d="M798,1127L1024,1342L958,1154Z" fill="#f45a00" stroke="#f45a00" stroke-width="1.51"/>
    <path d="M1242,798L1136,420L969,640Z" fill="#f77200" stroke="#f77200" stroke-width="1.51"/>
    <path d="M1136,420L1065,365L969,640Z" fill="#f97b00" stroke="#f97b00" stroke-width="1.51"/>
    <path d="M460,767L256,1092L577,848Z" fill="#f97e00" stroke="#f97e00" stroke-width="1.51"/>
    <path d="M573,470L308,541L460,767Z" fill="#fa8c00" stroke="#fa8c00" stroke-width="1.51"/>
    <path d="M449,224L308,541L573,470Z" fill="#fc9500" stroke="#fc9500" stroke-width="1.51"/>
    <path d="M958,1154L1024,1342L1152,1103Z" fill="#f35500" stroke="#f35500" stroke-width="1.51"/>
    <path d="M738,1526L1024,1342L798,1127Z" fill="#f35700" stroke="#f35700" stroke-width="1.51"/>
    <path d="M131,878L256,1092L460,767Z" fill="#fa8300" stroke="#fa8300" stroke-width="1.51"/>
    <path d="M1242,798L1478,472L1136,420Z" fill="#f76e00" stroke="#f76e00" stroke-width="1.51"/>
    <path d="M1152,1103L1436,948L1107,907Z" fill="#f45900" stroke="#f45900" stroke-width="1.51"/>
    <path d="M1408,1286L1436,948L1152,1103Z" fill="#f24c00" stroke="#f24c00" stroke-width="1.51"/>
    <path d="M308,541L170,617L460,767Z" fill="#fb8f00" stroke="#fb8f00" stroke-width="1.51"/>
    <path d="M1147,145L860,128L1065,365Z" fill="#fa8900" stroke="#fa8900" stroke-width="1.51"/>
    <path d="M1065,365L860,128L717,356Z" fill="#fb8b00" stroke="#fb8b00" stroke-width="1.51"/>
    <path d="M717,356L449,224L573,470Z" fill="#fb9300" stroke="#fb9300" stroke-width="1.51"/>
    <path d="M308,541L70,516L170,617Z" fill="#fc9800" stroke="#fc9800" stroke-width="1.51"/>
    <path d="M170,617L131,878L460,767Z" fill="#fa8c00" stroke="#fa8c00" stroke-width="1.51"/>
    <path d="M724,108L449,224L717,356Z" fill="#fc9700" stroke="#fc9700" stroke-width="1.51"/>
    <path d="M1436,948L1499,788L1242,798Z" fill="#f45a00" stroke="#f45a00" stroke-width="1.51"/>
    <path d="M1136,420L1147,145L1065,365Z" fill="#f98100" stroke="#f98100" stroke-width="1.51"/>
    <path d="M860,128L724,108L717,356Z" fill="#fc9300" stroke="#fc9300" stroke-width="1.51"/>
    <path d="M508,1491L738,1526L487,1188Z" fill="#f56300" stroke="#f56300" stroke-width="1.51"/>
    <path d="M487,1188L738,1526L798,1127Z" fill="#f56000" stroke="#f56000" stroke-width="1.51"/>
    <path d="M1478,472L1147,145L1136,420Z" fill="#f87a00" stroke="#f87a00" stroke-width="1.51"/>
    <path d="M860,128L743,-110L724,108Z" fill="#fc9a00" stroke="#fc9a00" stroke-width="1.51"/>
    <path d="M273,1459L508,1491L487,1188Z" fill="#f66a00" stroke="#f66a00" stroke-width="1.51"/>
    <path d="M1499,788L1478,472L1242,798Z" fill="#f56200" stroke="#f56200" stroke-width="1.51"/>
    <path d="M256,1092L273,1459L487,1188Z" fill="#f77000" stroke="#f77000" stroke-width="1.51"/>
    <path d="M131,878L47,938L256,1092Z" fill="#fa8600" stroke="#fa8600" stroke-width="1.51"/>
    <path d="M31,606L47,938L131,878Z" fill="#fb9000" stroke="#fb9000" stroke-width="1.51"/>
    <path d="M1290,1501L1408,1286L1024,1342Z" fill="#f14400" stroke="#f14400" stroke-width="1.51"/>
    <path d="M1024,1342L1408,1286L1152,1103Z" fill="#f14b00" stroke="#f14b00" stroke-width="1.51"/>
    <path d="M1620,960L1627,786L1499,788Z" fill="#f35100" stroke="#f35100" stroke-width="1.51"/>
    <path d="M170,617L31,606L131,878Z" fill="#fb9400" stroke="#fb9400" stroke-width="1.51"/>
    <path d="M265,103L70,516L308,541Z" fill="#fd9e00" stroke="#fd9e00" stroke-width="1.51"/>
    <path d="M70,516L31,606L170,617Z" fill="#fc9a00" stroke="#fc9a00" stroke-width="1.51"/>
    <path d="M1499,788L1627,786L1478,472Z" fill="#f45c00" stroke="#f45c00" stroke-width="1.51"/>
    <path d="M1620,960L1499,788L1436,948Z" fill="#f35100" stroke="#f35100" stroke-width="1.51"/>
    <path d="M1699,1145L1620,960L1436,948Z" fill="#f14500" stroke="#f14500" stroke-width="1.51"/>
    <path d="M508,1491L-3,1470L738,1526Z" fill="#f66a00" stroke="#f66a00" stroke-width="1.51"/>
    <path d="M-86,1259L273,1459L256,1092Z" fill="#f87700" stroke="#f87700" stroke-width="1.51"/>
    <path d="M449,224L265,103L308,541Z" fill="#fd9e00" stroke="#fd9e00" stroke-width="1.51"/>
    <path d="M724,108L396,60L449,224Z" fill="#fd9f00" stroke="#fd9f00" stroke-width="1.51"/>
    <path d="M743,-110L396,60L724,108Z" fill="#fda000" stroke="#fda000" stroke-width="1.51"/>
    <path d="M1408,1286L1699,1145L1436,948Z" fill="#f14200" stroke="#f14200" stroke-width="1.51"/>
    <path d="M738,1526L1290,1501L1024,1342Z" fill="#f24f00" stroke="#f24f00" stroke-width="1.51"/>
    <path d="M1147,145L1065,-36L860,128Z" fill="#fb8f00" stroke="#fb8f00" stroke-width="1.51"/>
    <path d="M1298,-32L1065,-36L1147,145Z" fill="#fa8d00" stroke="#fa8d00" stroke-width="1.51"/>
    <path d="M396,60L265,103L449,224Z" fill="#fda400" stroke="#fda400" stroke-width="1.51"/>
    <path d="M1065,-36L743,-110L860,128Z" fill="#fc9800" stroke="#fc9800" stroke-width="1.51"/>
    <path d="M396,60L145,20L265,103Z" fill="#feab00" stroke="#feab00" stroke-width="1.51"/>
    <path d="M1498,1495L1699,1145L1408,1286Z" fill="#ee3100" stroke="#ee3100" stroke-width="1.51"/>
    <path d="M1620,960L1898,737L1627,786Z" fill="#f24b00" stroke="#f24b00" stroke-width="1.51"/>
    <path d="M1389,26L1298,-32L1147,145Z" fill="#fa8800" stroke="#fa8800" stroke-width="1.51"/>
    <path d="M1065,-36L793,-206L743,-110Z" fill="#fd9e00" stroke="#fd9e00" stroke-width="1.51"/>
    <path d="M1389,26L1147,145L1558,137Z" fill="#f98200" stroke="#f98200" stroke-width="1.51"/>
    <path d="M1558,137L1147,145L1478,472Z" fill="#f87900" stroke="#f87900" stroke-width="1.51"/>
    <path d="M1290,1501L1498,1495L1408,1286Z" fill="#ef3a00" stroke="#ef3a00" stroke-width="1.51"/>
    <path d="M738,1526L1498,1495L1290,1501Z" fill="#f14800" stroke="#f14800" stroke-width="1.51"/>
    <path d="M1898,737L1711,420L1627,786Z" fill="#f35500" stroke="#f35500" stroke-width="1.51"/>
    <path d="M1627,786L1711,420L1478,472Z" fill="#f46100" stroke="#f46100" stroke-width="1.51"/>
    <path d="M47,938L-86,1259L256,1092Z" fill="#f98300" stroke="#f98300" stroke-width="1.51"/>
    <path d="M31,606L-189,891L47,938Z" fill="#fb9400" stroke="#fb9400" stroke-width="1.51"/>
    <path d="M-250,612L-189,891L31,606Z" fill="#fc9c00" stroke="#fc9c00" stroke-width="1.51"/>
    <path d="M-212,554L31,606L70,516Z" fill="#fd9f00" stroke="#fd9f00" stroke-width="1.51"/>
    <path d="M-189,891L-86,1259L47,938Z" fill="#fa8b00" stroke="#fa8b00" stroke-width="1.51"/>
    <path d="M1711,420L1558,137L1478,472Z" fill="#f66d00" stroke="#f66d00" stroke-width="1.51"/>
    <path d="M943,-250L793,-206L1065,-36Z" fill="#fc9e00" stroke="#fc9e00" stroke-width="1.51"/>
    <path d="M743,-110L512,-310L396,60Z" fill="#fea900" stroke="#fea900" stroke-width="1.51"/>
    <path d="M265,103L-102,294L70,516Z" fill="#fda700" stroke="#fda700" stroke-width="1.51"/>
    <path d="M286,-384L145,20L396,60Z" fill="#feb200" stroke="#feb200" stroke-width="1.51"/>
    <path d="M145,20L-102,294L265,103Z" fill="#fead00" stroke="#fead00" stroke-width="1.51"/>
    <path d="M-102,294L-212,554L70,516Z" fill="#fda600" stroke="#fda600" stroke-width="1.51"/>
    <path d="M273,1459L-3,1470L508,1491Z" fill="#f77100" stroke="#f77100" stroke-width="1.51"/>
    <path d="M-86,1259L-3,1470L273,1459Z" fill="#f87800" stroke="#f87800" stroke-width="1.51"/>
    <path d="M1179,-251L943,-250L1065,-36Z" fill="#fc9a00" stroke="#fc9a00" stroke-width="1.51"/>
    <path d="M-194,177L-250,612L-212,554Z" fill="#fdaa00" stroke="#fdaa00" stroke-width="1.51"/>
    <path d="M-212,554L-250,612L31,606Z" fill="#fda200" stroke="#fda200" stroke-width="1.51"/>
    <path d="M1990,1040L1898,737L1620,960Z" fill="#f03f00" stroke="#f03f00" stroke-width="1.51"/>
    <path d="M1711,420L1780,112L1558,137Z" fill="#f66f00" stroke="#f66f00" stroke-width="1.51"/>
    <path d="M1506,-258L1298,-32L1389,26Z" fill="#fa8a00" stroke="#fa8a00" stroke-width="1.51"/>
    <path d="M1506,-258L1179,-251L1298,-32Z" fill="#fb9100" stroke="#fb9100" stroke-width="1.51"/>
    <path d="M1298,-32L1179,-251L1065,-36Z" fill="#fb9200" stroke="#fb9200" stroke-width="1.51"/>
    <path d="M1699,1145L1867,1160L1620,960Z" fill="#ef3800" stroke="#ef3800" stroke-width="1.51"/>
    <path d="M1754,1468L1867,1160L1699,1145Z" fill="#ed2300" stroke="#ed2300" stroke-width="1.51"/>
    <path d="M286,-384L512,-310L943,-250Z" fill="#feb001" stroke="#feb001" stroke-width="1.51"/>
    <path d="M943,-250L512,-310L793,-206Z" fill="#fda800" stroke="#fda800" stroke-width="1.51"/>
    <path d="M793,-206L512,-310L743,-110Z" fill="#fda900" stroke="#fda900" stroke-width="1.51"/>
    <path d="M1498,1495L1754,1468L1699,1145Z" fill="#ee2800" stroke="#ee2800" stroke-width="1.51"/>
    <path d="M-102,294L-194,177L-212,554Z" fill="#fead01" stroke="#fead01" stroke-width="1.51"/>
    <path d="M-90,-8L-194,177L-102,294Z" fill="#feb401" stroke="#feb401" stroke-width="1.51"/>
    <path d="M-90,-8L-102,294L145,20Z" fill="#feb300" stroke="#feb300" stroke-width="1.51"/>
    <path d="M1558,137L1688,-38L1389,26Z" fill="#f97e00" stroke="#f97e00" stroke-width="1.51"/>
    <path d="M1898,737L1904,361L1711,420Z" fill="#f35a00" stroke="#f35a00" stroke-width="1.51"/>
    <path d="M1904,361L1780,112L1711,420Z" fill="#f56700" stroke="#f56700" stroke-width="1.51"/>
    <path d="M-2,-250L-90,-8L145,20Z" fill="#feba00" stroke="#feba00" stroke-width="1.51"/>
    <path d="M1898,737L2006,179L1904,361Z" fill="#f45e00" stroke="#f45e00" stroke-width="1.51"/>
    <path d="M1867,1160L1990,1040L1620,960Z" fill="#ef3400" stroke="#ef3400" stroke-width="1.51"/>
    <path d="M1941,1421L1990,1040L1867,1160Z" fill="#ed2400" stroke="#ed2400" stroke-width="1.51"/>
    <path d="M-86,1259L-362,1349L-3,1470Z" fill="#f98100" stroke="#f98100" stroke-width="1.51"/>
    <path d="M-189,891L-358,1156L-86,1259Z" fill="#fb8d00" stroke="#fb8d00" stroke-width="1.51"/>
    <path d="M-250,612L-358,1156L-189,891Z" fill="#fc9800" stroke="#fc9800" stroke-width="1.51"/>
    <path d="M-274,-114L-358,1156L-250,612Z" fill="#fda800" stroke="#fda800" stroke-width="1.51"/>
    <path d="M1780,112L1688,-38L1558,137Z" fill="#f87800" stroke="#f87800" stroke-width="1.51"/>
    <path d="M1688,-38L1506,-258L1389,26Z" fill="#fa8500" stroke="#fa8500" stroke-width="1.51"/>
    <path d="M1179,-251L286,-384L943,-250Z" fill="#fda801" stroke="#fda801" stroke-width="1.51"/>
    <path d="M-358,1156L-362,1349L-86,1259Z" fill="#fa8700" stroke="#fa8700" stroke-width="1.51"/>
    <path d="M512,-310L286,-384L396,60Z" fill="#feb201" stroke="#feb201" stroke-width="1.51"/>
    <path d="M1735,-338L286,-384L1179,-251Z" fill="#fda100" stroke="#fda100" stroke-width="1.51"/>
    <path d="M1754,1468L1941,1421L1867,1160Z" fill="#ec1600" stroke="#ec1600" stroke-width="1.51"/>
    <path d="M286,-384L-2,-250L145,20Z" fill="#ffbb01" stroke="#ffbb01" stroke-width="1.51"/>
    <path d="M-90,-8L-274,-114L-194,177Z" fill="#ffbc01" stroke="#ffbc01" stroke-width="1.51"/>
    <path d="M1990,1040L2006,179L1898,737Z" fill="#f35100" stroke="#f35100" stroke-width="1.51"/>
    <path d="M1904,361L2006,179L1780,112Z" fill="#f66a00" stroke="#f66a00" stroke-width="1.51"/>
    <path d="M1780,112L1914,-54L1688,-38Z" fill="#f77600" stroke="#f77600" stroke-width="1.51"/>
    <path d="M1688,-38L1735,-338L1506,-258Z" fill="#fa8600" stroke="#fa8600" stroke-width="1.51"/>
    <path d="M2006,179L1914,-54L1780,112Z" fill="#f77100" stroke="#f77100" stroke-width="1.51"/>
    <path d="M-2,-250L-274,-114L-90,-8Z" fill="#ffc101" stroke="#ffc101" stroke-width="1.51"/>
    <path d="M-194,177L-274,-114L-250,612Z" fill="#feb501" stroke="#feb501" stroke-width="1.51"/>
    <path d="M1914,-54L1735,-338L1688,-38Z" fill="#f97e00" stroke="#f97e00" stroke-width="1.51"/>
    <path d="M1506,-258L1735,-338L1179,-251Z" fill="#fb9000" stroke="#fb9000" stroke-width="1.51"/>
    <path d="M-2,-250L-276,-223L-274,-114Z" fill="#ffc602" stroke="#ffc602" stroke-width="1.51"/>
    <path d="M-274,-114L-276,-223L-358,1156Z" fill="#feb502" stroke="#feb502" stroke-width="1.51"/>
    <path d="M286,-384L-276,-223L-2,-250Z" fill="#ffc301" stroke="#ffc301" stroke-width="1.51"/>
    <path d="M1914,-54L2024,-304L1735,-338Z" fill="#f98100" stroke="#f98100" stroke-width="1.51"/>
    <path d="M2006,179L2024,-304L1914,-54Z" fill="#f87800" stroke="#f87800" stroke-width="1.51"/>
    <path d="M1990,1040L2024,-304L2006,179Z" fill="#f56600" stroke="#f56600" stroke-width="1.51"/>
</svg>