<svg xmlns="http://www.w3.org/2000/svg" width="1440" height="900"><path d="M835,558L972,432L773,438Z" fill="#6574c2" stroke="#6574c2" stroke-width="1.51"/><path d="M972,432L827,209L773,438Z" fill="#626dbd" stroke="#626dbd" stroke-width="1.51"/><path d="M835,558L996,674L972,432Z" fill="#697bc7" stroke="#697bc7" stroke-width="1.51"/><path d="M972,432L1139,420L1048,324Z" fill="#6778c4" stroke="#6778c4" stroke-width="1.51"/><path d="M1048,324L827,209L972,432Z" fill="#636fbe" stroke="#636fbe" stroke-width="1.51"/><path d="M773,438L607,661L835,558Z" fill="#6573c1" stroke="#6573c1" stroke-width="1.51"/><path d="M835,558L903,788L996,674Z" fill="#6b81cb" stroke="#6b81cb" stroke-width="1.51"/><path d="M643,303L614,432L773,438Z" fill="#6067b9" stroke="#6067b9" stroke-width="1.51"/><path d="M996,674L1139,420L972,432Z" fill="#697dc8" stroke="#697dc8" stroke-width="1.51"/><path d="M827,209L643,303L773,438Z" fill="#5f66b9" stroke="#5f66b9" stroke-width="1.51"/><path d="M827,209L822,185L643,303Z" fill="#5e63b5" stroke="#5e63b5" stroke-width="1.51"/><path d="M985,163L822,185L827,209Z" fill="#5e65b7" stroke="#5e65b7" stroke-width="1.51"/><path d="M1048,324L985,163L827,209Z" fill="#616abb" stroke="#616abb" stroke-width="1.51"/><path d="M1127,214L985,163L1048,324Z" fill="#636fbe" stroke="#636fbe" stroke-width="1.51"/><path d="M840,788L903,788L835,558Z" fill="#6b81cb" stroke="#6b81cb" stroke-width="1.51"/><path d="M607,661L840,788L835,558Z" fill="#697ac6" stroke="#697ac6" stroke-width="1.51"/><path d="M614,432L607,661L773,438Z" fill="#636ebe" stroke="#636ebe" stroke-width="1.51"/><path d="M1139,420L1127,214L1048,324Z" fill="#6676c3" stroke="#6676c3" stroke-width="1.51"/><path d="M996,674L1177,696L1139,420Z" fill="#6d85cd" stroke="#6d85cd" stroke-width="1.51"/><path d="M1139,420L1274,335L1127,214Z" fill="#6779c5" stroke="#6779c5" stroke-width="1.51"/><path d="M1229,839L1177,696L1188,900Z" fill="#7395d8" stroke="#7395d8" stroke-width="1.51"/><path d="M335,370L466,531L614,432Z" fill="#5d62b6" stroke="#5d62b6" stroke-width="1.51"/><path d="M822,185L642,130L643,303Z" fill="#5b5eb3" stroke="#5b5eb3" stroke-width="1.51"/><path d="M708,-71L642,130L822,185Z" fill="#5859af" stroke="#5859af" stroke-width="1.51"/><path d="M614,432L466,531L607,661Z" fill="#626bbc" stroke="#626bbc" stroke-width="1.51"/><path d="M502,206L614,432L643,303Z" fill="#5c60b4" stroke="#5c60b4" stroke-width="1.51"/><path d="M1297,384L1274,335L1139,420Z" fill="#6a7ec9" stroke="#6a7ec9" stroke-width="1.51"/><path d="M1177,696L1244,675L1139,420Z" fill="#6e88d0" stroke="#6e88d0" stroke-width="1.51"/><path d="M1229,839L1244,675L1177,696Z" fill="#7292d6" stroke="#7292d6" stroke-width="1.51"/><path d="M1244,675L1297,384L1139,420Z" fill="#6c84cd" stroke="#6c84cd" stroke-width="1.51"/><path d="M607,661L592,813L840,788Z" fill="#697cc7" stroke="#697cc7" stroke-width="1.51"/><path d="M840,788L912,1012L903,788Z" fill="#6f8bd1" stroke="#6f8bd1" stroke-width="1.51"/><path d="M504,751L592,813L607,661Z" fill="#6676c3" stroke="#6676c3" stroke-width="1.51"/><path d="M642,130L502,206L643,303Z" fill="#5a5bb0" stroke="#5a5bb0" stroke-width="1.51"/><path d="M1127,214L1084,46L985,163Z" fill="#616abb" stroke="#616abb" stroke-width="1.51"/><path d="M985,163L848,-58L822,185Z" fill="#5c60b4" stroke="#5c60b4" stroke-width="1.51"/><path d="M1274,167L1084,46L1127,214Z" fill="#636ebe" stroke="#636ebe" stroke-width="1.51"/><path d="M397,635L504,751L607,661Z" fill="#6471c0" stroke="#6471c0" stroke-width="1.51"/><path d="M642,130L535,113L502,206Z" fill="#5756ad" stroke="#5756ad" stroke-width="1.51"/><path d="M505,-2L535,113L642,130Z" fill="#5552aa" stroke="#5552aa" stroke-width="1.51"/><path d="M417,912L702,927L592,813Z" fill="#6a7fc9" stroke="#6a7fc9" stroke-width="1.51"/><path d="M592,813L702,927L840,788Z" fill="#6b82cb" stroke="#6b82cb" stroke-width="1.51"/><path d="M1188,900L1177,696L996,674Z" fill="#718ed4" stroke="#718ed4" stroke-width="1.51"/><path d="M1462,249L1274,167L1274,335Z" fill="#687cc7" stroke="#687cc7" stroke-width="1.51"/><path d="M1274,335L1274,167L1127,214Z" fill="#6676c3" stroke="#6676c3" stroke-width="1.51"/><path d="M466,531L397,635L607,661Z" fill="#626cbc" stroke="#626cbc" stroke-width="1.51"/><path d="M335,370L397,635L466,531Z" fill="#5e63b6" stroke="#5e63b6" stroke-width="1.51"/><path d="M1244,675L1453,433L1297,384Z" fill="#6e89d0" stroke="#6e89d0" stroke-width="1.51"/><path d="M1188,900L996,674L903,788Z" fill="#708dd3" stroke="#708dd3" stroke-width="1.51"/><path d="M951,-54L848,-58L985,163Z" fill="#5b5eb2" stroke="#5b5eb2" stroke-width="1.51"/><path d="M1084,46L951,-54L985,163Z" fill="#5d63b6" stroke="#5d63b6" stroke-width="1.51"/><path d="M1134,-51L951,-54L1084,46Z" fill="#5d61b5" stroke="#5d61b5" stroke-width="1.51"/><path d="M912,1012L1188,900L903,788Z" fill="#7291d6" stroke="#7291d6" stroke-width="1.51"/><path d="M502,206L335,370L614,432Z" fill="#5b5db2" stroke="#5b5db2" stroke-width="1.51"/><path d="M233,216L335,370L502,206Z" fill="#5654ab" stroke="#5654ab" stroke-width="1.51"/><path d="M779,1029L912,1012L840,788Z" fill="#708dd3" stroke="#708dd3" stroke-width="1.51"/><path d="M848,-58L708,-71L822,185Z" fill="#5958ae" stroke="#5958ae" stroke-width="1.51"/><path d="M726,-229L708,-71L848,-58Z" fill="#5450a8" stroke="#5450a8" stroke-width="1.51"/><path d="M1188,900L1294,847L1229,839Z" fill="#7599dc" stroke="#7599dc" stroke-width="1.51"/><path d="M1229,839L1294,847L1244,675Z" fill="#7496d9" stroke="#7496d9" stroke-width="1.51"/><path d="M702,927L779,1029L840,788Z" fill="#6e89d0" stroke="#6e89d0" stroke-width="1.51"/><path d="M708,1175L779,1029L702,927Z" fill="#708fd4" stroke="#708fd4" stroke-width="1.51"/><path d="M1274,167L1134,-51L1084,46Z" fill="#616abb" stroke="#616abb" stroke-width="1.51"/><path d="M951,-54L929,-172L848,-58Z" fill="#5857ae" stroke="#5857ae" stroke-width="1.51"/><path d="M1297,384L1462,249L1274,335Z" fill="#6b80ca" stroke="#6b80ca" stroke-width="1.51"/><path d="M1274,167L1324,-49L1134,-51Z" fill="#616bbc" stroke="#616bbc" stroke-width="1.51"/><path d="M1467,635L1453,433L1244,675Z" fill="#7190d5" stroke="#7190d5" stroke-width="1.51"/><path d="M397,635L338,687L504,751Z" fill="#626ebd" stroke="#626ebd" stroke-width="1.51"/><path d="M504,751L417,912L592,813Z" fill="#6879c5" stroke="#6879c5" stroke-width="1.51"/><path d="M143,613L338,687L397,635Z" fill="#5f66b8" stroke="#5f66b8" stroke-width="1.51"/><path d="M210,77L233,216L502,206Z" fill="#534da7" stroke="#534da7" stroke-width="1.51"/><path d="M708,-71L505,-2L642,130Z" fill="#5551a9" stroke="#5551a9" stroke-width="1.51"/><path d="M779,1029L816,1068L912,1012Z" fill="#7292d7" stroke="#7292d7" stroke-width="1.51"/><path d="M912,1012L1002,1120L1188,900Z" fill="#7499db" stroke="#7499db" stroke-width="1.51"/><path d="M708,1175L816,1068L779,1029Z" fill="#7293d7" stroke="#7293d7" stroke-width="1.51"/><path d="M1294,847L1467,635L1244,675Z" fill="#7396d9" stroke="#7396d9" stroke-width="1.51"/><path d="M338,687L370,832L504,751Z" fill="#6471bf" stroke="#6471bf" stroke-width="1.51"/><path d="M1453,433L1462,249L1297,384Z" fill="#6c85cd" stroke="#6c85cd" stroke-width="1.51"/><path d="M1487,90L1462,249L1663,101Z" fill="#6a7ec9" stroke="#6a7ec9" stroke-width="1.51"/><path d="M1134,-51L929,-172L951,-54Z" fill="#595bb0" stroke="#595bb0" stroke-width="1.51"/><path d="M708,-71L557,-173L505,-2Z" fill="#524ba5" stroke="#524ba5" stroke-width="1.51"/><path d="M370,832L417,912L504,751Z" fill="#6676c3" stroke="#6676c3" stroke-width="1.51"/><path d="M816,1068L1002,1120L912,1012Z" fill="#7498da" stroke="#7498da" stroke-width="1.51"/><path d="M1188,900L1322,1045L1294,847Z" fill="#779fdf" stroke="#779fdf" stroke-width="1.51"/><path d="M1134,-51L1212,-163L929,-172Z" fill="#5a5db1" stroke="#5a5db1" stroke-width="1.51"/><path d="M1487,90L1324,-49L1274,167Z" fill="#6573c1" stroke="#6573c1" stroke-width="1.51"/><path d="M335,370L143,613L397,635Z" fill="#5c60b4" stroke="#5c60b4" stroke-width="1.51"/><path d="M128,856L194,936L370,832Z" fill="#6470bf" stroke="#6470bf" stroke-width="1.51"/><path d="M210,77L502,206L535,113Z" fill="#544fa8" stroke="#544fa8" stroke-width="1.51"/><path d="M929,-172L726,-229L848,-58Z" fill="#5451aa" stroke="#5451aa" stroke-width="1.51"/><path d="M505,-2L210,77L535,113Z" fill="#524ba6" stroke="#524ba6" stroke-width="1.51"/><path d="M726,-229L557,-173L708,-71Z" fill="#5149a4" stroke="#5149a4" stroke-width="1.51"/><path d="M1324,-49L1212,-163L1134,-51Z" fill="#5e64b7" stroke="#5e64b7" stroke-width="1.51"/><path d="M929,-172L1261,-254L726,-229Z" fill="#5653ab" stroke="#5653ab" stroke-width="1.51"/><path d="M1324,-49L1261,-254L1212,-163Z" fill="#5d62b5" stroke="#5d62b5" stroke-width="1.51"/><path d="M1462,249L1487,90L1274,167Z" fill="#687ac6" stroke="#687ac6" stroke-width="1.51"/><path d="M1642,446L1462,249L1453,433Z" fill="#6e8ad1" stroke="#6e8ad1" stroke-width="1.51"/><path d="M233,216L172,270L335,370Z" fill="#5550a9" stroke="#5550a9" stroke-width="1.51"/><path d="M210,77L172,270L233,216Z" fill="#514aa4" stroke="#514aa4" stroke-width="1.51"/><path d="M816,1068L781,1249L1002,1120Z" fill="#759adc" stroke="#759adc" stroke-width="1.51"/><path d="M424,1122L708,1175L702,927Z" fill="#6f8bd2" stroke="#6f8bd2" stroke-width="1.51"/><path d="M1294,847L1570,796L1467,635Z" fill="#769cde" stroke="#769cde" stroke-width="1.51"/><path d="M1292,1152L1322,1045L1188,900Z" fill="#79a5e3" stroke="#79a5e3" stroke-width="1.51"/><path d="M59,451L143,613L335,370Z" fill="#5858ae" stroke="#5858ae" stroke-width="1.51"/><path d="M370,832L355,1002L417,912Z" fill="#6778c5" stroke="#6778c5" stroke-width="1.51"/><path d="M417,912L424,1122L702,927Z" fill="#6b82cb" stroke="#6b82cb" stroke-width="1.51"/><path d="M194,936L355,1002L370,832Z" fill="#6676c3" stroke="#6676c3" stroke-width="1.51"/><path d="M254,-91L210,77L505,-2Z" fill="#4e44a0" stroke="#4e44a0" stroke-width="1.51"/><path d="M1646,568L1642,446L1453,433Z" fill="#7293d7" stroke="#7293d7" stroke-width="1.51"/><path d="M1646,568L1453,433L1467,635Z" fill="#7394d7" stroke="#7394d7" stroke-width="1.51"/><path d="M1571,907L1570,796L1294,847Z" fill="#79a3e2" stroke="#79a3e2" stroke-width="1.51"/><path d="M1570,796L1646,568L1467,635Z" fill="#759cde" stroke="#759cde" stroke-width="1.51"/><path d="M708,1175L781,1249L816,1068Z" fill="#7497da" stroke="#7497da" stroke-width="1.51"/><path d="M1002,1120L1128,1218L1188,900Z" fill="#77a0e0" stroke="#77a0e0" stroke-width="1.51"/><path d="M687,1310L781,1249L708,1175Z" fill="#7498db" stroke="#7498db" stroke-width="1.51"/><path d="M1487,90L1478,-53L1324,-49Z" fill="#6472c0" stroke="#6472c0" stroke-width="1.51"/><path d="M1678,-6L1478,-53L1487,90Z" fill="#6677c4" stroke="#6677c4" stroke-width="1.51"/><path d="M994,1328L1128,1218L1002,1120Z" fill="#79a6e4" stroke="#79a6e4" stroke-width="1.51"/><path d="M355,1002L424,1122L417,912Z" fill="#6a7fc9" stroke="#6a7fc9" stroke-width="1.51"/><path d="M1322,1045L1571,907L1294,847Z" fill="#79a4e3" stroke="#79a4e3" stroke-width="1.51"/><path d="M1128,1218L1292,1152L1188,900Z" fill="#79a5e3" stroke="#79a5e3" stroke-width="1.51"/><path d="M1425,-211L1261,-254L1324,-49Z" fill="#5e64b7" stroke="#5e64b7" stroke-width="1.51"/><path d="M1212,-163L1261,-254L929,-172Z" fill="#5a5ab0" stroke="#5a5ab0" stroke-width="1.51"/><path d="M172,270L59,451L335,370Z" fill="#5652aa" stroke="#5652aa" stroke-width="1.51"/><path d="M-18,487L59,451L-113,225Z" fill="#524ba5" stroke="#524ba5" stroke-width="1.51"/><path d="M1425,1135L1571,907L1322,1045Z" fill="#7cace8" stroke="#7cace8" stroke-width="1.51"/><path d="M1570,796L1741,757L1646,568Z" fill="#78a2e2" stroke="#78a2e2" stroke-width="1.51"/><path d="M355,1002L332,1105L424,1122Z" fill="#6b81cb" stroke="#6b81cb" stroke-width="1.51"/><path d="M128,856L370,832L338,687Z" fill="#626ebd" stroke="#626ebd" stroke-width="1.51"/><path d="M128,856L338,687L143,613Z" fill="#5f67b9" stroke="#5f67b9" stroke-width="1.51"/><path d="M210,77L37,35L172,270Z" fill="#4e44a0" stroke="#4e44a0" stroke-width="1.51"/><path d="M557,-173L254,-91L505,-2Z" fill="#4e44a0" stroke="#4e44a0" stroke-width="1.51"/><path d="M458,-296L254,-91L557,-173Z" fill="#4b3e9c" stroke="#4b3e9c" stroke-width="1.51"/><path d="M180,1117L332,1105L355,1002Z" fill="#697ec9" stroke="#697ec9" stroke-width="1.51"/><path d="M437,1290L687,1310L708,1175Z" fill="#7294d8" stroke="#7294d8" stroke-width="1.51"/><path d="M268,1332L437,1290L332,1105Z" fill="#6e88d0" stroke="#6e88d0" stroke-width="1.51"/><path d="M-17,677L128,856L143,613Z" fill="#5d61b5" stroke="#5d61b5" stroke-width="1.51"/><path d="M1261,-254L458,-296L726,-229Z" fill="#514aa5" stroke="#514aa5" stroke-width="1.51"/><path d="M726,-229L458,-296L557,-173Z" fill="#4d429f" stroke="#4d429f" stroke-width="1.51"/><path d="M781,1249L994,1328L1002,1120Z" fill="#78a1e1" stroke="#78a1e1" stroke-width="1.51"/><path d="M437,1290L708,1175L424,1122Z" fill="#718fd4" stroke="#718fd4" stroke-width="1.51"/><path d="M1745,221L1663,101L1462,249Z" fill="#6c84cd" stroke="#6c84cd" stroke-width="1.51"/><path d="M1478,-53L1425,-211L1324,-49Z" fill="#616bbb" stroke="#616bbb" stroke-width="1.51"/><path d="M1745,221L1462,249L1642,446Z" fill="#6f8ad1" stroke="#6f8ad1" stroke-width="1.51"/><path d="M1292,1152L1425,1135L1322,1045Z" fill="#7cade8" stroke="#7cade8" stroke-width="1.51"/><path d="M1316,1312L1425,1135L1292,1152Z" fill="#7eb1ec" stroke="#7eb1ec" stroke-width="1.51"/><path d="M1592,-222L1425,-211L1478,-53Z" fill="#616cbc" stroke="#616cbc" stroke-width="1.51"/><path d="M1128,1218L1316,1312L1292,1152Z" fill="#7cafea" stroke="#7cafea" stroke-width="1.51"/><path d="M687,1310L994,1328L781,1249Z" fill="#769cde" stroke="#769cde" stroke-width="1.51"/><path d="M148,-301L142,-21L254,-91Z" fill="#473797" stroke="#473797" stroke-width="1.51"/><path d="M254,-91L142,-21L210,77Z" fill="#4b3f9d" stroke="#4b3f9d" stroke-width="1.51"/><path d="M59,451L-18,487L143,613Z" fill="#5755ad" stroke="#5755ad" stroke-width="1.51"/><path d="M-113,225L59,451L172,270Z" fill="#514aa5" stroke="#514aa5" stroke-width="1.51"/><path d="M1856,376L1642,446L1646,568Z" fill="#7497da" stroke="#7497da" stroke-width="1.51"/><path d="M1856,376L1745,221L1642,446Z" fill="#7293d7" stroke="#7293d7" stroke-width="1.51"/><path d="M-18,487L-17,677L143,613Z" fill="#5959af" stroke="#5959af" stroke-width="1.51"/><path d="M1571,907L1741,757L1570,796Z" fill="#7aa8e5" stroke="#7aa8e5" stroke-width="1.51"/><path d="M1634,992L1741,757L1571,907Z" fill="#7cade8" stroke="#7cade8" stroke-width="1.51"/><path d="M1425,1135L1634,992L1571,907Z" fill="#7dafea" stroke="#7dafea" stroke-width="1.51"/><path d="M1812,150L1678,-6L1663,101Z" fill="#6b82cb" stroke="#6b82cb" stroke-width="1.51"/><path d="M1663,101L1678,-6L1487,90Z" fill="#697cc8" stroke="#697cc8" stroke-width="1.51"/><path d="M458,-296L289,-268L254,-91Z" fill="#483899" stroke="#483899" stroke-width="1.51"/><path d="M332,1105L437,1290L424,1122Z" fill="#6e88d0" stroke="#6e88d0" stroke-width="1.51"/><path d="M180,1117L355,1002L194,936Z" fill="#6779c5" stroke="#6779c5" stroke-width="1.51"/><path d="M180,1117L194,936L10,951Z" fill="#6573c1" stroke="#6573c1" stroke-width="1.51"/><path d="M-36,48L37,35L-69,-4Z" fill="#473898" stroke="#473898" stroke-width="1.51"/><path d="M142,-21L37,35L210,77Z" fill="#4b3e9d" stroke="#4b3e9d" stroke-width="1.51"/><path d="M994,1328L1153,1363L1128,1218Z" fill="#7aa8e5" stroke="#7aa8e5" stroke-width="1.51"/><path d="M1425,1135L1612,1190L1634,992Z" fill="#7fb5ee" stroke="#7fb5ee" stroke-width="1.51"/><path d="M687,1310L1153,1363L994,1328Z" fill="#78a2e1" stroke="#78a2e1" stroke-width="1.51"/><path d="M268,1332L1153,1363L687,1310Z" fill="#7498da" stroke="#7498da" stroke-width="1.51"/><path d="M1741,757L1787,699L1646,568Z" fill="#79a4e2" stroke="#79a4e2" stroke-width="1.51"/><path d="M1888,859L1787,699L1741,757Z" fill="#7babe7" stroke="#7babe7" stroke-width="1.51"/><path d="M10,951L194,936L128,856Z" fill="#626dbe" stroke="#626dbe" stroke-width="1.51"/><path d="M1153,1363L1316,1312L1128,1218Z" fill="#7cade9" stroke="#7cade9" stroke-width="1.51"/><path d="M1745,221L1812,150L1663,101Z" fill="#6e87cf" stroke="#6e87cf" stroke-width="1.51"/><path d="M1787,699L1856,376L1646,568Z" fill="#769ede" stroke="#769ede" stroke-width="1.51"/><path d="M1902,341L1812,150L1745,221Z" fill="#6f8cd3" stroke="#6f8cd3" stroke-width="1.51"/><path d="M-126,776L10,951L128,856Z" fill="#5f66b9" stroke="#5f66b9" stroke-width="1.51"/><path d="M1678,-6L1592,-222L1478,-53Z" fill="#6473c1" stroke="#6473c1" stroke-width="1.51"/><path d="M1425,-211L1592,-222L1261,-254Z" fill="#5e64b7" stroke="#5e64b7" stroke-width="1.51"/><path d="M1804,-241L1592,-222L1678,-6Z" fill="#6574c1" stroke="#6574c1" stroke-width="1.51"/><path d="M-69,-4L37,35L142,-21Z" fill="#483998" stroke="#483998" stroke-width="1.51"/><path d="M37,35L-113,225L172,270Z" fill="#4d429f" stroke="#4d429f" stroke-width="1.51"/><path d="M-290,662L-126,776L-17,677Z" fill="#5857ae" stroke="#5857ae" stroke-width="1.51"/><path d="M-36,48L-113,225L37,35Z" fill="#4a3b9a" stroke="#4a3b9a" stroke-width="1.51"/><path d="M-17,677L-126,776L128,856Z" fill="#5c61b4" stroke="#5c61b4" stroke-width="1.51"/><path d="M1787,699L1902,341L1856,376Z" fill="#7599dc" stroke="#7599dc" stroke-width="1.51"/><path d="M1856,376L1902,341L1745,221Z" fill="#7190d6" stroke="#7190d6" stroke-width="1.51"/><path d="M1539,1317L1612,1190L1425,1135Z" fill="#81baf2" stroke="#81baf2" stroke-width="1.51"/><path d="M1634,992L1888,859L1741,757Z" fill="#7db0eb" stroke="#7db0eb" stroke-width="1.51"/><path d="M-290,662L-17,677L-18,487Z" fill="#5653ab" stroke="#5653ab" stroke-width="1.51"/><path d="M-55,-270L-69,-4L142,-21Z" fill="#453294" stroke="#453294" stroke-width="1.51"/><path d="M-36,48L-259,59L-113,225Z" fill="#473898" stroke="#473898" stroke-width="1.51"/><path d="M289,-268L148,-301L254,-91Z" fill="#463496" stroke="#463496" stroke-width="1.51"/><path d="M458,-296L148,-301L289,-268Z" fill="#453395" stroke="#453395" stroke-width="1.51"/><path d="M170,1327L268,1332L180,1117Z" fill="#6c83cc" stroke="#6c83cc" stroke-width="1.51"/><path d="M180,1117L268,1332L332,1105Z" fill="#6b82cc" stroke="#6b82cc" stroke-width="1.51"/><path d="M437,1290L268,1332L687,1310Z" fill="#708dd3" stroke="#708dd3" stroke-width="1.51"/><path d="M170,1327L180,1117L-38,1115Z" fill="#697cc7" stroke="#697cc7" stroke-width="1.51"/><path d="M-266,358L-192,384L-113,225Z" fill="#4c419e" stroke="#4c419e" stroke-width="1.51"/><path d="M-113,225L-192,384L-18,487Z" fill="#4f47a2" stroke="#4f47a2" stroke-width="1.51"/><path d="M1316,1312L1539,1317L1425,1135Z" fill="#7fb7ef" stroke="#7fb7ef" stroke-width="1.51"/><path d="M1153,1363L1539,1317L1316,1312Z" fill="#7eb3ed" stroke="#7eb3ed" stroke-width="1.51"/><path d="M1787,699L1888,859L1902,341Z" fill="#78a3e2" stroke="#78a3e2" stroke-width="1.51"/><path d="M1903,995L1888,859L1634,992Z" fill="#7fb5ee" stroke="#7fb5ee" stroke-width="1.51"/><path d="M1862,1149L1634,992L1612,1190Z" fill="#82bcf3" stroke="#82bcf3" stroke-width="1.51"/><path d="M-38,1115L180,1117L10,951Z" fill="#6573c1" stroke="#6573c1" stroke-width="1.51"/><path d="M-214,999L-38,1115L10,951Z" fill="#626bbc" stroke="#626bbc" stroke-width="1.51"/><path d="M-259,59L-266,358L-113,225Z" fill="#493a9a" stroke="#493a9a" stroke-width="1.51"/><path d="M-192,384L-290,662L-18,487Z" fill="#524ca6" stroke="#524ca6" stroke-width="1.51"/><path d="M-126,776L-214,999L10,951Z" fill="#5e64b6" stroke="#5e64b6" stroke-width="1.51"/><path d="M1539,1317L1705,1256L1612,1190Z" fill="#82bff5" stroke="#82bff5" stroke-width="1.51"/><path d="M1902,341L1884,-86L1812,150Z" fill="#6d87ce" stroke="#6d87ce" stroke-width="1.51"/><path d="M1812,150L1884,-86L1678,-6Z" fill="#6a80ca" stroke="#6a80ca" stroke-width="1.51"/><path d="M1862,1149L1903,995L1634,992Z" fill="#81baf2" stroke="#81baf2" stroke-width="1.51"/><path d="M1888,859L1903,995L1902,341Z" fill="#7aa8e6" stroke="#7aa8e6" stroke-width="1.51"/><path d="M1884,-86L1804,-241L1678,-6Z" fill="#6779c5" stroke="#6779c5" stroke-width="1.51"/><path d="M1592,-222L1804,-241L1261,-254Z" fill="#6069ba" stroke="#6069ba" stroke-width="1.51"/><path d="M1261,-254L1804,-241L458,-296Z" fill="#5859ae" stroke="#5859ae" stroke-width="1.51"/><path d="M-266,358L-290,662L-192,384Z" fill="#4f46a2" stroke="#4f46a2" stroke-width="1.51"/><path d="M148,-301L-55,-270L142,-21Z" fill="#433092" stroke="#433092" stroke-width="1.51"/><path d="M-69,-4L-259,59L-36,48Z" fill="#463496" stroke="#463496" stroke-width="1.51"/><path d="M-261,-229L-221,-8L-69,-4Z" fill="#412b8f" stroke="#412b8f" stroke-width="1.51"/><path d="M-221,-8L-259,59L-69,-4Z" fill="#443093" stroke="#443093" stroke-width="1.51"/><path d="M-266,358L-303,757L-290,662Z" fill="#524ca6" stroke="#524ca6" stroke-width="1.51"/><path d="M1705,1256L1862,1149L1612,1190Z" fill="#83c2f7" stroke="#83c2f7" stroke-width="1.51"/><path d="M-303,757L-214,999L-126,776Z" fill="#5a5cb1" stroke="#5a5cb1" stroke-width="1.51"/><path d="M-38,1115L-74,1313L170,1327Z" fill="#687bc6" stroke="#687bc6" stroke-width="1.51"/><path d="M-290,662L-303,757L-126,776Z" fill="#5755ad" stroke="#5755ad" stroke-width="1.51"/><path d="M-259,59L-303,757L-266,358Z" fill="#4c419e" stroke="#4c419e" stroke-width="1.51"/><path d="M-232,1118L-74,1313L-38,1115Z" fill="#6573c1" stroke="#6573c1" stroke-width="1.51"/><path d="M-303,757L-232,1118L-214,999Z" fill="#5c61b4" stroke="#5c61b4" stroke-width="1.51"/><path d="M-214,999L-232,1118L-38,1115Z" fill="#616bbb" stroke="#616bbb" stroke-width="1.51"/><path d="M-55,-270L-261,-229L-69,-4Z" fill="#3f288e" stroke="#3f288e" stroke-width="1.51"/><path d="M-221,-8L-261,-229L-259,59Z" fill="#3f298f" stroke="#3f298f" stroke-width="1.51"/><path d="M-259,59L-261,-229L-303,757Z" fill="#473697" stroke="#473697" stroke-width="1.51"/><path d="M1705,1256L1842,1372L1862,1149Z" fill="#84c5f9" stroke="#84c5f9" stroke-width="1.51"/><path d="M1862,1149L1842,1372L1903,995Z" fill="#83c2f7" stroke="#83c2f7" stroke-width="1.51"/><path d="M1539,1317L1842,1372L1705,1256Z" fill="#83c2f7" stroke="#83c2f7" stroke-width="1.51"/><path d="M1153,1363L1842,1372L1539,1317Z" fill="#81baf2" stroke="#81baf2" stroke-width="1.51"/><path d="M-232,1118L-237,1353L-74,1313Z" fill="#6573c1" stroke="#6573c1" stroke-width="1.51"/><path d="M-74,1313L-237,1353L170,1327Z" fill="#6778c5" stroke="#6778c5" stroke-width="1.51"/><path d="M170,1327L-237,1353L268,1332Z" fill="#697dc8" stroke="#697dc8" stroke-width="1.51"/><path d="M268,1332L-237,1353L1153,1363Z" fill="#6e8ad1" stroke="#6e8ad1" stroke-width="1.51"/><path d="M1153,1363L-237,1353L1842,1372Z" fill="#77a0e0" stroke="#77a0e0" stroke-width="1.51"/><path d="M-303,757L-237,1353L-232,1118Z" fill="#5f67b9" stroke="#5f67b9" stroke-width="1.51"/></svg>