<?xml version="1.0" standalone="no"?>
<!DOCTYPE svg PUBLIC "-//W3C//DTD SVG 20010904//EN"
        "http://www.w3.org/TR/2001/REC-SVG-20010904/DTD/svg10.dtd">
<svg version="1.0" xmlns="http://www.w3.org/2000/svg"
     width="624.000000pt" height="227.000000pt" viewBox="0 0 624.000000 227.000000"
     preserveAspectRatio="xMidYMid meet">
    <metadata>
        Created by potrace 1.15, written by Peter Selinger 2001-2017
    </metadata>
    <g transform="translate(0.000000,227.000000) scale(0.100000,-0.100000)"
       fill="#FFFFFF" stroke="none">
        <path d="M2175 2043 c-116 -15 -232 -72 -322 -157 -124 -116 -186 -257 -187
-421 -1 -49 2 -110 6 -135 6 -33 -41 51 -180 328 l-187 372 -35 0 -35 0 -479
-959 c-470 -939 -479 -959 -467 -990 l13 -31 194 0 194 0 289 578 289 577 128
-257 129 -258 194 0 c173 0 195 2 207 18 7 9 14 25 14 35 0 9 -37 90 -81 180
l-82 162 72 -67 c73 -70 146 -113 241 -143 46 -15 108 -19 386 -24 l331 -6 36
-25 c106 -71 128 -208 49 -302 -29 -35 -94 -67 -133 -68 -53 0 -59 -21 -59
-202 0 -207 0 -207 118 -190 149 21 265 82 363 191 109 119 153 236 153 401 0
118 -16 188 -67 285 -41 78 -164 201 -242 242 -122 64 -139 66 -495 71 -345 4
-353 5 -408 56 -82 74 -82 217 0 293 28 27 89 53 121 53 51 0 57 22 57 202 0
205 -1 207 -125 191z"/>
        <path d="M2782 2025 c-7 -14 -12 -30 -12 -35 0 -18 154 -276 183 -307 l31 -33
349 0 c231 0 362 -4 387 -11 55 -17 130 -77 165 -133 27 -45 30 -57 30 -135 0
-75 -3 -92 -27 -132 -29 -50 -79 -98 -131 -126 -27 -15 -63 -19 -219 -21 -269
-5 -266 28 -36 -370 100 -174 228 -396 284 -492 l102 -175 200 -3 199 -2 13
30 c12 29 7 40 -173 354 l-185 325 57 35 c124 77 241 227 287 370 22 67 27
101 28 196 1 135 -12 196 -64 305 -65 134 -167 240 -300 309 -131 69 -132 69
-671 73 l-485 4 -12 -26z"/>
        <path d="M4182 2025 c-7 -14 -12 -30 -12 -35 0 -18 154 -276 183 -307 l31 -33
349 0 c231 0 362 -4 387 -11 55 -17 130 -77 165 -133 27 -45 30 -57 30 -135 0
-75 -3 -92 -27 -132 -29 -50 -79 -98 -131 -126 -27 -15 -63 -19 -219 -21 -269
-5 -266 28 -36 -370 100 -174 228 -396 284 -492 l102 -175 200 -3 199 -2 13
30 c12 29 7 40 -173 354 l-185 325 57 35 c124 77 241 227 287 370 22 67 27
101 28 196 1 135 -12 196 -64 305 -65 134 -167 240 -300 309 -131 69 -132 69
-671 73 l-485 4 -12 -26z"/>
        <path d="M1695 423 l-18 -27 87 -173 86 -173 194 0 194 0 13 32 c13 31 10 37
-72 197 l-84 166 -191 3 -191 2 -18 -27z"/>
    </g>
</svg>
