<?xml version="1.0" standalone="no"?>
<!DOCTYPE svg PUBLIC "-//W3C//DTD SVG 20010904//EN"
        "http://www.w3.org/TR/2001/REC-SVG-20010904/DTD/svg10.dtd">
<svg version="1.0" xmlns="http://www.w3.org/2000/svg"
     width="560.000000pt" height="559.000000pt" viewBox="0 0 560.000000 559.000000"
     preserveAspectRatio="xMidYMid meet">
    <metadata>
        Created by potrace 1.15, written by Peter Selinger 2001-2017
    </metadata>
    <g transform="translate(0.000000,559.000000) scale(0.100000,-0.100000)"
       fill="#FFFFFF" stroke="none">
        <path d="M895 5278 c57 -117 263 -537 458 -933 l355 -720 411 -3 411 -2 0
-295 c0 -162 3 -295 8 -295 7 0 454 812 460 837 3 11 -87 13 -515 13 l-519 0
-237 464 c-130 255 -237 466 -237 468 0 3 187 -64 417 -149 229 -84 420 -150
423 -146 4 4 94 105 200 223 106 118 196 215 201 215 5 0 100 -99 211 -220
111 -121 205 -221 209 -223 3 -1 191 76 418 171 226 96 411 172 411 168 0 -3
-113 -220 -250 -481 l-250 -475 118 -8 c64 -4 143 -6 175 -5 l58 3 409 785
c225 432 410 790 410 796 0 6 -327 -118 -726 -277 -399 -159 -730 -287 -734
-284 -5 3 -106 120 -225 260 -119 140 -219 255 -223 255 -4 0 -114 -120 -246
-266 -131 -146 -243 -263 -250 -261 -6 3 -334 138 -728 301 -394 163 -719 296
-721 296 -3 0 41 -96 98 -212z"/>
        <path d="M2876 2823 c-154 -296 -280 -539 -281 -540 0 -1 -36 9 -79 22 -42 13
-103 29 -134 35 -31 6 -74 16 -94 21 l-38 10 0 489 0 490 -180 0 -180 0 0
-1580 0 -1580 180 0 180 0 0 834 0 834 112 -35 c552 -173 949 -662 999 -1233
11 -120 7 -331 -7 -377 l-6 -23 255 0 255 0 8 78 c9 104 -2 408 -22 557 -39
292 -136 573 -271 776 -114 174 -295 333 -550 486 l-92 55 300 600 c165 330
299 601 297 603 -2 1 -86 6 -188 10 l-185 6 -279 -538z"/>
    </g>
</svg>
