<?xml version="1.0" standalone="no"?>
<!DOCTYPE svg PUBLIC "-//W3C//DTD SVG 20010904//EN"
 "http://www.w3.org/TR/2001/REC-SVG-20010904/DTD/svg10.dtd">
<svg version="1.0" xmlns="http://www.w3.org/2000/svg"
 width="542.000000pt" height="426.000000pt" viewBox="0 0 542.000000 426.000000"
 preserveAspectRatio="xMidYMid meet">

<g transform="translate(0.000000,426.000000) scale(0.100000,-0.100000)"
fill="#000000" stroke="none">
<path d="M2 3963 c1 -290 4 -290 17 -2 1 24 5 27 57 32 84 9 412 -11 564 -34
237 -35 460 -92 681 -171 l96 -35 -19 49 c-11 30 -18 74 -18 118 0 178 109
297 303 329 31 5 -293 9 -815 10 l-868 1 2 -297z"/>
<path d="M1915 4245 c207 -39 364 -153 514 -373 132 -195 240 -526 266 -814 4
-43 11 -78 15 -78 4 0 11 35 15 78 19 216 94 491 180 662 145 288 335 464 563
520 l77 19 -850 -1 c-732 0 -840 -2 -780 -13z"/>
<path d="M3787 4245 c29 -8 70 -23 92 -34 57 -30 128 -114 146 -174 21 -71 19
-176 -4 -237 -17 -44 -17 -49 -2 -41 40 21 280 96 416 131 83 21 224 50 315
64 175 27 501 49 594 39 54 -6 56 -7 57 -37 12 -257 16 -253 17 17 l2 287
-842 -1 c-745 0 -837 -2 -791 -14z"/>
<path d="M1690 4119 c-142 -28 -218 -163 -160 -284 24 -49 62 -79 120 -95 37
-10 52 -9 110 10 63 20 70 21 99 6 31 -16 48 -53 38 -80 -7 -17 -108 -66 -139
-66 -21 -1 -21 -2 7 -16 251 -131 549 -331 734 -493 l64 -56 -7 60 c-34 283
-150 586 -291 763 -118 146 -228 218 -379 247 -85 16 -128 17 -196 4z"/>
<path d="M3550 4123 c-305 -51 -556 -379 -658 -863 -11 -52 -24 -122 -28 -155
l-7 -59 64 55 c196 170 483 365 691 470 l62 31 -51 18 c-101 35 -126 71 -83
117 30 33 53 35 121 13 54 -18 69 -20 109 -10 114 27 172 154 121 265 -24 53
-70 91 -133 110 -48 14 -149 18 -208 8z"/>
<path d="M174 3863 l-31 -4 -6 -137 c-15 -413 57 -760 238 -1139 250 -524 656
-986 1034 -1177 34 -18 49 -31 44 -39 -4 -7 -24 -37 -45 -68 -52 -77 -112
-208 -140 -304 -19 -66 -22 -104 -22 -220 0 -126 2 -148 27 -218 72 -205 226
-348 437 -404 92 -25 319 -24 414 1 182 48 328 137 484 294 l102 104 98 -99
c186 -190 362 -285 580 -314 245 -33 464 30 608 175 78 79 113 135 152 246 24
67 26 90 26 215 0 116 -3 154 -22 220 -28 95 -84 219 -138 301 -21 32 -43 64
-47 71 -5 8 9 21 43 38 361 183 759 625 1005 1115 204 407 286 774 268 1196
l-6 142 -40 5 c-63 9 -323 -10 -458 -33 -693 -117 -1424 -492 -1955 -1002
l-114 -110 -113 108 c-524 507 -1263 887 -1956 1004 -98 17 -409 44 -431 38
-3 -1 -19 -3 -36 -5z m2574 -1390 c89 -139 162 -325 199 -508 14 -70 18 -136
18 -300 0 -236 -16 -337 -81 -535 -35 -108 -159 -370 -174 -370 -15 0 -139
262 -174 370 -65 198 -81 299 -81 535 0 235 11 311 71 495 44 136 158 360 184
360 4 0 22 -21 38 -47z"/>
<path d="M1 1758 l-1 -1758 898 1 c801 1 889 2 825 15 -192 38 -373 151 -478
299 -103 144 -147 287 -147 475 0 186 29 285 159 540 2 3 -21 19 -49 37 -146
87 -407 331 -561 523 -89 110 -240 337 -312 469 -191 348 -299 694 -324 1043
-5 65 -9 -638 -10 -1644z"/>
<path d="M5410 3433 c0 -96 -34 -315 -70 -448 -79 -299 -213 -585 -411 -880
-113 -169 -198 -273 -339 -419 -134 -138 -337 -305 -428 -352 -1 0 18 -39 42
-85 171 -322 161 -669 -29 -934 -105 -148 -286 -261 -478 -299 -64 -13 24 -14
826 -15 l897 -1 0 1750 c0 963 -2 1750 -5 1750 -3 0 -5 -30 -5 -67z"/>
<path d="M2669 314 c-47 -50 -176 -146 -252 -188 -84 -47 -184 -84 -287 -106
l-85 -19 665 0 665 0 -85 19 c-103 22 -203 59 -287 106 -76 42 -205 138 -252
188 -19 20 -38 36 -41 36 -3 0 -22 -16 -41 -36z"/>
</g>
</svg>
