<?xml version="1.0" encoding="utf-8"?>
<!-- Generator: Adobe Illustrator 16.0.0, SVG Export Plug-In . SVG Version: 6.00 Build 0)  -->
<!DOCTYPE svg PUBLIC "-//W3C//DTD SVG 1.1//EN" "http://www.w3.org/Graphics/SVG/1.1/DTD/svg11.dtd">
<svg version="1.1" xmlns="http://www.w3.org/2000/svg" xmlns:xlink="http://www.w3.org/1999/xlink" x="0px" y="0px"
	 width="1076.063px" height="755.227px" viewBox="0 0 1076.063 755.227" enable-background="new 0 0 1076.063 755.227"
	 xml:space="preserve">
<g id="Layer_2">
	<polygon fill="#FF8080" points="657.506,340.884 658.319,133.478 838.344,30.478 1017.557,134.884 1016.745,342.291 
		836.719,445.292 	"/>
	<ellipse fill="#F2F2F2" cx="329.563" cy="457.95" rx="285.436" ry="149.062"/>
	<rect x="215.623" y="71.205" fill="#FFFFFF" width="673.94" height="438.062"/>
</g>
<g id="ade8c9af-7e2e-4eda-b5c8-b06129257226">
	<title>web_developer</title>
	<circle fill="#F2F2F2" cx="311.563" cy="308.663" r="65"/>
	<path fill="#3F3D56" d="M848.43,224.245H484.18v-76.219h364.25V224.245z M485.786,222.641h361.039v-73.01H485.786V222.641z"/>
	<rect x="459.309" y="163.27" fill="#FF8080" width="362.645" height="74.615"/>
	<circle fill="#FF8080" cx="230.064" cy="86.448" r="5.616"/>
	<circle fill="#FF8080" cx="249.32" cy="86.448" r="5.616"/>
	<circle fill="#FF8080" cx="268.576" cy="86.448" r="5.616"/>
	<path fill="#3F3D56" d="M889.563,510.872H214.019V71.205h675.544V510.872z M215.623,509.266h672.336V72.809H215.623V509.266z"/>
	<rect x="214.821" y="95.542" fill="#3F3D56" width="673.941" height="1.605"/>
	<path fill="#3F3D56" d="M231.67,90.46c-3.545,0-6.419-2.874-6.419-6.418s2.874-6.418,6.419-6.418s6.418,2.874,6.418,6.418
		C238.084,87.584,235.213,90.456,231.67,90.46z M231.67,79.228c-2.659,0-4.814,2.155-4.814,4.814s2.155,4.814,4.814,4.814
		c2.658,0,4.813-2.155,4.813-4.814C236.48,81.384,234.327,79.231,231.67,79.228z"/>
	<path fill="#3F3D56" d="M250.925,90.46c-3.545,0-6.418-2.874-6.418-6.418s2.873-6.418,6.418-6.418s6.419,2.874,6.419,6.418
		C257.34,87.584,254.468,90.456,250.925,90.46z M250.925,79.228c-2.658,0-4.813,2.155-4.813,4.814s2.155,4.814,4.813,4.814
		c2.659,0,4.814-2.155,4.814-4.814C255.736,81.384,253.582,79.231,250.925,79.228z"/>
	<path fill="#3F3D56" d="M270.181,90.46c-3.545,0-6.419-2.874-6.419-6.418s2.874-6.418,6.419-6.418s6.418,2.874,6.418,6.418l0,0
		C276.595,87.584,273.724,90.456,270.181,90.46z M270.181,79.228c-2.659,0-4.814,2.155-4.814,4.814s2.155,4.814,4.814,4.814
		c2.658,0,4.813-2.155,4.813-4.814l0,0C274.991,81.384,272.838,79.231,270.181,79.228z"/>
	<rect x="425.61" y="96.345" fill="#3F3D56" width="1.604" height="414.347"/>
	<rect x="502.233" y="300.063" fill="#F2F2F2" width="117.939" height="16.046"/>
	<rect x="687.567" y="300.063" fill="#F2F2F2" width="117.939" height="16.046"/>
	<path fill="#3F3D56" d="M627.393,308.889H507.85v-17.65h119.543V308.889z M509.454,307.284H625.79v-14.441H509.454V307.284z"/>
	<rect x="502.233" y="424.421" fill="#F2F2F2" width="117.939" height="16.046"/>
	<path fill="#3F3D56" d="M627.393,433.247H507.85v-17.65h119.543V433.247z M509.454,431.642H625.79v-14.441H509.454V431.642z"/>
	<rect x="502.633" y="360.638" fill="#F2F2F2" width="303.273" height="16.046"/>
	<path fill="#3F3D56" d="M813.127,371.068H508.25v-17.651h304.877V371.068z M509.854,369.463h301.67v-14.442h-301.67V369.463z"/>
	<path fill="#3F3D56" d="M812.727,308.889H693.182v-17.65h119.545V308.889z M694.788,307.284h116.334v-14.441H694.788V307.284z"/>
	<path fill="#3F3D56" d="M322.563,356.663c-36.45,0-66-29.549-66-66s29.55-66,66-66c36.451,0,66,29.549,66,66
		C388.522,327.096,358.997,356.622,322.563,356.663z M322.563,226.663c-35.346,0-64,28.654-64,64s28.654,64,64,64
		c35.347,0,64-28.654,64-64C386.524,255.333,357.893,226.703,322.563,226.663z"/>
	<path fill="#3F3D56" d="M714.145,610.424c-6.984,26.598-31.459,43.219-31.459,43.219s-13.15-26.502-6.164-53.1
		c6.984-26.598,31.459-43.221,31.459-43.221S721.131,583.825,714.145,610.424z"/>
	<path fill="#FF8080" d="M703.551,604.797c-19.563,19.326-21.75,48.83-21.75,48.83s29.527-1.83,49.09-21.158
		c19.563-19.326,21.752-48.832,21.752-48.832S723.114,585.469,703.551,604.797z"/>
	<rect x="598.063" y="652.458" fill="#3F3D56" width="283" height="2"/>
</g>
</svg>
