<?xml version="1.0" encoding="utf-8"?>
<!-- Generator: Adobe Illustrator 16.0.0, SVG Export Plug-In . SVG Version: 6.00 Build 0)  -->
<!DOCTYPE svg PUBLIC "-//W3C//DTD SVG 1.1//EN" "http://www.w3.org/Graphics/SVG/1.1/DTD/svg11.dtd">
<svg version="1.1" id="f010fad9-d75e-40fc-a29f-2de004ea6566"
	 xmlns="http://www.w3.org/2000/svg" xmlns:xlink="http://www.w3.org/1999/xlink" x="0px" y="0px" width="956.73px"
	 height="713.191px" viewBox="0 0 956.73 713.191" enable-background="new 0 0 956.73 713.191" xml:space="preserve">
<title>creative thinking</title>
<ellipse fill="#3F3D56" cx="471" cy="667.191" rx="471" ry="46"/>
<ellipse opacity="0.1" enable-background="new    " cx="331" cy="660.691" rx="222" ry="33.5"/>
<path fill="#455878" d="M220.37,260.74c-104.26,0-188.77,84.52-188.77,188.769c0,104.25,84.55,188.771,188.77,188.771
	c12.845,0.004,25.657-1.297,38.24-3.881c-17.961-29.529-27.435-63.438-27.38-98c0-91.141,64.6-167.199,150.52-184.88
	C347.526,295.128,286.334,260.706,220.37,260.74z"/>
<path opacity="0.1" enable-background="new    " d="M50.65,454.941c0-104.25,84.52-188.761,188.77-188.761
	c10.148,0.001,20.281,0.813,30.3,2.43c-16.091-4.335-32.685-6.524-49.35-6.51c-104.26,0-188.77,84.52-188.77,188.771
	c0,94,68.69,171.91,158.61,186.35C107.856,614.96,50.654,540.25,50.65,454.941z"/>
<path fill="#455878" d="M380.85,350.15c56.396-34.222,90.822-95.414,90.79-161.38C471.64,84.52,387.13,0,282.87,0
	C178.61,0,94.11,84.52,94.11,188.77c-0.005,12.849,1.295,25.664,3.88,38.25c29.524-17.972,63.436-27.45,98-27.39
	C287.11,199.6,363.17,264.24,380.85,350.15z"/>
<path opacity="0.1" enable-background="new    " d="M455.37,188.77c0.045,59.955-28.436,116.355-76.71,151.91
	c0.81,3.13,1.56,6.28,2.22,9.471c56.396-34.222,90.822-95.414,90.79-161.38C471.67,84.52,387.16,0,282.9,0
	c-2.73,0-5.44,0.07-8.14,0.19C375.2,4.46,455.37,87.25,455.37,188.77z"/>
<path fill="#FFBFC5" d="M372.61,435.041c-3.091,1.578-6.031,3.439-8.78,5.559c-2.763,2.139-4.878,5.002-6.11,8.271
	c-1.71-3.551-2.64-7.41-3.78-11.18c-2.183-6.842-4.761-13.549-7.72-20.092c4.872-1.859,9.095-5.102,12.15-9.33
	c6,5.951,12.11,12.15,15.08,20c0.51,1.361,2,2.811,2.35,4C376.27,434.041,373.91,434.32,372.61,435.041z"/>
<path fill="#3F3D56" d="M207.37,627.72c0,44.619,32.19,49.35,71.91,49.35c39.72,0,71.9-4.73,71.9-49.35
	c0-44.621-32.19-61.57-71.9-61.57C239.57,566.15,207.37,583.111,207.37,627.72z"/>
<path fill="#F1F1F1" d="M428.8,579.97c6.524,2.057,12.608,5.313,17.94,9.6c0.4,0.25,0.689,0.643,0.81,1.1
	c0.141,1-1.24,1.451-2.24,1.74c-3,0.85-4.829,3.621-7,5.779c-2.17,2.16-5.649,3.871-8.18,2.141c-0.664-0.51-1.245-1.119-1.72-1.811
	l-10.68-13.92c3.62-2.027,7.428-3.701,11.369-5"/>
<path fill="#575A89" d="M448.01,582.871c1.42,1.439,2,3.52,3.42,5c0.932,0.891,1.998,1.631,3.16,2.189l8.18,4.5
	c1.27,0.752,2.609,1.379,4,1.869c1.539,0.439,3.106,0.773,4.69,1c2.27,0.439,4.487,1.109,6.62,2c1.6,0.66,3.39,1.791,3.38,3.521
	c-0.069,0.85-0.421,1.652-1,2.279c-3.22,4.061-8.93,5-14.09,5.51c-11.16,1.18-22.58,2.061-33.49-0.57
	c-2.131-0.393-4.146-1.264-5.89-2.549c-3.29-2.73-4-7.701-2.721-11.791c0.348-1.572,1.276-2.953,2.601-3.869
	c1.729-1,3.88-0.531,5.87-0.68c2.096-0.297,4.125-0.949,6-1.932c1.25-0.559,2.68-1.289,3-2.77c0.319-1.48-1.37-2.76-1-4
	C441.44,579.791,446.71,581.541,448.01,582.871z"/>
<path opacity="0.1" enable-background="new    " d="M448.01,582.871c1.42,1.439,2,3.52,3.42,5c0.932,0.891,1.998,1.631,3.16,2.189
	l8.18,4.5c1.27,0.752,2.609,1.379,4,1.869c1.539,0.439,3.106,0.773,4.69,1c2.27,0.439,4.487,1.109,6.62,2
	c1.6,0.66,3.39,1.791,3.38,3.521c-0.069,0.85-0.421,1.652-1,2.279c-3.22,4.061-8.93,5-14.09,5.51
	c-11.16,1.18-22.58,2.061-33.49-0.57c-2.131-0.393-4.146-1.264-5.89-2.549c-3.29-2.73-4-7.701-2.721-11.791
	c0.348-1.572,1.276-2.953,2.601-3.869c1.729-1,3.88-0.531,5.87-0.68c2.096-0.297,4.125-0.949,6-1.932c1.25-0.559,2.68-1.289,3-2.77
	c0.319-1.48-1.37-2.76-1-4C441.44,579.791,446.71,581.541,448.01,582.871z"/>
<path fill="#F1F1F1" d="M466.98,627.531l3.439,2.27c1.051,0.561,1.916,1.416,2.49,2.459c0.75,1.75-0.26,3.73-1.38,5.271
	c-3.361,4.596-7.95,8.152-13.24,10.26c-1.834,0.764-3.772,1.244-5.75,1.43c-0.449,0.074-0.911,0.018-1.33-0.16
	c-1.05-0.561-0.9-2.051-0.91-3.24c0-3.43-2.63-6.221-5-8.75s-4.71-5.629-4.17-9c0.495-2.002,1.533-3.83,3-5.279
	c1.288-1.625,2.804-3.057,4.5-4.25c2.43-1.59,3.28-0.73,5.561,0.719C458.477,621.986,462.74,624.744,466.98,627.531z"/>
<path fill="#575A89" d="M455.82,644.269c1.895,0.48,3.904,0.027,5.41-1.219c1.478-1.24,2.675-2.781,3.51-4.52
	c0.84-1.541,1.568-3.137,2.18-4.781c0.72-1.93,1.38-4.061,3.08-5.23c2-1.42,4.94-0.859,7,0.512c2.06,1.369,3.62,3.398,5.39,5.158
	c4.17,4.16,9.66,6.791,15.301,8.512c5.64,1.719,11.489,2.58,17.279,3.689c1.162,0.154,2.286,0.518,3.32,1.07
	c2.34,1.43,3.13,4.619,2.47,7.279s-2.39,4.859-4.279,6.859c-1.575,1.867-3.528,3.377-5.73,4.432c-1.857,0.676-3.813,1.049-5.79,1.1
	c-9.592,0.646-19.227-0.107-28.6-2.24c-3.44-0.939-6.942-1.639-10.48-2.09c-2.149-0.189-4.33-0.131-6.479-0.281
	c-4.296-0.295-8.496-1.4-12.38-3.26c-0.944-0.348-1.739-1.012-2.25-1.879c-0.282-0.797-0.342-1.654-0.171-2.48l1.431-12.539
	c0.13-1.092,0.49-2.451,1.58-2.621s1.78,0.9,2.43,1.721c2.595,3.102,6.958,4.055,10.61,2.32"/>
<path fill="#575A89" d="M372.78,486.13c6.29-0.711,13.59-0.83,17.85,3.859c2.61,2.881,3.4,6.91,4.3,10.68
	c1.412,6.344,3.707,12.457,6.82,18.16c2,3.541,4.43,6.85,6,10.609c1.57,3.762,2.16,8,3.08,12.092
	c3.685,16.039,12.686,30.361,25.54,40.639c-2.271,6.17-8.84,9.701-15.23,11.281c-1.542,0.51-3.198,0.563-4.77,0.148
	c-1.19-0.514-2.247-1.295-3.09-2.279c-2.986-3.227-5.769-6.637-8.33-10.209c-9.21-12.301-18.55-24.852-23.57-39.361
	c-1.76-5.1-3.52-11-8.47-13.17c-2.82-1.219-6.05-0.84-9.08-0.32c-6.771,1.145-13.434,2.855-19.92,5.111
	c-6.92,2.41-14.84,5.369-21.17,1.689c-3.79-2.211-6-6.439-6.87-10.74c-0.87-4.301-0.43-8.74,0-13.1
	c0.042-1.965,0.513-3.896,1.38-5.66c0.876-1.32,2-2.457,3.31-3.35c5.655-4.283,11.944-7.658,18.64-10c6.39-2.26,13.27-3,19.94-4.131
	C363.667,487.292,368.213,486.644,372.78,486.13z"/>
<path opacity="0.1" enable-background="new    " d="M372.78,486.13c6.29-0.711,13.59-0.83,17.85,3.859
	c2.61,2.881,3.4,6.91,4.3,10.68c1.412,6.344,3.707,12.457,6.82,18.16c2,3.541,4.43,6.85,6,10.609c1.57,3.762,2.16,8,3.08,12.092
	c3.685,16.039,12.686,30.361,25.54,40.639c-2.271,6.17-8.84,9.701-15.23,11.281c-1.542,0.51-3.198,0.563-4.77,0.148
	c-1.19-0.514-2.247-1.295-3.09-2.279c-2.986-3.227-5.769-6.637-8.33-10.209c-9.21-12.301-18.55-24.852-23.57-39.361
	c-1.76-5.1-3.52-11-8.47-13.17c-2.82-1.219-6.05-0.84-9.08-0.32c-6.771,1.145-13.434,2.855-19.92,5.111
	c-6.92,2.41-14.84,5.369-21.17,1.689c-3.79-2.211-6-6.439-6.87-10.74c-0.87-4.301-0.43-8.74,0-13.1
	c0.042-1.965,0.513-3.896,1.38-5.66c0.876-1.32,2-2.457,3.31-3.35c5.655-4.283,11.944-7.658,18.64-10c6.39-2.26,13.27-3,19.94-4.131
	C363.667,487.292,368.213,486.644,372.78,486.13z"/>
<path fill="#FFBFC5" d="M408.8,531.509c2.938,1.469,5.635,3.373,8,5.65c2.55,2.721,4.101,6.23,5.42,9.73
	c0.519,1.193,0.836,2.463,0.94,3.76c0.098,1.313-0.415,2.596-1.391,3.48c-1.161,0.762-2.545,1.113-3.93,1c-1.82,0-3.65,0-5.47-0.141
	c-1.108-0.008-2.207-0.219-3.24-0.619c-0.946-0.484-1.799-1.131-2.52-1.91c-3.208-2.979-5.835-6.525-7.75-10.461
	c-1.32-2.91-3.5-9.629-1.42-12.66C399.52,526.31,406.54,530.22,408.8,531.509z"/>
<path fill="#575A89" d="M320.57,530.47c9.31,3,19.22,3.32,28.95,4.23c16.366,1.531,32.533,4.727,48.25,9.539
	c3.221,1,6.511,2.08,9.101,4.23c2.104,1.945,3.887,4.215,5.28,6.719c2.557,3.895,4.87,7.943,6.93,12.121
	c1.77,3.779,3.12,7.74,4.76,11.57c5.525,12.828,14.263,24.018,25.37,32.49c2,1.549,4.29,3.229,4.81,5.719
	c0.237,1.607-0.024,3.248-0.75,4.701c-2.399,5.59-7.38,9.66-12.609,12.77c-2.24,1.34-4.72,2.689-5.82,5.07
	c-7.939-3.281-13.85-10.281-18.76-17.32c-4.91-7.041-9.28-14.631-15.58-20.471c-2.77-2.58-5.92-4.82-8.11-7.92
	c-3.33-4.719-4.23-11.18-8.71-14.82c-4.48-3.639-11-3.17-16.79-2.6c-29.666,2.893-59.557,2.557-89.15-1
	c-6.15-0.73-12.47-1.67-17.8-4.84s-9.48-9.09-8.73-15.24c0.71-5.76,5.5-10.32,10.85-12.57s11.25-2.66,17-3.309
	C293.37,537.96,307.03,535.361,320.57,530.47z"/>
<path fill="#3F3D56" d="M235.48,542.419c0.73-4.879,2.62-9.5,3.81-14.289c0.594-3.016,1.349-5.996,2.26-8.93
	c0-0.09,0.07-0.17,0.1-0.25c0.611-0.051,1.168-0.369,1.52-0.871c0.164-0.426,0.209-0.889,0.13-1.34c-0.035-0.477-0.035-0.953,0-1.43
	c1.949-3.266,4.08-6.422,6.38-9.449c4-5.711,7.52-11.781,11-17.842c2.86-5,5.72-9.939,8.08-15.158c1.78-3.91,3.27-8,5.23-11.781
	c7-13.6,19.52-23.629,33-30.83c12.94-6.91,26.93-11.561,40.53-17.061c0.346,0.348,0.664,0.723,0.95,1.121
	c7.35,10.051,8.14,23.25,11.17,35.33c1.22,4.879,2.85,9.74,2.85,14.76c0,7.42-3.55,14.32-7.08,20.85
	c-3.31,6.15-6.72,12.301-11.11,17.73c-2.08,2.58-4.37,5-6.46,7.551c-8.58,10.51-13.53,23.439-18.35,36.129
	c-2.78,7.35-7.34,13.859-10.4,21.1c-1.18,2.781-1.86,5.771-3.34,8.41c-1.48,2.641-4.05,4.939-7.07,5
	c-0.884-0.027-1.761-0.164-2.61-0.41c-10.93-2.809-20.08-10-29.16-16.74c-1.63-1.199-3.26-2.379-5-3.459c-1.74-1.08-3.5-2.07-5.28-3
	l-4.06-2.23c-4.42-2.42-8.86-4.85-13.47-6.9c-1.392-0.543-2.73-1.213-4-2C235.113,545.085,235.241,543.744,235.48,542.419z"/>
<circle fill="#FFBFC5" cx="378.36" cy="409.02" r="25.181"/>
<path fill="#3F3D56" d="M395.31,397.24c1.255,2.17,3.728,3.33,6.2,2.91c2.431-0.488,4.538-1.99,5.79-4.131
	c1.226-2.123,1.957-4.494,2.141-6.939c0.21-1.91,0.18-4-1.051-5.49c-0.935-0.914-2.012-1.67-3.189-2.24c-1.63-0.998-3-2.369-4-4
	c-0.7-1.17-1.21-2.439-1.84-3.639c-2.29-4.35-6.75-7.891-11.66-7.73c-2.36,0.08-4.61,1-6.94,1.381
	c-7.81,1.369-16.29-2.762-23.54,0.459c-1.78,0.867-3.435,1.971-4.92,3.279c-2.04,1.688-4,3.461-5.88,5.32
	c-1.632,1.391-2.868,3.188-3.58,5.211c-1,3.699,1.35,7.83-0.14,11.35c-0.506,1.008-1.112,1.963-1.81,2.85
	c-1.64,2.41,0.14,11.82,0,14.73c-0.204,1.412,0.156,2.85,1,4c1.19,1.33,3.18,1.439,5,1.459h3.27c0.488,0.037,0.979-0.014,1.45-0.148
	c0.643-0.283,1.208-0.715,1.65-1.26c2.72-2.871,3.3-12.24,7.25-12.201c0.603-0.039,1.202,0.115,1.71,0.439
	c0.71,0.521,0.92,1.49,1.43,2.211c1.189,1.406,3.159,1.871,4.85,1.141c1.63-0.758,3.049-1.904,4.13-3.34
	c1.075-1.436,2.379-2.682,3.86-3.691c2.11-1.229,4.49-1.76,6.54-3.15c1.71-1.158,2.68-2.84,4.22-4.119s2.84-1.1,4.48-0.25
	C394.1,392.96,394.2,395.041,395.31,397.24z"/>
<path opacity="0.1" enable-background="new    " d="M337.13,441.599c5.878-0.838,11.87-0.359,17.54,1.4
	c1.894,0.438,3.604,1.455,4.89,2.91c0.736,1.1,1.215,2.35,1.4,3.66c1.156,6.023,0.412,12.258-2.13,17.84
	c-0.362,0.564-0.467,1.254-0.29,1.9c0.259,0.4,0.6,0.742,1,1c1.381,1.336,1.418,3.539,0.082,4.92
	c-0.092,0.096-0.189,0.186-0.292,0.27c-0.47,0.34-1.09,0.641-1.18,1.211c-0.09,0.57,0.49,1.119,0.95,1.559
	c1.363,1.336,1.951,3.273,1.56,5.141c-0.248,0.738-0.419,1.498-0.51,2.27c0.1,0.949,0.382,1.869,0.83,2.711
	c0.764,1.902,1.022,3.969,0.75,6c-0.242,0.959-0.266,1.961-0.07,2.93c0.281,0.641,0.658,1.234,1.12,1.76c1.81,2.441,2.2,6.52-0.42,8
	c2.301,1.186,3.598,3.699,3.23,6.26c1.57-0.83,3.47,0.24,4.78,1.441c1.31,1.199,2.64,2.68,4.41,2.77c1.24,0.061,2.55-0.58,3.67-0.07
	c1.72,0.77,1.66,3.561,3.35,4.391c1.48,0.74,3.55-0.461,4.81,0.609c0.44,0.369,0.66,0.939,1.09,1.33
	c0.95,0.881,2.45,0.51,3.75,0.449c3.07-0.119,5.899,2,7.49,4.58c1.59,2.58,2.159,5.73,2.569,8.771c0.338,1.67,0.304,3.395-0.1,5.049
	c-0.435,1.684-1.832,2.943-3.55,3.201c-15.45,1-30.7-2.711-45.75-6.371c-4.42-1.08-8.91-2.34-12.6-5
	c-3.35-2.43-5.81-5.85-8.21-9.209c-4.43-6.211-8.89-12.461-12.06-19.391c-4.08-8.91-5.9-18.67-7.68-28.32
	c-0.614-2.586-0.833-5.248-0.65-7.9c0.539-3.098,1.725-6.049,3.48-8.66c2.118-3.457,4.456-6.773,7-9.93
	C325.26,446.31,331.05,442.47,337.13,441.599z"/>
<path fill="#3F3D56" d="M338.14,440.599c5.882-0.838,11.877-0.357,17.55,1.41c1.895,0.43,3.605,1.443,4.89,2.9
	c0.732,1.102,1.21,2.352,1.4,3.66c1.151,6.023,0.407,12.256-2.13,17.84c-0.362,0.564-0.467,1.254-0.29,1.9c0.258,0.4,0.6,0.742,1,1
	c1.381,1.336,1.418,3.539,0.082,4.92c-0.092,0.096-0.19,0.186-0.292,0.27c-0.47,0.34-1.09,0.641-1.18,1.211s0.49,1.119,1,1.559
	c1.363,1.336,1.951,3.273,1.56,5.141c-0.248,0.738-0.419,1.498-0.51,2.27c0.096,0.949,0.375,1.869,0.82,2.711
	c0.771,1.9,1.034,3.969,0.76,6c-0.632,1.631-0.217,3.484,1.05,4.689c1.81,2.441,2.2,6.52-0.42,8.061c2.302,1.18,3.6,3.689,3.23,6.25
	c1.57-0.83,3.47,0.24,4.78,1.439c1.31,1.201,2.64,2.68,4.41,2.77c1.24,0.061,2.54-0.578,3.67-0.068
	c1.72,0.779,1.66,3.559,3.35,4.398c1.48,0.73,3.55-0.469,4.81,0.602c0.44,0.369,0.66,0.939,1.09,1.33
	c0.95,0.879,2.45,0.51,3.75,0.449c3.07-0.119,5.9,2,7.49,4.58c1.448,2.717,2.322,5.701,2.57,8.77c0.32,1.656,0.286,3.359-0.1,5
	c-0.435,1.684-1.832,2.943-3.551,3.201c-15.45,1-30.7-2.711-45.75-6.371c-4.42-1.08-8.92-2.34-12.6-5
	c-3.35-2.42-5.81-5.85-8.21-9.209c-4.43-6.201-8.89-12.451-12.06-19.381c-4.08-8.92-5.9-18.68-7.68-28.32
	c-0.614-2.588-0.833-5.256-0.65-7.91c0.51-3.096,1.665-6.049,3.39-8.67c2.112-3.457,4.45-6.771,7-9.92
	C326.28,445.291,332.07,441.46,338.14,440.599z"/>
<path fill="#F1F1F1" d="M909.18,264.11c10.911-2.078,18.071-12.606,15.994-23.517c-2.078-10.911-12.606-18.071-23.518-15.993
	c-0.862,0.164-1.713,0.384-2.546,0.66C906.944,236.617,910.512,250.377,909.18,264.11z"/>
<path fill="#F1F1F1" d="M940.37,255.98c10.91-2.078,18.071-12.606,15.993-23.517c-2.077-10.911-12.606-18.071-23.517-15.994
	c-0.862,0.165-1.713,0.385-2.547,0.66C938.135,228.487,941.701,242.248,940.37,255.98z"/>
<path fill="#F1F1F1" d="M909.18,264.11c-10.91,2.078-21.438-5.083-23.517-15.993c-1.888-9.914,3.864-19.691,13.447-22.857
	c-13.905-20.135-38.895-29.458-62.591-23.35c24.143,32.252,35.246,72.417,31.101,112.49
	C890.425,307.668,906.865,287.774,909.18,264.11L909.18,264.11z"/>
<path fill="#F1F1F1" d="M549.37,280.73c-23.004,4.924-40.806,23.171-45.16,46.29c11.104-0.237,20.298,8.572,20.535,19.676
	c0.191,8.94-5.544,16.933-14.075,19.615c13.646,24.396,42.684,35.678,69.22,26.891C555.962,360.869,545.068,320.722,549.37,280.73z"
	/>
<path fill="#F1F1F1" d="M504.23,327.02c-11.11,0.199-19.956,9.368-19.757,20.478c0.199,11.11,9.368,19.956,20.478,19.756
	c1.949-0.035,3.882-0.354,5.739-0.943C504.012,354.37,501.727,340.469,504.23,327.02z"/>
<path fill="#F1F1F1" d="M467.44,335.72c-11.11,0.199-19.956,9.367-19.757,20.478c0.199,11.111,9.368,19.955,20.478,19.755
	c1.949-0.033,3.882-0.352,5.739-0.943C467.228,363.068,464.942,349.169,467.44,335.72z"/>
<path fill="#F1F1F1" d="M775.46,152.6l-32.41,39.71c1.557,2.438,2.924,4.993,4.09,7.64l35.681-43.71
	C780.37,154.91,777.94,153.69,775.46,152.6z"/>
<path fill="#F1F1F1" d="M867.62,314.4c-30.95,8.996-63.334-8.802-72.33-39.752s8.802-63.333,39.752-72.33
	c0.491-0.143,0.983-0.279,1.478-0.409c-12.932-17.192-29.175-31.622-47.77-42.44l8.78,7.17l-45.4,55.62
	c0.725,32.224-24.811,58.933-57.033,59.657c-32.224,0.725-58.933-24.81-59.657-57.033c-0.61-27.163,17.604-51.153,43.931-57.864
	l-3.65-3l21-25.71c-77.063,5.664-139.067,65.594-147.35,142.42c31.496-6.819,62.557,13.186,69.376,44.682
	c6.323,29.207-10.442,58.47-38.836,67.789c52.605,71,152.809,85.912,223.81,33.307C839.813,399.765,863.001,359.082,867.62,314.4z
	 M694.37,420.191c-24.979-20.379-28.707-57.148-8.328-82.127c20.379-24.979,57.148-28.707,82.127-8.328
	c24.978,20.379,28.706,57.149,8.327,82.127c-0.002,0.002-0.004,0.004-0.006,0.008C756.109,436.841,719.346,440.566,694.37,420.191z"
	/>
<path fill="#F1F1F1" d="M729.51,139.27c-3.166-0.42-6.347-0.753-9.54-1l-22.08,27.06c3.099,0.208,6.176,0.666,9.2,1.37
	L729.51,139.27z"/>
<path fill="#F1F1F1" d="M730.98,178.6l26.869-32.92c-2.76-0.9-5.533-1.72-8.319-2.46l-25.07,30.71
	c2.173,1.342,4.257,2.821,6.24,4.43L730.98,178.6z"/>
</svg>
