<?xml version="1.0" encoding="utf-8"?>
<!-- Generator: Adobe Illustrator 16.0.0, SVG Export Plug-In . SVG Version: 6.00 Build 0)  -->
<!DOCTYPE svg PUBLIC "-//W3C//DTD SVG 1.1//EN" "http://www.w3.org/Graphics/SVG/1.1/DTD/svg11.dtd">
<svg version="1.1" id="effd0595-b14c-4c7e-b56f-e463e9379f7d"
	 xmlns="http://www.w3.org/2000/svg" xmlns:xlink="http://www.w3.org/1999/xlink" x="0px" y="0px" width="930px" height="788px"
	 viewBox="0 0 930 788" enable-background="new 0 0 930 788" xml:space="preserve">
<title>process</title>
<circle fill="#F1F1F1" cx="588.166" cy="101.69" r="14.756"/>
<circle fill="#F1F1F1" cx="501.166" cy="672.69" r="14.755"/>
<circle fill="#F1F1F1" cx="134.166" cy="243.69" r="14.756"/>
<rect x="173.233" y="141.603" transform="matrix(-0.9578 -0.2876 0.2876 -0.9578 759.451 823.7728)" fill="#F1F1F1" width="534" height="429"/>
<line fill="none" stroke="#3F3D56" stroke-width="2" stroke-miterlimit="10" x1="451.165" y1="194.106" x2="572.306" y2="243.071"/>
<polygon fill="#3F3D56" points="454.244,204.173 456.058,203.326 451.876,194.395 461.09,190.877 460.374,189.008 449.153,193.295 
	"/>
<polygon fill="#3F3D56" points="563.096,248.171 562.38,246.302 571.593,242.785 567.412,233.853 569.226,233.006 574.316,243.886 
	"/>
<circle fill="#3F3D56" cx="511.735" cy="218.588" r="11"/>
<line fill="none" stroke="#3F3D56" stroke-width="2" stroke-miterlimit="10" x1="441.934" y1="533.563" x2="553.537" y2="465.613"/>
<polygon fill="#3F3D56" points="451.848,537.104 452.251,535.143 442.59,533.166 445.268,523.674 443.341,523.132 440.082,534.693 
	"/>
<polygon fill="#3F3D56" points="552.13,476.046 550.203,475.504 552.882,466.014 543.22,464.035 543.624,462.075 555.391,464.487 
	"/>
<circle fill="#3F3D56" cx="497.735" cy="499.588" r="11"/>
<line fill="none" stroke="#3F3D56" stroke-width="2" stroke-miterlimit="10" x1="301.716" y1="318.257" x2="301.755" y2="448.919"/>
<polygon fill="#3F3D56" points="293.538,324.887 295.003,326.251 301.714,319.025 308.431,326.247 309.895,324.882 301.713,316.088 
	"/>
<polygon fill="#3F3D56" points="293.573,442.295 295.038,440.93 301.753,448.152 308.466,440.926 309.931,442.29 301.754,451.088 
	"/>
<circle fill="#3F3D56" cx="301.735" cy="383.588" r="11"/>
<rect x="209" y="52.213" fill="#3F3D56" width="182" height="226"/>
<path fill="#FF6584" d="M288.621,136.347h-41.304c-2.818-16.294-2.818-32.952,0-49.247h41.304
	C283.968,103.187,283.968,120.262,288.621,136.347z"/>
<path fill="#455878" d="M311.379,161.325h41.304c2.818-16.295,2.818-32.952,0-49.247h-41.304
	C316.032,128.164,316.032,145.239,311.379,161.325z"/>
<path fill="#455878" d="M272.379,243.325h41.304c2.818-16.295,2.818-32.952,0-49.247h-41.304
	C277.032,210.164,277.032,227.239,272.379,243.325z"/>
<rect x="588" y="267.213" fill="#3F3D56" width="182" height="226"/>
<rect x="614" y="315.213" fill="#455878" width="130" height="6"/>
<rect x="614" y="336.213" fill="#455878" width="130" height="6"/>
<rect x="614" y="357.213" fill="#455878" width="130" height="6"/>
<rect x="614" y="378.213" fill="#455878" width="130" height="6"/>
<rect x="614" y="399.213" fill="#455878" width="130" height="6"/>
<rect x="645" y="421.213" fill="#455878" width="68" height="24"/>
<rect x="225" y="499.213" fill="#3F3D56" width="182" height="226"/>
<rect x="251.297" y="625.019" fill="#455878" width="130" height="6"/>
<rect x="251.297" y="646.019" fill="#455878" width="130" height="6"/>
<rect x="251.297" y="667.019" fill="#455878" width="130" height="6"/>
<rect x="251.297" y="688.019" fill="#455878" width="130" height="6"/>
<path opacity="0.3" fill="#455878" enable-background="new    " d="M291.121,579.653h-41.304c-2.818-16.294-2.818-32.952,0-49.247
	h41.304C286.468,546.492,286.468,563.567,291.121,579.653z"/>
<rect x="308.297" y="535.019" opacity="0.3" fill="#455878" enable-background="new    " width="76" height="5"/>
<rect x="308.297" y="553.019" opacity="0.3" fill="#455878" enable-background="new    " width="76" height="5"/>
<rect x="308.297" y="571.019" opacity="0.3" fill="#455878" enable-background="new    " width="76" height="5"/>
<rect x="308.297" y="589.019" opacity="0.3" fill="#455878" enable-background="new    " width="76" height="5"/>
</svg>
