<?xml version="1.0" encoding="iso-8859-1"?>
<!-- Generator: Adobe Illustrator 19.1.0, SVG Export Plug-In . SVG Version: 6.00 Build 0)  -->
<svg version="1.1" id="Capa_1" xmlns="http://www.w3.org/2000/svg" xmlns:xlink="http://www.w3.org/1999/xlink" x="0px" y="0px"
	 viewBox="0 0 489.5 489.5" style="enable-background:new 0 0 489.5 489.5;" xml:space="preserve">
<g>
	<g>
		<path d="M315.6,145.98l38.7,24.5c3.3,2.1,7.4-0.5,7.4-4.7v-15.3h23.7c4.9,0,8.9,4,8.9,8.9v62.1c0,5.1,4.1,9.2,9.2,9.2
			s9.2-4.1,9.2-9.2v-62.1c0-15-12.2-27.3-27.3-27.3h-23.7v-15.3c0-4.2-4.1-6.8-7.4-4.7l-38.7,24.5
			C312.3,138.68,312.3,143.88,315.6,145.98z"/>
		<path d="M78.7,229.08c2.1,3.3,7.3,3.3,9.4,0l24.5-38.7c2.1-3.3-0.5-7.4-4.7-7.4H92.6v-23.7c0-4.9,4-8.9,8.9-8.9h47.8
			c5.1,0,9.2-4.1,9.2-9.2c0-5.1-4.1-9.2-9.2-9.2h-47.8c-15,0-27.3,12.2-27.3,27.3v23.7H58.9c-4.2,0-6.8,4.1-4.7,7.4L78.7,229.08z"/>
		<path d="M294.7,392.08l-38.7-24.5c-3.3-2.1-7.4,0.5-7.4,4.7v15.3h-49.2c-5.1,0-9.2,4.1-9.2,9.2s4.1,9.2,9.2,9.2h49.2v15.3
			c0,4.2,4.1,6.8,7.4,4.7l38.7-24.5C298,399.48,298,394.18,294.7,392.08z"/>
		<path d="M234.8,229.68h4.4h84.4c-0.5-35.1,1-53.9-21.8-62.1c-20.7-7.9-33-16-33-16l-15.9,50.4l-2.2,6.8l-7.1-20.2
			c16.4-22.9-1.2-24-4.3-24l0,0c0,0,0,0-0.1,0l0,0l0,0c0,0,0,0-0.1,0l0,0c-3.1,0-20.7,1.1-4.3,24l-7.1,20.2l-2.2-6.8l-15.9-50.4
			c0,0-12.4,8.1-33,16c-22.8,8.3-21.4,27-21.8,62.1H234.8z"/>
		<path d="M203.6,119.68c1.8,11.8,10.9,26.9,26,32.2c6.1,2.2,12.9,2.2,19,0c14.8-5.3,24.2-20.3,26-32.1c2-0.2,4.6-2.9,7.4-12.9
			c3.9-13.6-0.2-15.6-3.7-15.3c0.7-1.9,1.2-3.7,1.5-5.6c5.9-35.2-11.5-36.5-11.5-36.5s-2.9-5.5-10.5-9.7c-5.1-3-12.1-5.3-21.5-4.5
			c-3,0.1-5.9,0.7-8.6,1.6l0,0c-3.4,1.2-6.6,2.8-9.4,4.8c-3.5,2.2-6.8,4.9-9.7,8c-4.6,4.7-8.7,10.8-10.5,18.3
			c-1.5,5.7-1.2,11.6,0.1,17.9l0,0c0.3,1.9,0.8,3.7,1.5,5.6c-3.5-0.3-7.6,1.7-3.7,15.3C199,116.68,201.6,119.48,203.6,119.68z"/>
		<path d="M467.7,392.28c-20.7-7.9-33-16-33-16l-16,50.4l-2.2,6.8l-7.1-20.2c16.4-22.9-1.2-24-4.3-24l0,0c0,0,0,0-0.1,0l0,0l0,0
			c0,0,0,0-0.1,0l0,0c-3.1,0-20.7,1.1-4.3,24l-7.1,20.2l-2.2-6.8l-15.9-50.4c0,0-12.4,8.1-33,16c-22.8,8.3-21.4,27-21.8,62.1h80.1
			h4.4h84.4C489,419.28,490.4,400.58,467.7,392.28z"/>
		<path d="M402.3,259.78c-3,0.1-5.9,0.7-8.6,1.6l0,0c-3.4,1.2-6.6,2.8-9.4,4.8c-3.5,2.2-6.8,4.9-9.7,8c-4.6,4.7-8.7,10.8-10.5,18.3
			c-1.5,5.7-1.2,11.6,0.1,17.9l0,0c0.3,1.9,0.8,3.7,1.5,5.6c-3.5-0.3-7.6,1.7-3.7,15.3c2.8,9.9,5.4,12.7,7.4,12.9
			c1.8,11.8,10.9,26.9,26,32.2c6.1,2.2,12.9,2.2,19,0c14.8-5.3,24.2-20.3,26-32.1c2-0.2,4.6-2.9,7.4-12.9
			c3.9-13.6-0.2-15.6-3.7-15.3c0.7-1.9,1.2-3.7,1.5-5.6c5.9-35.2-11.5-36.5-11.5-36.5s-2.9-5.5-10.5-9.7
			C418.7,261.38,411.6,258.98,402.3,259.78z"/>
		<path d="M147.1,392.28c-20.7-7.9-33-16-33-16l-16,50.4l-2.2,6.8l-7.1-20.2c16.4-22.9-1.2-24-4.3-24l0,0c0,0,0,0-0.1,0l0,0l0,0
			c0,0,0,0-0.1,0l0,0c-3.1,0-20.7,1.1-4.3,24l-7.1,20.2l-2.2-6.8l-15.9-50.4c0,0-12.4,8.1-33,16c-22.8,8.3-21.4,27-21.8,62.1h80.2
			h4.4H169C168.5,419.28,169.9,400.58,147.1,392.28z"/>
		<path d="M48.9,344.38c1.8,11.8,10.9,26.9,26,32.2c6.1,2.2,12.9,2.2,19,0c14.8-5.3,24.2-20.3,26-32.1c2-0.2,4.6-2.9,7.4-12.9
			c3.9-13.6-0.2-15.6-3.7-15.3c0.7-1.9,1.2-3.7,1.5-5.6c5.9-35.2-11.5-36.5-11.5-36.5s-2.9-5.5-10.5-9.7c-5.1-3-12.1-5.3-21.5-4.5
			c-3,0.1-5.9,0.7-8.6,1.6l0,0c-3.4,1.2-6.6,2.8-9.4,4.8c-3.5,2.2-6.8,4.9-9.7,8c-4.6,4.7-8.7,10.8-10.5,18.3
			c-1.5,5.7-1.2,11.6,0.1,17.9l0,0c0.3,1.9,0.8,3.7,1.5,5.6c-3.5-0.3-7.6,1.7-3.7,15.3C44.3,341.38,46.9,344.18,48.9,344.38z"/>
	</g>
</g>
<g>
</g>
<g>
</g>
<g>
</g>
<g>
</g>
<g>
</g>
<g>
</g>
<g>
</g>
<g>
</g>
<g>
</g>
<g>
</g>
<g>
</g>
<g>
</g>
<g>
</g>
<g>
</g>
<g>
</g>
</svg>
