<?xml version="1.0" encoding="utf-8"?>
<!-- Generator: Adobe Illustrator 16.0.0, SVG Export Plug-In . SVG Version: 6.00 Build 0)  -->
<!DOCTYPE svg PUBLIC "-//W3C//DTD SVG 1.1//EN" "http://www.w3.org/Graphics/SVG/1.1/DTD/svg11.dtd">
<svg version="1.1" xmlns="http://www.w3.org/2000/svg" xmlns:xlink="http://www.w3.org/1999/xlink" x="0px" y="0px"
	 width="624.25px" height="624.25px" viewBox="312.625 73.875 624.25 624.25" enable-background="new 312.625 73.875 624.25 624.25"
	 xml:space="preserve">
<g id="Layer_2">
	<rect fill="none" width="1280" height="800"/>
</g>
<g id="Laag_1">
	<g>
		<path d="M697.695,417.849c-1.027-1.712-0.686-4.109,1.026-4.794c17.467-9.589,25.686-27.74,25.686-46.919
			c0-29.109-17.466-53.767-54.794-53.767H540.16v0.342c37.671,4.11,66.781,35.274,66.781,73.288
			c0,37.672-29.452,69.179-66.781,73.288v0.343h90.411c2.397,0,4.452-2.055,4.452-4.452v-31.165c0-2.054,1.712-3.767,3.768-3.767
			h11.644c2.397,0,4.794,1.027,6.164,3.082l22.946,32.534c1.712,2.397,4.451,3.768,7.19,3.768h35.96
			c1.712,0,3.082-2.055,1.712-3.768L697.695,417.849z M667.215,385.656h-28.424c-2.056,0-3.768-1.712-3.768-3.767v-31.507
			c0-2.055,1.712-3.768,3.768-3.768h28.424c15.069,0,20.549,8.562,20.549,19.863C688.106,376.41,682.284,385.656,667.215,385.656z"
			/>
		<path d="M886.052,312.369h-28.768c-2.739,0-5.137,1.712-6.507,4.109l-38.698,76.713c-0.685,1.369-2.74,1.369-3.425,0
			l-38.699-76.713c-1.37-2.397-4.109-4.109-6.507-4.109h-28.767c-2.397,0-4.452,2.055-4.452,4.452v137.672
			c0,2.396,2.055,4.452,4.452,4.452h28.425c2.397,0,4.452-2.056,4.452-4.452v-66.781c0-1.027,1.369-1.37,1.712-0.343l26.712,53.767
			c1.37,2.397,4.11,4.11,6.507,4.11h15.754c2.739,0,5.138-1.713,6.507-4.11l26.713-53.767c0.342-1.027,1.712-0.685,1.712,0.343
			v67.124c0,2.396,2.055,4.451,4.452,4.451h28.425c2.397,0,4.452-2.055,4.452-4.451V316.821
			C890.504,314.424,888.449,312.369,886.052,312.369z"/>
		<path d="M570.297,385.656c0-21.575-16.78-38.698-38.698-38.698c-21.232,0-38.699,17.123-38.699,38.698
			c0,21.576,17.124,38.699,38.699,38.699C553.517,424.355,570.297,407.232,570.297,385.656z"/>
		<path d="M363.447,312.369c-2.397,0-4.452,2.055-4.452,4.452v137.672c0,2.396,2.055,4.452,4.452,4.452h28.425
			c2.397,0,4.452-2.056,4.452-4.452v-41.781c0-2.055,1.712-3.768,3.767-3.768h51.712c2.397,0,4.452-2.055,4.452-4.452v-25
			c0-2.396-2.055-4.452-4.452-4.452h-51.712c-2.055,0-3.767-1.712-3.767-3.768V352.78c0-2.055,1.712-3.768,3.767-3.768h65.069
			c1.027,0,2.055-0.685,2.397-1.37c11.986-18.835,32.534-32.191,55.821-34.931v-0.342H363.447z"/>
	</g>
</g>
</svg>
